<svg xmlns="http://www.w3.org/2000/svg" width="500" height="106.704"><path fill="#B6956A" d="M310.164 38.058l5.092 47.401h12.869l11.571-80.636h-12.775l-5.184 46.012h-.647l-5.276-46.012h-11.389l-5.554 46.012h-.648l-4.907-46.012h-13.424l11.572 80.636h12.868l5.185-47.401h.647zm-272.919 0l5.092 47.401h12.868L66.777 4.823H54.001l-5.184 46.012h-.648L42.892 4.823H31.504L25.95 50.834h-.648L20.395 4.823H6.971l11.572 80.636h12.869l5.184-47.401h.649zm64.064 46.196h11.572V50.741c0-7.684 1.944-10.832 4.722-10.832 3.519 0 3.519 4.445 3.519 10.462v33.883h11.572V50.741c0-7.684 1.944-10.832 4.721-10.832 3.519 0 3.519 4.445 3.519 10.462v33.883h11.572V48.797c0-12.591-1.574-20.83-10.832-20.83-5.833 0-8.239 2.87-9.998 7.313h-.371c-1.389-4.536-3.981-7.313-8.887-7.313-5.462 0-7.869 2.87-9.536 7.035h-.37V29.17H101.31v55.084zM63.537 56.667c0 19.164 4.907 28.792 17.404 28.792 12.498 0 17.405-9.628 17.405-28.792s-4.907-28.699-17.405-28.699c-12.498 0-17.404 9.534-17.404 28.699m345.687 27.587h11.571V68.61l2.685-4.908 6.389 20.552h12.498l-11.573-33.976 11.573-21.107h-12.313l-9.259 19.626V13.062h-11.571v71.192zM394.873 66.11c0 5.092-1.388 9.165-4.722 9.165-4.258 0-6.017-6.203-6.017-15.09h22.033c0-1.481.092-3.333.092-4.721 0-16.109-2.869-27.496-16.571-27.496-12.59 0-17.313 12.405-17.313 28.791 0 19.072 5.741 28.7 17.313 28.7 9.258 0 15.09-5.647 16.295-17.313l-11.11-2.036zm-216.725 0c0 5.092-1.389 9.165-4.721 9.165-4.259 0-6.018-6.203-6.018-15.09h22.033c0-1.481.093-3.333.093-4.721 0-16.109-2.87-27.496-16.571-27.496-12.591 0-17.313 12.405-17.313 28.791 0 19.072 5.74 28.7 17.313 28.7 9.257 0 15.09-5.647 16.293-17.313l-11.109-2.036zm180.436 0c0 5.092-1.39 9.165-4.724 9.165-4.257 0-6.017-6.203-6.017-15.09h22.033c0-1.481.093-3.333.093-4.721 0-16.109-2.869-27.496-16.572-27.496-12.59 0-17.312 12.405-17.312 28.791 0 19.072 5.739 28.7 17.312 28.7 9.259 0 15.092-5.647 16.296-17.313l-11.109-2.036zm97.947-36.939l11.479 53.047c.463 2.036.833 3.979.833 5.461 0 3.796-2.037 5.463-5.647 5.463-1.389 0-3.147-.184-3.889-.463l-1.943 10.091c2.406.463 4.259.556 6.018.556 10.368 0 14.071-5.276 16.016-13.979l13.424-60.175H480.88l-4.073 24.348c-.557 3.333-1.297 6.851-1.667 10.091h-.646c-.279-3.147-.926-6.573-1.39-9.906l-3.703-24.533h-12.87zM224.53 49.445c0-12.591-1.573-21.478-10.646-21.478-5.833 0-8.146 2.87-9.905 7.313h-.371v-6.11h-11.202v55.083h11.573V50.741c0-7.684 2.036-10.832 5.184-10.832 3.796 0 3.796 4.445 3.796 10.462v33.883h11.572V49.445zm39.716-6.11c-.278-9.813-4.258-15.367-14.072-15.367-8.054 0-15.368 4.535-15.368 14.998 0 9.442 5.832 13.608 11.016 17.404 4.074 3.055 7.776 5.833 7.776 10.554 0 2.408-1.203 4.629-3.98 4.629-4.074 0-4.722-3.981-4.814-8.518l-10.924 1.853c.278 10.646 5.462 16.571 15.184 16.571 8.053 0 15.738-3.796 15.738-15.368 0-9.166-6.018-13.701-11.203-17.683-3.703-2.962-7.498-6.11-7.498-10.091 0-2.314 1.296-4.443 3.795-4.443 3.611 0 3.611 4.907 3.703 7.406l10.647-1.945zm179.14 40.919h11.571V13.062h-11.571v71.192zM75.479 56.667c0-13.332 1.204-18.423 5.462-18.423 4.259 0 5.463 5.091 5.463 18.423 0 13.331-1.204 18.516-5.463 18.516-4.258-.001-5.462-5.185-5.462-18.516m150.532-43.512v10.369h4.537c-.093 3.332-1.667 4.813-4.537 4.906v6.018c9.166-.278 11.572-7.221 11.572-14.72v-6.572h-11.572zm-58.51 38.235c.186-5.277.833-13.239 5.555-13.239 4.444 0 4.722 7.684 4.722 13.239h-10.277zm216.727 0c.185-5.277.834-13.239 5.556-13.239 4.442 0 4.721 7.684 4.721 13.239h-10.277zm-36.291 0c.185-5.277.833-13.239 5.555-13.239 4.443 0 4.721 7.684 4.721 13.239h-10.276zM80.386 15.007v8.146h-2.315v-8.146h-3.055v-1.852h8.518v1.852h-3.148zm11.942 8.146v-3.981H88.07v3.981h-2.315v-9.998h2.315v4.166h4.258v-4.166h2.315v9.998h-2.315zm5.37 0v-9.998h7.314v1.852h-5v2.314h4.536v1.851h-4.536v2.129h5.185v1.852h-7.499zm19.904 0l-.648-1.852v.092h-3.888v-.092l-.648 1.852h-2.315l3.889-9.998h2.222l3.889 9.998h-2.501zm-2.592-7.128l-1.296 3.61h2.685l-1.389-3.61zm10.739 7.313c-2.87 0-4.166-1.574-4.166-3.425v-6.758h2.314v6.665c0 .926.555 1.573 1.852 1.573s1.944-.647 1.944-1.573v-6.665h2.222v6.758c0 1.852-1.296 3.425-4.166 3.425m10.554 0c-1.481 0-2.685-.277-3.981-.925l.741-1.76c.833.371 1.666.833 3.147.833 1.296 0 2.222-.463 2.222-1.296 0-.926-.833-1.018-2.129-1.204-.37 0-.647-.092-1.018-.092-1.574-.278-2.592-1.019-2.592-2.685 0-2.038 1.759-3.148 3.981-3.148 1.389 0 2.592.185 3.703.833l-.833 1.666c-1.019-.463-1.759-.648-2.777-.648-1.111 0-1.852.463-1.852 1.111 0 .833 1.019.925 2.128 1.11.186 0 .648.093.833.093 1.852.371 2.777 1.111 2.777 2.87.001 2.131-1.85 3.242-4.35 3.242m11.109-8.331v8.146h-2.314v-8.146h-3.055v-1.852h8.424v1.852h-3.055zm11.017 8.146l-1.852-3.703h-1.481v3.703h-2.314v-9.998h4.629c2.777 0 3.425 1.48 3.425 2.87v.648c0 1.204-.741 2.129-1.944 2.5l2.129 3.981h-2.592zm.186-7.128c0-.556-.463-1.018-1.574-1.018h-1.944v2.684h1.852c1.111 0 1.667-.369 1.667-1.11v-.556zm11.2 7.128l-.647-1.852v.092h-3.889v-.092l-.648 1.852h-2.314l3.888-9.998h2.222l3.888 9.998h-2.5zm-2.59-7.128l-1.297 3.61h2.685l-1.388-3.61zm7.035 7.128v-9.998h2.314v8.146h4.814v1.852h-7.128zm9.443-9.998h2.314v9.998h-2.314v-9.998zm11.85 9.998l-.741-1.852v.092h-3.888v-.092l-.648 1.852h-2.314l3.888-9.998h2.315l3.795 9.998h-2.407zm-2.684-7.128l-1.297 3.61h2.685l-1.388-3.61zm13.701 7.128l-4.536-6.11v6.11h-2.13v-9.998h2.13l4.536 6.202v-6.202h2.037v9.998h-2.037z"/></svg>