<svg id="Layer_1" data-name="Layer 1" xmlns="http://www.w3.org/2000/svg" viewBox="0 0 64.65 29.06"><defs><style>.cls-1{fill:#272525;}.cls-2{fill:none;}</style></defs><title>food-magazine-logo</title><path class="cls-1" d="M5.13,11.58H9c0-1.39-.14-2.79-.14-4.67,0-4.23,2.84-5.38,6.14-5.38a16,16,0,0,1,2.79.29l-.18,4.51H17l-1.1-2.66c-.46-1-.92-1.27-1.42-1.27-1.28,0-2,1.18-2,3v6.19h4.35v1.11H12.5V25.85c0,1.72.14,2.71,1.1,3l3.53,1.06v.58c-2.11-.17-4.13-.33-6.19-.33s-3.89.16-5.81.33v-.58l2.79-1c.69-.25,1.1-.86,1.1-3.45V12.69H5.13Z" transform="translate(-5.13 -1.53)"/><path class="cls-1" d="M50.55,20.48c0-5.21-3.28-9-8.31-9-5.39,0-9,4.15-9,9.68s3.35,9.45,8.49,9.45c5.77,0,8.79-5.14,8.79-10.12m-13.93,0c0-4.54,1.45-8.19,5.21-8.19,4.1,0,5.37,5.57,5.37,9s-1,8.46-5,8.46c-3.68,0-5.62-4.11-5.62-9.29" transform="translate(-5.13 -1.53)"/><path class="cls-1" d="M51.31,21.86c0,5.37,3.16,8.74,6.81,8.74a6.09,6.09,0,0,0,5.81-3.37H64c0,.94,0,1.95-.12,3a23.68,23.68,0,0,1,3.24-.31,16,16,0,0,1,2.65.31v-.54L67.58,29c-.74-.24-.86-.94-.86-1.57V10.53c0-2.67.15-5.33.23-8a51.66,51.66,0,0,1-6.11.31v.55l2.2.75a.88.88,0,0,1,.59.43,17.13,17.13,0,0,1,.26,3.33L64,13a8.19,8.19,0,0,0-4.73-1.53c-4.32,0-7.93,4.58-7.93,10.39m12.58-.44c0,4.86-1,7.65-4.54,7.65-2.38,0-4.91-3.1-4.91-9,0-5.49,2.75-7.52,4.58-7.52,3.53,0,4.87,3.48,4.87,8.89" transform="translate(-5.13 -1.53)"/><path class="cls-1" d="M32.51,20.48c0-5.21-3.28-9-8.3-9-5.4,0-9,4.15-9,9.68s3.35,9.45,8.49,9.45c5.77,0,8.79-5.14,8.79-10.12m-13.93,0c0-4.54,1.46-8.19,5.22-8.19,4.09,0,5.36,5.57,5.36,9s-1,8.46-4.95,8.46c-3.69,0-5.63-4.11-5.63-9.29" transform="translate(-5.13 -1.53)"/><rect class="cls-2" width="64.65" height="29.06"/><path class="cls-1" d="M21,7.56l-.13-.11v1h-.48V6.4h0l1,.92,1-.92h0V8.5h-.48v-1l-.13.11c-.13.12-.25.25-.37.37Z" transform="translate(-5.13 -1.53)"/><path class="cls-1" d="M23.75,6.4h0l1,2.1h-.53l-.14-.32h-.67l-.13.32h-.53ZM24,7.83c-.07-.16-.15-.37-.19-.5l-.19.5Z" transform="translate(-5.13 -1.53)"/><path class="cls-1" d="M25.15,8.5V6.43h.66a1,1,0,1,1,0,2.07Zm.5-1.63V8.06h.16a.6.6,0,1,0,0-1.19Z" transform="translate(-5.13 -1.53)"/><path class="cls-1" d="M27.43,8.5V6.43h1.3v.44h-.8v.37h.69v.42h-.69v.4h.84V8.5Z" transform="translate(-5.13 -1.53)"/><path class="cls-1" d="M31.48,7.88c0,.43-.33.62-.81.62H30V6.43h.66c.44,0,.78.18.78.59a.42.42,0,0,1-.25.39A.5.5,0,0,1,31.48,7.88Zm-.83-.61a.27.27,0,0,0,.15,0,.17.17,0,0,0,.09-.17c0-.16-.1-.22-.24-.22h-.21v.42Zm-.21.81h.26A.23.23,0,0,0,31,7.85a.23.23,0,0,0-.25-.23h-.27Z" transform="translate(-5.13 -1.53)"/><path class="cls-1" d="M32.26,6.43l.4.77.41-.77h.57l-.72,1.28V8.5h-.51V7.71l-.72-1.28Z" transform="translate(-5.13 -1.53)"/><path class="cls-1" d="M35.17,7.34l.68-.91h.59l-.68.87.14.38c.31.86.7,1.12,1.2,1.12a2.13,2.13,0,0,0,.44-.05v.44a1,1,0,0,1-.44.08c-.7,0-1.24-.34-1.61-1.35l-.1-.25-.22.27V8.5h-.51V6.43h.51Z" transform="translate(-5.13 -1.53)"/><path class="cls-1" d="M36.68,8.5V6.43h.51V8.5Z" transform="translate(-5.13 -1.53)"/><path class="cls-1" d="M38.15,6.43l.24.62a3.87,3.87,0,0,1,.16.42s.07-.19.11-.27L38.75,7,39,6.43h0c.16.35.36.77.45,1,0-.09.31-.81.4-1h.57l-.94,2.1h0L39.1,7.7,39,7.49a2,2,0,0,1-.1.21l-.37.83h0l-.94-2.1Z" transform="translate(-5.13 -1.53)"/><path class="cls-1" d="M40.83,8.5V6.43h.5V8.5Z" transform="translate(-5.13 -1.53)"/><path class="cls-1" d="M41.87,8.43V7.92a1.09,1.09,0,0,0,.46.15h.16c.16,0,.26-.05.26-.14s-.13-.16-.37-.26-.55-.28-.55-.66.3-.63.75-.63a1.56,1.56,0,0,1,.53.1V7a.91.91,0,0,0-.49-.13c-.18,0-.29.07-.29.17s.11.16.34.26.57.29.57.66-.28.61-.77.61A1.46,1.46,0,0,1,41.87,8.43Z" transform="translate(-5.13 -1.53)"/><path class="cls-1" d="M44.91,6.87v.4h.62V7.7h-.62v.8h-.5V6.43h1.23v.44Z" transform="translate(-5.13 -1.53)"/><path class="cls-1" d="M47.06,6.38a1.05,1.05,0,0,1,1,1.08,1.05,1.05,0,1,1-2.1,0A1.05,1.05,0,0,1,47.06,6.38Zm0,1.68a.56.56,0,0,0,.54-.6.54.54,0,1,0-1.08,0A.56.56,0,0,0,47.06,8.06Z" transform="translate(-5.13 -1.53)"/><path class="cls-1" d="M49.32,6.43c.48,0,.81.23.81.7a.62.62,0,0,1-.37.6l.4.77h-.52l-.32-.68h-.23V8.5H48.6V6.43Zm-.23.44V7.4h.26a.25.25,0,0,0,.27-.27.24.24,0,0,0-.27-.26Z" transform="translate(-5.13 -1.53)"/><path class="cls-1" d="M51.85,7.34l.68-.91h.59l-.68.87.14.38c.31.86.7,1.12,1.2,1.12a2.13,2.13,0,0,0,.44-.05v.44a1,1,0,0,1-.44.08c-.7,0-1.24-.34-1.61-1.35l-.1-.25-.22.27V8.5h-.51V6.43h.51Z" transform="translate(-5.13 -1.53)"/><path class="cls-1" d="M53.36,8.5V6.43h.51V8.5Z" transform="translate(-5.13 -1.53)"/><path class="cls-1" d="M54.83,6.43l.24.62a2.4,2.4,0,0,1,.15.42s.08-.19.12-.27L55.43,7l.25-.55h0c.16.35.36.77.45,1,0-.09.31-.81.4-1h.57l-.94,2.1h0l-.37-.83-.09-.21a2,2,0,0,1-.1.21l-.37.83h0l-.94-2.1Z" transform="translate(-5.13 -1.53)"/><path class="cls-1" d="M57.51,8.5V6.43H58V8.5Z" transform="translate(-5.13 -1.53)"/><path class="cls-1" d="M58.54,8.43V7.92a1.18,1.18,0,0,0,.47.15h.16c.16,0,.25-.05.25-.14s-.12-.16-.36-.26-.55-.28-.55-.66.3-.63.75-.63a1.56,1.56,0,0,1,.53.1V7a.91.91,0,0,0-.49-.13c-.18,0-.29.07-.29.17s.11.16.34.26.57.29.57.66-.28.61-.77.61A1.55,1.55,0,0,1,58.54,8.43Z" transform="translate(-5.13 -1.53)"/></svg>