<svg xmlns="http://www.w3.org/2000/svg" viewBox="-.083 0 79 24"><path fill="none" d="M0 .52083h41.14583v12.5H0z"/><g class="currentLayer"><path fill-rule="evenodd" d="M65.14075 13.55422c-.05153.04948-.09369.13382-.09369.18742 0 .0536-.03513.09746-.07807.09746s-.07807.10121-.07807.22491c0 .32705-.12785.27551-.1862-.07497l-.04978-.29987h-.47312c-.76432 0-.88006.22865-.81878 1.61913.09252 2.10138.13526 2.65409.20553 2.65409.0402 0 .07319.06747.07319.14993 0 .08247-.03513.14994-.07807.14994s-.07807.08434-.07807.18742-.03514.18742-.07808.18742-.07807.0448-.07807.09953c0 .1297-1.08852 1.17494-1.22359 1.17494-.05699 0-.10364.03374-.10364.07497 0 .04124-.07026.07497-.15614.07497-.17762 0-.2022-.11133-.05856-.2652.16962-.18143.28223-.29425.38666-.38721.32146-.28601.4696-.61063.51254-1.12285.05153-.617-.0205-.6987-.61599-.6987-.25237 0-.45887.0298-.45887.06615 0 .03655-.0728.08453-.162.10702-.089.0223-.18093.11058-.20416.19604-.02342.08565-.06929.15556-.10227.15556-.03299 0-.08803.0759-.12258.16868-.04645.1252-.06987.04798-.09075-.29987-.02792-.46275-.03123-.46856-.25881-.46856-.15283 0-.23051.03786-.23051.11246 0 .06185-.03514.11245-.07807.11245-.04294 0-.07808.1012-.07808.2249 0 .12933.04138.22547.0976.22604.07455.00093.07553.01462.0039.05828-.05348.03262-.10364.27608-.11711.5679l-.02342.51072-.1704-.14244c-.09388-.07835-.1942-.23316-.22328-.3441-.02889-.11096-.08393-.20168-.12219-.20168-.03845 0-.07085-.04217-.07221-.0937-.01152-.41177-.62204-.57745-.62204-.16869 0 .14432-.0324.2624-.07183.2624-.03962 0-.09642.21928-.12628.4873-.02986.268-.0853.48729-.12336.48729-.03786 0-.0689.0654-.0689.14544 0 .08003-.03064.1638-.06811.18592-.09427.05604-.16415-.40895-.16532-1.0998-.0004-.33679-.03357-.581-.07885-.581-.04333 0-.07808-.19998-.07808-.44981 0-.48093-.21762-.62637-.51313-.3428-.11984.11527-.15438.68334-.04547.748.0363.02156.08998.46912.11925.99465.02928.52535.08198.97366.11711.99596.03513.0223.08471.16756.11028.32256.08295.50528.6925.74612.80453.31786.02694-.10308.0769-.18742.11126-.18742.03415 0 .08646-.16868.11593-.37484.02948-.20617.0855-.37485.12453-.37485.03884 0 .07065-.08078.07065-.17936 0-.09877.0527-.19885.11711-.22266.06558-.02417.11711-.00187.11711.05042 0 .05154.07027.14225.15614.20167.08588.0594.15615.15125.15615.20391 0 .05285.0527.09596.1171.09596.06442 0 .11712.03374.11712.07497 0 .14581.37826.07965.4294-.07497.02732-.08246.08236-.14994.12237-.14994.04001 0 .0728-.08434.0728-.18742s.03514-.18742.07808-.18742.07807.1044.07807.23203c0 .8492 1.28136 1.1504 1.92409.45243.2104-.22865.29394-.3128.43389-.43725.05562-.04948.14345-.13382.19518-.18742.23382-.24234.33551-.29557.33551-.17524 0 .06353.03513.11545.07807.11545s.07808.16868.07808.37484c0 .20617.03064.37485.06811.37485.03748 0 .0849.16755.1054.3724.04528.45244.1622.6022.4698.6022h.23383L64.6971 20.68c-.03064-.31955-.08744-.59225-.12628-.60593-.03865-.01387-.07027-.15444-.07027-.31243 0-.158-.03903-.29988-.08666-.31506-.12842-.04123-.1378-1.79963-.00975-1.84067.05308-.01706.09641-.12726.09641-.24515 0-.1177.0324-.23334.07183-.25677.03962-.02361.09681-.37971.12726-.79167.07944-1.07617.19128-.9223.19128.26314 0 .62468.02986 1.01208.07807 1.01208.04294 0 .07807.15181.07807.33736s-.03513.33736-.07807.33736-.07807.08434-.07807.18742-.03514.18742-.07808.18742c-.10383 0-.10071.50248.00352.56433.0447.02662.13252.0075.19518-.04236.09154-.0729.1136-.0669.1136.03112 0 .0669.03512.12163.07806.12163.04294 0 .07808.13495.07808.29988s.03005.29987.06675.29987.08744.23672.11262.5259c.04938.56415.13838.7094.48697.79337l.21665.05229-.05504-.70452c-.03025-.38759-.08841-.71577-.1292-.72945-.0408-.01387-.07418-.18817-.07418-.3874 0-.19923-.03786-.37447-.08392-.38927-.12453-.03974-.13624-1.2771-.0125-1.31664.05466-.01743.09642-.158.09642-.32443 0-.16156.0328-.2937.0728-.2937.04021 0 .08764-.09276.1054-.20615.01796-.1134.03787-.01219.04431.2249.00644.23709.04684.43107.08978.43107.04333 0 .07808.19998.07808.44981 0 .2474.03083.44982.0687.44982.03786 0 .09408.36266.12511.80591.03103.44325.09232.84809.13604.89963.11535.13569.52894.12107.52894-.01875 0-.0624.06949-.11245.15615-.11245.08587 0 .15614-.02999.15614-.0669 0-.03674.09017-.08847.20065-.11509.2063-.04966.65814-.44137.65814-.57032 0-.03973.03123-.07235.0693-.07235.03825 0 .0925-.11807.12081-.26239.07593-.38946.20026-.31768.20026.11564 0 .4099.03806.47587.50454.8777.1298.1117 1.0569.1282 1.0569.01874 0-.04123.0449-.07497.09993-.07497.09994 0 .60272-.46818.60272-.56114 0-.05847.20514-.26351.26369-.26351.02225 0 .05114.17711.06402.39358l.02362.39359.34137.02343.34156.02361-.0566-.43594c-.03123-.23971-.08432-.45263-.11828-.47324-.03376-.02062-.08705-.43445-.11847-.9195-.03143-.48523-.08803-.90037-.1257-.92286-.03786-.0223-.0687-.12314-.0687-.22378 0-.15519-.03728-.18292-.24613-.18292h-.24612l.04802.86176c.03981.71277.0279.87807-.06851.95585-.06422.05173-.2635.22903-.44306.39396-.3648.3353-.62966.4873-.84884.4873-.20826 0-.1903-.03467.20123-.38834.19167-.17317.37006-.4097.3966-.52553.02635-.11582.08042-.21066.12004-.21066.03943 0 .07183-.08434.07183-.18742s.03513-.18742.07807-.18742.07807-.13738.07807-.30531c0-.29444-.13292-.51935-.30663-.51935-.04606 0-.08373-.03374-.08373-.07497 0-.04123-.14053-.07497-.31229-.07497-.17176 0-.31229.03374-.31229.07497 0 .04123-.0527.07497-.1171.07497-.2557 0-.66362.54015-.66362.87882 0 .13513-.03513.24571-.07807.24571-.04411 0-.07807-.21235-.07807-.4873 0-.27494-.03397-.4873-.07808-.4873-.04294 0-.07807-.06746-.07807-.14993 0-.13176-.05211-.14994-.4294-.14994-.23616 0-.4294.03374-.4294.07497 0 .04123-.04079.07497-.09056.07497-.13604 0-.53401.45693-.53401.61324 0 .0834-.0568.13645-.1462.13645-.13076 0-.15165-.0879-.20025-.8434-.05543-.86064-.16122-1.25573-.3363-1.25573-.073 0-.09797-.22022-.09797-.86214 0-.52478-.03065-.86214-.07808-.86214-.04294 0-.07807-.07684-.07807-.17074 0-.3488-.73095-.59675-.99932-.33905m.53089.69721c0 .10308.03513.18742.07807.18742s.07807.16868.07807.37485c0 .20616-.03513.37484-.07807.37484-.04411 0-.07807.21235-.07807.4873 0 .26801-.03318.4873-.07358.4873-.0404 0-.08706.14337-.10345.31861-.0164.17524-.03552-.22116-.04255-.88088-.00683-.65973.00859-1.2754.03455-1.36818.06343-.22697.18503-.2146.18503.01874m-1.4053.86214c0 .51673-.03143.89963-.07398.89963-.04079 0-.08685.17711-.10266.39358-.02694.36866-.02967.36154-.04314-.11245-.008-.27832-.04957-.50604-.09251-.50604-.04333 0-.07807-.19998-.07807-.44981s.03474-.44981.07807-.44981c.04294 0 .07807-.12932.07807-.28732 0-.28563.0445-.3874.16922-.3874.03572 0 .065.40483.065.89962m6.73373.49948c-.05368.0208-.0976.10252-.0976.18143 0 .07909-.03512.14375-.07806.14375-.11594 0-.09447.21985.03337.3428.2555.24514.66928-.03206.66928-.4485 0-.27252-.18796-.35086-.527-.21948m4.89904.84996c0 .04123-.0853.07497-.18952.07497-.10442 0-.24241.0506-.30682.11245-.06441.06185-.13682.11246-.16083.11246-.10735 0-.35777.27045-.35777.38646 0 .07047-.06909.14919-.1534.17505-.0972.02961-.17196.14132-.20397.30494-.02772.14188-.08159.25808-.11984.25808-.03806 0-.0693.08078-.0693.17936 0 .09877-.0527.19885-.1171.22266-.08783.03223-.1171-.01237-.1171-.17955 0-.12239-.03514-.22247-.07808-.22247s-.07807-.11808-.07807-.2624c0-.1443-.02674-.26238-.05953-.26238-.0328 0-.09428-.07591-.13663-.16868-.1093-.23915-.73232-.29088-.7934-.06598-.02245.0821-.08999.16737-.1501.18967-.06031.02212-.1095.12576-.1095.22997 0 .1044-.03513.18986-.07807.18986-.04353 0-.07807-.20167-.07807-.45525 0-.5066-.10306-.66928-.42374-.66928-.19791 0-.20084.00824-.20084.56226 0 .3248.03298.56227.07807.56227.04723 0 .07846.31918.07885.80591.00137 1.21956.04002 1.36818.35523 1.36818.25335 0 .25823-.00637.31092-.41232.02948-.22679.08471-.41233.12277-.41233.03806 0 .0691-.11808.0691-.2624 0-.1443.03123-.26238.06929-.26238.03825 0 .09427-.12651.12433-.28095.04957-.25377.14833-.38946.28555-.39265.02732-.00056.07338.15069.10227.33624.02908.18554.08568.33736.12609.33736.0402 0 .07319.07684.07319.17074 0 .16568.15302.42976.37592.64829.14326.14075 1.19587.16137 1.24388.02436.01796-.05154.07066-.0937.11692-.0937.04625 0 .18386-.10721.30565-.2384.20709-.22285.22173-.22754.22173-.07123 0 .1089-.21783.3769-.62458.76862-.34352.33061-.62458.63424-.62458.67453 0 .0401-.081.1475-.18015.23821-.19557.17937-.44443.64286-.44443.82803 0 .06354-.03513.13626-.07807.16175-.2752.16324.00898 1.53686.31795 1.53686.08275 0 .15048.03373.15048.07497 0 .09427.52152.09952.58184.0058.0244-.03804.1495-.09145.27793-.11844.12824-.027.23324-.08022.23324-.11827 0-.03786.04958-.06897.11009-.06897.15087 0 .5145-.42807.5145-.60556 0-.07928.02654-.14412.05894-.14412.18932 0 .28574-.53603.28886-1.60565.00254-.8256.02909-1.1264.1011-1.14946.05368-.01724.0976-.07347.0976-.125 0-.05155.10442-.19211.23207-.31225.12765-.12033.23304-.27776.23421-.34992.00118-.07216.03728-.1312.08022-.1312s.07808-.06747.07808-.14993c0-.17824-.3689-.2161-.4372-.0448-.16747.4187-.34353.16887-.34353-.48692 0-.39527.03182-.66778.07808-.66778.12023 0 .09251-.59675-.03338-.71764-.1259-.12089-.74735-.1475-.74735-.03205m.05114.95529c-.02615.15425-.08334.292-.12745.30606-.04392.01406-.07983.07347-.07983.13176 0 .05847-.03513.10627-.07807.10627s-.07866.05903-.07944.1312c-.00137.14562-.63492.76842-.7817.76842-.10989 0-.02889-.5467.08685-.5872.03943-.01386.07164-.08977.07164-.16867 0-.0791.03513-.14375.07807-.14375s.07807-.04667.07807-.10365c0-.14019.61326-.72101.76101-.72101.0929 0 .10813.05997.07085.28057m-21.77474-.0789c-.316.07927-.28438 1.0012.04606 1.34362.11418.11827.20767.24309.20767.2772 0 .0343.04997.1104.11087.16887.08685.0834.1015.25939.06714.81003-.0652 1.05088-.04314 1.09698.5262 1.09698.25667 0 .46688-.0298.46688-.06615 0-.18518.35132-.1417.56153.06953.1214.12182.27287.22153.33688.22153.06422 0 .11653.03374.11653.07497 0 .04123.14053.07497.31229.07497.36733 0 .47429-.31543.1415-.41683-.14775-.04498-.36713-.24083-.74656-.66684-.1173-.13176-.12726-.26577-.01952-.26577.04294 0 .07827-.0759.07846-.16868.0004-.09277.05309-.26539.1171-.38346.13293-.24459.15498-.57239.03865-.57239-.04293 0-.07807-.0506-.07807-.11245 0-.28676-.38704-.12145-.43837.18742-.02752.16493-.08061.29987-.11809.29987-.03747 0-.06812.06748-.06812.14994 0 .08247-.03279.14994-.0728.14994-.04001 0-.09505-.06747-.12238-.14994-.02732-.08246-.08236-.14994-.12237-.14994-.04002 0-.0728-.08434-.0728-.18742s.03356-.18742.07455-.18742c.04099 0 .09564-.12651.1214-.28113.02577-.15463.08003-.3398.12063-.4114.0974-.17186.09466-.50697-.0043-.50697-.04294 0-.07807-.04817-.07807-.10702 0-.29556-.8383-.45787-1.5029-.29106m.6441.3053c0 .0315.07905.09053.17567.1312.1987.08378.2676.35648.14931.59132-.04372.08659-.09154.20185-.10618.25602-.04098.14975-.35288-.13795-.41749-.38478-.02908-.11152-.08412-.22116-.12238-.24384-.03825-.02268-.008-.12257.06715-.22172.13545-.1788.25393-.23859.25393-.1282m13.42842.2802c0 .18555-.03513.33736-.07807.33736s-.07807.08434-.07807.18742-.03513.18742-.07807.18742-.07808.04517-.07808.10028c0 .0937-.64156.72438-.7372.72438-.0238 0-.04352-.11807-.04352-.26239 0-.14431.03513-.26239.07807-.26239s.07808-.08434.07808-.18742.03122-.18742.06928-.18742c.03826 0 .09232-.11733.12043-.2607.12101-.61981.74715-.93543.74715-.37654m1.68734-.03636c-.04626.27889-.32166.66048-.413.57276-.06324-.06072.05738-.49891.1372-.49891.03944 0 .07184-.03524.07184-.07816 0-.0746.16297-.28788.22465-.29388.0162-.0015.00702.1327-.0207.2982m-7.9655.79054c-.06813.04779-.12375.12538-.12375.17243 0 .04704-.0328.08546-.0728.08546-.04002 0-.09506.06747-.12238.14994-.02733.08246-.0814.14993-.12043.14993-.08607 0 .00117-.47698.09369-.51222.0363-.01387.06577-.05566.06577-.09315 0-.03748.07905-.15593.17567-.26333l.17566-.1951.02615.20954c.0162.12875-.02147.24327-.09759.2965m-6.67147 1.39385c.15908.17618.16923.21741.09837.39471-.11183.28001-.34293.1327-.34293-.21872 0-.38028.0365-.40633.24456-.17599m20.6632.8196c-.01953.45712-.06813.85352-.10775.88088-.03962.02737-.12335.15106-.18581.27476-.13155.26014-.45106.56227-.59433.56227-.05406 0-.11242.0401-.1294.08902-.0199.05736-.09174.03055-.20162-.07496-.17527-.1683-.24007-.63874-.09954-.72214.03923-.02343.09505-.17711.12394-.34186.02908-.16474.0847-.2995.12393-.2995.03924 0 .07125-.03542.07125-.07872 0-.04329.12198-.19923.2711-.34673.14912-.14731.2914-.32948.3162-.40464.02498-.07534.11378-.15762.19732-.18311.08373-.02568.15224-.07797.15224-.1164 0-.03841.02206-.0699.049-.0699.02712 0 .03317.3739.01346.83103"/><path fill="#055" fill-rule="evenodd" d="M63.97454 13.66799c.11887.01724.29453.01687.39036-.00094.09603-.0178-.00097-.03205-.21567-.03149-.2147.00057-.29336.01519-.17469.03243"/><path fill="red" fill-rule="evenodd" d="M27.12366 8.92865c.00078.16493.01679.2236.03552.13026.01874-.09315.01796-.2281-.00156-.29988-.01952-.0716-.03494.00469-.03396.16962"/><path fill="#00b0dc" fill-rule="evenodd" d="M35.6919 7.3918v6.29737h2.8106V8.21645h3.82554v5.47272h2.8106V1.0944h-2.8106v4.798H38.5025v-4.798h-2.8106V7.3918m26.1542 0v6.29738l.80024-.00057c.44013-.00018 1.03738-.02192 1.32723-.04835l.52698-.0478V6.71708h1.17109v2.6239c0 1.44316.03064 2.62392.06812 2.62392.03747 0 .09056.13494.11808.29987.02733.16493.08451.29988.12706.29988.04236 0 .0771.04816.0771.10701 0 .17187.6355.75775.9759.89982.17176.0716.37338.16118.44794.19904.18503.0937 1.9114.08809 1.9723-.00637.02655-.04124.13643-.07497.24437-.07497.37026 0 .41925-.13476.41925-1.15227 0-1.0653-.03123-1.12116-.47136-.84153-.30917.1966-.93394.27645-.93394.11958 0-.04124-.0527-.07497-.11711-.07497-.06441 0-.11711-.0506-.11711-.11245 0-.06185-.03513-.11246-.07807-.11246-.05036 0-.07808-.84958-.07808-2.399v-2.399H70.12176V4.54298H68.32609V2.2939H65.67164v2.24907h-1.17109V1.0944H61.8461V7.3918m8.66602 0v6.29738H73.16657V7.37848l.35426-.3308c.19498-.1818.40285-.3306.46199-.3306.05914 0 .12101-.0388.1376-.08622.10032-.2892 1.23218-.08697 1.23218.22003 0 .0431.04391.09259.09759.10983.07553.02418.10325.78492.12277 3.37978l.02537 3.34867h2.56487V9.90324c0-2.10418-.03025-3.78592-.06812-3.78592-.03747 0-.09056-.13494-.11808-.29987-.02733-.16493-.08452-.29988-.12707-.29988-.04235 0-.0771-.05229-.0771-.11601 0-.11677-.3601-.48374-.47448-.48374-.03396 0-.08334-.06635-.11027-.14731-.03084-.09334-.14717-.16512-.31756-.19586-.14775-.02661-.26877-.07834-.26877-.11507 0-.03655-.10325-.06654-.22953-.06654s-.2514-.03374-.27794-.07497c-.02654-.04123-.2022-.07497-.39036-.07497-.18815 0-.36381.03374-.39036.07497-.02654.04123-.16922.07497-.31697.07497-.14775 0-.26857.02943-.26857.06541 0 .03599-.14053.08696-.31229.1134-.17176.02623-.31229.07327-.31229.1042 0 .0311-.14053.11489-.31229.1863-.17176.07159-.31229.1638-.31229.20522 0 .04123-.07026.07516-.15614.07516-.15224 0-.15615-.05004-.15615-2.02416V1.09441H70.51212V7.3918M48.84707 4.31807c-.02655.04123-.1538.07497-.28262.07497-.32713 0-.95834.20916-1.1506.38103-.08841.0791-.21313.14375-.27715.14375-.06421 0-.14463.04573-.17898.10158-.03435.05567-.1415.14132-.23812.19005-.09661.04873-.17566.12164-.17566.16212 0 .04048-.11828.18386-.26272.31862-.14443.13475-.28964.32817-.32282.42976-.03299.10158-.08354.20166-.11223.22228-.0974.0701-.31717.58438-.31717.74219 0 .08659-.03513.15743-.07807.15743s-.07808.1282-.07808.28488c0 .15669-.03767.32106-.08373.36529-.15692.15069-.00488 2.94833.16044 2.94833.0326 0 .08178.1342.1091.29838.04958.29725.40266.99109.52875 1.0385.0363.01387.06617.0686.06617.12183 0 .13888.9068 1.01526 1.05065 1.01526.06617 0 .12043.03111.12043.06897 0 .03805.1054.09128.23422.11845.12882.02718.23421.0804.23421.11846 0 .03785.08569.06897.1905.06897s.21236.03373.2389.07497c.0283.04404.4823.07496 1.0977.07496.64741 0 1.04929-.02867 1.04929-.07496 0-.04124.1054-.07497.23421-.07497.12882 0 .23422-.03.23422-.06654 0-.03673.12296-.08884.27325-.11601.1503-.027.27326-.07778.27326-.11264s.08217-.08322.18249-.1074c.10032-.02417.31366-.16268.4739-.30793.16044-.14525.3242-.26408.36401-.26408.04001 0 .0726-.03523.0726-.07834 0-.0431.08784-.16268.19519-.26576.10735-.10309.19518-.22116.19518-.2622 0-.04105.06987-.14657.15517-.23466.0853-.0879.17703-.27214.20396-.40914.02674-.1372.07983-.24927.11809-.24927.10871 0 .0812-.22435-.04216-.3428-.06422-.06147-.2633-.10702-.46844-.10702-.19635 0-.35698-.0298-.35698-.06616 0-.03635-.27228-.09033-.60506-.11995-.33278-.0296-.64859-.0879-.70168-.1297-.16668-.131-.30877-.00843-.3525.304-.02302.16569-.11593.37729-.2063.47044-.09037.09314-.16434.1923-.16434.22022 0 .02811-.13975.13981-.31053.24833-.31346.19904-.93863.28057-.93863.12239 0-.04124-.073-.07497-.16239-.07497-.16649 0-.85255-.59844-.85255-.7437 0-.0446-.03337-.08096-.07416-.08096-.0408 0-.09818-.20316-.12746-.4515-.02927-.24833-.08373-.46949-.121-.4918-.25745-.15274.1735-.18123 2.74286-.18123h2.8106V9.0411c0-.41232-.03025-.74968-.06714-.74968-.03689 0-.08588-.28995-.1089-.64436-.02304-.35442-.08062-.68165-.12805-.7272-.04743-.04554-.08627-.16043-.08627-.25527 0-.09483-.03513-.17242-.07807-.17242s-.07807-.03711-.07807-.08247c0-.42282-.85567-1.40117-1.48337-1.69598-.3933-.1848-.90603-.31862-1.22496-.31956-.17995-.00056-.34898-.03486-.37552-.07609-.02655-.04123-.23734-.07497-.46844-.07497-.2311 0-.44189.03374-.46843.07497m8.35607-.00375c-.02771.0433-.23968.07872-.47077.07872-.2311 0-.43897.02924-.4622.06504-.02302.03598-.18307.08696-.3558.11339-.17274.02661-.31405.08152-.31405.12238 0 .04067-.0527.07403-.11711.07403-.06441 0-.1171.03374-.1171.07497 0 .04124-.06247.07497-.13878.07497-.1421 0-.1901.04405-.61306.56245-.3886.47624-.58203.85671-.62888 1.23624l-.04352.35254.37162.04892c.20455.02699.48776.04891.62946.04891.1419 0 .2795.03374.30604.07497.02655.04124.22192.07497.43408.07497.22173 0 .38568.03411.38568.08022 0 .16193.35094.03467.37631-.13644.01366-.09278.05758-.16868.09759-.16868s.0726-.05998.0726-.13326c0-.29238.59043-.61643 1.12308-.61643.73817 0 1.06295.2995 1.06295.9804 0 .44981-.0607.48861-.8588.54896-.6316.0478-1.04636.13382-1.34576.27907-.07456.03617-.19753.0656-.27326.06541-.18874-.00056-.87929.24215-.87929.30906 0 .0298-.1054.07647-.23421.10365-.12882.02717-.23422.0804-.23422.11845 0 .03786-.04997.06897-.11086.06897-.14053 0-1.06022.8777-1.06022 1.01189 0 .0551-.04392.11414-.0976.13138-.07182.02287-.09758.30775-.09758 1.08124 0 1.05143.0525 1.30183.3318 1.58559.05368.05435.0976.13925.0976.18836 0 .0491.09505.1563.21137.2382.11614.08191.27072.20467.34333.27252.0726.06803.24104.14656.37416.17468.1333.02811.24241.07365.2428.1014.0004.02754.09525.0924.2108.14393.25744.1149 2.05271.1312 2.05271.01875 0-.04124.08783-.07497.19518-.07497.10735 0 .19518-.03.19518-.06691 0-.03674.09662-.08997.2147-.11827.21002-.05023.73564-.38758.78717-.5051.05777-.13194.16922-.0476.16922.12801 0 .10308.03513.18742.07807.18742s.07807.08434.07807.18742v.18743h2.49831v-.2474c0-.13607-.04391-.28957-.09759-.3411-.07417-.07123-.10325-.85915-.1216-3.29489-.01405-1.8714-.05445-3.23077-.09758-3.27238-.0404-.03917-.07359-.13176-.07359-.2056 0-.17337-.25276-.73526-.33063-.73526-.0328 0-.05973-.0313-.05973-.06972 0-.12464-.5223-.605-.65795-.605-.07261 0-.11028-.03373-.08374-.07497.02655-.04123-.02107-.07497-.10598-.07497-.0849 0-.16707-.0371-.18288-.08227-.01562-.04536-.1942-.10027-.3968-.1222-.2026-.02193-.36831-.06935-.36831-.10515s-.15595-.06522-.34664-.06522c-.1907 0-.36518-.02868-.38763-.06354-.0607-.09427-1.11643-.10795-1.17616-.01518M49.9194 6.438c.42432.21141.84045.87076.84045 1.33126v.29725h-2.82017l.05465-.3561c.03006-.19586.07612-.37297.10247-.39359.02635-.02061.09935-.13869.1624-.26239.31306-.61418 1.08735-.90169 1.6602-.61643m8.88189 3.84009c0 .35048-.0281.63723-.06226.63723-.03435 0-.18367.11939-.3318.2654-.2553.2517-.59024.44793-.71847.4215-.0322-.00674-.05855.02156-.05855.06279s-.0527.07497-.11711.07497c-.06441 0-.11711.03373-.11711.07497 0 .16305-.82308.08452-.98176-.09371-.21919-.24609-.34547-.48374-.34547-.65036 0-.22921.41047-.81528.60506-.86401.09662-.02437.17566-.07722.17566-.1177 0-.0403.0849-.07347.18874-.07347.10364 0 .20026-.03336.2147-.07422.01425-.04086.24554-.09634.51391-.12314.26838-.02699.48795-.07778.48795-.1132 0-.03542.12297-.06429.27326-.06429h.27325v.63724"/><path fill="#ec68a2" fill-rule="evenodd" d="M4.7948.91955c-.1825.01837-.3318.06541-.3318.1042 0 .0388-.08784.07066-.19519.07066s-.19518.02943-.19518.06542c0 .03598-.14053.08696-.31229.11339-.17175.02623-.31228.07403-.31228.1057 0 .03186-.11419.12089-.25374.19754-.31678.17412-1.44629 1.2949-1.51323 1.50144-.02733.08415-.07144.17-.09779.1906-.09798.07648-.32127.51448-.32127.63012 0 .06579-.0281.11958-.06265.11958-.08744 0-.32849.67003-.3281.91218.0002.10983-.03513.21122-.07846.2251-.04333.01386-.1013.40464-.12902.86832-.02752.46387-.08002.8432-.11632.8432-.08627 0-.08647.9538-.0002 1.00497.0363.02155.08861.41757.11613.88032.02752.46255.07749.86008.11106.8835.05621.03936.1985.456.30858.90469.02538.10308.06734.20429.0935.2249.02595.02062.16473.2652.30799.54353.14346.27832.29257.50604.33141.50604.03885 0 .07066.03355.07066.0744 0 .07179.1819.29894.50747.63368.19225.19754.81683.67453.9759.74519.06441.02849.20494.10083.3123.16043.10734.0596.27422.1089.37084.10945.09661.00057.17566.03486.17566.0761 0 .04123.1054.07497.23421.07497.12882 0 .23422.03373.23422.07497 0 .04648.4294.07496 1.13205.07496s1.13205-.02848 1.13205-.07496c0-.04124.08783-.07497.19518-.07497.10735 0 .19518-.03374.19518-.07497 0-.04124.07202-.07497.15985-.07497.08803 0 .35094-.11733.58457-.2609l.42451-.2607.04743.20448c.1179.50941.02909.47343 1.11234.45056l.98937-.02099.04118-1.76176c.02264-.96897.049-1.63732.05856-1.48513.00956.15218.0525.29762.09544.32311.04294.02549.07807.14563.07807.26689s.03123.2204.06929.2204c.03826 0 .09252.11808.12082.2624.0281.14431.07612.26239.10657.26239.03064 0 .09876.09371.15165.20841.30292.6571 1.36646 1.59084 1.81206 1.59084.08783 0 .15985.03373.15985.07497 0 .04123.08783.07497.19518.07497.10735 0 .19518.03373.19518.07497 0 .0461.3888.07496 1.01026.07496.58944 0 1.03055-.0313 1.05866-.07496.02654-.04124.13409-.07497.2389-.07497.10481 0 .1905-.03374.1905-.07497 0-.04124.08529-.07497.18951-.07497.10443 0 .24242-.0506.30683-.11245.0644-.06185.15165-.11246.19362-.11246.14424 0 1.00186-.86158 1.2314-1.23698.3968-.64923.42314-.7079.47213-1.05125.02635-.18461.07827-.33567.11536-.33567.03708 0 .06753-.05267.06753-.11696 0-.06428.03513-.09596.07807-.07047.04294.0255.07807.1192.07807.20804 0 .17468.23207.81772.31737.87901.0285.02062.07885.12183.11184.2249.19127.59995 1.10374 1.43322 1.91296 1.74715.15029.0583.37143.1445.49166.19155.27091.10608 2.05662.11489 2.12376.0105.02655-.04124.15166-.07497.27794-.07497.12628 0 .22953-.03.22953-.06691 0-.03674.09661-.08997.2147-.11827.38646-.09258 1.42482-.98078 1.42482-1.2188 0-.05248.03415-.0954.07592-.0954.09603 0 .54866-.86851.54866-1.05275 0-.0759.03513-.15874.07807-.18423.04294-.0255.07807-.13888.07807-.2519 0-.11301.03904-.2429.08666-.28863.0568-.05454.08686-.51672.08686-1.3337 0-.81696-.03006-1.27915-.08686-1.33369-.04762-.04573-.08666-.17767-.08666-.29312 0-.11546-.03513-.20992-.07807-.20992s-.07807-.07328-.07807-.16268c0-.5364-1.14903-1.98817-1.77615-2.24419-.13955-.05716-.25373-.12876-.25373-.1595 0-.03073-.14053-.0774-.3123-.10364-.17175-.02643-.31228-.0774-.31228-.11339 0-.03598-.19362-.06541-.43037-.06541-.23676 0-.50025-.0418-.58555-.09296-.12355-.07403-.18678-.07403-.31033 0-.0853.05117-.33122.09296-.5465.09296-.2153 0-.39135.02943-.39135.06541 0 .03599-.14053.08696-.31229.1134-.17175.02623-.31228.07496-.31228.10795 0 .03298-.11965.10514-.26584.16024-.14619.0551-.35738.18799-.46921.2952-.58847.56432-.8264.82277-.8264.8983 0 .04611-.03513.08378-.07807.08378s-.07827.04217-.07846.09371c-.0002.05154-.0896.2624-.1989.46856-.1091.20616-.21938.51916-.24475.69552-.0482.33417-.18054.51466-.18054.24609 0-.0849-.03182-.15444-.07066-.15444-.03903 0-.09505-.16868-.12452-.37484-.02947-.20617-.08178-.37485-.11594-.37485-.03435 0-.08627-.09165-.11555-.20354-.1173-.44887-.95287-1.3753-1.46658-1.62626-.16103-.07872-.29277-.17111-.29277-.20523 0-.0343-.14053-.08396-.3123-.1102-.17175-.02643-.31228-.0746-.31228-.10702 0-.05135-.75691-.14206-1.21012-.14506-.38217-.00263-1.09965.09258-1.16718.1548-.0408.03768-.12336.06842-.18347.06842-.15595 0-.6523.23371-.8305.39115-.08334.07347-.17859.13363-.21196.13363-.07632 0-.69075.61043-.69075.68634 0 .03111-.08783.14094-.19518.24402-.10735.10308-.19518.2564-.19518.34073 0 .08434-.03357.15332-.07456.15332-.04098 0-.09759.11845-.12589.26314-.0283.14487-.08256.2817-.12062.30437-.03806.02268-.06929.12351-.06929.22416 0 .10064-.03298.18292-.07339.18292-.0404 0-.08705.1265-.10403.28113-.02518.23128-.03279.21141-.04372-.11245l-.01308-.39359H5.8683v2.1741h2.13l-.04255.65354c-.0242.3724-.07924.66535-.12804.6809-.04723.01518-.08568.06504-.08568.11077 0 .11507-.39778.50397-.51567.50397-.0527 0-.1095.03899-.12589.0866-.057.16418-1.62644.17917-1.97816.01892-.826-.37653-1.42891-1.42984-1.57237-2.74816-.02147-.19586-.07066-.3561-.1095-.3561s-.07046-.50492-.07046-1.12454c0-.69964.02948-1.12453.07808-1.12453.04294 0 .07807-.16662.07807-.37034 0-.20373.03025-.38834.06714-.41027.03689-.02193.08861-.18948.11457-.3724.1782-1.24843 1.73496-2.25 2.82017-1.81463.16297.06541.34956.11883.41475.11883.2754 0 1.03349.95698 1.03349 1.30446 0 .06597.03513.11995.07807.11995s.07807.12276.07807.2727v.2727l.75789-.05342c.4167-.02943.81839-.08472.89256-.12276.07417-.03824.2916-.06935.48307-.06935.53187 0 .59472-.38965.21158-1.31195-.24164-.58139-.34743-.78717-.4052-.78717-.0363 0-.06617-.04367-.06617-.09709 0-.12351-.80531-.95248-.92515-.95248-.04938 0-.08978-.02774-.08978-.06166 0-.10758-.61834-.45525-.90018-.50604-.14892-.0268-.2709-.07872-.2709-.11545 0-.03655-.08081-.06654-.17957-.06654-.09877 0-.21939-.03823-.26818-.08508C7.28043.92105 5.42016.8562 4.7948.91955m27.912 2.19977l-.02069 2.0249-.21138-.18816c-.11613-.10346-.24788-.18818-.29277-.18818-.0447 0-.08139-.0311-.08139-.06897 0-.03804-.105-.09127-.23324-.11826-.12843-.02699-.25354-.0804-.27794-.11845-.02459-.03805-.16375-.06916-.30955-.06916-.1456 0-.35543-.03955-.4659-.0879-.1538-.06729-.2225-.06729-.29258 0-.05035.04835-.22504.0879-.38821.0879s-.29667.02943-.29667.06541c0 .03599-.14053.08696-.3123.1134-.17175.02623-.31228.07402-.31228.1057 0 .03186-.11418.12182-.25374.19998-.32478.1816-.91735.76805-.91735.90787 0 .05885-.03454.10702-.0765.10702-.04217 0-.09877.08434-.1257.18742-.02694.10308-.08022.18742-.11848.18742-.03845 0-.06968.06072-.06968.13494 0 .07422-.0361.16962-.08022.21198-.04391.04217-.10169.25133-.12784.4648-.02635.21329-.07807.38778-.11516.38778-.03689 0-.06714.23409-.06714.52028 0 .2862-.02908.53772-.0646.5587-.03553.02119-.03806.21704-.00566.43558.0324.21834.06148.67546.0646 1.01564.00312.34017.03591.61849.0728.61849.0369 0 .08764.19042.11262.423.02499.2326.08256.45863.12804.5023.04548.04367.08256.15687.08256.2517 0 .09484.0281.17244.06246.17244.03416 0 .1097.1265.16747.28113.1331.35666 1.01689 1.18938 1.33288 1.25591.12804.02718.23285.08022.23285.11827 0 .03785.08569.06897.1905.06897s.21236.03373.2389.07497c.21724.33754 2.211.02136 2.94742-.46762.2469-.164.44872-.05623.44872.23952 0 .15331.02811.15687 1.0735.13645l1.0735-.0208.0199-6.27864.0201-6.27864H32.7277l-.02089 2.02491m-17.40855 3.3541c.25998.16081.47917.39921.48268.52478.00137.05155.03553.09372.07573.09372.0404 0 .0972.15218.12629.3383.02908.1861.08392.35666.12179.37933.09134.05417.08959 2.48503-.00176 2.5392-.03884.02305-.09486.21066-.12433.41663-.02947.20617-.08549.37485-.12452.37485-.03884 0-.07066.04798-.07066.10664 0 .2326-.632.64305-.98996.64305-.18542 0-.33727-.03374-.33727-.07497 0-.04124-.04684-.07497-.10422-.07497-.14502 0-.50552-.40408-.56564-.63405-.02732-.10477-.081-.1906-.11925-.1906-.03845 0-.06968-.09447-.06968-.20992s-.04197-.2502-.0933-.2995c-.1298-.12464-.12745-2.58117.00234-2.6226.04997-.01611.09096-.12763.09096-.24777 0-.12032.03123-.21872.06929-.21872.03825 0 .09251-.11807.12081-.26239.02811-.14431.07593-.26239.10618-.26239.03025-.00019.16044-.09933.28926-.22078.28106-.26464.77565-.30794 1.11526-.09784m8.08653-.01874c.0246.06185.09271.11245.15127.11245.05855 0 .1534.08434.21079.18743.05738.10308.13214.18742.1657.18742.03377 0 .0857.1265.11536.28113.02947.15462.09252.30512.14014.33455.1212.07516.11906 2.92078-.00234 3.0651-.0486.05772-.11399.21966-.14522.35966-.2512 1.1266-1.93033 1.12753-2.18797.0015-.02713-.1192-.08198-.23615-.1216-.25958-.03962-.02362-.07202-.1758-.07202-.3383 0-.1625-.03513-.29537-.07807-.29537-.04802 0-.07808-.37335-.07808-.9701 0-.56601.0326-.98959.07808-1.01658.04294-.02549.07807-.16043.07807-.29987 0-.13944.03123-.27195.06929-.29463.03806-.02268.09232-.1595.12062-.30437.0283-.1447.07651-.26314.10735-.26314.03084 0 .09076-.0759.13311-.16868.04236-.09278.15615-.20204.25276-.24271.09662-.04067.17566-.09971.17566-.1312 0-.11526.83967-.06297.8871.0553m8.69237.2264c.09271.08171.27657.23128.40832.3323l.23968.18386v1.75651c0 1.79813-.0814 2.26144-.3968 2.26144-.03943 0-.15068.0759-.2473.16868-.58495.5617-2.01036-.09315-2.01036-.92362 0-.07272-.04391-.14619-.09759-.16343-.073-.02343-.09759-.3503-.09759-1.29321 0-.94292.0246-1.26978.0976-1.29321.05367-.01724.09758-.09709.09758-.1775 0-.77217 1.41467-1.37286 2.00646-.85182"/></g></svg>