<svg xmlns="http://www.w3.org/2000/svg" viewBox="0 0 633 247"><defs><style>.cls-1{isolation:isolate;}.cls-2{fill:#020202;}</style></defs><title>food-to-love-logo</title><g id="to_love" data-name="to love"><path d="M74.09,220Zm31.15.48Zm0,0a.64.64,0,0,0-.41-.06c0,.13.27.08.35.13-.15,0,0-.07.06-.07h0C105.07,220.46,105.14,220.54,105.2,220.53Zm-46-2.42Zm70.8,1.31c-4-4.18-9.14-2.48-14.46-2.86-5.9-.42-12.38,1.21-18.16.08,0,.3-11.28.27-12.4.19-1.27-.54-2.7.05-4,.07-2,0-3.91-.15-5.88-.06-2.21.11-4.4.13-6.62,0-1.67-.06-4-.64-5.63,0l.28.19a13.42,13.42,0,0,0-1.9,0,1.88,1.88,0,0,1-1.28-.23c.42.31-.52.27-.67.06a3.24,3.24,0,0,1-.43.3c-.23.07-.45-.09-.67.08.27,0,.62.39.77.59-.23-.06.15.19.2.21s2.05.34,2.12.63a3.23,3.23,0,0,0,1.09.22c.15.12,0,0,0,0,.33-.15.68.27,1,.21-.15-.62.77-.24,1.12-.2l-.33-.45a6.07,6.07,0,0,0,1.06.42c.09,0,.85,0,.29,0a4.06,4.06,0,0,1,.55.26c0-.27,1.38.11,1.11.34.35-.4,1.21,0,1.63,0,0,0,1.93.47,1.61.29.09-.4,3.35-.26,3,.29a.65.65,0,0,1,.38-.24c.17.21.72.26.34-.41a4.12,4.12,0,0,1,1.28.07,18.85,18.85,0,0,0,2,.17c.19.12.61.11.74.18-.25-.48.46-.1.39.25.14-.27.85,0,1.13-.18q-.47.23-.24-.17l.55,0c.14-.09,1.21-.22,1.16.25.12-.24,1.4-.21,1.44.17.05-.2,1.22-.28,1.16.06a72.22,72.22,0,0,0,12.07.26q.48,0,.14-.21a10.91,10.91,0,0,1,1.71.39l-.19-.26c.08,0,.7,0,.35.11,1.69-.44,3.43.29,5.12-.12a11.17,11.17,0,0,0,2.65.16,1.26,1.26,0,0,0,.32-.21q-.29.23.28.16c2.51.36,5.05.11,7.57.31q-.37-.24.18-.12c1.46,0,2.94-.1,4.27,0,2.16-.13,4.28,0,6.44,0,1,0,2.45.24,3.43-.18,0,0,2.61-1.81,1.55-1.23q-.31.45.38.09C129.59,219,129.1,219.89,130,219.42ZM64.48,219Zm-5.73-1.82c-.2,0,.35.16,0,0C58.68,217.13,58.79,217.15,58.75,217.13Z"/><g class="cls-1"><path class="cls-2" d="M180,198.36h-11a1.19,1.19,0,0,1-1.2-1.2v-1.83a1.2,1.2,0,0,1,1.2-1.2H195.8a1.2,1.2,0,0,1,1.2,1.2v1.83a1.19,1.19,0,0,1-1.2,1.2h-11v38.7a1.24,1.24,0,0,1-1.2,1.2h-2.39a1.24,1.24,0,0,1-1.2-1.2Z"/><path class="cls-2" d="M228.9,193.51a22.69,22.69,0,1,1-22.62,22.75A22.64,22.64,0,0,1,228.9,193.51Zm0,41a18.28,18.28,0,1,0-18.21-18.21A18.32,18.32,0,0,0,228.9,234.47Z"/><path class="cls-2" d="M287.83,195.34a1.2,1.2,0,0,1,1.2-1.2h2.46a1.24,1.24,0,0,1,1.2,1.2V234h18.15a1.19,1.19,0,0,1,1.2,1.2v1.83a1.2,1.2,0,0,1-1.2,1.2H289a1.2,1.2,0,0,1-1.2-1.2Z"/><path class="cls-2" d="M343.86,193.51a22.69,22.69,0,1,1-22.62,22.75A22.64,22.64,0,0,1,343.86,193.51Zm0,41a18.28,18.28,0,1,0-18.21-18.21A18.32,18.32,0,0,0,343.86,234.47Z"/><path class="cls-2" d="M376.26,195.78a1.12,1.12,0,0,1,1.07-1.64h2.52a1.16,1.16,0,0,1,1.07.69l15.69,35.29h.25l15.69-35.29a1.25,1.25,0,0,1,1.07-.69h2.52a1.11,1.11,0,0,1,1.07,1.64l-19.16,42.41a1.2,1.2,0,0,1-1.07.69h-.63a1.27,1.27,0,0,1-1.07-.69Z"/><path class="cls-2" d="M430.4,195.34a1.2,1.2,0,0,1,1.2-1.2h24.83a1.2,1.2,0,0,1,1.2,1.2v1.83a1.19,1.19,0,0,1-1.2,1.2H435.26v15.38h18.08a1.24,1.24,0,0,1,1.2,1.2v1.83a1.19,1.19,0,0,1-1.2,1.2H435.26V234h21.17a1.19,1.19,0,0,1,1.2,1.2v1.83a1.2,1.2,0,0,1-1.2,1.2H431.6a1.2,1.2,0,0,1-1.2-1.2Z"/></g><path d="M553.44,220Zm-31.15.48Zm0,0h0s.21,0,.06.07c.08-.06.32,0,.35-.13a.64.64,0,0,0-.41.06C522.38,220.54,522.45,220.46,522.32,220.53Zm46-2.42Zm-70.8,1.31q.69.36.38-.09c-1.06-.58,1.58,1.24,1.55,1.23,1,.43,2.39.15,3.44.18,2.15.07,4.28-.1,6.44,0,1.33-.14,2.81,0,4.27,0,.37-.08.43,0,.18.12,2.52-.21,5.06,0,7.57-.31.38,0,.47,0,.28-.16a1.26,1.26,0,0,0,.32.21,11.16,11.16,0,0,0,2.65-.16c1.69.41,3.43-.32,5.12.12-.35-.14.28-.1.35-.11l-.19.26a10.88,10.88,0,0,1,1.71-.39q-.34.25.14.21a72.22,72.22,0,0,0,12.07-.26c-.06-.34,1.11-.26,1.16-.06,0-.38,1.32-.4,1.44-.17,0-.47,1-.33,1.16-.25l.55,0q.24.4-.24.17c.28.19,1-.09,1.13.18-.07-.35.64-.73.39-.25.13-.07.56-.06.74-.18a18.82,18.82,0,0,0,2-.17,4.12,4.12,0,0,1,1.28-.07c-.38.67.17.62.34.41a.65.65,0,0,1,.38.24c-.35-.54,2.91-.69,3-.29-.33.18,1.65-.33,1.6-.29.42-.09,1.28-.44,1.63,0-.27-.23,1.06-.61,1.11-.34a4.05,4.05,0,0,1,.55-.26c-.56,0,.2,0,.29,0a6.06,6.06,0,0,0,1.06-.42l-.33.45c.35,0,1.27-.42,1.12.2.33.06.67-.36,1-.21,0,0-.15.16,0,0a3.22,3.22,0,0,0,1.09-.22c.07-.29,2.11-.68,2.12-.62s.43-.27.2-.21c.15-.19.5-.59.77-.59-.22-.17-.45,0-.67-.08a3.24,3.24,0,0,1-.43-.3c-.15.21-1.09.25-.67-.06a1.88,1.88,0,0,1-1.28.23,13.42,13.42,0,0,0-1.9,0l.28-.19c-1.6-.63-4-.06-5.63,0-2.22.09-4.41.06-6.62,0-2-.09-3.91.07-5.88.06-1.29,0-2.72-.61-4-.07-1.12.09-12.4.12-12.4-.19-5.78,1.13-12.26-.5-18.16-.08-5.33.38-10.46-1.32-14.46,2.86C498.43,219.89,497.94,219,497.57,219.42ZM563,219c-.1.17,0,0,0,0Zm5.73-1.82c-.35.16.2,0,0,0C568.74,217.15,568.84,217.13,568.78,217.13Z"/></g><g id="food"><path d="M13.31,26.58a3.17,3.17,0,0,1,3.17-3.17H85.54a3.17,3.17,0,0,1,3.17,3.17V44.76a3.17,3.17,0,0,1-3.17,3.17H39.33V72h38a3.28,3.28,0,0,1,3.17,3.17V93.3a3.28,3.28,0,0,1-3.17,3.17h-38V137a3.28,3.28,0,0,1-3.17,3.17H16.48A3.17,3.17,0,0,1,13.31,137Z"/><path d="M208.64,21.74A60.05,60.05,0,1,1,148.76,82,59.94,59.94,0,0,1,208.64,21.74Zm0,93.41a33.36,33.36,0,1,0,0-66.72c-18.18,0-33.19,15.18-33.19,33.53A33.39,33.39,0,0,0,208.64,115.16Z"/><path class="cls-2" d="M390.3,21.74A60.05,60.05,0,1,1,330.42,82,59.94,59.94,0,0,1,390.3,21.74Zm0,93.41a33.36,33.36,0,1,0,0-66.72c-18.18,0-33.2,15.18-33.2,33.53A33.39,33.39,0,0,0,390.3,115.16Z"/><path d="M520.58,26.58a3.14,3.14,0,0,1,3-3.17h40.7c32.19,0,58.55,26.19,58.55,58.22a58.63,58.63,0,0,1-58.55,58.55h-40.7a3.14,3.14,0,0,1-3-3.17Zm42,88.91c18.85,0,32.53-14.85,32.53-33.86,0-18.85-13.68-33.7-32.53-33.7h-16v67.56Z"/></g></svg>