<svg version="1.1" width="400" height="182.848" xmlns="http://www.w3.org/2000/svg"><g fill-rule="evenodd"><path d="M.062 3.155c.069 1.844.195 3.18.303 3.216.101.033.184.534.184 1.113 0 .578.061 1.112.137 1.187.121.12.408 2.426.707 5.687.056.603.176 1.175.269 1.271.092.095.167.646.167 1.223 0 .578.082 1.101.183 1.164.1.062.183.597.183 1.188 0 .592.082 1.127.183 1.189.1.062.183.602.183 1.2 0 .597.073 1.086.162 1.086.09 0 .222.989.295 2.197.073 1.208.205 2.242.294 2.297.09.055.163.585.163 1.176 0 .592.082 1.127.183 1.189.101.062.183.597.183 1.189 0 .592.082 1.127.183 1.189.1.062.183.597.183 1.189 0 .591.082 1.126.183 1.189.1.062.182.602.182 1.199 0 .598.074 1.087.165 1.087.09 0 .224 1.029.296 2.286.073 1.257.205 2.286.293 2.286.089 0 .161.489.161 1.087 0 .597.082 1.137.183 1.2.1.062.183.602.183 1.199 0 .603.081 1.087.183 1.087.103 0 .183.518.183 1.189 0 .653.072 1.188.16 1.188.089 0 .221 1.03.293 2.287.073 1.258.206 2.333.297 2.389.09.056.164.59.164 1.188 0 .602.082 1.087.183 1.087.103 0 .183.518.183 1.188 0 .671.08 1.189.183 1.189s.183.518.183 1.189.079 1.189.183 1.189c.103 0 .182.518.182 1.189 0 .654.074 1.189.163 1.189.09 0 .223 1.003.297 2.23.086 1.43.219 2.316.373 2.469.458.458 11.056.336 11.056-.127 0-.201.082-.366.183-.366.106 0 .183-.606.183-1.452 0-.799.082-1.503.183-1.566.1-.062.182-.761.182-1.554s.075-1.488.166-1.544c.09-.056.224-1.421.298-3.032.073-1.612.204-2.975.292-3.029.087-.054.159-.747.159-1.54s.082-1.493.183-1.555c.1-.062.183-.766.183-1.565 0-.847.076-1.453.183-1.453.106 0 .183-.597.183-1.426 0-.785.076-1.505.169-1.601.093-.095.215-.832.27-1.636.374-5.482.552-7.408.687-7.408.085 0 .154-.741.154-1.646 0-.975.074-1.646.183-1.646.106 0 .183-.61.183-1.463 0-.805.047-1.463.104-1.463.418 0 .627.635.627 1.907 0 .762.071 1.385.158 1.385.086 0 .217 1.336.29 2.968.073 1.633.208 3.109.3 3.28.092.172.167.935.167 1.696 0 .8.077 1.384.183 1.384.107 0 .183.636.183 1.543 0 .85.082 1.595.182 1.657.101.062.183.808.183 1.657 0 .907.076 1.544.183 1.544s.183.61.183 1.463c0 .805.072 1.463.16 1.463.087 0 .219 1.4.292 3.11.073 1.71.207 3.156.298 3.212.09.056.165.755.165 1.554 0 .846.076 1.452.183 1.452s.182.637.182 1.544c0 .849.083 1.595.183 1.657.101.062.183.725.183 1.474v1.361H34.1c3.74 0 5.607-.064 5.688-.195.066-.107.165-.848.22-1.646.054-.798.17-1.451.256-1.451s.157-.535.157-1.189c0-.671.079-1.189.183-1.189.103 0 .182-.518.182-1.189 0-.67.08-1.189.183-1.189.104 0 .183-.518.183-1.188 0-.654.076-1.189.168-1.189.092 0 .213-.515.27-1.143.412-4.568.56-5.807.692-5.807.083 0 .151-.489.151-1.087s.082-1.138.182-1.2c.101-.062.183-.597.183-1.189 0-.591.083-1.126.183-1.188.101-.063.183-.598.183-1.189 0-.592.073-1.121.163-1.177.089-.055.222-1.089.294-2.298.073-1.209.206-2.244.295-2.299.089-.055.163-.59.163-1.187 0-.603.081-1.087.183-1.087.103 0 .182-.518.182-1.189 0-.67.08-1.188.183-1.188.104 0 .183-.519.183-1.189 0-.671.08-1.189.183-1.189.102 0 .183-.484.183-1.087 0-.597.073-1.132.163-1.187.089-.055.222-1.09.294-2.299.073-1.209.206-2.243.295-2.298.089-.056.163-.585.163-1.177 0-.591.082-1.126.182-1.189.101-.062.183-.597.183-1.188 0-.592.083-1.127.183-1.189.101-.062.183-.556.183-1.098 0-.541.073-1.029.163-1.084.089-.056.222-1.09.294-2.299.073-1.209.206-2.244.295-2.299.089-.055.163-.585.163-1.176 0-.592.082-1.127.183-1.189.1-.062.182-.597.182-1.189 0-.592.083-1.127.183-1.189.101-.062.183-.597.183-1.189 0-.591.083-1.126.183-1.189.101-.062.183-.525.183-1.028 0-.504.071-1.055.158-1.224.087-.17.212-.987.279-1.817L49.391 0H38.226v.904c0 .497-.082.954-.183 1.016-.101.063-.183.767-.183 1.566 0 .846-.076 1.452-.183 1.452s-.183.61-.183 1.463c0 .854-.076 1.464-.183 1.464-.106 0-.183.606-.183 1.452 0 .799-.072 1.497-.161 1.553-.09.055-.222 1.417-.296 3.028-.073 1.611-.206 2.929-.295 2.929s-.162.658-.162 1.463c0 .853-.076 1.463-.183 1.463-.106 0-.183.606-.183 1.452 0 .799-.082 1.504-.183 1.566-.1.062-.183.721-.183 1.463 0 .743-.082 1.401-.183 1.463-.1.062-.182.69-.182 1.395 0 .705-.076 1.422-.168 1.594-.092.172-.227 1.566-.3 3.097-.073 1.532-.203 2.785-.29 2.785-.086 0-.157.622-.157 1.382 0 .876-.067 1.341-.183 1.27-.1-.062-.183-.721-.183-1.463 0-.743-.082-1.401-.183-1.463-.1-.063-.182-.721-.182-1.464 0-.742-.083-1.401-.183-1.463-.101-.062-.183-.725-.183-1.474 0-.748-.07-1.361-.154-1.361-.085 0-.247-1.296-.361-2.88-.113-1.585-.294-3.581-.402-4.436a64.12 64.12 0 0 1-.294-2.972c-.054-.779-.173-1.417-.266-1.417-.093 0-.169-.659-.169-1.463 0-.854-.077-1.464-.183-1.464-.107 0-.183-.609-.183-1.463 0-.805-.073-1.463-.161-1.463-.088 0-.22-1.276-.294-2.836-.073-1.56-.206-2.882-.296-2.937-.09-.056-.164-.709-.164-1.452 0-.742-.082-1.401-.183-1.463-.1-.062-.182-.603-.182-1.202v-1.09l-5.076.049-5.075.048-.054 1.418c-.029.78-.132 1.417-.228 1.417-.097 0-.176.613-.176 1.361 0 .749-.082 1.412-.183 1.474-.1.062-.182.726-.182 1.474 0 .786-.078 1.361-.183 1.361s-.183.545-.183 1.27c0 .698-.075 1.315-.166 1.372-.091.056-.225 1.336-.297 2.845-.073 1.509-.205 2.744-.292 2.744-.088 0-.16.617-.16 1.371 0 .793-.077 1.372-.183 1.372-.104 0-.182.545-.182 1.27 0 .698-.083 1.32-.183 1.382-.101.062-.183.709-.183 1.438 0 .728-.076 1.402-.169 1.498-.093.095-.215.75-.271 1.454l-.319 3.978c-.12 1.484-.286 2.698-.37 2.698-.083 0-.152.658-.152 1.463s-.061 1.462-.137 1.462c-.319-.004-.594-1.079-.594-2.322 0-.768-.078-1.335-.183-1.335-.108 0-.183-.671-.183-1.646 0-.905-.069-1.646-.153-1.646-.133 0-.264-1.441-.687-7.59-.056-.805-.177-1.542-.271-1.637-.093-.096-.169-.857-.169-1.692 0-.89-.076-1.518-.183-1.518-.108 0-.183-.637-.183-1.544 0-.849-.082-1.595-.183-1.657-.101-.062-.183-.767-.183-1.565 0-.799-.073-1.453-.162-1.453-.089 0-.222-1.4-.295-3.111-.074-1.712-.206-3.157-.296-3.212-.089-.055-.161-.753-.161-1.552 0-.847-.077-1.453-.183-1.453-.101 0-.183-.288-.183-.64V0H-.058l.12 3.155M224.051.264c0 .145.073.308.163.364.089.055.222 1.089.294 2.298.073 1.209.206 2.244.295 2.299.09.055.163.59.163 1.187 0 .603.081 1.087.183 1.087.103 0 .183.518.183 1.189 0 .67.079 1.189.182 1.189.102 0 .183.487.183 1.097 0 .604.073 1.097.161 1.097.089 0 .22 1.029.293 2.287.073 1.258.206 2.333.296 2.389.091.056.165.585.165 1.177 0 .592.082 1.127.183 1.189.1.062.183.602.183 1.2 0 .602.081 1.086.182 1.086.104 0 .183.518.183 1.189s.08 1.189.183 1.189.183.518.183 1.189c0 .654.072 1.189.16 1.189.087 0 .218.987.29 2.193.072 1.207.206 2.241.298 2.297.092.057.167.634.167 1.282 0 .663.08 1.178.183 1.178s.182.518.182 1.189c0 .67.08 1.188.183 1.188.104 0 .183.519.183 1.189 0 .671.08 1.189.183 1.189.102 0 .183.488.183 1.097 0 .604.072 1.098.161 1.098.088 0 .22 1.029.293 2.287.072 1.257.206 2.332.296 2.388.091.056.165.586.165 1.178 0 .591.082 1.126.182 1.188.101.063.183.602.183 1.2 0 .603.082 1.087.183 1.087.103 0 .183.518.183 1.189 0 .653.068 1.188.151 1.188.132 0 .28 1.24.692 5.807.056.629.178 1.144.27 1.144.092 0 .167.535.167 1.188 0 .671.08 1.189.183 1.189.104 0 .183.518.183 1.189s.08 1.189.183 1.189c.102 0 .183.484.183 1.087 0 .597.082 1.137.183 1.199.101.062.183.396.183.743v.629h11.157v-1.189c0-.671.079-1.189.183-1.189.106 0 .182-.609.182-1.463 0-.853.077-1.463.183-1.463.108 0 .183-.64.183-1.555 0-.855.077-1.554.17-1.554.093 0 .213-.679.266-1.509.053-.83.228-2.908.389-4.619.16-1.71.335-3.788.387-4.618.053-.83.172-1.509.265-1.509.093 0 .169-.653.169-1.452 0-.799.083-1.503.183-1.565.101-.063.183-.751.183-1.529 0-.779.076-1.494.169-1.59.093-.095.214-.791.269-1.545.348-4.808.586-7.306.705-7.424.076-.075.137-.745.137-1.488 0-.855.068-1.311.183-1.239.101.062.183.761.183 1.554s.083 1.493.183 1.555c.101.062.183.767.183 1.565 0 .847.076 1.453.183 1.453.108 0 .183.67.183 1.646 0 .905.072 1.646.159 1.646.088 0 .22 1.317.292 2.927.073 1.609.207 2.972.298 3.028.091.056.165.792.165 1.635s.083 1.584.183 1.646c.101.063.183.762.183 1.555 0 .793.082 1.492.183 1.555.101.062.183.766.183 1.565 0 .846.076 1.452.183 1.452.108 0 .183.671.183 1.647 0 .905.072 1.646.16 1.646.089 0 .221 1.358.294 3.018.073 1.659.207 3.017.297 3.017s.163.695.163 1.544c0 .849.083 1.595.183 1.657.101.062.183.356.183.654v.54l5.624-.048 5.624-.049.056-1.091c.031-.6.126-1.176.21-1.28.085-.104.213-1.156.286-2.338.073-1.182.205-2.149.293-2.149.089 0 .161-.535.161-1.189 0-.671.08-1.189.183-1.189s.183-.518.183-1.189c0-.67.08-1.189.183-1.189.101 0 .183-.484.183-1.086 0-.598.082-1.138.183-1.2.1-.062.183-.597.183-1.189 0-.591.072-1.12.16-1.175.089-.055.22-1.047.293-2.206.072-1.158.206-2.152.296-2.208.091-.056.165-.586.165-1.178s.082-1.127.183-1.189c.101-.062.183-.597.183-1.189 0-.591.082-1.126.183-1.188.1-.063.183-.598.183-1.189 0-.592.073-1.121.162-1.177.09-.055.222-1.089.295-2.298.073-1.209.205-2.244.295-2.299.089-.055.162-.59.162-1.187 0-.598.076-1.087.168-1.087.092 0 .211-.514.264-1.143.054-.629.185-1.699.29-2.378.491-3.147.585-3.839.793-5.839.123-1.174.285-2.196.36-2.271.075-.074.137-.611.137-1.192 0-.58.082-1.106.183-1.169.101-.062.183-.597.183-1.188 0-.592.082-1.127.183-1.189.1-.063.183-.597.183-1.189 0-.592.073-1.121.162-1.176.09-.056.222-1.089.295-2.298.072-1.208.205-2.196.295-2.196.089 0 .162-.535.162-1.189 0-.671.08-1.189.183-1.189s.183-.518.183-1.189c0-.67.08-1.188.183-1.188.101 0 .183-.485.183-1.087 0-.598.082-1.137.183-1.2.1-.062.183-.561.183-1.108V0h-5.421c-6.3 0-5.904-.129-5.913 1.93-.003.709-.082 1.367-.175 1.463-.093.095-.217.811-.275 1.591-.057.78-.153 2.055-.212 2.835-.059.78-.174 1.5-.256 1.6-.082.101-.209 1.438-.282 2.972-.073 1.534-.205 2.79-.293 2.79-.087 0-.159.653-.159 1.452 0 .799-.083 1.503-.183 1.565-.101.063-.183.767-.183 1.566 0 .846-.076 1.452-.183 1.452-.106 0-.183.606-.183 1.453 0 .798-.073 1.497-.162 1.552-.089.055-.222 1.337-.295 2.848-.073 1.511-.206 2.793-.295 2.848-.089.055-.162.754-.162 1.552 0 .847-.077 1.453-.183 1.453-.107 0-.183.599-.183 1.433 0 1.511-.061 1.711-.475 1.552-.19-.072-.257-.472-.257-1.542 0-.794-.072-1.443-.16-1.443-.089 0-.221-1.276-.294-2.836-.073-1.56-.207-2.882-.297-2.937-.09-.056-.163-.709-.163-1.452 0-.742-.082-1.401-.183-1.463-.101-.062-.183-.767-.183-1.565 0-.847-.076-1.453-.183-1.453-.105 0-.183-.575-.183-1.361 0-.748-.082-1.411-.183-1.474-.1-.062-.183-.725-.183-1.474 0-.748-.069-1.361-.153-1.361-.085 0-.252-1.337-.371-2.972-.118-1.634-.261-3.589-.317-4.344-.055-.754-.177-1.449-.27-1.545-.093-.096-.169-.775-.169-1.509 0-.768-.078-1.335-.183-1.335-.106 0-.183-.61-.183-1.463 0-.854-.076-1.464-.183-1.464-.1 0-.182-.205-.182-.457V0H244.353v.721c0 .396-.082.771-.183.834-.1.062-.183.679-.183 1.371 0 .693-.082 1.31-.183 1.372-.1.062-.183.68-.183 1.372 0 .692-.072 1.303-.16 1.358-.089.054-.221 1.294-.294 2.755-.073 1.461-.206 2.702-.296 2.757-.09.056-.164.668-.164 1.36 0 .693-.082 1.31-.183 1.372-.101.062-.183.68-.183 1.372 0 .692-.082 1.309-.183 1.372-.1.062-.183.725-.183 1.474 0 .748-.076 1.36-.169 1.36-.093 0-.213.638-.267 1.418-.244 3.491-.581 6.796-.707 6.921-.075.075-.137.698-.137 1.386 0 .711-.079 1.249-.183 1.249-.105 0-.183.576-.183 1.361 0 .749-.082 1.412-.183 1.474-.1.063-.183.69-.183 1.394 0 .807-.067 1.238-.182 1.167-.101-.062-.183-.767-.183-1.565 0-.799-.071-1.453-.158-1.453-.086 0-.217-1.336-.29-2.968-.073-1.633-.208-3.109-.3-3.281-.092-.171-.167-.929-.167-1.684 0-.755-.082-1.424-.183-1.486-.1-.062-.183-.808-.183-1.657 0-.907-.075-1.544-.183-1.544-.107 0-.182-.64-.182-1.555 0-.914-.076-1.554-.183-1.554-.108 0-.183-.637-.183-1.544 0-.849-.073-1.589-.162-1.644-.089-.055-.222-1.419-.296-3.031-.073-1.612-.206-2.975-.295-3.031-.089-.055-.162-.79-.162-1.633s-.082-1.584-.183-1.646c-.1-.062-.183-.766-.183-1.565 0-.847-.076-1.453-.182-1.453-.107 0-.183-.609-.183-1.463V0h-5.945c-5.053 0-5.944.039-5.944.264m-118.61 6.485c-.402.067-.851.197-.998.287-.539.334-.922.733-.922.961 0 .128-.082.233-.183.233-.105 0-.183.571-.183 1.347 0 1.945.63 2.494 2.858 2.494.44 0 .8.083.8.183 0 .101.113.183.252.183.506 0 .673.458.288.788-.402.345-2.552.451-2.552.127 0-.101-.158-.183-.35-.183-.193 0-.388-.103-.434-.229-.126-.346-.757.086-.829.567-.032.217-.135.393-.229.393-.093 0-.17.288-.17.64 0 .519.07.641.366.641.201 0 .366.082.366.183 0 .1.288.182.64.182.352 0 .64.089.64.198 0 .226 2.308.133 3.201-.128.88-.258 1.737-.853 1.737-1.206 0-.18.083-.327.183-.327.106 0 .183-.567.183-1.337 0-1.837-.636-2.504-2.389-2.504-.396 0-.72-.082-.72-.183 0-.1-.253-.182-.562-.182-.733 0-1.26-.469-.719-.64.202-.064.366-.193.366-.287 0-.094.371-.171.823-.171.453 0 .823.082.823.183 0 .101.16.183.355.183.196 0 .406.082.469.183.193.313.669.2.77-.183.052-.201.168-.366.257-.366s.161-.158.161-.35c0-.193.094-.382.209-.421.335-.111-.16-.875-.566-.875-.189 0-.371-.07-.405-.156-.083-.214-2.635-.378-3.536-.228m225.17.122c-.232.604-.127 58.886.107 59.119.232.232 9.335.332 9.916.108.257-.098.29-.863.29-6.739 0-6.706.062-7.4.717-7.964.059-.051.227-.339.374-.641.148-.301.29-.581.316-.62.131-.199.605.448.605.826 0 .239.072.435.161.435.089 0 .219.452.288 1.006.069.553.202 1.005.295 1.005.094 0 .17.243.17.538 0 .296.082.589.183.651.101.063.183.309.183.549 0 .24.082.487.183.549.1.062.183.309.183.548 0 .24.082.487.183.549.1.062.182.314.182.56 0 .245.077.446.17.446.094 0 .227.454.296 1.008.069.555.199 1.054.287 1.109.089.055.162.341.162.637s.082.538.183.538c.1 0 .183.247.183.549 0 .302.082.549.183.549.1 0 .183.205.183.457 0 .251.071.457.159.457.087 0 .213.407.279.904.066.497.242 1.197.392 1.555l.272.65h10.615l.165-.411c.125-.31.169-.333.177-.095.018.483.474.522 5.499.466l4.664-.051V6.676l-4.939-.049c-4.48-.044-4.959-.02-5.166.264-.173.235-.229 1.865-.229 6.633v6.321l-5.123-.052c-5.326-.053-5.851.009-5.851.698 0 .198-.073.359-.163.359-.089 0-.216.289-.282.641-.066.352-.199.64-.295.64-.096 0-.174.164-.174.366 0 .201-.083.365-.183.365-.101 0-.183.165-.183.366 0 .201-.063.366-.14.366-.17 0-.775 1.358-.775 1.739 0 .15-.082.273-.183.273-.1 0-.183.206-.183.457 0 .252-.082.457-.182.457-.101 0-.183.165-.183.366 0 .201-.083.366-.183.366-.101 0-.183.123-.183.274 0 .151-.082.275-.183.275-.101 0-.183.159-.183.355 0 .195-.076.402-.169.459-.093.057-.223.35-.289.651-.066.301-.196.547-.288.547-.093 0-.168.164-.168.365 0 .202-.083.366-.183.366-.101 0-.183.16-.183.355 0 .195-.083.406-.183.468-.101.062-.183.273-.183.468s-.073.355-.163.355c-.089 0-.216.288-.282.64-.066.352-.199.641-.295.641-.096 0-.175.164-.175.365 0 .201-.081.366-.181.366-.119 0-.198-4.799-.229-13.763l-.047-13.763-5.055-.049c-4.49-.043-5.067-.016-5.166.244M55.54 6.889c-.067.067-.122.52-.122 1.006v.884h2.744V15.546h2.378V8.779h2.56V6.767h-3.719c-2.045 0-3.774.055-3.841.122m8.962 0c-.067.067-.122 2.043-.122 4.39v4.267h2.378v-3.109h3.109v3.109h2.568l-.049-4.343-.049-4.344-1.235-.054-1.235-.054v3.491h-3.109V6.767h-1.067c-.587 0-1.122.055-1.189.122m9.698-.004c-.069.069-.126 2.047-.126 4.394v4.267h6.95v-2.011h-4.206v-1.098h3.658V10.242h-3.658V8.779h4.042l-.055-.96-.055-.96-3.212-.05c-1.767-.027-3.269.007-3.338.076m13.148.459c-.159.317-.288.729-.288.915 0 .185-.077.337-.172.337-.094 0-.227.371-.295.823-.068.453-.196.823-.285.823-.09 0-.163.16-.163.355 0 .196-.082.406-.182.468-.101.063-.183.273-.183.468 0 .196-.083.355-.183.355-.101 0-.183.206-.183.458 0 .251-.077.457-.172.457-.094 0-.227.37-.295.823-.068.453-.196.823-.286.823-.089 0-.162.247-.162.549v.548h1.281c1.204 0 1.28-.024 1.286-.411.011-.831.388-1.052 1.797-1.052 1.184 0 1.306.034 1.306.366 0 .201.082.366.183.366.101 0 .183.168.183.374 0 .347.095.37 1.326.32l1.326-.054-.058-.549c-.033-.302-.136-.576-.229-.609-.094-.034-.17-.244-.17-.467 0-.223-.068-.483-.151-.579-.083-.096-.309-.688-.503-1.317s-.414-1.143-.489-1.143c-.076 0-.138-.206-.138-.457 0-.252-.082-.457-.182-.457-.101 0-.183-.16-.183-.355 0-.196-.083-.406-.183-.469-.101-.062-.183-.272-.183-.468 0-.195-.082-.355-.183-.355-.101 0-.183-.17-.183-.377 0-1.272-2.42-1.681-3.004-.509m6.479 2.796c0 2.051.072 3.417.183 3.486.101.062.183.269.183.46 0 .48.837 1.271 1.483 1.4.295.059.581.179.635.267.393.637 3.461-.1 4.424-1.062l.5-.499.062-3.712.062-3.713h-2.594v3.135c0 3.397-.062 3.613-1.058 3.627-1.21.017-1.319-.288-1.319-3.673V6.767h-2.561v3.373m17.01-2.371v1.01h2.186l.05 3.338.05 3.338 1.326.054 1.326.053V8.779h2.58l-.056-.96-.055-.96-3.704-.05-3.703-.049v1.009m8.596 3.388v4.389h2.561v-1.554c0-1.433.028-1.555.365-1.555.244 0 .366.122.366.366 0 .201.082.366.183.366.101 0 .183.123.183.274 0 .151.082.274.183.274.1 0 .183.165.183.366 0 .201.082.366.183.366.1 0 .183.148.183.329 0 .588.397.768 1.688.768 1.507 0 1.682-.227.985-1.28-.263-.398-.479-.801-.479-.895a.268.268 0 0 0-.154-.233c-.426-.168-.381-1.012.067-1.252.249-.133.453-.352.453-.486s.082-.243.183-.243c.266 0 .228-2.67-.046-3.151-.638-1.123-1.036-1.239-4.25-1.239h-2.837v4.39m10.896-3.813c-.158.317-.288.729-.288.915 0 .185-.077.337-.172.337-.094 0-.227.371-.295.823-.068.453-.196.823-.285.823-.089 0-.162.206-.162.458 0 .251-.083.457-.183.457-.101 0-.183.164-.183.366 0 .201-.082.365-.183.365-.101 0-.183.199-.183.442 0 .244-.062.47-.137.503-.196.088-.779 1.812-.778 2.302.001.387.075.411 1.281.411.929 0 1.28-.065 1.28-.237 0-.93.419-1.223 1.751-1.224l1.294-.002.169.686.17.686H136.168l-.058-.549c-.032-.302-.135-.576-.229-.609-.093-.034-.17-.301-.17-.595 0-.293-.082-.533-.183-.533-.1 0-.183-.165-.183-.366 0-.201-.082-.366-.183-.366-.1 0-.183-.185-.184-.411 0-.227-.124-.648-.274-.936-.15-.288-.273-.679-.273-.869 0-.189-.083-.344-.183-.344-.101 0-.183-.206-.183-.458 0-.251-.082-.457-.183-.457-.101 0-.183-.165-.183-.366 0-.201-.082-.366-.183-.366-.1 0-.185-.185-.188-.411-.018-1.224-2.435-1.606-2.999-.475M137.073 7c-.049.128-.067 2.083-.04 4.344l.05 4.111 3.338.05 3.338.05v-2.02h-4.024V6.767h-1.286c-.873 0-1.315.075-1.376.233m7.966 4.157v4.389h2.378V6.767h-2.378v4.39m6.63-4.116c-.126.143-.229.386-.229.542 0 .155-.082.282-.183.282-.1 0-.182.199-.182.442s-.062.469-.138.503c-.169.075-.755 1.618-1.013 2.667-.105.427-.26.777-.343.777-.084 0-.153.206-.153.457 0 .252-.082.458-.182.458-.101 0-.183.124-.183.277 0 .152-.083.44-.183.64l-.372.736c-.298.589-.061.724 1.268.724 1.285 0 1.664-.273 1.664-1.197 0-.58 2.714-.357 2.863.235.203.811.488.962 1.812.962h1.225l-.124-.777c-.067-.427-.201-.805-.297-.838-.096-.034-.175-.203-.175-.377s-.164-.657-.365-1.074c-.202-.416-.366-.884-.366-1.04 0-.156-.083-.283-.183-.283-.101 0-.183-.206-.183-.457 0-.252-.077-.458-.172-.458-.094 0-.227-.37-.295-.823-.068-.452-.196-.823-.285-.823-.09 0-.162-.201-.162-.446 0-.246-.083-.498-.183-.56-.101-.062-.183-.272-.183-.468 0-.454-2.309-.524-2.698-.081m6.721 4.116v4.389h2.378v-1.92c0-1.792.184-2.417.457-1.555.064.202.193.366.287.366.094 0 .171.111.171.247s.247.506.548.822c.302.316.55.636.552.713.014.666 1.094 1.327 2.17 1.327h1.119V6.767h-2.377v1.921c0 1.056-.053 1.92-.116 1.92-.199 0-.748-.716-.981-1.279-.123-.296-.379-.587-.569-.648-.191-.06-.346-.238-.346-.396 0-.157-.15-.419-.333-.582-.183-.162-.386-.44-.452-.616-.096-.26-.342-.32-1.313-.32h-1.195v4.39m21.4.183v4.572h3.658v.64c0 .352-.083.641-.183.641-.101 0-.183.126-.183.281 0 .631-1.477 1.681-2.479 1.763l-.722.059-.05 2.789-.051 2.789h1.366c.751 0 1.416-.082 1.479-.183.062-.1.396-.183.742-.183s.629-.082.629-.182c0-.101.165-.183.366-.183.201 0 .366-.083.366-.183 0-.101.123-.183.274-.183.151 0 .275-.082.275-.183 0-.101.145-.183.322-.183.347 0 .911-.494 1.781-1.559.302-.37.652-.782.777-.915.126-.134.229-.373.229-.531 0-.158.077-.287.172-.287.094 0 .227-.37.295-.823.068-.453.196-.823.285-.823.089 0 .162-.242.162-.538 0-.296.083-.589.183-.651.101-.062.183-.561.183-1.108 0-.548.083-.995.183-.995.117 0 .183-1.525.183-4.207V6.767H179.79v4.573m-55.76-2.167c.642.74.177 1.252-1.135 1.252h-.901V8.779h.847c.64 0 .931.097 1.189.394m29.056 1.995c0 .195.083.355.183.355.101 0 .183.164.183.365 0 .285-.122.366-.548.366-.556 0-.802-.554-.366-.823.1-.062.183-.277.183-.479 0-.201.082-.315.183-.252.1.062.182.272.182.468m-64.017.4c.002.176.085.32.186.32.1 0 .183.083.183.183 0 .101-.29.183-.644.183-.609 0-.637-.027-.519-.497.242-.965.786-1.095.794-.189m42.981 0c.002.176.085.32.186.32.101 0 .183.083.183.183 0 .101-.277.183-.615.183-.57 0-.608-.036-.52-.495.183-.959.758-1.101.766-.191m-72.882 7.453c-.062.101-.602.183-1.2.183-.597 0-1.086.071-1.086.158 0 .086-.432.208-.96.271-.527.062-.987.197-1.021.3-.034.102-.22.186-.412.186-.193 0-.351.082-.351.183 0 .1-.165.183-.366.183-.201 0-.366.082-.366.183 0 .1-.086.182-.191.182-.105 0-.383.186-.617.412a9.924 9.924 0 0 1-.906.757c-.264.19-.482.437-.484.549-.002.112-.293.45-.645.752-.352.301-.818.919-1.035 1.371-.217.453-.441.865-.498.915-.244.214-.562.937-.562 1.278 0 .202-.082.368-.183.368-.1 0-.183.148-.183.329 0 .181-.084.414-.187.517-.104.103-.239.614-.3 1.134-.062.521-.183.946-.27.946-.086 0-.157.325-.157.721 0 .397-.082.772-.183.834-.101.062-.183.474-.183.914 0 .441-.082.853-.183.915-.1.062-.183.762-.183 1.555 0 .792-.082 1.492-.183 1.554-.249.155-.249 12.466 0 12.62.101.062.183.767.183 1.566 0 .846.077 1.452.183 1.452.101 0 .183.412.183.915 0 .503.082.914.183.914.101 0 .183.37.183.823 0 .453.073.823.162.823.089 0 .218.453.287 1.006.069.553.202 1.006.296 1.006.093 0 .169.206.169.457 0 .252.083.458.183.458.101 0 .183.121.183.268 0 .283.679 1.587.908 1.743.073.051.187.312.253.582.175.714 3.09 3.808 3.588 3.808.104 0 .189.082.189.183 0 .101.165.183.366.183.201 0 .366.082.366.183 0 .1.165.183.366.183.201 0 .366.076.366.169 0 .094.452.227 1.006.296.553.069 1.006.198 1.006.287 0 .089.535.162 1.188.162.671 0 1.189.08 1.189.183 0 .106.576.183 1.361.183.749 0 1.412-.082 1.474-.183.062-.101.602-.183 1.2-.183.597 0 1.086-.072 1.086-.16 0-.087.391-.199.869-.247 1.03-.103 2.269-.661 3.155-1.421.352-.302.712-.549.799-.549.399-.001 2.493-2.526 2.493-3.006 0-.158.083-.287.183-.287.101 0 .183-.123.183-.274 0-.151.062-.275.137-.276.165-.002.595-.887.595-1.224 0-.131.07-.238.155-.238.176 0 .759-1.695.759-2.205 0-.183.083-.385.183-.447.101-.062.183-.396.183-.742s.082-.629.183-.629c.101 0 .183-.366.183-.813 0-.446.082-.863.183-.925.1-.062.183-.586.183-1.163 0-.596.098-1.149.228-1.279.331-.33.328-15.784-.002-15.894-.145-.049-.226-.459-.226-1.147 0-.589-.083-1.122-.183-1.185-.101-.062-.183-.478-.183-.925 0-.447-.082-.812-.183-.812-.101 0-.183-.283-.183-.629 0-.347-.073-.675-.162-.73-.089-.055-.219-.48-.288-.945-.07-.464-.285-1.126-.479-1.471-.193-.344-.351-.747-.351-.895 0-.147-.083-.268-.183-.268-.101 0-.183-.108-.183-.24s-.165-.417-.366-.633c-.201-.216-.366-.509-.366-.652 0-.143-.123-.362-.274-.487-.151-.125-.274-.306-.274-.402 0-.236-2.173-2.342-2.416-2.342-.106 0-.327-.148-.489-.33-.403-.449-1.972-1.158-2.815-1.272-.38-.051-.735-.164-.788-.251-.054-.087-.582-.159-1.174-.159s-1.127-.082-1.189-.183c-.062-.1-.762-.182-1.555-.182-.792 0-1.492.082-1.554.182m34.385 0c-.062.101-.479.183-.925.183-.447 0-.813.083-.813.183 0 .101-.168.183-.375.183-.849 0-3.649 2.338-3.649 3.048 0 .134-.082.244-.182.244-.101 0-.183.165-.183.366 0 .201-.083.366-.183.366-.11 0-.183-.73-.183-1.826 0-2.236.522-2.042-5.304-1.975l-4.481.052V66.118l4.664.051c2.565.029 4.849.007 5.075-.049l.412-.1V50.213c0-10.34.063-15.845.183-15.919.1-.063.182-.438.182-.834 0-.397.072-.721.16-.721.088 0 .212-.33.277-.732.215-1.347 1.512-2.56 2.737-2.56 1.021 0 2.131 1.396 2.131 2.68 0 .336.081.612.182.612.118 0 .198 5.775.228 16.689l.047 16.69 4.664.051c2.565.029 4.849.007 5.075-.049l.412-.1V50.111c0-10.484.062-15.909.183-15.909.1 0 .183-.329.183-.731 0-.403.082-.732.182-.732.101 0 .183-.162.183-.359 0-.767 1.21-2.567 1.725-2.567.158 0 .287-.083.287-.183 0-.84 2.162.17 2.579 1.204.554 1.374.599 2.578.701 18.732l.104 16.552 4.664.051c2.565.029 4.857.004 5.094-.053l.43-.106-.064-18.495c-.051-14.588-.113-18.511-.293-18.571-.146-.049-.229-.437-.229-1.067 0-.545-.082-.991-.183-.991-.1 0-.183-.329-.183-.731 0-.403-.082-.732-.183-.732-.1 0-.183-.196-.183-.436s-.123-.672-.273-.961c-.15-.288-.274-.668-.274-.844-.001-.176-.084-.32-.184-.32-.101 0-.183-.117-.183-.261 0-.729-2.771-3.031-3.649-3.031-.206 0-.375-.082-.375-.183 0-.1-.365-.183-.812-.183-.447 0-.863-.082-.925-.183-.149-.24-2.652-.24-2.652 0 0 .101-.372.183-.826.183-.454 0-.968.078-1.143.172a3.598 3.598 0 0 1-.799.273c-.265.055-.747.348-1.071.651-.324.303-.643.552-.708.554-.204.006-1.306 1.424-1.306 1.681 0 .136-.165.365-.366.51-.201.145-.368.39-.372.544-.015.739-.725 1.072-.725.34 0-.184-.083-.335-.183-.335-.101 0-.183-.165-.183-.366 0-.201-.082-.366-.183-.366-.101 0-.183-.154-.183-.343a.847.847 0 0 0-.274-.571c-.151-.125-.275-.31-.275-.409 0-.497-2.106-1.969-2.817-1.969-.16 0-.292-.082-.292-.183 0-.1-.37-.183-.823-.183-.453 0-.823-.082-.823-.183 0-.103-.515-.182-1.178-.182-.648 0-1.229.082-1.291.182m41.609 0c0 .101-.447.183-.995.183-.547 0-1.039.072-1.093.159-.054.088-.512.214-1.017.281-.505.067-.918.201-.918.298 0 .097-.165.177-.366.177-.201 0-.366.062-.366.138 0 .076-.226.241-.503.366-.499.225-1.75 1.196-2.133 1.655a26.33 26.33 0 0 1-.767.836c-.626.659-1.901 2.578-1.901 2.861 0 .099-.082.18-.183.18-.101 0-.183.164-.183.365 0 .202-.082.366-.183.366-.1 0-.183.16-.183.355 0 .195-.077.403-.172.462-.095.058-.228.476-.295.927-.068.452-.196.866-.285.921-.089.055-.162.337-.162.627s-.083.578-.183.64c-.101.063-.183.351-.183.641 0 .29-.082.578-.183.64-.101.062-.183.462-.183.888 0 .427-.084.86-.186.962-.103.103-.239 1.641-.303 3.428-.065 1.782-.187 3.284-.271 3.336-.201.124-.201 4.412 0 4.537.084.052.204 1.675.266 3.605.065 2.042.192 3.591.303 3.702.105.105.191.499.191.875 0 .377.082.735.183.798.101.062.183.391.183.731 0 .34.082.67.183.732.1.062.183.274.183.47 0 .197.074.501.164.675.091.175.317.832.503 1.461.186.629.4 1.143.476 1.143.075 0 .137.165.137.366 0 .201.082.366.183.366.101 0 .183.105.183.234 0 .128.164.352.366.497.201.145.365.393.365.55 0 .495 2.49 3.291 2.931 3.291.107 0 .367.161.578.358.538.501 1.94 1.134 2.756 1.244.377.051.686.164.686.251 0 .088.535.159 1.188.159.671 0 1.189.08 1.189.183 0 .104.545.183 1.27.183.698 0 1.32-.082 1.382-.183.063-.101.644-.183 1.291-.183.648 0 1.178-.072 1.178-.159 0-.088.409-.214.907-.28.499-.066.957-.2 1.017-.298.061-.097.27-.177.465-.177s.355-.083.355-.183c0-.101.108-.183.24-.183s.416-.165.632-.366c.216-.201.441-.366.5-.366.142 0 .535-.331 1.244-1.048 1.032-1.044 1.408-1.495 1.408-1.689 0-.104.074-.189.165-.189.09 0 .317-.37.503-.823.186-.452.399-.822.475-.823.075 0 .137-.165.137-.366 0-.201.082-.366.183-.366.101 0 .183-.206.183-.457 0-.252.082-.457.183-.457.1 0 .183-.166.183-.369 0-.202.071-.511.158-.685.403-.809.594-1.735.699-3.387.14-2.21.105-2.247-2.275-2.426-.93-.07-1.692-.2-1.692-.288 0-.089-.411-.161-.914-.161-.503 0-.915-.083-.915-.183 0-.101-.411-.183-.914-.183-.503 0-.915-.082-.915-.183 0-.101-.411-.183-.914-.183h-.915v1.178c0 .648-.082 1.229-.183 1.291-.1.062-.182.433-.182.823 0 .391-.083.761-.183.823-.101.063-.183.314-.183.56 0 .245-.062.446-.138.446-.076 0-.254.268-.394.595-.282.655-.661 1.077-1.251 1.392-.479.257-2.241.276-2.241.025 0-.1-.123-.183-.274-.183-.289 0-1.006-.627-1.006-.88 0-.081-.144-.312-.32-.512-.489-.556-.778-1.124-.778-1.532 0-.202-.076-.368-.17-.368-.094 0-.228-.658-.298-1.463-.07-.805-.199-1.463-.287-1.463-.087 0-.159-.901-.159-2.001 0-1.137-.079-2.05-.183-2.115-.101-.062-.183-.313-.183-.559v-.446h18.29v-5.122c0-3.292-.065-5.121-.183-5.121-.106 0-.189-.635-.198-1.509-.009-.83-.094-2.002-.19-2.606-.096-.604-.222-1.406-.278-1.783-.057-.378-.178-.686-.268-.686-.09 0-.163-.242-.163-.538 0-.296-.083-.589-.183-.651-.101-.062-.183-.273-.183-.468s-.082-.355-.183-.355c-.101 0-.183-.247-.183-.549 0-.302-.073-.548-.162-.548-.09 0-.217-.289-.283-.641-.066-.352-.199-.64-.295-.64-.096 0-.174-.108-.174-.24s-.165-.416-.366-.632c-.201-.216-.366-.441-.366-.5 0-.314-2.01-2.286-2.33-2.286-.082 0-.269-.164-.414-.366-.145-.201-.41-.365-.589-.365s-.325-.083-.325-.183c0-.101-.165-.183-.366-.183-.201 0-.366-.076-.366-.17 0-.093-.452-.226-1.006-.295-.553-.069-1.006-.199-1.006-.288 0-.089-.488-.162-1.086-.162-.598 0-1.138-.082-1.2-.183-.062-.1-.725-.182-1.474-.182-.785 0-1.361.077-1.361.182m33.654 0c0 .101-.412.183-.915.183-.503 0-.914.083-.914.183 0 .101-.173.183-.384.183-1.055 0-3.553 2.078-3.763 3.13-.058.291-.178.528-.266.528-.088 0-.16.124-.16.275 0 .15-.079.274-.176.274-.1 0-.2-.859-.229-1.966l-.052-1.966-4.733-.049c-3.338-.035-4.807.012-4.984.159-.347.288-.378 45.688-.031 46.035.252.252 9.585.318 9.975.07.176-.112.24-3.599.288-15.772.062-15.455.163-18.098.694-18.098.09 0 .163-.164.163-.366 0-.201.082-.365.183-.365.1 0 .183-.118.183-.261 0-.337 1.048-1.385 1.385-1.385.144 0 .261-.083.261-.183 0-.101.37-.183.823-.183.452 0 .823.082.823.183 0 .1.129.183.287.183.321 0 .81.424.81.703 0 .099.078.208.174.242.539.188.626 2.446.729 18.808l.103 16.552 4.877.049c4.273.042 4.912.012 5.17-.245.485-.486.218-36.658-.271-36.658-.096 0-.174-.453-.174-1.006 0-.553-.082-1.006-.183-1.006-.1 0-.183-.324-.183-.721 0-.396-.082-.772-.182-.834-.101-.062-.183-.355-.183-.651 0-.295-.066-.538-.145-.538-.08 0-.242-.361-.36-.804-.119-.442-.341-.93-.496-1.084-.154-.154-.28-.345-.28-.424 0-.079-.165-.311-.367-.516a30.734 30.734 0 0 1-.871-.94c-.573-.644-1.491-1.17-2.045-1.17-.206 0-.375-.082-.375-.183 0-.1-.37-.183-.823-.183-.452 0-.823-.082-.823-.183 0-.104-.548-.182-1.28-.182s-1.28.078-1.28.182m29.629 0c0 .102-.484.183-1.086.183-.598 0-1.131.072-1.185.159-.054.088-.508.213-1.009.28-.501.066-.961.201-1.021.298-.06.098-.27.178-.465.178s-.355.082-.355.183c0 .1-.123.183-.274.183-.151 0-.275.082-.275.183 0 .1-.146.182-.325.182-.179 0-.444.165-.589.366-.145.201-.348.366-.452.366-.215 0-1.743 1.356-1.743 1.546 0 .068-.206.394-.457.724-.252.33-.457.695-.457.811 0 .116-.062.211-.139.211-.076 0-.246.268-.377.595a11.84 11.84 0 0 1-.411.912 1.633 1.633 0 0 0-.171.649.913.913 0 0 1-.228.56c-.169.169-.229 1.237-.229 4.052 0 2.814.06 3.882.229 4.051.125.125.228.454.228.73 0 .275.083.552.183.614.101.062.183.273.183.468s.082.355.183.355c.101 0 .183.124.183.274 0 .151.082.275.183.275.1 0 .183.164.183.366 0 .201.082.365.183.365.1 0 .183.168.183.372s.123.419.274.477c.151.058.274.225.274.371 0 .302 3.751 4.084 4.049 4.084.107 0 .425.247.707.549.281.302.599.549.705.549.106 0 .398.206.65.457.251.252.503.457.558.457.056 0 .362.249.681.554.318.304.77.601 1.004.66.234.058.425.182.425.275 0 .093.299.434.664.757.365.324.838.787 1.052 1.028.213.241.573.628.799.86.227.232.412.508.412.613 0 .106.082.192.183.192.1 0 .183.157.183.35 0 .193.102.385.228.427.166.055.229.68.229 2.283v2.207l-.64.564c-.352.31-.743.566-.869.567-.126.002-.229.085-.229.186 0 .101-.368.183-.817.183-1.065 0-2.658-.869-2.658-1.45 0-.108-.082-.196-.183-.196-.1 0-.183-.158-.183-.351 0-.193-.089-.38-.198-.416-.12-.04-.239-.947-.301-2.302l-.103-2.235h-.796c-.438 0-.796.067-.796.149 0 .083-.885.248-1.967.367-3.096.343-3.6.423-3.786.599-.095.091-.552.165-1.015.165-.462 0-.94.099-1.06.219-.27.27-.303 3.366-.037 3.53.101.063.183.433.183.823 0 .391.082.761.183.824.1.062.183.304.183.538 0 .58.567 2.296.759 2.296.085 0 .155.165.155.366 0 .201.082.366.183.366.101 0 .184.103.185.229.004.383 1.925 2.697 2.238 2.697.102 0 .32.144.484.321.164.176.493.43.732.565.239.136.724.408 1.076.607.353.198 1.042.407 1.53.465.488.058.888.176.888.263 0 .086.535.157 1.189.157.671 0 1.189.08 1.189.183 0 .107.609.183 1.463.183.853 0 1.463-.076 1.463-.183 0-.103.518-.183 1.189-.183.654 0 1.189-.071 1.189-.157 0-.087.421-.208.935-.268.979-.116 1.991-.481 1.991-.717 0-.076.165-.138.366-.138.201 0 .366-.082.366-.183 0-.101.164-.183.366-.183.201 0 .365-.065.365-.143 0-.079.268-.3.595-.49.327-.191.738-.517.913-.726.176-.208.546-.654.823-.991.278-.337.607-.723.733-.856.126-.134.229-.372.229-.53 0-.158.078-.288.174-.288.096 0 .229-.288.295-.64.066-.352.193-.64.283-.64.089 0 .162-.247.162-.549 0-.302.082-.548.183-.548.101 0 .183-.371.183-.823 0-.453.082-.824.183-.824.114 0 .183-1.097.183-2.926 0-1.829-.069-2.926-.183-2.926-.101 0-.183-.33-.183-.732 0-.402-.082-.731-.183-.731-.101 0-.183-.207-.183-.46s-.077-.603-.171-.778c-.094-.174-.39-.786-.657-1.359s-.725-1.293-1.018-1.599c-.292-.306-.532-.654-.532-.774 0-.23-3.238-3.463-4.091-4.084-.857-.624-1.42-1.078-1.986-1.6-.3-.277-.619-.503-.708-.503-.09 0-.522-.35-.961-.778a52.015 52.015 0 0 0-1.236-1.167c-.856-.762-2.174-2.316-2.174-2.561 0-.137-.062-.25-.138-.251-.185-.002-.594-.907-.594-1.315 0-.182-.082-.33-.183-.33-.101 0-.183-.448-.183-.995 0-.547.082-1.046.183-1.108.101-.062.183-.267.183-.454 0-.712 1.486-1.832 2.431-1.832.605 0 1.959.986 1.959 1.427 0 .103.089.218.198.254.117.04.248.923.32 2.165l.122 2.098.96.055c.585.034.96-.02.96-.137 0-.109.393-.192.904-.192.497 0 .954-.083 1.017-.183.062-.101.478-.183.925-.183.447 0 .812-.071.812-.158 0-.087.706-.215 1.57-.285 2.256-.183 2.454-.305 2.454-1.507 0-.537-.082-.977-.183-.977-.103 0-.183-.518-.183-1.189 0-.653-.072-1.188-.159-1.188-.088 0-.215-.492-.283-1.092-.068-.601-.202-1.141-.298-1.2-.096-.059-.174-.309-.174-.554 0-.246-.063-.447-.139-.447-.076 0-.24-.226-.365-.503-.367-.811-.879-1.407-2.475-2.88-.811-.749-2.047-1.366-2.998-1.496-.435-.06-.791-.18-.791-.267 0-.086-.535-.158-1.189-.158-.67 0-1.188-.079-1.188-.183 0-.107-.641-.182-1.555-.182-.914 0-1.555.075-1.555.182m85.231 0c0 .102-.484.183-1.086.183-.598 0-1.132.073-1.187.162-.055.089-.471.218-.925.286-.454.068-.826.201-.826.295 0 .095-.164.172-.365.172-.201 0-.366.082-.366.183 0 .1-.124.183-.274.183-.151 0-.275.082-.275.183 0 .1-.133.182-.296.182-.326 0-3.362 3.001-3.362 3.323 0 .111-.15.334-.334.497-.183.163-.45.563-.593.89-.143.327-.322.595-.398.595-.076 0-.138.114-.138.253s-.123.489-.273.777c-.15.288-.274.709-.275.936 0 .226-.083.411-.184.411-.1 0-.182.206-.182.457 0 .252-.083.458-.183.458-.101 0-.183.247-.183.548 0 .302-.083.549-.183.549-.101 0-.183.272-.183.604 0 .332-.074.681-.164.777-.292.309-.725 3.917-.739 6.164-.007 1.059-.086 1.783-.194 1.783-.115 0-.183 1.185-.183 3.19 0 1.929.072 3.235.183 3.303.1.062.188.911.194 1.885.014 2.237.447 5.845.739 6.153.09.096.164.446.164.778s.082.603.183.603c.1 0 .183.201.183.447 0 .245.082.497.183.559.1.062.183.314.183.56 0 .245.082.446.182.446.101 0 .184.185.184.412.001.226.125.647.275.935.15.288.273.638.273.777 0 .14.082.254.183.254.101 0 .183.123.183.274 0 .151.082.274.183.274.1 0 .183.103.183.229s.206.468.457.76.457.607.457.699c0 .232 2.177 2.336 2.416 2.336.106 0 .326.149.489.33.402.449 1.972 1.159 2.811 1.272.377.051.686.164.686.251 0 .088.535.159 1.188.159.671 0 1.189.08 1.189.183 0 .104.545.183 1.27.183.698 0 1.32-.082 1.382-.183.062-.101.597-.183 1.189-.183.592 0 1.12-.071 1.174-.159.054-.087.508-.213 1.009-.279.501-.067.961-.201 1.021-.299.061-.097.27-.177.465-.177s.355-.083.355-.183c0-.101.108-.183.24-.183s.416-.165.632-.366c.216-.201.441-.366.5-.366.142 0 .535-.331 1.244-1.048 1.032-1.044 1.408-1.495 1.408-1.689 0-.104.066-.189.147-.189.192 0 1.133-1.745 1.133-2.102 0-.152.082-.276.183-.276.1 0 .183-.206.183-.457 0-.252.082-.457.183-.457.1 0 .183-.247.183-.549 0-.302.082-.549.182-.549.101 0 .183-.23.183-.512 0-.282.074-.59.165-.686.179-.189.352-1.205.498-2.917.113-1.333-.074-1.46-2.45-1.659-.832-.069-1.557-.198-1.611-.285-.054-.088-.505-.159-1.002-.159s-.904-.083-.904-.183c0-.101-.365-.183-.812-.183-.447 0-.863-.082-.925-.183-.062-.101-.52-.183-1.017-.183h-.904v1.189c0 .671-.079 1.189-.183 1.189-.1 0-.182.37-.182.823 0 .453-.083.823-.183.823-.101 0-.183.247-.183.549 0 .301-.079.548-.175.548-.096 0-.229.288-.295.64-.066.353-.187.641-.269.641-.082 0-.262.102-.398.228-.692.636-2.887 1.019-2.887.503 0-.1-.103-.185-.229-.189-.332-.009-.92-.557-1.219-1.137-.143-.276-.328-.503-.412-.503-.084 0-.152-.123-.152-.274 0-.151-.073-.275-.162-.275-.089 0-.218-.452-.287-1.005-.069-.554-.194-1.006-.278-1.006-.182 0-.356-1.301-.484-3.613-.052-.93-.171-1.691-.265-1.691-.093 0-.17-.412-.17-.915v-.914h18.344l-.097-6.417c-.066-4.368-.162-6.481-.301-6.621-.113-.112-.205-.641-.205-1.174 0-.533-.082-.969-.183-.969-.1 0-.183-.324-.183-.721 0-.396-.082-.772-.183-.834-.1-.062-.182-.355-.182-.651 0-.296-.083-.538-.183-.538-.101 0-.183-.205-.183-.457 0-.251-.083-.457-.183-.457-.101 0-.183-.231-.183-.514 0-.282-.121-.673-.269-.869-.147-.195-.271-.499-.274-.675-.003-.176-.088-.32-.189-.32-.1 0-.183-.108-.183-.24s-.164-.416-.365-.632c-.201-.216-.366-.441-.366-.5 0-.314-2.01-2.286-2.33-2.286-.082 0-.269-.164-.414-.366-.145-.201-.41-.365-.589-.365s-.325-.063-.325-.139c0-.207-.905-.562-1.787-.701-.43-.068-.826-.194-.88-.282-.054-.087-.582-.159-1.174-.159s-1.127-.082-1.189-.183c-.062-.1-.725-.182-1.474-.182-.785 0-1.361.077-1.361.182m29.721 0c-.062.101-.561.183-1.108.183s-.995.083-.995.183c0 .101-.226.188-.503.193-.615.013-1.93.531-2.427.957-.202.172-.43.313-.507.313-.077 0-.259.165-.404.366-.145.201-.348.366-.452.366-.277 0-1.743 1.383-1.743 1.644 0 .123-.205.386-.457.584-.251.197-.457.48-.457.628 0 .148-.154.433-.341.635-.546.586-1.671 3.018-1.671 3.613 0 .205-.082.424-.183.486-.101.063-.183.314-.183.56 0 .245-.082.446-.183.446-.1 0-.183.288-.183.64 0 .353-.082.641-.183.641-.1 0-.182.312-.182.695 0 .382-.08.774-.177.871-.096.097-.232 1.306-.302 2.688-.069 1.382-.196 2.513-.281 2.513-.085 0-.155 2.222-.155 4.938 0 2.716.07 4.938.155 4.938.085 0 .208 1.128.274 2.507.066 1.378.203 2.588.303 2.688.1.101.183.449.183.775s.082.644.182.706c.101.062.183.396.183.743 0 .346.083.629.183.629.101 0 .183.206.183.457 0 .252.082.457.183.457.101 0 .183.214.183.476 0 .43.156.874.796 2.268.115.251.354.617.53.812.176.195.32.462.32.594 0 .132.082.24.183.24.101 0 .183.131.183.291 0 .359 3.032 3.367 3.395 3.367.145 0 .263.082.263.183 0 .101.123.183.274.183.151 0 .275.082.275.183 0 .1.157.183.35.183.193 0 .379.083.413.186.034.102.493.237 1.021.3.527.062.959.184.959.271 0 .086.448.157.995.157.547 0 1.046.082 1.108.183.063.101.726.183 1.474.183.786 0 1.361-.077 1.361-.183 0-.103.518-.183 1.189-.183s1.189-.08 1.189-.183c0-.1.248-.183.552-.183.6 0 2.74-.881 2.74-1.128 0-.084.159-.152.354-.152.194 0 .405-.165.469-.366.064-.201.265-.366.446-.366.448 0 2.744-2.557 2.752-3.063.001-.126.082-.229.178-.229.096 0 .228-.288.294-.64.066-.352.193-.64.283-.64.089 0 .162-.165.162-.366 0-.201.083-.366.183-.366.101 0 .183-.205.183-.457 0-.251.083-.457.183-.457.101 0 .183-.247.183-.549 0-.302.082-.549.183-.549.101 0 .183-.271.183-.603 0-.332.076-.682.168-.777.093-.096.224-.915.292-1.82l.124-1.646-.521-.22c-.286-.12-1.241-.275-2.121-.345-.88-.069-1.6-.197-1.6-.284 0-.086-.366-.157-.812-.157-.447 0-.864-.083-.926-.183-.062-.101-.473-.183-.914-.183-.441 0-.853-.082-.915-.183-.233-.378-1.737-.219-1.737.183 0 .201-.083.366-.183.366-.107 0-.183.609-.183 1.463 0 .853-.076 1.463-.183 1.463-.101 0-.183.247-.183.549 0 .302-.082.548-.183.548-.1 0-.183.169-.183.374s-.083.473-.185.594c-.101.122-.354.448-.561.724-.208.277-.495.503-.639.503-.143 0-.261.083-.261.183 0 .242-1.754.236-2.207-.007-.411-.219-1.451-1.206-1.451-1.376 0-.063-.161-.342-.359-.62-.198-.277-.414-.847-.481-1.267-.067-.419-.194-.806-.281-.86-.087-.054-.159-.376-.159-.717 0-.34-.082-.669-.183-.731-.1-.062-.183-.643-.183-1.291 0-.664-.08-1.178-.183-1.178-.109 0-.183-.701-.183-1.738v-1.737h8.884c7.455 0 8.926-.042 9.145-.262.295-.294.398-7.603.107-7.603-.085 0-.207-1.455-.271-3.234-.064-1.782-.2-3.318-.303-3.42-.102-.103-.186-.54-.186-.973 0-.433-.082-.786-.183-.786-.101 0-.183-.289-.183-.641 0-.352-.082-.64-.183-.64-.1 0-.183-.247-.183-.548 0-.302-.082-.549-.183-.549-.1 0-.183-.206-.183-.457 0-.252-.073-.458-.162-.458-.09 0-.217-.288-.283-.64-.066-.352-.198-.64-.294-.64-.096 0-.175-.165-.175-.366 0-.201-.082-.366-.183-.366-.101 0-.183-.118-.183-.264 0-.145-.152-.371-.338-.502-.187-.132-.467-.486-.623-.788-.335-.646-1.127-1.372-1.497-1.372-.143 0-.31-.156-.371-.346-.06-.19-.251-.392-.423-.449-.173-.057-.671-.315-1.106-.574-.436-.259-1.158-.521-1.606-.582-.447-.062-.857-.183-.91-.269-.054-.087-.541-.158-1.082-.158s-1.035-.082-1.097-.183c-.063-.1-.762-.182-1.555-.182-.793 0-1.492.082-1.555.182m56.243 1.005c-.14.169-.178.467-.099.778.07.277.17.813.223 1.191.053.378.17.732.26.788.09.055.163.466.163.913s.083.812.183.812c.101 0 .183.325.183.721 0 .397.083.772.183.834.101.062.183.396.183.742 0 .347.067.63.148.63.081 0 .247.72.368 1.6.359 2.61.429 2.97.601 3.076.09.055.163.42.163.811 0 .39.083.761.183.823.101.062.183.396.183.742s.082.63.183.63c.101 0 .183.37.183.823 0 .452.072.823.159.823.088 0 .217.657.287 1.46.07.803.204 1.507.298 1.565.094.058.17.425.17.816 0 .39.083.76.183.823.101.062.183.391.183.731 0 .34.083.67.183.732.101.062.183.437.183.834 0 .396.072.72.159.72.088 0 .217.657.287 1.46.07.803.204 1.508.298 1.566.094.058.171.425.171.815 0 .391.082.761.182.823.101.063.183.438.183.834 0 .397.083.721.183.721.101 0 .183.329.183.732 0 .402.082.731.183.731.101 0 .183.371.183.823 0 .453.074.823.164.823.09 0 .222.659.293 1.465.072.805.204 1.509.294 1.565.09.056.163.421.163.811 0 .391.083.761.183.823.101.062.183.392.183.732 0 .34.083.669.183.731.101.063.183.438.183.834 0 .397.072.721.159.721.088 0 .217.658.287 1.463.07.805.205 1.463.298 1.463.094 0 .171.366.171.813 0 .446.082.863.182.925.211.13.256 4.115.046 4.116-.075 0-.289.371-.475.823-.186.452-.421.822-.521.822-.101 0-.442.116-.759.258-1.135.507-2.989.787-3.281.495-.112-.112-.709-.204-1.327-.204-1.369 0-1.466.144-1.653 2.454-.07.863-.198 1.57-.285 1.57-.087 0-.158.37-.158.823 0 .452-.082.823-.183.823-.1 0-.183.365-.183.812 0 .447-.082.863-.183.925-.1.063-.183.438-.183.834v.721h1.179c.647 0 1.228.082 1.291.183.139.225 5.212.25 5.212.026 0-.086.646-.201 1.435-.255.789-.054 1.592-.18 1.783-.281.192-.1.74-.368 1.218-.596.477-.228.868-.484.868-.569 0-.085.139-.154.31-.154.365 0 2.982-2.664 2.982-3.036 0-.141.083-.256.183-.256.101 0 .183-.165.183-.366 0-.201.083-.366.183-.366.101 0 .183-.123.183-.274 0-.151.082-.275.183-.275.101 0 .183-.159.183-.355 0-.195.077-.402.172-.461.095-.059.228-.476.296-.928.067-.451.196-.866.285-.921.089-.055.161-.296.161-.535 0-.24.083-.487.183-.549.101-.062.183-.396.183-.742s.082-.63.183-.63c.101 0 .183-.324.183-.721 0-.396.075-.767.167-.824.092-.057.226-.721.296-1.476.071-.756.202-1.418.29-1.473.089-.055.161-.378.161-.718 0-.341.083-.67.183-.732.101-.062.183-.437.183-.834 0-.396.083-.721.183-.721.101 0 .183-.329.183-.731 0-.403.082-.732.183-.732.101 0 .183-.324.183-.721 0-.396.075-.767.167-.824.092-.057.226-.721.296-1.476.071-.756.202-1.418.29-1.473.089-.055.161-.424.161-.821 0-.396.083-.72.183-.72.101 0 .183-.325.183-.721 0-.397.082-.772.183-.834.101-.062.183-.391.183-.732 0-.34.075-.665.167-.722.092-.057.226-.72.296-1.474.071-.753.201-1.37.29-1.37.089 0 .161-.325.161-.721 0-.396.083-.772.183-.834.101-.062.183-.437.183-.834 0-.396.083-.72.183-.72.101 0 .183-.325.183-.721 0-.397.082-.772.183-.834.101-.062.183-.391.183-.732 0-.34.077-.666.17-.724.094-.058.228-.762.298-1.565.07-.803.199-1.46.287-1.46.088 0 .159-.283.159-.629 0-.347.083-.681.183-.743.101-.062.183-.437.183-.834 0-.396.082-.721.183-.721.101 0 .183-.324.183-.72 0-.397.082-.772.183-.834.1-.062.183-.392.183-.732 0-.34.076-.666.17-.724.094-.058.228-.762.298-1.565.07-.803.199-1.46.287-1.46.088 0 .159-.283.159-.63 0-.346.083-.68.183-.742.101-.062.183-.437.183-.834 0-.396.082-.721.183-.721.101 0 .183-.324.183-.72 0-.397.075-.768.167-.825.092-.057.225-.72.296-1.474.071-.753.201-1.37.29-1.37.089 0 .161-.364.161-.808 0-.444.077-.835.17-.869.093-.033.196-.555.229-1.158l.059-1.097h-10.243l-.057.685c-.031.378-.134.686-.228.686-.095 0-.172.453-.172 1.006 0 .553-.082 1.006-.183 1.006-.101 0-.183.436-.183.97 0 .533-.075 1.047-.166 1.143-.091.095-.213.585-.272 1.088a884.59 884.59 0 0 0-.324 2.881c-.121 1.081-.286 1.966-.369 1.966-.082 0-.149.406-.149.903s-.082.955-.183 1.017c-.101.062-.183.515-.183 1.006s-.082.944-.183 1.006c-.1.062-.183.515-.183 1.006s-.074.939-.165.995c-.091.056-.224.966-.296 2.023-.072 1.056-.204 1.92-.292 1.92-.089 0-.161.407-.161.904 0 .497-.083.955-.183 1.017-.101.062-.183.473-.183.914 0 .441-.082.853-.183.915-.101.062-.183.556-.183 1.097 0 .541-.082 1.035-.183 1.097-.106.066-.183-.109-.183-.415 0-.291-.061-.59-.137-.665-.12-.118-.365-1.991-.708-5.412-.056-.554-.176-1.085-.268-1.18-.092-.096-.167-.605-.167-1.132 0-.528-.082-1.01-.183-1.072-.1-.062-.183-.602-.183-1.2 0-.602-.081-1.086-.183-1.086-.1 0-.183-.448-.183-.995 0-.548-.072-1.04-.16-1.095-.089-.055-.22-1.047-.293-2.206-.072-1.159-.206-2.152-.296-2.208-.091-.056-.165-.591-.165-1.189 0-.602-.081-1.086-.183-1.086-.101 0-.183-.485-.183-1.087 0-.598-.082-1.138-.183-1.2-.1-.062-.183-.556-.183-1.097 0-.541-.082-1.035-.182-1.097-.101-.063-.183-.47-.183-.906 0-.554-.087-.826-.29-.904-.698-.268-10.633-.119-10.866.162m-11.158 22.966c0 20.75-.067 23.779-.468 21.108-.068-.452-.196-.866-.285-.921-.089-.055-.162-.301-.162-.547 0-.245-.082-.446-.182-.446-.101 0-.183-.247-.183-.549 0-.302-.083-.549-.183-.549-.101 0-.183-.206-.183-.457s-.072-.457-.159-.457c-.088 0-.214-.408-.28-.907-.066-.499-.2-.957-.298-1.017-.098-.06-.178-.306-.178-.545 0-.24-.082-.487-.183-.549-.1-.062-.182-.314-.182-.56 0-.245-.083-.446-.183-.446-.101 0-.183-.206-.183-.457 0-.252-.083-.458-.183-.458-.101 0-.183-.246-.183-.548 0-.302-.082-.549-.183-.549-.101 0-.183-.162-.183-.359 0-.405-.467-1.944-.737-2.428a1.657 1.657 0 0 1-.177-.686c0-.202-.083-.368-.183-.368-.101 0-.183-.201-.183-.446 0-.246-.073-.492-.162-.547-.089-.055-.217-.469-.285-.921-.068-.451-.201-.869-.295-.927-.095-.059-.173-.308-.173-.553 0-.246-.082-.447-.183-.447-.1 0-.182-.205-.182-.457 0-.251-.083-.457-.183-.457-.101 0-.183-.247-.183-.549 0-.302-.083-.549-.183-.549-.101 0-.183-.205-.183-.457 0-.251-.072-.457-.159-.457-.088 0-.214-.408-.28-.907-.066-.499-.2-.956-.298-1.017-.098-.06-.178-.306-.178-.545 0-.24-.082-.487-.182-.549-.101-.062-.183-.314-.183-.559 0-.246-.083-.447-.183-.447-.101 0-.183-.201-.183-.446 0-.246-.082-.498-.183-.56-.231-.143-.242-1.372-.012-1.372.093 0 .222-.164.286-.364.064-.201.216-.468.339-.595.269-.276.85-1.484.85-1.766 0-.11.082-.201.183-.201.101 0 .183-.165.183-.366 0-.201.068-.365.152-.365.084 0 .266-.227.405-.503.139-.277.394-.714.567-.972.173-.257.37-.69.438-.96.068-.271.197-.492.287-.492.089 0 .163-.127.163-.282 0-.155.164-.459.366-.675.201-.215.365-.5.365-.632s.079-.24.175-.24c.096 0 .229-.288.295-.64.066-.352.193-.64.282-.64.09 0 .163-.124.163-.275 0-.15.082-.274.183-.274.1 0 .183-.078.183-.173 0-.095.288-.665.64-1.265.352-.601.64-1.223.64-1.382 0-.159.082-.289.183-.289.101 0 .183-.124.183-.274 0-.151.082-.275.183-.275.1 0 .183-.09.183-.2 0-.11.159-.424.353-.697.195-.273.409-.718.477-.989.392-1.56.45 1.226.45 21.65M61.82 28.349c0 .101.117.183.261.183.144 0 .431.227.638.503.207.277.46.603.562.724a.914.914 0 0 1 .185.503c0 .155.082.282.183.282.1 0 .183.199.183.442s.075.47.167.503c.833.303.833 22.681 0 22.984-.092.034-.167.26-.167.503s-.083.442-.183.442c-.101 0-.183.127-.183.282 0 .365-.654 1.162-1.53 1.867-.366.296-1.833.296-2.353 0-.646-.367-1.421-1.182-1.421-1.494 0-.159-.082-.289-.183-.289-.101 0-.183-.206-.183-.457 0-.252-.082-.457-.183-.457-.1 0-.183-.242-.183-.538 0-.296-.082-.589-.183-.651-.1-.062-.183-.513-.183-1.002 0-.548-.087-.917-.228-.964-.334-.112-.334-17.356 0-17.467.145-.049.228-.437.228-1.067 0-.545.083-.991.183-.991.101 0 .183-.247.183-.548 0-.302.083-.549.183-.549.101 0 .183-.206.183-.457 0-.252.082-.458.183-.458.101 0 .183-.129.183-.288 0-.297.745-1.099 1.379-1.484.437-.266 2.279-.311 2.279-.057m75.766.046c.634.356 1.24 1.093 1.358 1.65.058.279.178.551.266.605.087.054.159.341.159.637 0 .295.082.537.183.537.102 0 .183.488.183 1.098 0 .609.081 1.097.183 1.097.111 0 .183.823.183 2.104v2.103h-7.682v-1.635c0-.9.07-1.679.155-1.732.086-.053.211-.819.279-1.702.067-.884.203-1.634.302-1.668.098-.033.178-.219.178-.411 0-.193.083-.351.183-.351.101 0 .183-.153.183-.341 0-1.36 2.621-2.702 3.887-1.991m148.468-.046c0 .101.088.183.196.183.253 0 .718.466.718.719 0 .108.063.196.14.196.226 0 .775 1.418.775 2.002 0 .295.082.588.183.65.1.062.183.556.183 1.097 0 .542.082 1.035.183 1.098.103.063.183.946.183 2.022v1.91h-7.682v-1.727c0-.954.082-1.777.183-1.84.1-.062.183-.514.183-1.006 0-.491.072-.937.161-.992.089-.055.218-.554.288-1.109.069-.554.202-1.008.295-1.008.094 0 .17-.127.17-.282 0-.813 1.697-2.085 2.789-2.09.583-.003 1.052.076 1.052.177m29.891.023c1.091.912 1.369 1.263 1.483 1.869.069.37.199.718.288.773.089.055.162.379.162.719 0 .34.083.669.183.732.101.062.183.882.183 1.829 0 .946.082 1.766.183 1.829.101.062.183.56.183 1.108v.995h-8.048v-.549c0-.302.083-.549.183-.549.108 0 .183-.627.183-1.518 0-.835.074-1.596.164-1.691.091-.096.206-.503.256-.906.173-1.383.791-3.2 1.088-3.2.076 0 .138-.131.138-.291 0-.324.696-.974 1.052-.984.126-.003.229-.088.229-.189 0-.251 1.785-.232 2.09.023M8.869 130.041c0 26.507.021 37.35.047 24.097s.026-34.94 0-48.194c-.026-13.253-.047-2.409-.047 24.097m14.263-23.319c0 7.946.023 11.171.05 7.165.028-4.006.028-10.508 0-14.449-.027-3.941-.05-.663-.05 7.284m.002 49.382c0 12.172.022 17.179.048 11.126.027-6.054.027-16.012 0-22.131-.026-6.119-.048-1.167-.048 11.005m76.403 2.563c.374.391.709.674.745.629.037-.045-.269-.365-.679-.711l-.746-.629.68.711" fill="#333333"/><path d="M120.896 78.647c-.151.097-.866.178-1.589.18-.724.001-1.366.085-1.429.185-.062.101-.56.183-1.108.183-.547 0-.995.073-.995.162 0 .088-.617.219-1.37.289-.754.071-1.418.204-1.474.296-.057.092-.382.168-.722.168-.341 0-.67.082-.732.183-.062.1-.314.183-.56.183-.245 0-.446.082-.446.182 0 .101-.288.183-.64.183-.352 0-.64.072-.64.16 0 .088-.319.21-.708.272-.389.063-.938.234-1.221.38-.283.147-.582.225-.665.174-.082-.051-.15-.015-.15.081 0 .095-.37.283-.823.416-.453.134-.823.308-.823.386 0 .079-.165.143-.366.143-.201 0-.365.076-.365.169 0 .092-.246.222-.547.288-.301.066-.594.196-.651.289-.057.093-.264.169-.459.169-.196 0-.355.082-.355.183 0 .1-.124.183-.275.183-.151 0-.274.082-.274.182 0 .101-.165.183-.366.183-.201 0-.367.062-.368.137-.001.076-.536.385-1.189.686-.652.302-1.186.611-1.186.686 0 .076-.106.137-.234.137-.129 0-.353.165-.498.366-.145.201-.41.366-.589.366s-.325.064-.325.141c0 .078-.289.297-.641.486-.352.19-.64.414-.64.499 0 .085-.086.154-.191.154-.105 0-.404.198-.665.44-.26.242-.688.55-.951.686-.262.135-.767.539-1.123.897-.355.358-.911.808-1.235 1-.325.192-.631.477-.681.634-.05.157-.27.407-.489.555-.219.148-.652.542-.961.875-.309.333-1.139 1.204-1.843 1.936-1.335 1.388-1.485 1.562-2.381 2.761-.3.402-.736.926-.969 1.164-.233.238-.501.609-.594.824-.234.537-.576 1.065-.904 1.394-.151.153-.392.504-.534.78-.142.277-.32.503-.395.503-.076 0-.19.236-.253.524-.063.288-.26.679-.436.869-.177.19-.44.612-.584.939-.145.327-.326.595-.402.595-.076 0-.138.08-.138.178 0 .271-.971 2.282-1.136 2.352-.079.033-.144.17-.144.303 0 .133-.157.558-.349.945-.657 1.325-.932 2.039-.932 2.422 0 .211-.082.384-.183.384-.1 0-.182.206-.182.457 0 .252-.083.458-.183.458-.101 0-.183.2-.183.446s-.083.497-.183.559c-.101.063-.183.339-.183.615 0 .276-.085.586-.188.689-.103.103-.238.613-.3 1.134-.061.52-.183.946-.269.946-.087 0-.158.329-.158.732 0 .402-.082.731-.182.731-.101 0-.183.371-.183.823 0 .453-.083.823-.183.823-.101 0-.183.448-.183.996 0 .547-.072 1.039-.159 1.093-.46.284-.63 11.945-.215 14.738.112.755.249 1.804.306 2.332.056.528.176.96.268.96.091 0 .166.371.166.823 0 .453.082.823.183.823.1 0 .182.33.182.732 0 .402.083.732.183.732.101 0 .187.267.191.594.005.327.127.924.272 1.326.145.402.265.876.266 1.052.002.176.085.32.186.32.1 0 .183.247.183.548 0 .302.082.549.183.549.1 0 .183.206.183.457 0 .252.073.458.162.458.139 0 .325.627.42 1.417.015.126.096.229.18.229.083 0 .152.121.152.269 0 .147.165.561.366.92.201.358.366.765.366.904 0 .14.061.281.137.315.075.033.459.719.854 1.524.394.805.949 1.807 1.234 2.228.285.42.518.833.518.917 0 .154 1.245 2.081 1.454 2.251.062.05.395.537.74 1.081.344.545.794 1.162 1 1.372.205.21.518.605.694.879.645 1.002 6.143 6.727 6.46 6.727.07 0 .301.186.514.414.212.228.674.617 1.027.865.352.248.829.638 1.06.866.23.229.521.416.645.416s.344.164.489.365c.145.202.332.366.414.366.083 0 .306.144.496.32.19.176.66.485 1.044.686.384.201.858.51 1.053.686.195.176.462.32.594.32.132 0 .24.066.24.145 0 .08.371.299.823.485.453.187.823.41.823.495 0 .085.165.155.366.155.201 0 .366.067.366.149 0 .082.288.262.64.4.352.138.64.318.64.4 0 .082.16.149.355.149.195 0 .402.075.458.167.057.092.432.222.834.29.402.068.731.199.731.29 0 .092.165.167.366.167.201 0 .365.083.365.183 0 .101.206.183.458.183.251 0 .457.082.457.183 0 .101.125.183.277.183.152 0 .42.08.594.177.57.318 2.056.737 2.61.737.299 0 .543.083.543.183 0 .101.201.183.446.183.246 0 .498.082.56.183.062.101.391.183.731.183.341 0 .67.082.732.183.062.1.391.183.731.183.341 0 .666.076.723.168.057.093.926.227 1.931.298 1.005.071 1.828.201 1.828.289 0 .088.869.159 1.931.159 1.12 0 1.888.07 1.828.167-.061.099 1.175.177 2.992.19 1.965.014 3.138-.047 3.212-.167.068-.109.846-.19 1.834-.19.943 0 1.759-.07 1.812-.155.052-.086.9-.212 1.883-.281.982-.069 1.866-.205 1.963-.302.097-.097.484-.176.86-.176.377 0 .735-.083.797-.183.063-.101.397-.183.743-.183s.629-.082.629-.183c0-.101.247-.183.549-.183.302 0 .549-.073.549-.162 0-.089.451-.218 1.003-.287.551-.069 1.05-.202 1.108-.295.058-.094.265-.17.46-.17s.355-.083.355-.183c0-.101.166-.183.368-.183.203 0 .511-.075.686-.167.861-.453 2.412-1.107 3.107-1.31.427-.125.777-.281.777-.347 0-.066.288-.233.64-.371.352-.138.641-.318.641-.4 0-.082.164-.149.365-.149.202 0 .366-.07.366-.155 0-.085.371-.308.823-.495.453-.186.823-.405.823-.485 0-.079.108-.145.24-.145s.4-.144.595-.32c.195-.176.683-.485 1.086-.686.402-.201.864-.51 1.027-.686.163-.176.371-.32.463-.32.091 0 .285-.164.43-.366.145-.201.361-.365.48-.365.228 0 1.199-.74 2.698-2.054.49-.43.968-.81 1.061-.845.258-.098 4.54-4.424 4.54-4.587 0-.078.227-.381.503-.672a28.9 28.9 0 0 0 1.235-1.445c.402-.503.793-.942.869-.975.075-.034.137-.146.137-.25 0-.104.226-.459.503-.788.871-1.037 1.143-1.437 1.143-1.682 0-.13.082-.237.183-.237.1 0 .183-.123.183-.274 0-.151.082-.275.183-.275.1 0 .182-.123.182-.274 0-.151.064-.274.142-.274.078 0 .305-.37.503-.822.199-.451.423-.822.499-.823.075-.001.137-.166.137-.367 0-.201.082-.366.183-.366.1 0 .183-.123.183-.274 0-.151.082-.275.182-.275.101 0 .183-.164.183-.365 0-.202.076-.366.169-.366.092 0 .222-.246.288-.547.066-.301.196-.593.289-.651.093-.057.169-.264.169-.459s.082-.355.183-.355c.1 0 .183-.16.183-.355 0-.195.082-.406.183-.468.1-.062.182-.273.182-.468 0-.196.083-.355.183-.355.101 0 .183-.165.183-.366 0-.201.073-.366.162-.366.09 0 .218-.368.285-.819.068-.45.201-.866.295-.925.095-.059.173-.302.173-.542 0-.24.082-.487.183-.549.1-.062.182-.309.182-.548 0-.24.083-.487.183-.549.101-.062.183-.309.183-.549 0-.239.074-.481.163-.536.167-.104.213-.304.61-2.696.128-.771.295-1.464.37-1.539.076-.075.138-.518.138-.984 0-.466.075-.926.168-1.021.402-.416.766-13.305.386-13.685-.104-.103-.189-.707-.189-1.34 0-.647-.08-1.153-.183-1.153-.1 0-.182-.452-.182-1.006 0-.553-.072-1.006-.16-1.006-.087 0-.216-.657-.286-1.46-.07-.803-.204-1.507-.298-1.565-.094-.058-.171-.389-.171-.735s-.082-.629-.183-.629c-.1 0-.183-.247-.183-.549 0-.302-.073-.549-.162-.549-.089 0-.204-.226-.255-.503-.145-.786-1.024-3.309-1.433-4.112a1.593 1.593 0 0 1-.162-.595c0-.152-.082-.277-.182-.277-.101 0-.183-.164-.183-.365 0-.202-.083-.366-.183-.366-.101 0-.183-.149-.183-.331 0-.182-.121-.491-.269-.686-.147-.195-.271-.499-.274-.675-.003-.176-.088-.32-.189-.32-.1 0-.183-.165-.183-.366 0-.201-.082-.366-.183-.366-.1 0-.182-.123-.182-.274 0-.151-.083-.274-.183-.274-.101 0-.183-.165-.183-.366 0-.201-.074-.366-.163-.366-.09 0-.215-.206-.278-.457-.063-.252-.196-.457-.294-.457-.099 0-.18-.165-.18-.366 0-.201-.082-.366-.183-.366-.1 0-.183-.111-.183-.246s-.164-.395-.365-.577c-.202-.182-.366-.408-.366-.503 0-.094-.371-.659-.823-1.254-.453-.595-.823-1.163-.823-1.263 0-.099-.077-.181-.171-.181-.094 0-.216-.144-.272-.32-.057-.176-.432-.67-.836-1.098-.403-.427-.733-.822-.733-.876 0-.292-6.01-6.302-6.302-6.302-.055 0-.438-.329-.853-.732-.415-.402-.813-.731-.886-.731-.073 0-.372-.206-.664-.457-.292-.252-.626-.457-.741-.457-.115-.001-.257-.125-.315-.278-.058-.152-.294-.358-.523-.457a5.678 5.678 0 0 1-1.492-.958c-.2-.176-.472-.32-.604-.32s-.24-.082-.24-.182c0-.101-.114-.183-.252-.183-.139 0-.355-.124-.48-.275a.847.847 0 0 0-.571-.274c-.189 0-.343-.082-.343-.183 0-.101-.165-.183-.366-.183-.201 0-.366-.067-.366-.149 0-.081-.288-.261-.64-.4-.352-.138-.64-.318-.64-.4 0-.081-.144-.151-.32-.154-.176-.003-.48-.127-.675-.274-.196-.148-.504-.269-.686-.269-.182 0-.331-.082-.331-.183 0-.1-.165-.183-.366-.183-.201 0-.366-.082-.366-.183 0-.1-.124-.183-.276-.183a1.59 1.59 0 0 1-.595-.161 12.21 12.21 0 0 0-.775-.347 58.6 58.6 0 0 1-1.125-.479c-.367-.161-.877-.293-1.132-.293-.256 0-.515-.082-.578-.183-.062-.1-.309-.183-.548-.183-.24 0-.487-.082-.549-.183-.062-.1-.314-.182-.56-.182-.245 0-.446-.083-.446-.183 0-.101-.252-.183-.561-.183-.308 0-.712-.081-.897-.18-.185-.099-.92-.235-1.634-.301-.714-.066-1.298-.191-1.298-.277 0-.086-.447-.157-.995-.157-.547 0-1.046-.082-1.108-.183-.062-.1-.721-.183-1.463-.183-.743 0-1.401-.082-1.463-.182-.149-.242-8.681-.242-9.054 0m118.336 0c-.151.097-.871.178-1.601.18-.76.001-1.326.08-1.326.185 0 .101-.439.183-.975.183-.537 0-1.037.062-1.112.137-.074.076-.808.243-1.63.371-2.385.373-2.682.438-2.788.61-.055.089-.297.163-.536.163-.24 0-.487.082-.549.182-.062.101-.314.183-.559.183-.246 0-.447.073-.447.162 0 .09-.391.221-.869.292-.477.071-.951.189-1.051.262-.101.073-.533.243-.96.378-.428.135-.778.314-.778.399 0 .084-.16.153-.355.153-.195 0-.406.083-.468.183-.062.101-.273.183-.468.183s-.355.083-.355.183c0 .101-.149.183-.331.183-.182 0-.49.121-.686.269-.195.147-.499.271-.675.274-.176.003-.32.088-.32.189 0 .1-.164.183-.366.183-.201 0-.365.082-.365.182 0 .101-.124.183-.275.183-.151 0-.274.083-.274.183 0 .101-.165.183-.366.183-.201 0-.366.067-.366.148 0 .081-.348.301-.773.489-.425.187-.934.491-1.132.675-.197.184-.466.334-.598.334-.132 0-.24.063-.24.14 0 .139-.542.47-1.143.697-.176.066-.32.193-.32.282 0 .089-.104.161-.231.161-.126 0-.333.165-.458.366-.126.201-.314.366-.418.366-.104 0-.411.206-.683.457-.271.252-.558.458-.638.458-.08 0-.417.267-.75.594a17.33 17.33 0 0 1-1.228 1.082c-.816.638-4.161 3.93-4.708 4.634a24.2 24.2 0 0 1-1.052 1.226c-.344.373-.625.733-.625.801 0 .068-.288.442-.641.832-.352.389-.64.791-.64.892 0 .101-.23.425-.511.719-.281.295-.631.767-.777 1.05-.147.284-.369.624-.495.757s-.229.322-.229.419c0 .098-.164.354-.365.57-.202.216-.366.501-.366.633s-.082.24-.183.24c-.101 0-.183.123-.183.274 0 .151-.076.274-.168.274-.093 0-.223.247-.289.549-.066.302-.196.549-.289.549-.093 0-.168.123-.168.274 0 .151-.083.274-.183.274-.101 0-.183.121-.183.268 0 .148-.192.621-.426 1.052a12.81 12.81 0 0 0-.659 1.424c-.128.352-.4 1.01-.603 1.463a33.773 33.773 0 0 0-.53 1.235l-.323.823c-.462 1.161-.751 2.111-.751 2.464 0 .217-.083.446-.183.508-.101.062-.183.355-.183.651 0 .296-.083.538-.183.538-.101 0-.183.283-.183.629 0 .346-.082.68-.183.742-.101.063-.183.351-.183.641 0 .289-.074.573-.166.629-.091.057-.224.886-.296 1.843-.072.957-.203 1.785-.291 1.839-.089.055-.161.748-.161 1.541 0 .793-.083 1.493-.183 1.555-.114.07-.183 1.861-.183 4.766 0 2.98.066 4.653.183 4.653.104 0 .183.55.183 1.283 0 .706.075 1.426.168 1.6.092.175.253 1.059.356 1.964.258 2.246.402 3.003.593 3.122.09.055.163.384.163.73s.082.629.183.629c.1 0 .183.242.183.538 0 .296.082.589.183.651.1.062.183.291.183.508 0 .505.467 1.856 1.262 3.651.211.477.384.991.384 1.143 0 .152.082.276.183.276.1 0 .183.144.184.32 0 .176.124.556.274.844.15.288.273.631.273.762s.072.266.16.3c.087.033.324.39.526.792.905 1.801 1.434 2.761 1.646 2.985.126.133.229.313.229.399 0 .086.103.267.228.401.126.135.384.548.573.919.19.371.498.84.686 1.041.188.202.342.446.342.542 0 .097.066.203.148.237.081.033.401.431.712.884.31.452.717 1.002.904 1.221.186.219.627.772.979 1.228.352.457.784.88.96.941.176.06.321.185.321.278 0 .343 2.974 3.465 3.301 3.465a.18.18 0 0 1 .174.183c0 .1.123.182.274.182.151 0 .274.078.274.172 0 .202 1.306 1.471 1.518 1.473.08.001.349.206.599.455.249.25.966.799 1.592 1.222.626.422 1.262.906 1.412 1.075.151.168.46.365.686.436.227.072.412.207.412.301s.164.17.366.17c.201 0 .365.083.365.183 0 .101.124.183.275.183.151 0 .274.083.274.183 0 .101.124.183.275.183.15 0 .274.063.274.14 0 .077.35.291.777.476.428.185.819.39.869.457.142.187 3.569 1.853 3.812 1.853.119 0 .36.077.534.171.175.094.585.279.912.411.327.132.595.302.595.378 0 .076.247.138.548.138.302 0 .549.082.549.183 0 .1.201.183.447.183.245 0 .495.08.556.177.06.098.518.232 1.017.298.498.066.906.192.906.28 0 .087.247.159.549.159.302 0 .549.074.549.164 0 .09.309.21.686.267 1.702.257 2.155.358 2.246.499.053.083.979.208 2.057.278 1.079.069 1.961.197 1.961.282 0 .086.777.156 1.727.156.954 0 1.777.082 1.84.183.067.11 1.309.183 3.109.183s3.041-.073 3.109-.183c.062-.101.876-.183 1.809-.183.933 0 1.758-.061 1.833-.137.075-.075.973-.237 1.997-.359 2.845-.339 3.415-.443 3.415-.62 0-.09.283-.164.629-.164.346 0 .68-.082.742-.183.063-.101.351-.183.641-.183.289 0 .571-.071.625-.159.054-.087.45-.223.879-.302.43-.079.823-.158.873-.177.896-.33 1.653-.642 2.055-.846.175-.089.442-.162.595-.162.152 0 .277-.082.277-.183 0-.1.164-.183.365-.183.202 0 .366-.082.366-.183 0-.1.163-.183.361-.183.405 0 2.441-.911 2.535-1.135.034-.08.219-.145.412-.145.192 0 .35-.082.35-.183 0-.1.165-.183.366-.183.201 0 .366-.064.366-.142 0-.079.226-.238.503-.353.585-.245 1.49-.785 1.817-1.086.125-.115.601-.39 1.057-.61.456-.221.829-.477.829-.568 0-.092.108-.167.24-.167s.417-.165.633-.366c.216-.201.443-.366.505-.366.061 0 .22-.102.353-.228.132-.126.461-.388.73-.583.269-.195.669-.511.889-.702.22-.191.634-.525.919-.743.529-.403 2.735-2.402 3.114-2.821.114-.127.846-.883 1.625-1.68.78-.797 1.418-1.502 1.418-1.566 0-.064.103-.222.228-.352.126-.13.476-.536.778-.903a52.63 52.63 0 0 1 1.051-1.234c.277-.311.503-.663.503-.781s.165-.333.366-.478c.201-.145.366-.353.366-.463 0-.11.144-.359.32-.554.176-.195.485-.68.686-1.077.357-.705.681-1.176 1.143-1.663.126-.132.229-.363.229-.513 0-.149.063-.299.141-.333.194-.083 1.505-2.71 1.505-3.016 0-.135.063-.246.139-.246.148 0 .775-1.335.775-1.649 0-.102.073-.327.162-.502.089-.175.263-.565.387-.866.124-.302.298-.692.387-.867.089-.174.162-.442.162-.594 0-.152.072-.277.162-.277.089 0 .207-.226.262-.503.221-1.105.589-2.401.719-2.53.075-.076.137-.37.137-.655 0-.285.082-.519.183-.519.1 0 .183-.329.183-.731 0-.403.082-.732.183-.732.1 0 .182-.37.182-.823 0-.453.075-.823.166-.823.091 0 .224-.885.296-1.966.071-1.081.198-2.051.28-2.154.437-.547.444-12.707.007-12.707-.08 0-.199-.83-.266-1.844-.066-1.015-.202-1.997-.302-2.183-.099-.186-.181-.586-.181-.888 0-.303-.082-.601-.182-.663-.101-.062-.183-.391-.183-.732 0-.34-.083-.669-.183-.731-.101-.062-.183-.396-.183-.743 0-.346-.066-.629-.147-.629-.13 0-.388-.887-.705-2.423-.057-.277-.177-.503-.266-.503-.09 0-.162-.206-.162-.458 0-.251-.083-.457-.183-.457-.101 0-.183-.16-.183-.355 0-.195-.083-.406-.183-.468-.101-.062-.183-.314-.183-.559 0-.246-.082-.447-.183-.447-.101 0-.183-.144-.184-.32-.001-.176-.124-.556-.274-.844-.151-.288-.274-.631-.274-.762s-.061-.266-.137-.299c-.075-.034-.466-.72-.869-1.524-.402-.805-.793-1.491-.868-1.524-.076-.034-.137-.177-.137-.318 0-.237-.296-.671-.869-1.275-.126-.132-.229-.322-.229-.422 0-.267-.618-1.306-.777-1.307-.076-.001-.137-.112-.137-.247s-.165-.395-.366-.577c-.201-.182-.366-.404-.366-.493 0-.173-.202-.44-.869-1.154-.226-.242-.411-.488-.411-.548 0-.059-.206-.314-.457-.565-.252-.252-.458-.523-.458-.603 0-.08-.699-.869-1.554-1.753-.855-.884-1.555-1.66-1.555-1.723 0-.063-.294-.361-.654-.662a43.595 43.595 0 0 1-1.619-1.461c-1.753-1.663-2.481-2.276-3.06-2.576a4.901 4.901 0 0 1-.977-.689c-.659-.644-1.431-1.212-1.966-1.449-.277-.122-.503-.285-.503-.361 0-.076-.124-.138-.275-.138-.15 0-.274-.082-.274-.183 0-.1-.111-.183-.246-.183s-.391-.16-.568-.355c-.176-.196-.573-.411-.881-.478-.308-.068-.707-.258-.886-.422-.49-.451-3.729-2.037-4.158-2.037-.116 0-.211-.082-.211-.183 0-.1-.16-.183-.355-.183-.195 0-.406-.082-.468-.182-.062-.101-.273-.183-.468-.183s-.355-.073-.355-.163c0-.089-.226-.208-.503-.266-1.186-.245-2.241-.579-2.241-.71 0-.078-.242-.142-.537-.142-.296 0-.589-.082-.651-.183-.063-.1-.31-.182-.549-.182-.24 0-.481-.074-.536-.163-.107-.172-.403-.237-2.788-.61-.822-.128-1.556-.295-1.631-.371-.075-.075-.529-.137-1.009-.137-.48 0-.924-.082-.986-.183-.062-.1-.767-.183-1.566-.183-.846 0-1.452-.076-1.452-.182 0-.243-8.587-.243-8.962 0m-228.79 1.152c-.342.12-.795.452-1.006.736l-.383.516-.091 48.683c-.05 26.776-.03 48.762.046 48.858.075.095.137.386.137.645 0 .275.162.584.388.741.214.148.496.372.627.498.181.172 1.609.228 5.843.228h5.603l.674-.635.674-.636.05-22.684.05-22.684h18.011c11.886 0 18.011-.062 18.011-.183 0-.101.206-.183.458-.183.5 0 1.188-.577 1.188-.995 0-.145.083-.314.183-.377.114-.07.183-1.821.183-4.646 0-4.652-.079-5.234-.816-5.979-.609-.615-.846-.623-19.108-.623H23.045v-28.71l19.386-.048 19.385-.048.459-.495.459-.495v-5.221c0-3.359-.065-5.221-.183-5.221-.1 0-.182-.11-.182-.246 0-.135-.174-.402-.385-.594-.481-.435-50.327-.63-51.542-.202m301.167.017c-.682.372-1.047.757-1.047 1.104 0 .158-.082.287-.182.287-.122 0-.183 16.37-.183 48.745v48.744l.386.821c.257.547.501.821.731.821.19 0 .346.083.346.183 0 .121 5.304.183 15.546.183 8.551 0 15.547-.07 15.547-.155 0-.085 1.213-.212 2.696-.283 1.484-.07 2.776-.206 2.872-.302.096-.096.565-.174 1.042-.174.477 0 .918-.083.98-.183.062-.101.478-.183.925-.183.447 0 .812-.082.812-.183 0-.101.284-.183.63-.183.346 0 .68-.082.742-.183.062-.1.35-.183.64-.183.29 0 .578-.082.641-.183.062-.1.286-.183.497-.183.212 0 .845-.133 1.407-.297.973-.283 1.247-.378 2.302-.8l.915-.366c.251-.1.642-.258.868-.35.227-.093.659-.247.961-.344.949-.303 2.103-.849 2.103-.995 0-.077.158-.14.351-.14.192 0 .378-.061.411-.137.034-.075.574-.384 1.201-.686.627-.302 1.142-.61 1.143-.686.002-.075.127-.137.278-.137.151 0 .274-.082.274-.183 0-.1.165-.183.366-.183.201 0 .366-.08.366-.179 0-.099.199-.23.443-.291.244-.061.586-.268.76-.461.174-.192.409-.349.522-.349.113 0 .324-.164.469-.366.145-.201.349-.367.452-.368.175-.003.746-.452 1.967-1.548a9.889 9.889 0 0 1 1.002-.774c.64-.415 3.628-3.398 4.353-4.345.301-.394.733-.903.96-1.13.226-.228.411-.47.411-.538 0-.069.15-.257.333-.42.184-.163.489-.563.68-.89.191-.327.411-.595.49-.595.079 0 .143-.123.143-.274 0-.151.083-.275.183-.275a.187.187 0 0 0 .183-.19c0-.105.17-.372.379-.594.208-.223.424-.631.48-.907.056-.277.173-.503.261-.503.088 0 .16-.124.16-.275 0-.151.083-.274.183-.274.101 0 .183-.123.183-.274 0-.151.083-.275.183-.275.101 0 .183-.09.183-.2 0-.11.17-.44.378-.732s.315-.531.238-.531c-.077 0-.042-.099.079-.219a.891.891 0 0 0 .22-.549c0-.181.082-.329.182-.329.101 0 .183-.165.183-.366 0-.201.083-.366.183-.366.101 0 .183-.108.183-.24s.206-.667.457-1.188c.252-.521.458-1.154.458-1.406s.082-.458.183-.458c.1 0 .182-.148.182-.329 0-.181.068-.408.152-.503.083-.096.255-.544.383-.997.128-.453.307-.966.398-1.141.091-.174.165-.478.165-.675 0-.196.076-.404.168-.461.093-.058.226-.64.296-1.294.07-.654.2-1.234.289-1.289.089-.055.161-.424.161-.821 0-.396.083-.721.183-.721.101 0 .183-.447.183-.995 0-.547.082-1.046.183-1.108.101-.062.183-.585.183-1.163 0-.591.099-1.149.226-1.276.314-.314.333-14.299.02-14.68-.116-.141-.257-.75-.313-1.354-.188-2.022-.333-2.925-.499-3.1-.091-.095-.166-.486-.166-.869 0-.382-.082-.695-.183-.695-.1 0-.184-.267-.187-.594-.002-.327-.176-1.212-.387-1.966-.21-.755-.424-1.599-.474-1.877-.05-.278-.164-.55-.253-.605-.089-.055-.162-.301-.162-.547 0-.245-.082-.446-.183-.446-.1 0-.183-.201-.183-.447 0-.245-.067-.488-.149-.538-.082-.051-.308-.591-.503-1.2-.194-.609-.415-1.107-.491-1.107-.075 0-.137-.165-.137-.366 0-.201-.082-.366-.183-.366-.1 0-.183-.148-.183-.329 0-.181-.088-.417-.195-.525a1.085 1.085 0 0 1-.252-.448c-.118-.532-.554-1.441-.69-1.441-.079 0-.143-.124-.143-.275 0-.151-.082-.274-.183-.274-.1 0-.183-.165-.183-.366 0-.201-.082-.366-.183-.366-.1 0-.183-.123-.183-.274 0-.151-.061-.275-.137-.275-.075 0-.373-.453-.662-1.006-.289-.553-.598-1.005-.686-1.005-.088 0-.161-.103-.161-.229s-.206-.468-.457-.76-.457-.589-.457-.659c0-.07-.226-.367-.503-.661a18.074 18.074 0 0 1-1.049-1.26c-.649-.863-4.939-5.145-5.678-5.668a8.948 8.948 0 0 1-.934-.777c-.229-.226-.523-.412-.654-.412-.132 0-.342-.164-.467-.365-.126-.202-.346-.366-.489-.366-.143 0-.377-.118-.52-.261-.393-.393-2.819-1.934-3.044-1.934-.108 0-.197-.082-.197-.183 0-.1-.123-.183-.274-.183-.151 0-.274-.082-.274-.183 0-.1-.132-.183-.292-.183-.161 0-.515-.159-.789-.353a3.641 3.641 0 0 0-1.034-.486c-.295-.072-.578-.18-.629-.24-.204-.244-.932-.567-1.278-.567-.202 0-.368-.069-.368-.153 0-.085-.35-.267-.777-.406a10.58 10.58 0 0 1-1.235-.485c-.251-.129-.642-.234-.869-.235-.226 0-.411-.083-.411-.184 0-.1-.201-.183-.447-.183-.245 0-.497-.082-.559-.183-.062-.1-.274-.183-.471-.183-.196 0-.5-.074-.675-.165-.174-.09-.688-.264-1.14-.384a15.576 15.576 0 0 1-1.231-.379c-.225-.087-.945-.213-1.601-.28-.656-.067-1.192-.185-1.192-.262 0-.134-.453-.21-2.744-.464-.553-.061-1.084-.186-1.179-.277-.096-.092-.768-.166-1.494-.166-.874 0-1.345-.075-1.394-.223-.124-.373-32.065-.442-32.746-.071M131.108 92.551c.034.098.507.179 1.052.179s.99.082.99.183c0 .1.284.183.63.183.346 0 .68.082.742.182.062.101.315.183.562.183.247 0 .592.073.767.161.585.296 2.142.756 2.558.755.226-.001.411.081.411.182 0 .1.206.183.458.183.251 0 .457.082.457.183 0 .1.164.182.366.182.201 0 .365.083.365.183 0 .101.125.183.277.183.152 0 .42.073.595.163.174.089.646.316 1.049.503.402.187.759.402.792.477.034.076.178.138.32.138.143 0 .26.082.26.182 0 .101.164.183.365.183.202 0 .366.083.366.183 0 .101.124.183.275.183.15 0 .274.087.274.194 0 .106.082.143.183.08.1-.062.183-.025.183.081 0 .107.146.194.325.194.179 0 .444.164.589.366.145.201.362.365.483.365.12 0 .246.062.279.138.034.075.694.615 1.467 1.199 1.582 1.195 4.552 4.048 5.368 5.156.296.403.663.855.817 1.006.443.438 1.28 1.606 1.28 1.789 0 .091.164.315.366.498.201.182.365.423.365.536 0 .113.165.324.366.469.201.145.366.363.366.483 0 .275.592 1.417.777 1.499.076.033.137.177.137.32 0 .142.083.259.183.259.101 0 .183.165.183.366 0 .201.074.366.163.366.09 0 .219.22.287.49.067.27.282.821.477 1.223.194.403.354.841.354.973s.082.24.182.24c.101 0 .183.206.183.457 0 .252.083.458.183.458.101 0 .183.165.183.368 0 .202.079.511.176.686.176.319.503 1.631.682 2.741.053.327.17.594.26.594.089 0 .162.37.162.823 0 .453.083.823.183.823.101 0 .183.395.183.878s.103.981.229 1.107c.324.324.319 11.441-.006 11.766-.123.123-.223.618-.223 1.101 0 .482-.082.878-.183.878-.1 0-.183.324-.183.72 0 .397-.073.766-.162.822-.09.055-.206.368-.259.696-.18 1.11-.507 2.424-.683 2.743a1.676 1.676 0 0 0-.176.686c0 .202-.062.369-.137.37-.186.002-.594.906-.594 1.315 0 .181-.083.329-.183.329-.101 0-.183.121-.183.268 0 .331-.59 1.63-.778 1.714-.075.033-.137.203-.137.377s-.164.492-.366.708c-.201.216-.365.52-.365.675 0 .155-.074.282-.163.282-.09 0-.215.206-.278.457-.063.252-.196.458-.294.458-.099 0-.18.157-.18.35 0 .193-.069.378-.153.412-.084.033-.456.513-.827 1.067-1.597 2.383-4.962 6.059-6.951 7.593-.388.3-.88.695-1.093.877-.212.182-.697.506-1.076.72-.38.213-.691.455-.691.537 0 .082-.105.149-.234.149-.128 0-.352.165-.497.366-.145.201-.391.366-.547.366-.156 0-.586.205-.956.457-.37.251-.759.457-.865.457a.189.189 0 0 0-.193.183c0 .101-.123.183-.274.183-.151 0-.275.082-.275.183 0 .1-.128.183-.286.183-.157 0-.736.206-1.286.457-.549.251-1.12.457-1.268.457-.148 0-.269.083-.269.183 0 .101-.16.183-.355.183-.195 0-.406.082-.468.183-.062.101-.314.183-.56.183-.245 0-.446.076-.446.17 0 .093-.454.226-1.008.295-.555.07-1.054.199-1.109.288-.054.089-.383.161-.729.161s-.629.083-.629.183c0 .101-.324.183-.721.183-.396 0-.772.082-.834.183-.062.101-.561.183-1.108.183s-.995.082-.995.183c0 .112-.854.183-2.197.183-1.43 0-2.333.08-2.585.228-.31.183-.404.183-.47 0-.06-.166-.721-.228-2.445-.228-1.453 0-2.362-.071-2.362-.183 0-.101-.448-.183-.996-.183-.547 0-1.046-.082-1.108-.183-.062-.101-.432-.183-.823-.183-.39 0-.755-.073-.81-.163-.056-.089-.369-.208-.697-.264-1.266-.215-2.517-.566-2.517-.706 0-.081-.247-.147-.548-.147-.302 0-.549-.082-.549-.183 0-.101-.206-.183-.457-.183-.252 0-.458-.082-.458-.183 0-.1-.108-.183-.24-.183s-.569-.159-.972-.354c-.403-.194-.953-.409-1.223-.477-.27-.067-.491-.196-.491-.286 0-.09-.158-.163-.35-.163-.193 0-.378-.062-.412-.137-.117-.265-1.218-.945-1.734-1.073-.287-.071-.629-.281-.761-.466-.131-.185-.358-.336-.503-.336-.145 0-.264-.068-.264-.152 0-.084-.226-.269-.503-.411a5.468 5.468 0 0 1-.958-.672c-.25-.226-.564-.411-.697-.411-.132 0-.19-.082-.128-.183.062-.101.016-.183-.102-.183s-.539-.308-.935-.686a44.492 44.492 0 0 0-1.702-1.509c-.539-.452-.987-.896-.995-.986-.014-.154-.39-.58-1.799-2.042-.327-.34-.594-.699-.594-.798 0-.099-.206-.387-.457-.638-.252-.251-.458-.528-.458-.614 0-.086-.149-.317-.332-.513-.448-.481-1.679-2.419-1.679-2.643a.182.182 0 0 0-.183-.179c-.101 0-.183-.165-.183-.366 0-.201-.083-.366-.183-.366a.179.179 0 0 1-.183-.173c0-.262-1.343-3.018-1.505-3.088-.078-.034-.141-.26-.141-.503s-.082-.442-.183-.442c-.101 0-.183-.121-.183-.268 0-.331-.497-1.905-.737-2.336-.098-.175-.177-.52-.177-.767s-.074-.494-.163-.549c-.153-.094-.208-.325-.501-2.07-.063-.377-.181-.729-.262-.781-.712-.458-.685-15.433.028-15.695.091-.034.166-.379.166-.767s.082-.756.183-.818c.1-.063.183-.356.183-.651 0-.296.082-.538.183-.538.1 0 .183-.288.183-.64 0-.353.082-.641.182-.641.101 0 .183-.128.183-.285 0-.349.511-2.063.745-2.501.094-.175.17-.442.17-.595 0-.152.082-.277.183-.277.1 0 .182-.102.181-.228-.002-.352 2.037-4.344 2.219-4.344.088 0 .16-.155.16-.343 0-.189.124-.446.275-.572.151-.125.274-.341.274-.479 0-.139.068-.252.152-.252.084 0 .269-.226.412-.503.142-.277.444-.692.671-.923.226-.231.411-.486.411-.567 0-.081.247-.406.549-.722.302-.316.549-.619.549-.674 0-.22 3.377-3.664 4.12-4.201.278-.202.802-.64 1.165-.974.362-.334.885-.743 1.162-.908.276-.166.503-.365.503-.444 0-.079.156-.144.346-.144.19 0 .391-.116.445-.258.096-.249.358-.417 1.769-1.134.352-.18.682-.382.732-.449.121-.164 2.884-1.451 3.113-1.451a.181.181 0 0 0 .179-.183c0-.1.165-.183.366-.183.201 0 .366-.082.366-.182 0-.101.201-.183.446-.183.246 0 .494-.078.553-.173.059-.094.476-.227.928-.295.451-.068.866-.196.921-.285.055-.089.296-.162.535-.162.24 0 .487-.082.549-.183.062-.1.35-.183.64-.183.29 0 .578-.082.64-.183.062-.1.392-.182.732-.182.34 0 .669-.083.731-.183.063-.101.52-.183 1.017-.183.497 0 .904-.079.904-.176 0-.376 11.364-.379 11.492-.003m118.335-.005c.034.101.461.184.95.184.489 0 .939.082 1.002.183.062.1.437.183.833.183.397 0 .721.082.721.182 0 .101.247.183.549.183.302 0 .549.083.549.183 0 .101.242.183.538.183.295 0 .582.073.637.162.055.089.472.217.926.286.454.068.825.201.825.295 0 .094.247.172.549.172.302 0 .548.067.548.148 0 .167 1.272.7 1.5.629.081-.025.147.018.147.097 0 .078.411.302.914.497.503.196.914.419.914.498 0 .078.108.143.24.143s.417.164.633.365c.216.202.509.366.652.366.143 0 .362.124.487.274.126.151.341.275.48.275.139 0 .252.082.252.183 0 .1.116.183.259.183.142 0 .492.247.777.548.284.302.6.55.701.552.101.002.444.228.763.503s.876.747 1.239 1.049c1.258 1.047 4.064 3.954 4.766 4.936.201.281.551.679.777.884.226.205.412.451.412.547 0 .096.144.307.32.47.176.163.484.625.686 1.027.201.403.509.891.685 1.086.176.195.321.463.321.595 0 .132.082.24.182.24a.18.18 0 0 1 .183.178c0 .271.972 2.282 1.136 2.352.08.033.145.219.145.411 0 .193.082.351.183.351.1 0 .182.16.182.355 0 .195.083.406.183.468.101.062.183.24.183.395 0 .263.367 1.214.747 1.934.092.175.168.479.168.676 0 .196.082.408.183.47.1.062.182.355.182.651 0 .296.076.538.169.538.092 0 .226.555.296 1.234.071.679.192 1.317.27 1.418.15.194.318 1.312.469 3.109.051.604.174 1.263.275 1.466.328.66.006 9.388-.378 10.24-.091.201-.208.695-.261 1.097-.243 1.856-.555 3.384-.69 3.384-.082 0-.151.144-.152.32-.003.315-.355 1.427-.566 1.783-.059.101-.264.697-.455 1.325-.192.627-.41 1.142-.485 1.143-.076.001-.138.161-.138.356 0 .196-.082.406-.182.468-.101.062-.183.273-.183.468 0 .196-.083.355-.183.355-.101 0-.183.165-.183.366 0 .201-.064.366-.142.366-.078 0-.304.37-.503.821-.199.452-.423.822-.498.823-.076.001-.137.125-.137.276 0 .151-.083.275-.183.275-.101 0-.183.072-.183.16 0 .141-.495 1.052-1.151 2.12-.121.199-.447.581-.724.851-.277.27-.504.56-.506.646-.001.085-.228.416-.503.734s-.829.97-1.232 1.447c-.402.478-.928 1.04-1.17 1.25-.689.601-1.255 1.171-1.326 1.335-.035.083-.496.465-1.024.849-.528.384-.961.756-.961.826 0 .07-.534.454-1.188.853-.654.399-1.189.787-1.189.863 0 .075-.124.137-.275.137-.15 0-.274.069-.274.153 0 .084-.473.39-1.052.68-.578.29-1.079.592-1.112.67-.034.079-.178.143-.32.143-.143 0-.259.082-.259.183 0 .101-.165.183-.366.183-.201 0-.366.076-.366.168 0 .093-.246.223-.547.289-.3.066-.593.196-.651.289-.057.092-.264.168-.459.168s-.355.083-.355.183c0 .101-.206.183-.457.183-.252 0-.457.083-.457.183 0 .101-.206.183-.458.183-.251 0-.457.082-.457.183 0 .101-.16.183-.355.183-.195 0-.399.071-.453.158-.053.087-.408.207-.788.267-1.101.174-1.312.227-1.447.362-.07.07-.395.127-.722.127-.326 0-.621.079-.655.174-.033.096-.411.194-.838.219-.428.024-.778.111-.778.192s-.406.147-.903.147-.955.082-1.017.183c-.065.105-1.039.183-2.299.183-1.409 0-2.315.079-2.546.224-.283.177-.406.177-.583 0-.151-.152-.92-.224-2.371-.224-1.234 0-2.195-.078-2.26-.183-.063-.101-.556-.183-1.098-.183-.541 0-1.035-.082-1.097-.183-.062-.101-.438-.183-.834-.183-.396 0-.721-.082-.721-.183 0-.1-.324-.183-.721-.183-.396 0-.767-.074-.823-.165-.056-.092-.514-.223-1.017-.292-.503-.069-.914-.2-.914-.291 0-.092-.206-.166-.457-.166-.252 0-.457-.082-.457-.183 0-.101-.145-.183-.321-.183-.177 0-.915-.288-1.64-.64-.726-.352-1.431-.64-1.566-.64s-.405-.144-.6-.32c-.195-.176-.869-.562-1.498-.857-.628-.295-1.143-.604-1.143-.686 0-.082-.123-.149-.274-.149-.151 0-.274-.082-.274-.183a.183.183 0 0 0-.182-.183c-.192 0-1.649-1.029-2.327-1.644-.222-.202-.448-.368-.501-.368-.346 0-5.317-4.972-5.687-5.687-.145-.28-.417-.617-.604-.749s-.511-.574-.719-.983c-.208-.41-.508-.852-.667-.983-.158-.131-.287-.352-.287-.491 0-.138-.083-.252-.183-.252-.101 0-.183-.123-.183-.274 0-.151-.082-.274-.183-.274-.101 0-.183-.124-.183-.275 0-.151-.082-.274-.183-.274-.1 0-.183-.155-.183-.344a.85.85 0 0 0-.274-.571c-.151-.125-.274-.341-.274-.479 0-.139-.083-.252-.183-.252-.101 0-.183-.165-.183-.366 0-.201-.083-.366-.183-.366-.101 0-.183-.164-.183-.366 0-.201-.082-.365-.183-.365-.101 0-.183-.16-.183-.355 0-.196-.082-.406-.183-.468-.1-.063-.183-.253-.184-.423 0-.17-.124-.545-.274-.833-.15-.288-.273-.679-.273-.869 0-.189-.083-.345-.183-.345-.101 0-.183-.205-.183-.457 0-.251-.082-.457-.183-.457-.101 0-.183-.247-.183-.549 0-.302-.082-.549-.183-.549-.1 0-.183-.233-.183-.519 0-.286-.122-.924-.272-1.418-.15-.493-.273-1.165-.274-1.492-.001-.327-.085-.594-.185-.594-.101 0-.183-.437-.183-.97 0-.533-.077-1.047-.172-1.143-.094-.095-.214-1.038-.266-2.094a77.43 77.43 0 0 0-.21-3.064c-.072-.704-.047-1.143.063-1.143.106 0 .191-.878.207-2.133.015-1.173.083-2.222.151-2.332.113-.18.213-.735.529-2.942.058-.402.17-.814.249-.915.08-.1.204-.656.275-1.234.072-.579.203-1.052.292-1.052.089 0 .162-.242.162-.538 0-.296.082-.588.183-.651.101-.062.183-.272.183-.468 0-.195.082-.355.183-.355.1 0 .183-.155.183-.345 0-.189.123-.58.273-.868.15-.288.274-.709.274-.936.001-.226.084-.411.184-.411.101 0 .183-.165.183-.366 0-.201.082-.366.183-.366.101 0 .183-.164.183-.366 0-.201.082-.365.183-.365.1 0 .183-.102.183-.226 0-.317.94-2.154 1.326-2.59.176-.2.32-.464.32-.587 0-.124.062-.252.137-.286.177-.078 1.143-1.561 1.143-1.754 0-.081.165-.265.366-.41.201-.145.366-.332.366-.415 0-.083.185-.344.411-.581a14.2 14.2 0 0 0 .869-1.034c.869-1.146 4.341-4.402 5.944-5.574.403-.295.759-.597.793-.672.033-.076.177-.138.32-.138.142 0 .259-.068.259-.152 0-.084.453-.389 1.006-.679.553-.289 1.006-.591 1.006-.67 0-.08.158-.145.35-.145.193 0 .378-.061.412-.137.082-.185 2.745-1.511 3.033-1.51.126.001.229-.081.229-.182 0-.1.205-.183.457-.183.251 0 .457-.082.457-.182 0-.101.165-.183.366-.183.201 0 .366-.066.366-.147 0-.13.886-.388 2.423-.705.277-.058.503-.177.503-.266 0-.09.329-.163.732-.163.402 0 .731-.082.731-.183 0-.1.288-.182.64-.182.353 0 .641-.083.641-.183 0-.101.452-.183 1.006-.183.553 0 1.006-.079 1.006-.176 0-.379 11.365-.387 11.491-.008m93.218.093c.906.064 1.724.193 1.82.287.096.093.594.17 1.107.17s1.011.073 1.106.164c.096.09.503.21.905.267 1.592.225 2.203.35 2.378.487.101.079.656.202 1.235.274.578.071 1.051.203 1.051.292 0 .089.201.162.447.162.245 0 .497.082.559.183.062.1.274.182.471.182.196 0 .5.076.675.168.175.092.606.291.958.441 1.517.649 3.207 1.449 3.292 1.559.05.065.565.355 1.143.644.578.289 1.052.598 1.052.686 0 .088.091.16.204.16.239 0 1.948 1.212 2.378 1.686.162.179.35.326.418.326.145 0 .818.592 1.627 1.431 1.642 1.704 2.14 2.268 2.14 2.423 0 .094.062.17.137.17.076.001.384.369.686.82.302.45.61.82.686.822.075.002.137.122.137.265 0 .144.103.371.229.503.331.351 1.417 2.157 1.417 2.358 0 .094.073.17.163.17.089 0 .216.288.282.641.066.352.199.64.295.64.096 0 .175.164.175.365 0 .202.082.366.182.366.101 0 .183.206.183.458 0 .251.083.457.183.457.101 0 .183.164.183.366 0 .201.082.365.183.365.101 0 .183.201.183.447 0 .245.075.492.166.549.091.056.222.514.291 1.016.069.503.201.915.292.915.091 0 .165.329.165.731 0 .403.083.732.183.732.101 0 .183.283.183.629 0 .346.083.68.183.743.101.062.183.473.183.914 0 .441.074.848.165.904.091.056.22.987.286 2.068.066 1.082.172 2.296.237 2.698.157.981.163 7.857.008 8.779-.067.403-.179 1.699-.248 2.881-.069 1.182-.198 2.149-.287 2.149-.089 0-.161.37-.161.823 0 .453-.082.823-.183.823-.1 0-.183.324-.183.721 0 .396-.082.771-.183.834-.1.062-.183.355-.183.651 0 .295-.072.537-.161.537-.089 0-.219.453-.288 1.006-.069.554-.202 1.006-.295 1.006-.094 0-.17.206-.17.458 0 .251-.082.457-.183.457-.101 0-.183.206-.183.457 0 .252-.082.457-.183.457-.1 0-.183.165-.183.366 0 .201-.061.366-.137.366-.075 0-.295.494-.488 1.097-.193.604-.419 1.098-.503 1.098-.083 0-.152.123-.152.274 0 .151-.082.274-.183.274-.1 0-.183.124-.183.275 0 .151-.072.274-.161.274-.089 0-.211.144-.272.32-.152.442-.787 1.476-1.368 2.229-.267.346-.575.787-.685.98-.323.568-4.286 4.511-4.808 4.785a4.757 4.757 0 0 0-.883.633c-.222.209-.489.381-.594.381-.105 0-.191.069-.191.154 0 .085-.288.309-.64.499-.352.19-.64.408-.64.486 0 .078-.165.141-.366.141-.201 0-.366.083-.366.183 0 .101-.123.183-.274.183-.151 0-.274.082-.274.183 0 .101-.124.183-.275.183-.151 0-.274.076-.274.168 0 .093-.262.226-.582.296a5.33 5.33 0 0 0-1.195.472c-.336.189-.733.344-.881.344-.147 0-.268.082-.268.183 0 .101-.16.183-.355.183-.196 0-.401.073-.456.162-.055.089-.399.218-.765.287-.365.069-.798.191-.962.273-.525.261-1.592.558-2.002.558-.219 0-.399.083-.399.183 0 .101-.283.183-.629.183-.346 0-.68.082-.742.183-.063.101-.392.183-.732.183-.34 0-.664.073-.72.163-.055.09-.862.22-1.794.289-.931.069-1.981.196-2.333.283-.352.087-1.977.181-3.612.21-1.635.028-2.972.115-2.972.193s-2.881.142-6.402.142h-6.401V92.357l8.367.082c4.603.046 9.109.136 10.014.2" fill="#b6956a"/></g></svg>