<svg xmlns="http://www.w3.org/2000/svg" viewBox="166.16901 174.52402 509.552 200" height="220px" width="509px"><path d="M166.169 351.237c10.674 0 11.86-6.722 11.86-16.604v-44.871c0-9.883-1.186-16.604-11.86-16.604v-1.186l42.3-3.953v16.208c8.104-8.5 19.372-16.208 32.813-16.208s24.905 7.708 24.905 27.079v39.534c0 9.882 1.186 16.604 11.86 16.604v1.185h-53.171v-1.185c8.302 0 9.882-6.722 9.882-16.604V291.54c0-9.686-4.349-13.639-10.476-13.639-5.93 0-10.872 3.36-14.825 7.117v49.613c0 9.882 1.582 16.604 9.884 16.604v1.185h-53.172v-1.183zm228.486-39.534c0-23.521 14.429-43.683 42.103-43.683 9.29 0 15.416 2.373 19.568 4.546v-25.894c0-8.104 1.777-15.022 4.744-20.755-35.382-16.407-73.926-44.474-109.11-44.474-22.138 0-37.358 11.267-37.358 31.427 0 8.105 2.569 20.952 14.627 31.626-24.51-1.777-42.696-16.208-42.696-34.986 0-18.381 17.197-34.986 49.021-34.986 44.276 0 88.75 31.825 126.504 49.417 8.695-14.627 25.894-21.744 41.904-21.744 16.208 0 22.731 7.117 22.731 16.999 0 11.07-8.304 17.987-24.115 17.987-4.941 0-9.883-.592-14.824-1.777v99.227c0 9.882 1.186 16.604 11.859 16.604v1.185h-42.3v-10.475c-5.534 6.521-14.035 12.65-26.686 12.65-22.926.001-35.972-20.558-35.972-42.894zm-108.116 19.57c0-16.803 15.615-23.128 34.789-23.128 7.313 0 15.417.988 21.545 2.569V289.96c0-11.267-2.371-20.952-15.22-20.952-8.301 0-13.441 4.15-16.801 8.697 5.337 2.569 8.698 8.303 8.698 14.033 0 8.104-6.523 14.43-15.023 14.43-9.29 0-14.232-7.709-14.232-14.824 0-13.046 15.813-23.324 39.137-23.324 20.755 0 44.87 8.302 44.87 32.021v42.3c0 3.756 1.977 5.535 5.139 5.535 4.941 0 9.488-4.94 12.65-9.686l.988.593c-5.535 7.906-12.256 15.615-26.091 15.615-12.256 0-19.372-6.126-22.336-13.835-5.337 7.313-14.035 14.034-29.057 14.034-17.196.001-29.056-8.697-29.056-23.324zm56.334 9.29v-28.266c-2.965-.792-6.522-1.583-9.488-1.583-10.278 0-14.627 7.116-14.627 18.976 0 9.686 2.965 18.383 11.464 18.383 4.151 0 8.5-2.173 12.651-7.51zm113.453.396v-61.475c-2.569-5.337-6.918-9.686-12.452-9.686-13.441 0-16.406 25.896-16.406 40.719 0 20.756 5.93 35.778 17.592 35.778 4.744.001 8.5-2.57 11.266-5.336zm46.253-105.355c15.221 0 22.139-7.51 22.139-16.407 0-8.302-5.93-15.219-17.197-15.219-15.22 0-19.173 12.254-19.766 29.649 5.139 1.384 10.08 1.977 14.824 1.977zm2.76 115.633c10.674 0 11.859-6.722 11.859-16.604v-44.871c0-9.883-1.186-16.604-11.859-16.604v-1.186l43.288-3.953v66.613c0 9.882 1.188 16.604 11.859 16.604v1.185h-55.147v-1.184zm9.092-110.493c0-10.082 8.104-17.198 18.186-17.198 10.08 0 18.187 7.117 18.187 17.198 0 10.278-8.106 17.393-18.187 17.393-10.082-.001-18.186-7.116-18.186-17.393zm54.751 90.529c0-16.803 15.615-23.128 34.788-23.128 7.313 0 15.418.988 21.547 2.569V289.96c0-11.267-2.375-20.952-15.222-20.952-8.302 0-13.442 4.15-16.801 8.697 5.335 2.569 8.697 8.303 8.697 14.033 0 8.104-6.523 14.43-15.024 14.43-9.288 0-14.229-7.709-14.229-14.824 0-13.046 15.813-23.324 39.137-23.324 20.754 0 44.869 8.302 44.869 32.021v42.3c0 3.756 1.977 5.535 5.139 5.535 4.942 0 9.488-4.94 12.65-9.686l.988.593c-5.532 7.906-12.253 15.615-26.091 15.615-12.255 0-19.369-6.126-22.336-13.835-5.337 7.313-14.034 14.034-29.055 14.034-17.198.001-29.057-8.697-29.057-23.324zm56.335 9.29v-28.266c-2.965-.792-6.524-1.583-9.489-1.583-10.278 0-14.627 7.116-14.627 18.976 0 9.686 2.965 18.383 11.466 18.383 4.149 0 8.497-2.173 12.65-7.51z"/></svg>