<svg xmlns="http://www.w3.org/2000/svg" id="Layer_1" data-name="Layer 1" viewBox="0 0 2434 807"><defs/><path d="M715 1c1.3 10.88 2.73 21.76 3.89 32.65q5.45 50.91 10.72 101.84 4.15 39.49 8.27 79a11 11 0 0 1-1 5.87 43.63 43.63 0 0 1-3-4.36c-18.45-35.46-39.93-68.85-67.28-98.2-31.91-34.25-69-60.43-114.68-73.2-24.74-6.91-50-7.12-76-6.48v5.37q0 316.22.19 632.44c0 14.72 1.87 29.59 4.39 44.13 4.2 24.27 17.84 43.06 37.21 57.83 5.95 4.54 12.18 8.71 18.27 13.09a9.1 9.1 0 0 1 3.52 4.26H205.27a40.9 40.9 0 0 1 3.69-3.82c9.24-7.1 18.93-13.66 27.71-21.28 18.23-15.81 27.44-36.6 30.23-60.18a346.68 346.68 0 0 0 2.63-40.33q.25-312 .12-623.94V39c-67-7.38-121.84 13.56-163.67 66.67C81.24 137.09 61 171.29 42.06 206.31c-12.6 23.26-24.63 46.83-37 70.2C4.24 278 2.36 278.85 1 280v-5c1.14-9.06 2.41-18.11 3.41-27.19Q10.29 194.44 16 141.05q4.81-44.19 9.59-88.39C27.46 35.44 29.21 18.22 31 1h2c5.51 2 10.9 5.12 16.57 5.75 17.5 1.95 35.1 4.11 52.67 4.14q267.65.45 535.3.09c15.29 0 30.62-.86 45.86-2.11C693.93 8 704.51 6.38 714 1zM2435 493l-237.5.07h-74.44c0 7.29-.29 14.21.05 21.1 1.75 35.3 7.22 69.88 20.85 102.75 13.82 33.34 34.24 61.24 66.47 79.14 51.66 28.7 139.22 25.25 187.69-44.43 9.15-13.17 15.93-28 23.78-42.06.71-1.28 1.21-2.69 2-4.41l7.05 2.44c-3 11.07-5.56 22-8.9 32.77-11.44 36.77-29.34 69.9-56.06 97.93-29.68 31.13-65.72 51.37-107.46 61-59.68 13.82-118.23 9.85-174.58-14.76-60.14-26.26-102.45-70.76-128.75-130.56-20.77-47.24-27.79-97.07-26.05-148.28 1.86-54.6 15.17-106.1 44.68-152.48C2016.58 286 2077.52 245.43 2156.37 233c47-7.44 93.42-3.75 138.07 13.61 56.44 21.95 94.3 62.83 117.33 118.11 13.25 31.8 19.84 65.17 22.26 99.44.18 2.64.64 5.25 1 7.88zm-178.07-23.69v-6.16c-.66-27.28-.87-54.59-2.13-81.85-1.17-25.28-3.71-50.47-9.76-75.15-3.87-15.75-8.81-31.1-19.58-43.77-13.67-16.08-36-18.51-52.18-5a75 75 0 0 0-14.93 17.23c-12.67 20-18.57 42.55-23.38 65.41-7.5 35.62-10.2 71.79-11.84 108.05-.31 7 0 13.94 0 21.24zM1187 808q-3.16-58.85-6.34-117.69-2.37-44.4-4.68-88.79c-.09-1.72 0-3.46 0-5.19l1.27-.46c1 1.69 2.15 3.31 3 5.07 19.54 39.9 41.65 78.18 70.7 112.06 23 26.84 49.15 49.82 82.34 63.37 28.64 11.69 58.1 15.69 88.35 6.78 30.52-9 49.91-34 52.64-65.83 2.87-33.53-9.86-58.65-38.66-75.73-6.43-3.81-12.89-7.8-19.78-10.58-25.6-10.33-51.43-20.07-77.08-30.26-31.94-12.69-62.86-27.35-90.62-48-42.17-31.37-65.23-73.08-69.36-125.59-3-37.91 1.86-74.16 21-107.56 25.33-44.28 64.11-70.86 112.86-83.4 43.62-11.23 86.79-7.47 129.58 5.25 15.61 4.64 31.3 9.21 47.22 12.53 22.57 4.7 42.86-1.41 60.77-15.74 3.64-2.91 7.25-5.86 11.41-9.22v185.27l-.82.6a35.36 35.36 0 0 1-2.91-4.27c-12.89-26.41-27.78-51.59-45.92-74.75-21.88-27.93-46.9-52.37-78.61-69.08-24.24-12.77-49.82-19.31-77.47-16.05-31.82 3.75-62.72 25.05-60.17 71.51 1.21 22 10.69 39.1 28.43 51.9 18 13 38.22 21.55 58.6 29.78 30.22 12.2 60.83 23.5 90.73 36.45 28.2 12.23 54.44 28.05 77.28 49 30.6 28.07 47.24 63 51.34 104.11 3.32 33.28 1 65.91-11.6 97.22-18.92 46.94-53.21 78.59-99.33 97.83-36.78 15.34-75.36 19.88-115 17.94-33.83-1.65-66.35-10.13-99-18-14.42-3.48-29-6.36-44-4.55-18.17 2.19-32.67 11.25-45.17 24.07z" transform="translate(-1 -1)"/><path d="M714 1c-9.49 5.38-20.07 7-30.6 7.87-15.24 1.25-30.57 2.13-45.86 2.13q-267.66.21-535.3-.09c-17.57 0-35.17-2.19-52.67-4.14C43.9 6.12 38.51 3 33 1zM31 1c-1.79 17.22-3.54 34.44-5.38 51.66Q20.88 96.87 16 141.05q-5.76 53.38-11.59 106.76c-1 9.08-2.27 18.13-3.41 27.19V1z" class="cls-1" transform="translate(-1 -1)"/><path d="M902.26 473.89v-19.12c-.06-40.83.17-81.66-.34-122.48a111.57 111.57 0 0 0-11.09-47.82C879.29 260.8 860.33 249 833.91 250c-25.31.89-43.48 13.28-53.51 36.18-11.84 27-12.23 55.14-2.81 82.9 8.26 24.36 29.39 34.56 54.23 27.68.78-.21 1.55-.44 3.46-1-1.66 3.66-2.8 6.61-4.28 9.39-14.82 28-38.4 44.63-68.63 52.05-30.4 7.47-60.5 7-89.21-7-33.4-16.33-51.47-48.79-49.48-86 2.46-46 27-77.45 65.06-100 27.6-16.36 57.91-25.32 89.42-29.81A488.27 488.27 0 0 1 950 240.22c28.71 6.12 55.85 16.51 79.75 34.1 31.28 23 49.8 54.27 56.92 92a270.46 270.46 0 0 1 4.84 48.57c.3 61.82-.35 123.64-.57 185.46-.09 26.49-.5 53 .2 79.47a190.3 190.3 0 0 0 4.74 37c7.41 32.44 32.19 41 59.5 35.74 3.7-.72 7.34-1.79 12.49-3.08a62 62 0 0 1-3.71 5.73c-18.62 22-42.89 35.1-70.12 42.83-40.2 11.43-80.49 11.45-119.64-3.85-41.71-16.31-62.94-48.8-68.32-92.48-.17-1.32-.19-2.66-.35-4-.29-2.44-.64-4.88-1.16-8.81-1.29 4.15-2.12 7-3 9.73-18.89 56.58-58.64 89.6-116.36 101-39.58 7.82-78.75 5.29-115.77-12.08-42.79-20.09-66.66-54.39-72.4-101.15-3.53-28.76-.89-56.88 11.28-83.55 11.66-25.54 30.8-44.37 54.28-59.12 27.63-17.37 57.86-28.87 89.28-36.53 44.88-10.85 90.2-20.2 135.35-30.2 4.85-1.07 9.77-2 15.03-3.11zm-.35 20.55c-9.84 2.25-19.41 4.26-28.88 6.64-39.38 9.92-69.09 31.3-83.15 70.89-8.61 24.25-10.26 49.37-9 74.83.84 17.56 3.43 34.78 11 50.87 6.69 14.18 16.48 25 32.53 28.49 21.16 4.59 42.74-4.64 56.17-24.12 15.2-22 20.73-47.28 21.29-73.29.93-43.62.37-87.28.42-130.92-.04-.95-.23-1.91-.38-3.39zM1650.26 268.92h-49.89V256.5c16.75-5.77 33.56-10.59 49.61-17.25 70-29 122.37-77.49 157.54-144.43 7.25-13.79 12.94-28.45 18.71-43 1.84-4.61 3.79-6.91 8.78-6a37.5 37.5 0 0 0 4.81.27v194.66h142.28c-1.94 9.71-3.74 18.73-5.62 28.17h-136.55v378.76c0 17.91 2.19 35.59 9 52.35 11.51 28.35 33.32 38.47 62.66 32.86 10.87-2.07 18.94-8.84 25.19-17.62 4-5.54 7.11-11.63 10.79-17.37.63-1 2.06-1.46 3.13-2.18.24 1.16.84 2.37.67 3.46-8.85 57.16-46.9 95.37-104.56 104.91-32.4 5.36-64.49 3.87-95.72-6.53-45.44-15.13-74.44-46.85-90.05-91.52-9-25.74-12.68-52.45-12.7-79.53-.05-61.14.53-122.29.89-183.43q.45-77.71 1-155.43c.07-6.11.03-12.22.03-18.73zM1022.32 99.73q-6.78 20-13.61 40.15h-12.46l-20.17-56.33c-.5-1.41-1-2.82-1.49-4.24-1.47-4.25-2.66-8.73-8.12-10.14h37.58c-1.85 2-4.58 3.73-5 5.88-.51 2.51.75 5.5 1.64 8.15 3.64 10.85 7.43 21.64 12.22 32.48 2.52-7.61 7.12-15.26 7-22.83-.13-8.29-1.6-18-11.72-23.69h39.05c-1.54 1-2.1 1.61-2.73 1.69-4.62.62-5.34 3.87-4.34 7.36 3.54 12.42 7.4 24.74 12.23 37.21.92-2.92 1.85-5.84 2.76-8.76 2.52-8.1 5.09-16.19 7.51-24.32 2.48-8.32 2-9.21-6.63-13.09h20.86c-10.49 5.84-10.33 16.75-13.76 25.66-5 13-9.16 26.39-13.32 39.71-1.29 4.12-3 6.32-7.59 5.5a36.83 36.83 0 0 0-5.9-.05l-13-40.21zM1539.32 139.85c6.74-4.55 6.75-4.55 6.75-13V82.42c0-5.39 1.34-11.56-6.86-13.15a7.52 7.52 0 0 1 2-.6c13.31 0 26.65-.52 39.93.1 21.6 1 33 14 32 35.51-1.06 23.39-14 35.74-37.62 35.75h-31.46c-1.55.03-3.15-.11-4.74-.18zm30.42-36.18c0 8.64-.15 17.29.1 25.92.07 2.22 1 5.94 2.27 6.27 2.55.68 6.2.37 8.26-1.11a16 16 0 0 0 5.43-8 49.43 49.43 0 0 0 2.52-15.13 224.49 224.49 0 0 0-2.49-30.11c-1.06-6.57-5.46-9.27-11.12-9.49-3.44-.13-5.16.76-5 4.71.2 8.99.03 17.97.03 26.94zM1164.72 139.8h-59.9a50.48 50.48 0 0 1 2.36-6.46q15.06-28.18 30.24-56.3c.77-1.43 1.45-2.91 2.21-4.43-11.65-2.29-16.55-.11-22 9.74-1.76 3.2-3.2 6.58-4.87 9.84a28 28 0 0 1-2 3l-1.38-.41c.47-8.44 1-16.89 1.44-25.7h55.75c-.81 2.54-1.18 4.89-2.24 6.86-10.06 18.6-20.24 37.12-30.36 55.68-.78 1.42-1.47 2.89-2.22 4.4 10.65 3.17 19 .2 24.51-8.73 2.34-3.82 4.23-7.92 6.38-11.86.71-1.28 1.61-2.45 2.42-3.68l1.49.54c-.55 8.93-1.17 17.91-1.83 27.51zM1207.38 100.47c11.37 3.64 13.43-4.25 15.47-12.17l1.3.93v28.46c-2.74-4.23-5-8.72-8.24-12.18-1.35-1.42-5-.63-8-.88 0 9.87-.05 19.26.09 28.64a4 4 0 0 0 2 2.57c4.7 2.58 13.78.56 16.63-4.06 3-4.79 5.32-10 7.93-15 .7-1.34 1.35-2.71 2-4.06l1.66.39c-.41 8.77-.83 17.55-1.26 26.46h-60.46c7.43-4.69 7.43-4.69 7.43-13.65V82.48c0-8.75 0-8.75-7.41-13.32h58.24c.36 7.39.73 15 1.09 22.51l-2.27 2a14.5 14.5 0 0 0-.67-3.48c-1.44-3.17-3-6.32-4.66-9.36-4.35-7.75-8.55-9.9-17.19-8.52-1.35.22-3.48 1.89-3.52 2.95-.29 8.4-.16 16.87-.16 25.21zM900.54 69h58.21v22.74l-1 .77c-5.53-11.08-9.06-25-26.47-19.33V102c4-1 8.27-.82 10.67-2.9 2.57-2.22 3.33-6.54 5.74-9.84v28.37l-.79.25c-1.49-3.53-2.16-7.9-4.69-10.34-2.34-2.26-6.68-2.44-11-3.8 0 10.51-.09 19.62.11 28.71a5.06 5.06 0 0 0 2.38 3.47c4.76 2.64 13.68.51 16.57-4.19s5.3-10 7.92-15l2.14-4.07 1.57.39c-.43 8.78-.85 17.56-1.29 26.63h-60.18c9.09-2.06 7.17-9.15 7.2-15.19q.09-20.74 0-41.48c0-5.66 1.45-12.24-8.3-12.75.41-.41.81-.83 1.21-1.26zM1531.47 69.3c-8.3 1.82-6.69 8.38-6.71 14-.06 17 0 34 0 51v5.18c-4.6 1.48-7.27.21-9.79-3.33-11.69-16.41-23.66-32.61-35.53-48.88-1.17-1.59-2.36-3.16-4.22-5.66-.21 2.37-.44 3.72-.45 5.08v38.47c0 6.1-1.34 13.07 9.19 13.2-.41.4-.81.81-1.22 1.22h-18.81c0-.26-.06-.82 0-.84 6.21-1.51 6.81-6.15 6.77-11.46-.12-15.16 0-30.31 0-45.47 0-5.25.48-10.79-6.9-12.55a22.57 22.57 0 0 1 3.42-.56c6.67-.06 13.35.27 20-.13 4.83-.3 7.91 1.21 10.75 5.24 6.87 9.77 14.3 19.14 22.11 29.47 0-10.19.41-19.39-.33-28.49-.16-1.93-4.52-3.52-7.24-5.47zM872.8 69.1h19.76c-8.12 2.13-6.8 8.54-6.81 14.21v56.19c-4.61 1.49-7.25.18-9.77-3.35-12.86-18-26-35.79-39.76-54.64-.22 2.45-.45 3.8-.46 5.16v39c0 6.05-1 12.75 9.25 12.64l-1.19 1.28h-19c8.27-2.17 6.78-8.78 6.8-14.58V83.53c0-9.3 0-9.3-8-14.81 6.8 0 12.43.66 17.85-.15 10-1.47 16.39 2.19 21.6 10.71 5 8.17 11.45 15.46 18.56 23V85.72c.02-10.98.02-10.98-8.83-16.62zM1418.31 139.7c6.78-4.38 7-4.85 4.84-12.78-2.59-9.57-2.59-9.63-12.91-9.55-9.73.08-7.57-1.25-10.36 7-3.31 9.81-3.23 9.84 6.49 15.13h-20.57c6-2.85 7.08-8.79 9-14.08 6.39-17.31 12.84-34.6 18.81-52 1.5-4.4 3.91-5 7.74-4.78 3.63.19 6.77-.36 8.48 4.54 6.23 17.9 12.92 35.64 19.73 53.32 1.8 4.68 4.66 8.94 7 13.25zm-6.69-50.36l-8.2 24.3H1419zM1314 139.73h-38.7l-.24-.75a10.64 10.64 0 0 1 2.17-1.17c3.31-.89 4.78-3 4-6.31-1-4-2.11-8-3.18-12 0-.16-.09-.45-.15-.45-5.25-.57-10.49-1.37-15.75-1.49-1.31 0-2.84 2-4 3.3-.69.83-.82 2.15-1.14 3.27-3.59 12.52-2.81 10.41 6.59 15.43h-19.31c2.33-4.17 5.36-8.35 7.13-13q10-26.29 19.3-52.88c1.3-3.71 2.85-5.45 7-5.1s7.58-.47 9.52 5.23c6.37 18.71 13.5 37.15 20.59 55.6 1.43 3.59 3.99 6.75 6.17 10.32zm-53.34-26.21h15.55c-2.43-7.94-4.71-15.37-7.41-24.21-3.08 9.04-5.59 16.49-8.18 24.21zM1321.25 69h37.29c-.16.62-.15 1.11-.32 1.17-7.29 2.71-7.29 2.7-7.29 10.92 0 15.5-.07 31 .06 46.5 0 3.22-1.53 7.3 3.34 8.84 5.21 1.63 12.05.1 14.39-4 3.07-5.31 5.55-11 8.27-16.48.78-1.57 1.53-3.17 2.29-4.75l1.67.33-2 28.21h-58.55l-.24-.78a8.88 8.88 0 0 0 2.64-1.35c1.55-1.63 4.08-3.44 4.11-5.22.3-18.66.4-37.33-.07-56-.06-2.45-3.57-4.84-5.59-7.39z" transform="translate(-1 -1)"/></svg>