<svg xmlns="http://www.w3.org/2000/svg" id="Layer_1" viewBox="0 0 935.6 212"><path d="M186.6 7.1h-32.2l-35.3 114.8h-.4L112.5 7.1h-36L42.1 121.9h-.5L36.3 7.1H4l14.3 163h33.5L87.7 57.4h.4L96 170.1h33.5z" class="st0"/><path d="M129.5 170.1H96L88.1 57.4h-.4L51.8 170.1H18.3L4 7.1h32.3l5.4 114.8h.4L76.5 7.1h36l6.2 114.8h.4L154.4 7.1h32.3l-57.2 163z" class="st1"/><path d="M187.9 153.7c-13.5 0-13.5-19.1-12.1-30.9 1.5-11.8 6.2-30.9 19.7-30.9s13.5 19.1 12.1 30.9c-1.5 11.8-6.2 30.9-19.7 30.9zm-2.3 18.4c27.5 0 44.5-24.3 47.6-49.3 3.1-25.2-7.8-49.3-35.5-49.3s-44.5 24.2-47.6 49.3c-3.1 25 8 49.3 35.5 49.3zM267.7 75.5h-25l-11.6 94.6h25l8-65.4c5.2-6.2 12.5-11.1 20.5-11.1 10.5 0 8.8 9.5 7.9 16.9l-7.3 59.6h25l8-65.4c5.2-6.2 12.5-11.1 20.5-11.1 10.5 0 8.8 9.5 7.9 16.9l-7.3 59.6h25l8.4-68.4c2.3-18.6-8.4-28.2-23.1-28.2-11.7 0-21.3 5.9-30.8 13-3.7-8.8-10.9-13-22.6-13-10.5 0-20.9 5.2-29.7 11.8l1.2-9.8zM426.5 141.4c-5.5 6.2-13.3 12.3-23.6 12.3-5.9 0-8.1-4.6-7.4-10.1 1.7-13.9 22.3-14.9 32.8-16.7l-1.8 14.5zm.5 28.7h24.3c-2.3-6.3-1.8-13-1-19.8l5.8-47c2.2-17.7-8-29.9-33.5-29.9-19.8 0-34.1 6.4-42.1 26.5l23.5 3.7c2.4-8.3 8.5-11.8 16.5-11.8 9.3 0 13.1 4.7 9.8 17.9-20.4 2.2-56.2 7.6-59.4 34.3-2.1 16.9 9.9 28 26.3 28 12 0 18.1-4.1 28.2-10.6l1.6 8.7z" class="st0"/><path d="M150.1 122.8c3.1-25.2 19.9-49.3 47.6-49.3 27.7 0 38.6 24.2 35.5 49.3-3.1 25-20.1 49.3-47.6 49.3s-38.6-24.3-35.5-49.3zm57.4 0c1.5-11.8 1.4-30.9-12.1-30.9s-18.2 19.1-19.7 30.9c-1.5 11.8-1.4 30.9 12.1 30.9 13.6 0 18.3-19.1 19.7-30.9zM266.7 85.3c8.7-6.6 19.2-11.8 29.7-11.8 11.7 0 18.9 4.2 22.6 13 9.5-7.1 19.2-13 30.8-13 14.7 0 25.3 9.6 23.1 28.2l-8.4 68.4h-25l7.3-59.6c.9-7.4 2.6-16.9-7.9-16.9-7.9 0-15.3 4.9-20.5 11.1l-8 65.4h-25l7.3-59.6c.9-7.4 2.6-16.9-7.9-16.9-7.9 0-15.3 4.9-20.5 11.1l-8 65.4h-25l11.6-94.6h25l-1.2 9.8zM425.7 161.5c-10.1 6.6-16.2 10.6-28.2 10.6-16.4 0-28.4-11.1-26.3-28 3.3-26.7 39.1-32.1 59.4-34.3 3.3-13.2-.5-17.9-9.8-17.9-7.9 0-14.1 3.5-16.5 11.8l-23.5-3.7c8-20.1 22.3-26.5 42.1-26.5 25.5 0 35.7 12.2 33.5 29.9l-5.8 47c-.8 6.8-1.3 13.5 1 19.8h-24.3l-1.6-8.7zm2.9-34.7c-10.5 1.9-31.1 2.9-32.8 16.7-.7 5.6 1.5 10.1 7.4 10.1 10.3 0 18.1-6.1 23.6-12.3l1.8-14.5z" class="st1"/><path d="M491.5 75.5h-25l-11.6 94.6h25l8.1-66.2c5.4-5.1 11.7-10.3 19-10.3 10.8 0 8.8 12 7.9 19.6l-7 56.9h25l8.2-67.1c2.9-23.3-10.9-29.6-21.2-29.6-10.5 0-20.9 5.2-29.7 11.8l1.3-9.7z" class="st0"/><path d="M490.3 85.3c8.7-6.6 19.2-11.8 29.7-11.8 10.3 0 24.1 6.2 21.2 29.6l-8.2 67.1h-25l7-56.9c.9-7.6 2.9-19.6-7.9-19.6-7.3 0-13.6 5.2-19 10.3l-8.1 66.2h-25l11.6-94.6h25l-1.3 9.7z" class="st1"/><path d="M551.3 37.3c-2.8.1-5.6.2-8.5.2-2.9 0-5.8-.1-8.6-.2 0 6.5-.8 23.1-1.9 31.4 2.6-.1 5-.2 7.5-.2 2 0 3.9.1 5.9.2 2.4-9 4.7-23.3 5.6-31.4z" class="st0"/><path d="M545.7 68.7c-2-.1-3.9-.2-5.9-.2-2.5 0-4.9.1-7.5.2 1.1-8.3 1.9-24.9 1.9-31.4 2.8.1 5.7.2 8.6.2 2.9 0 5.7-.1 8.5-.2-.9 8.1-3.2 22.4-5.6 31.4z" class="st1"/><path d="M607.2 101.4c-.8-16.1-12.7-26.4-29-26.4-18.1 0-35.6 11-37.9 29.8-4.4 36.2 42.2 22.9 40.2 39.2-.9 7.1-7 10-13.2 10-7.5 0-10.2-6.3-9.9-13l-23.4 2.5c.1 19.3 11.1 28.6 30.2 28.6 18.9 0 36.6-9.6 39-29.4 4.3-34.9-42.2-23.3-40.2-39.2.7-6 5.4-10.3 11.2-10.3 7.3 0 8.9 4.7 9.3 11.1l23.7-2.9z" class="st0"/><path d="M583.6 104.3c-.4-6.5-2-11.1-9.3-11.1-5.8 0-10.5 4.3-11.2 10.3-2 16 44.5 4.3 40.2 39.2-2.4 19.8-20.1 29.4-39 29.4-19.1 0-30.1-9.3-30.2-28.6l23.4-2.5c-.3 6.6 2.4 13 9.9 13 6.1 0 12.3-2.8 13.2-10 2-16.3-44.7-3-40.2-39.2C542.6 86 560.1 75 578.2 75c16.3 0 28.2 10.3 29 26.4l-23.6 2.9z" class="st1"/><path d="M674.3 142.4l13.2-107.6h12.4c30.6 0 43.3 15.9 39.1 50.1-5.1 41.3-22.8 57.6-48.7 57.6h-16zM658.2 7.1l-20 162.9h51.1c48.6 0 77-35.6 82.7-81.5C777.7 42.2 760 7 698 7h-39.8z" class="st0"/><path d="M698 7.1c62 0 79.7 35.2 74 81.5-5.6 45.9-34.1 81.5-82.7 81.5h-51.1l20-162.9H698zm-7.8 135.3c26 0 43.7-16.3 48.7-57.6 4.2-34.1-8.5-50.1-39.1-50.1h-12.4l-13.2 107.6h16z" class="st1"/><path d="M814.5 141.4c-5.5 6.2-13.3 12.3-23.6 12.3-5.9 0-8.1-4.6-7.4-10.1 1.7-13.9 22.3-14.9 32.8-16.7l-1.8 14.5zm.6 28.7h24.3c-2.3-6.3-1.8-13-1-19.8l5.8-47c2.2-17.7-8-29.9-33.5-29.9-19.8 0-34.1 6.4-42.1 26.5l23.5 3.7c2.4-8.3 8.5-11.8 16.5-11.8 9.3 0 13.1 4.7 9.8 17.9-20.4 2.2-56.2 7.6-59.4 34.3-2.1 16.9 9.9 28 26.3 28 12 0 18.1-4.1 28.2-10.6l1.6 8.7z" class="st0"/><path d="M813.4 161.5c-10.1 6.6-16.2 10.6-28.2 10.6-16.4 0-28.4-11.1-26.3-28 3.3-26.7 39.1-32.1 59.4-34.3 3.3-13.2-.5-17.9-9.8-17.9-7.9 0-14.1 3.5-16.5 11.8l-23.5-3.7c8-20.1 22.3-26.5 42.1-26.5 25.5 0 35.7 12.2 33.5 29.9l-5.8 47c-.8 6.8-1.3 13.5 1 19.8H815l-1.6-8.7zm2.9-34.7c-10.5 1.9-31.1 2.9-32.8 16.7-.7 5.6 1.5 10.1 7.4 10.1 10.3 0 18.1-6.1 23.6-12.3l1.8-14.5z" class="st1"/><path d="M931.6 75.5h-25.7l-25 62.3-11.4-62.3h-27l22.5 92.2c-4.2 9.8-9.1 16.2-20.4 16.2-4.1 0-7-1-10.5-2.4l-2.6 21.4c5.1 1.2 10.4 1.9 15.8 1.9 19.9 0 27.2-10 35.4-27.2l48.9-102.1z" class="st0"/><g><path d="M882.5 177.7c-8.2 17.2-15.5 27.2-35.4 27.2-5.4 0-10.7-.7-15.8-1.9l2.6-21.4c3.5 1.4 6.5 2.4 10.5 2.4 11.3 0 16.2-6.4 20.4-16.2l-22.5-92.2h27l11.4 62.3 25-62.3h25.7l-48.9 102.1z" class="st1"/></g></svg>