<svg xmlns="http://www.w3.org/2000/svg" xmlns:xlink="http://www.w3.org/1999/xlink" id="Layer_1" width="595.28" height="226.77"><switch><g><defs><path id="SVGID_1_" d="M0 48.642h594v132.127H0z"/></defs><clipPath id="SVGID_2_"><use overflow="visible" xlink:href="#SVGID_1_"/></clipPath><path fill="#E31D3C" d="M184.228 175.77h3.024v-6.299h.029l3.183 6.299h3.111v-11.533h-3.023v6.17h-.03l-3.023-6.17h-3.271v11.533zm-8.838-5.768c0-2.566 1.25-3.166 2.064-3.166s2.065.6 2.065 3.166c0 2.568-1.251 3.166-2.065 3.166s-2.064-.598-2.064-3.166m-3.199 0c0 3.521 2.108 6.041 5.262 6.041 3.155 0 5.263-2.52 5.263-6.041 0-3.52-2.108-6.041-5.263-6.041-3.154 0-5.262 2.521-5.262 6.041m-4.679 5.768h3.198v-11.533h-3.198v11.533zm-7.429 0h3.198v-8.576h2.908v-2.957h-9.013v2.957h2.907v8.576zm-7.414 0h3.198v-11.533h-3.198v11.533zm-8.256-8.577h1.018c2.311 0 2.515 2.018 2.515 2.744 0 1.082-.291 2.875-2.283 2.875h-1.25v-5.619zm-3.199 8.577h4.623c3.619 0 5.306-2.246 5.306-5.783 0-2.908-1.221-5.75-4.681-5.75h-5.248v11.533zm-10.379 0h8.751v-2.957h-5.553v-1.438h4.899v-2.746h-4.899v-1.436h5.393v-2.957h-8.591v11.534zm-13.742-8.577h1.017c2.312 0 2.515 2.018 2.515 2.744 0 1.082-.291 2.875-2.282 2.875h-1.25v-5.619zm-3.197 8.577h4.622c3.62 0 5.306-2.246 5.306-5.783 0-2.908-1.221-5.75-4.681-5.75h-5.247v11.533zm-11.165 0h3.023v-6.299h.03l3.183 6.299h3.111v-11.533h-3.024v6.17h-.029l-3.023-6.17h-3.271v11.533zm-11.6 0h3.213l.465-1.648h3.3l.436 1.648h3.314l-3.78-11.533h-3.125l-3.823 11.533zm4.376-4.12l1.003-3.553h.029l.93 3.553h-1.962zm-12.734 4.12h7.791v-2.957h-4.593v-8.576h-3.198v11.533zm-11.585 0H74.4l.465-1.648h3.3l.436 1.648h3.314l-3.779-11.533h-3.125l-3.823 11.533zm4.375-4.12l1.003-3.553h.029l.93 3.553h-1.962zm-13.81 4.12h8.751v-2.957h-5.553v-1.438h4.899v-2.746h-4.899v-1.436h5.393v-2.957h-8.591v11.534zm-10.582 0h9.274v-2.957h-5.102l4.87-5.992v-2.584h-8.766v2.957h4.55l-4.826 5.797v2.779zm-5.879-11.534h-3.154l-1.294 7.221h-.029l-1.221-7.221h-2.82l-1.25 7.123h-.029l-1.265-7.123h-3.14l2.82 11.533h3.126l1.09-7.027h.029l1.119 7.027h3.111l2.907-11.533zM21.643 175.77h8.751v-2.957H24.84v-1.438h4.899v-2.746H24.84v-1.436h5.393v-2.957h-8.591v11.534zm-11.164 0h3.024v-6.299h.029l3.183 6.299h3.111v-11.533h-3.024v6.17h-.029l-3.023-6.17h-3.271v11.533zM239.945 74.236h3.748v-9.627h.037l3.946 9.627h3.857V56.609h-3.749v9.431h-.036L244 56.609h-4.055v17.627zm-14.381 0h3.983l.576-2.518h4.091l.541 2.518h4.109l-4.686-17.626h-3.875l-4.739 17.626zm5.424-6.295l1.244-5.432h.036l1.153 5.432h-2.433zm-10.434 6.295h3.965V56.609h-3.965v17.627zm-11.174 0h9.66v-4.518h-5.695V56.609h-3.965v17.627zm-14.363 0H199l.577-2.518h4.091l.54 2.518h4.109l-4.685-17.626h-3.875l-4.74 17.626zm5.425-6.295l1.243-5.432h.036l1.154 5.432h-2.433zm-14.183-7.135h1.856c1.514 0 1.964.642 1.964 1.753 0 1.58-1.009 1.753-1.748 1.753h-2.072v-3.506zm-3.965 13.43h3.965V68.09h2.108c1.568 0 1.676 1.753 1.784 3.431.054.914.127 1.827.325 2.716h3.965c-.361-.814-.379-2.913-.433-3.776-.144-2.197-.811-3.827-1.892-4.395 1.315-.666 1.928-2.592 1.928-4.419 0-3.332-1.946-5.036-4.199-5.036h-7.551v17.625zm-9.209 0h3.964V61.127h3.605v-4.518H169.48v4.518h3.605v13.109zm-16.022-5.925c.036 5.629 4.199 6.345 5.659 6.345 2.866 0 5.947-1.481 5.947-6.072 0-3.235-1.802-4.396-3.622-5.086-1.82-.691-3.658-.963-3.731-2.222 0-.987.884-1.185 1.424-1.185.397 0 .847.123 1.172.444.324.297.54.741.468 1.408h3.749c-.108-4.296-2.577-5.753-5.371-5.753-2.649 0-5.19 1.753-5.19 5.827 0 3.555 2.325 4.32 4.361 5.11 2.217.863 2.776 1.11 2.776 2.023 0 1.31-.992 1.605-1.64 1.605-.739 0-1.604-.222-1.893-1.284-.09-.321-.144-.716-.144-1.16h-3.965zm-1.369-11.702h-3.965v9.604c0 1.802 0 4.048-1.874 4.048-1.929 0-1.929-2.246-1.929-4.048v-9.604h-3.964v10.813c0 4.888 1.946 7.233 5.875 7.233 3.929 0 5.857-2.346 5.857-7.233V56.609zm-25.321 17.627h3.983l.577-2.518h4.091l.541 2.518h4.109l-4.686-17.626h-3.875l-4.74 17.626zm5.425-6.295l1.244-5.432h.036l1.153 5.432h-2.433zm-23.922 6.295h10.849v-4.518h-6.884v-2.197h6.073v-4.197h-6.073v-2.197h6.686v-4.518h-10.651v17.627zm-13.859 0h3.965v-6.987h3.713v6.987h3.964V56.609h-3.964v6.123h-3.713v-6.123h-3.965v17.627zm-9.209 0h3.965V61.127h3.604v-4.518H85.204v4.518h3.604v13.109zM95.453 106.396c-5.117 0-5.8 9.633-5.8 16.891 0 7.26.683 17.023 5.8 17.023s5.8-9.764 5.8-17.023c0-7.258-.683-16.891-5.8-16.891m0 52.918c-13.304 0-19.309-17.023-19.309-36.027 0-19.003 6.004-35.895 19.309-35.895 13.305 0 19.31 16.892 19.31 35.895 0 19.004-6.005 36.027-19.31 36.027M118.175 89.108h13.032v9.106h.137c2.729-7.919 6.686-10.822 11.6-10.822 3.821 0 7.915 3.827 9.553 10.69.546-.793 3.275-10.69 12.077-10.69 9.075 0 12.146 12.142 12.146 23.227V157.6h-13.51v-37.084c0-6.467-.341-12.272-4.435-12.272-3.413 0-4.572 5.146-4.572 12.272V157.6h-13.509v-37.084c0-6.467-.342-12.272-4.437-12.272-3.412 0-4.571 5.146-4.571 12.272V157.6h-13.509V89.108zM205.922 115.633c0-6.333-2.457-11.48-5.937-11.48-4.025 0-6.346 4.09-6.961 11.48h12.898zm-12.964 13.594c.34 7.785 2.661 13.328 6.891 13.328 2.183 0 4.571-1.584 5.663-4.883h12.623c-2.729 14.781-10.166 21.643-18.218 21.643-11.326 0-19.854-12.932-19.854-35.764 0-19.926 7.505-36.158 18.694-36.158 14.057 0 20.129 15.176 20.129 41.833h-25.928zM223.069 89.108h13.033v8.71h.136c2.524-6.862 6.14-10.426 11.531-10.426 6.346 0 12.146 7.523 12.146 23.227V157.6h-13.51v-35.895c0-7.919-.477-13.461-4.435-13.461-2.32 0-5.39 2.242-5.39 13.196v36.16h-13.51V89.108zM264.342 56.542h13.919v14.827c0 8.878-2.208 17.094-8.164 19.832-2.409 1.134-4.484 1.134-5.755 1.134v-8.217c3.279-.378 5.755-4.345 5.956-8.877h-5.956V56.542zM298.632 109.035c-.069-2.244-.684-3.959-1.57-5.146-.819-1.319-1.911-1.979-3.003-1.979-1.909 0-4.094.792-4.094 5.278 0 1.979.82 2.903 1.57 3.563 2.252 1.848 7.371 2.376 11.874 5.279 4.503 2.771 8.46 7.918 8.46 19.137 0 19.002-9.416 24.148-18.013 24.148-8.325 0-17.468-6.467-17.672-24.148h12.896c.067 2.373.614 4.354 1.637 6.068.682 1.188 1.979 1.98 3.616 1.98 1.774 0 4.574-1.32 4.574-5.279s-1.161-5.146-7.439-7.258C281.163 127.246 277 120.912 277 109.167c0-17.288 9.622-21.774 16.718-21.774 7.64 0 16.852 4.092 17.193 21.643h-12.279z" clip-path="url(#SVGID_2_)"/><path fill="#E31D3C" d="M376.844 157.6l-5.63-61.508h-.147l-5.481 61.508h-15.718L335.686 56.642h15.791l6.359 62.356h.146l6.288-62.356h14.181l6.143 63.206h.146l6.505-63.206h15.865L392.488 157.6z"/><g><defs><path id="SVGID_3_" d="M0 48.642h594v132.127H0z"/></defs><clipPath id="SVGID_4_"><use overflow="visible" xlink:href="#SVGID_3_"/></clipPath><path fill="#E31D3C" d="M428.137 115.633c0-6.333-2.458-11.48-5.938-11.48-4.023 0-6.344 4.09-6.959 11.48h12.897zm-12.966 13.594c.341 7.785 2.661 13.328 6.892 13.328 2.185 0 4.572-1.584 5.665-4.883h12.621c-2.729 14.781-10.166 21.643-18.218 21.643-11.326 0-19.854-12.932-19.854-35.764 0-19.926 7.504-36.158 18.695-36.158 14.058 0 20.13 15.176 20.13 41.833h-25.931zM469.484 115.633c0-6.333-2.457-11.48-5.937-11.48-4.025 0-6.346 4.09-6.961 11.48h12.898zm-12.965 13.594c.343 7.785 2.663 13.328 6.892 13.328 2.185 0 4.573-1.584 5.664-4.883h12.624c-2.73 14.781-10.166 21.643-18.218 21.643-11.327 0-19.855-12.932-19.855-35.764 0-19.926 7.504-36.158 18.694-36.158 14.057 0 20.128 15.176 20.128 41.833h-25.929z" clip-path="url(#SVGID_4_)"/></g><path fill="#E31D3C" d="M509.126 157.6l-7.231-24.811-2.39 5.016V157.6h-13.508V63.374h13.508v45.53l8.599-19.797h15.285l-12.626 25.868 14.602 42.625zM528.027 63.374h13.51V157.6h-13.51z"/><g><defs><path id="SVGID_5_" d="M0 48.642h594v132.127H0z"/></defs><clipPath id="SVGID_6_"><use overflow="visible" xlink:href="#SVGID_5_"/></clipPath><path fill="#E31D3C" d="M573.265 152.32c-1.092 6.07-2.321 13.857-4.436 19.004-3.549 8.578-9.008 8.445-14.261 8.445h-6.14v-20.85h3.138c1.365 0 3.138.262 4.093-.66.82-.793 1.298-2.113 1.298-5.146 0-3.301-5.187-28.506-5.938-32.465l-6.004-31.541h14.465l5.663 39.328h.137l5.732-39.328h13.986l-11.733 63.213z" clip-path="url(#SVGID_6_)"/></g><path fill="#E31D3C" d="M50.159 157.6l-5.63-61.508h-.146L38.9 157.6H23.183L9 56.642h15.791l6.359 62.356h.147l6.288-62.356h14.182l6.141 63.206h.147l6.505-63.206h15.865L65.803 157.6z"/></g></switch></svg>