<?xml version="1.0" encoding="UTF-8" standalone="no"?>
<svg
   xmlns:dc="http://purl.org/dc/elements/1.1/"
   xmlns:cc="http://creativecommons.org/ns#"
   xmlns:rdf="http://www.w3.org/1999/02/22-rdf-syntax-ns#"
   xmlns:svg="http://www.w3.org/2000/svg"
   xmlns="http://www.w3.org/2000/svg"
   version="1.1"
   id="svg2"
   xml:space="preserve"
   width="109.87465"
   height="203.47382"
   viewBox="5.291484 -0.113808 109.874650 203.473820"><metadata
     id="metadata8"><rdf:RDF><cc:Work
         rdf:about=""><dc:format>image/svg+xml</dc:format><dc:type
           rdf:resource="http://purl.org/dc/dcmitype/StillImage" /><dc:title></dc:title></cc:Work></rdf:RDF></metadata><defs
     id="defs6" /><g
     transform="matrix(1.8290767,0,0,-1.8290767,-42.819635,203.36)"
     id="g10"><g
       transform="scale(0.1)"
       id="g12"><path
         id="path14"
         style="fill:#2c2967;fill-opacity:1;fill-rule:nonzero;stroke:none"
         d="M 263.035,1112.44 V 0 L 563.395,116.512 863.746,0 V 1112.44 H 263.035 v 0" /><path
         id="path16"
         style="fill:#ffffff;fill-opacity:1;fill-rule:nonzero;stroke:none"
         d="m 602.926,644.449 c 0,31.172 -12.969,60.84 -39.531,60.84 -25.282,0 -39.528,-29.668 -39.528,-60.84 0,-19.336 7.133,-35.011 18.66,-50.957 0,0 12.778,-12.512 11.692,-44.316 L 547.086,330.68 c 0,0 16.309,-16.442 32.66,-0.032 l -7.113,218.528 h -0.016 c -2.058,31.609 11.735,44.304 11.735,44.304 l -0.051,0.012 c 10.058,13.446 18.625,31.621 18.625,50.957 v 0" /><path
         id="path18"
         style="fill:#ffffff;fill-opacity:1;fill-rule:nonzero;stroke:none"
         d="m 478.441,644.449 c 0,31.172 -12.957,60.84 -39.523,60.84 -25.273,0 -39.523,-29.668 -39.523,-60.84 0,-19.336 7.132,-35.011 18.664,-50.957 0,0 12.769,-12.512 11.683,-44.316 L 422.613,330.68 c 0,0 16.305,-16.442 32.657,-0.032 l -7.118,218.528 h -0.011 c -2.055,31.609 11.73,44.304 11.73,44.304 l -0.043,0.012 c 10.055,13.446 18.613,31.621 18.613,50.957 v 0" /><path
         id="path20"
         style="fill:#ffffff;fill-opacity:1;fill-rule:nonzero;stroke:none"
         d="m 727.398,644.449 c 0,31.172 -12.968,60.84 -39.531,60.84 -25.273,0 -39.523,-29.668 -39.523,-60.84 0,-19.336 7.129,-35.011 18.664,-50.957 0,0 12.773,-12.512 11.68,-44.316 L 671.559,330.68 c 0,0 16.308,-16.442 32.656,-0.032 l -7.11,218.528 h -0.019 c -2.051,31.609 11.738,44.304 11.738,44.304 l -0.039,0.012 c 10.059,13.446 18.613,31.621 18.613,50.957 v 0" /><path
         id="path22"
         style="fill:#ffffff;fill-opacity:1;fill-rule:nonzero;stroke:none"
         d="m 736.754,801.723 h -6.406 v 40.05 h 6.406 c 12.91,0 19.434,-7.109 19.434,-20.031 0,-12.812 -6.524,-20.019 -19.434,-20.019 z m 0,55.05 h -22.012 c -0.898,0 -1.504,-0.597 -1.504,-1.496 v -67.058 c 0,-0.899 0.606,-1.496 1.504,-1.496 h 22.012 c 23.828,0 36.738,15.703 36.738,35.019 0,19.434 -12.91,35.031 -36.738,35.031 z m -53.359,-55.05 h -22.618 v 13.031 h 21.114 c 0.918,0 1.504,0.594 1.504,1.492 v 12 c 0,0.899 -0.586,1.508 -1.504,1.508 h -21.114 v 12.019 h 22.52 c 0.898,0 1.504,0.606 1.504,1.504 v 12 c 0,0.899 -0.606,1.496 -1.504,1.496 h -38.125 c -0.899,0 -1.504,-0.597 -1.504,-1.496 v -67.058 c 0,-0.899 0.605,-1.496 1.504,-1.496 h 38.223 c 0.898,0 1.503,0.597 1.503,1.496 v 12 c 0,0.898 -0.605,1.504 -1.503,1.504 z m -67.754,55.05 h -46.536 c -0.902,0 -1.503,-0.597 -1.503,-1.496 v -12 c 0,-0.898 0.601,-1.504 1.503,-1.504 h 14.719 v -53.546 c 0,-0.907 0.594,-1.504 1.492,-1.504 h 14.114 c 0.898,0 1.492,0.597 1.492,1.504 v 53.546 h 14.719 c 0.898,0 1.504,0.606 1.504,1.504 v 12 c 0,0.899 -0.606,1.496 -1.504,1.496 z M 515.543,836.566 c 0,2.403 2.008,4.903 6.715,4.903 4.305,0 7.312,-1.395 12.41,-4.707 0.801,-0.496 1.504,-0.391 2.102,0.414 l 7.3,9.097 c 0.5,0.801 0.5,1.399 -0.199,2.102 -6,5.496 -12.902,9.199 -22.215,9.199 -11.515,0 -22.816,-7.297 -22.816,-20.605 0,-23.125 31.027,-19.922 31.027,-29.641 0,-3.902 -3.906,-5.699 -7.914,-5.699 -5.508,0 -9.91,1.797 -15.113,6.004 -0.899,0.703 -1.699,0.5 -2.297,-0.207 l -7.707,-8.699 c -0.496,-0.704 -0.496,-1.504 0,-2.098 4.402,-5.609 14.004,-11.106 24.617,-11.106 11.914,0 25.117,6.903 25.117,21.614 0,24.625 -31.027,19.519 -31.027,29.429 z M 469.102,801.723 H 446.48 v 13.031 h 21.118 c 0.902,0 1.504,0.594 1.504,1.492 v 12 c 0,0.899 -0.602,1.508 -1.504,1.508 H 446.48 v 12.019 H 469 c 0.902,0 1.504,0.606 1.504,1.504 v 12 c 0,0.899 -0.602,1.496 -1.504,1.496 h -38.125 c -0.898,0 -1.5,-0.597 -1.5,-1.496 v -67.058 c 0,-0.899 0.602,-1.496 1.5,-1.496 h 38.227 c 0.898,0 1.5,0.597 1.5,1.496 v 12 c 0,0.898 -0.602,1.504 -1.5,1.504 z m -67.762,55.05 h -46.535 c -0.899,0 -1.5,-0.597 -1.5,-1.496 v -12 c 0,-0.898 0.601,-1.504 1.5,-1.504 h 14.715 v -53.546 c 0,-0.907 0.601,-1.504 1.5,-1.504 h 14.101 c 0.902,0 1.5,0.597 1.5,1.504 v 53.546 h 14.719 c 0.894,0 1.496,0.606 1.496,1.504 v 12 c 0,0.899 -0.602,1.496 -1.496,1.496 v 0" /><path
         id="path24"
         style="fill:#ffffff;fill-opacity:1;fill-rule:nonzero;stroke:none"
         d="m 753.219,904.676 h -22.617 v 13.015 h 21.113 c 0.898,0 1.504,0.606 1.504,1.504 v 12 c 0,0.899 -0.606,1.496 -1.504,1.496 h -21.113 v 12.032 h 22.519 c 0.899,0 1.484,0.593 1.484,1.496 v 12 c 0,0.898 -0.585,1.504 -1.484,1.504 h -38.125 c -0.898,0 -1.504,-0.606 -1.504,-1.504 v -67.051 c 0,-0.898 0.606,-1.504 1.504,-1.504 h 38.223 c 0.898,0 1.504,0.606 1.504,1.504 v 12.004 c 0,0.894 -0.606,1.504 -1.504,1.504 z m -67.871,0 H 664.73 v 53.543 c 0,0.898 -0.593,1.504 -1.492,1.504 h -14.113 c -0.898,0 -1.492,-0.606 -1.492,-1.504 v -67.051 c 0,-0.898 0.594,-1.504 1.492,-1.504 h 36.223 c 0.898,0 1.504,0.606 1.504,1.504 v 12.004 c 0,0.894 -0.606,1.504 -1.504,1.504 z m -90.176,23.015 h -5.91 v 17.032 h 5.91 c 4.805,0 10.516,-1.711 10.516,-8.516 0,-6.711 -5.711,-8.516 -10.516,-8.516 z m 0.301,32.032 h -21.817 c -0.898,0 -1.5,-0.606 -1.5,-1.504 v -67.051 c 0,-0.898 0.602,-1.504 1.5,-1.504 h 14.114 c 0.898,0 1.492,0.606 1.492,1.504 v 21.523 h 6.211 c 17.121,0 26.515,9.602 26.515,23.516 0,13.914 -9.394,23.516 -26.515,23.516 z m -68.957,-1.504 v -67.051 c 0,-0.898 0.597,-1.504 1.504,-1.504 h 14.097 c 0.903,0 1.5,0.606 1.5,1.504 v 67.051 c 0,0.898 -0.597,1.504 -1.5,1.504 H 528.02 c -0.907,0 -1.504,-0.606 -1.504,-1.504 z M 465.25,944.723 h 5.906 c 4.813,0 10.52,-1.711 10.52,-8.516 0,-6.711 -5.707,-8.516 -10.52,-8.516 h -5.906 z m 34.43,-53.254 -15.305,23.515 c 8.902,3.606 13.605,11.313 13.605,21.223 0,13.914 -9.406,23.516 -26.527,23.516 h -21.808 c -0.899,0 -1.5,-0.606 -1.5,-1.504 v -67.051 c 0,-0.898 0.601,-1.504 1.5,-1.504 h 14.101 c 0.902,0 1.504,0.606 1.504,1.504 v 21.523 h 2.699 l 14.024,-22.019 c 0.398,-0.703 1,-1.008 1.8,-1.008 h 14.903 c 1.203,0 1.707,0.703 1.004,1.805 z m -79.575,68.254 h -46.531 c -0.898,0 -1.5,-0.606 -1.5,-1.504 v -12 c 0,-0.903 0.602,-1.496 1.5,-1.496 h 14.711 v -53.555 c 0,-0.898 0.602,-1.504 1.504,-1.504 h 14.102 c 0.898,0 1.5,0.606 1.5,1.504 v 53.555 h 14.714 c 0.903,0 1.5,0.593 1.5,1.496 v 12 c 0,0.898 -0.597,1.504 -1.5,1.504 v 0" /><path
         id="path26"
         style="fill:#ffffff;fill-opacity:1;fill-rule:nonzero;stroke:none"
         d="m 353.305,243.129 v -12.848 h 420.187 v 12.848 H 353.305 v 0" /></g></g><rect
     style="fill:none"
     id="rect4493"
     width="109.87465"
     height="203.47382"
     x="5.2914839"
     y="-0.11380842" /></svg>