<?xml version="1.0" encoding="utf-8"?>
<!-- Generator: Adobe Illustrator 20.1.0, SVG Export Plug-In . SVG Version: 6.00 Build 0)  -->
<svg version="1.1" id="Layer_1" xmlns="http://www.w3.org/2000/svg" xmlns:xlink="http://www.w3.org/1999/xlink" x="0px" y="0px"
	 viewBox="0 0 31.4 31.4" style="enable-background:new 0 0 31.4 31.4;" xml:space="preserve">
<g>
	<path d="M15.4,11.3c-2.6,0-4.8,2.2-4.8,4.8c0,2.6,2.2,4.8,4.8,4.8c2.6,0,4.8-2.1,4.8-4.8C20.2,13.4,18,11.3,15.4,11.3z M15.4,19.1
		c-1.7,0-3.1-1.4-3.1-3.1c0-1.7,1.4-3.1,3.1-3.1c1.7,0,3.1,1.4,3.1,3.1C18.5,17.8,17.1,19.1,15.4,19.1z"/>
	<path d="M20.4,10c-0.6,0-1.1,0.5-1.2,1.1c0,0.6,0.5,1.2,1.1,1.2c0.6,0,1.1-0.5,1.1-1.1C21.5,10.5,21,10,20.4,10z"/>
	<path d="M19.3,6.8h-7.5c-3,0-5.5,2.5-5.5,5.5v7.5c0,3,2.5,5.5,5.5,5.5h7.5c3,0,5.5-2.5,5.5-5.5v-7.5C24.8,9.3,22.3,6.8,19.3,6.8z
		 M23.1,20.1c0,2.1-1.4,3.4-3.5,3.4c-2.7,0-5.4,0-8.1,0c-2.1,0-3.4-1.4-3.5-3.5c0-1.4,0-2.7,0-4.1l0.1-4.5c0.2-1.9,1.5-2.9,3.4-3
		c2.7,0,5.4,0,8.1,0c2.1,0,3.4,1.4,3.5,3.5C23.1,14.7,23.1,17.4,23.1,20.1z"/>
	<path d="M15.7,0C7,0,0,7,0,15.7s7,15.7,15.7,15.7c8.7,0,15.7-7,15.7-15.7S24.4,0,15.7,0z M15.7,29.8c-7.8,0-14.1-6.3-14.1-14.1
		C1.6,9.9,5,4.9,10,2.8c1.6-0.7,3.5-1.1,5.8-1.1c0.3,0,0.7,0,1.1,0c1.6,0.1,3.2,0.5,4.7,1.2c0.1,0,0.1,0,0.2,0.1
		C21.8,3,21.9,3,21.9,3c4.7,2.3,7.9,7.1,7.9,12.7C29.8,23.5,23.5,29.8,15.7,29.8z"/>
</g>
</svg>
