<?xml version="1.0" encoding="utf-8"?>
<!-- Generator: Adobe Illustrator 20.1.0, SVG Export Plug-In . SVG Version: 6.00 Build 0)  -->
<svg version="1.1" id="Layer_1" xmlns="http://www.w3.org/2000/svg" xmlns:xlink="http://www.w3.org/1999/xlink" x="0px" y="0px"
	 viewBox="0 0 31.5 31.5" style="enable-background:new 0 0 31.5 31.5;" xml:space="preserve">
<path class="st0" d="M15.7,0C7,0,0,7,0,15.7c0,8.7,7,15.7,15.7,15.7c8.7,0,15.7-7,15.7-15.7C31.5,7,24.4,0,15.7,0z M15.7,29.9
	c-1.5,0-3-0.2-4.4-0.7c0.6-0.9,1.4-2.4,1.7-3.5c0.2-0.7,0.9-3.3,0.9-3.3c0.5,0.9,1.8,1.6,3.2,1.6c4.2,0,7.3-3.9,7.3-8.8
	c0-4.6-3.8-8.1-8.7-8.1c-6.1,0-9.3,4.1-9.3,8.5c0,2.1,1.1,4.6,2.9,5.5c0.3,0.1,0.4,0.1,0.5-0.2c0-0.2,0.3-1.2,0.4-1.6
	c0-0.1,0-0.3-0.1-0.4c-0.6-0.7-1-2-1-3.2c0-3.1,2.4-6.1,6.4-6.1c3.5,0,5.9,2.4,5.9,5.7c0,3.8-1.9,6.4-4.4,6.4
	c-1.4,0-2.4-1.1-2.1-2.5c0.4-1.7,1.2-3.5,1.2-4.7c0-1.1-0.6-2-1.8-2c-1.4,0-2.5,1.5-2.5,3.4c0,1.2,0.4,2.1,0.4,2.1s-1.4,5.9-1.6,7
	c-0.3,1.1-0.2,2.7-0.1,3.8c-5.1-2.1-8.7-7.2-8.7-13.1c0-7.8,6.3-14.2,14.2-14.2c7.8,0,14.2,6.3,14.2,14.2
	C29.9,23.5,23.5,29.9,15.7,29.9z"/>
</svg>
