<?xml version="1.0" encoding="utf-8"?>
<!-- Generator: Adobe Illustrator 20.1.0, SVG Export Plug-In . SVG Version: 6.00 Build 0)  -->
<svg version="1.1" id="Layer_1" xmlns="http://www.w3.org/2000/svg" xmlns:xlink="http://www.w3.org/1999/xlink" x="0px" y="0px"
	 viewBox="0 0 31.5 31.5" style="enable-background:new 0 0 31.5 31.5;" xml:space="preserve">
<g>
	<path class="st0" d="M24.7,9.5c-0.7,0.4-1.4,0.7-2.3,0.9c-0.6-0.7-1.6-1.1-2.6-1.1c-2,0-3.6,1.6-3.6,3.6c0,0.3,0,0.5,0.1,0.8
		c-3-0.1-5.6-1.6-7.3-3.7c-0.3,0.5-0.5,1.1-0.5,1.8c0,1.2,0.6,2.3,1.6,3c-0.6,0-1.1-0.2-1.6-0.4c0,0,0,0,0,0c0,1.7,1.2,3.2,2.9,3.5
		c-0.3,0.1-0.6,0.1-0.9,0.1c-0.2,0-0.4,0-0.7-0.1c0.5,1.4,1.8,2.4,3.3,2.5c-1.2,1-2.7,1.5-4.4,1.5c-0.3,0-0.6,0-0.8-0.1
		c1.6,1,3.4,1.6,5.4,1.6c6.5,0,10.1-5.4,10.1-10.1c0-0.2,0-0.3,0-0.5c0.7-0.5,1.3-1.1,1.8-1.8c-0.6,0.3-1.3,0.5-2,0.6
		C23.9,11,24.4,10.3,24.7,9.5z"/>
	<path class="st0" d="M15.7,0C7,0,0,7,0,15.7c0,8.7,7,15.7,15.7,15.7c8.7,0,15.7-7,15.7-15.7C31.5,7,24.4,0,15.7,0z M15.7,29.9
		c-7.8,0-14.2-6.3-14.2-14.2c0-7.8,6.3-14.2,14.2-14.2c7.8,0,14.2,6.3,14.2,14.2C29.9,23.5,23.5,29.9,15.7,29.9z"/>
</g>
</svg>
