<svg xmlns="http://www.w3.org/2000/svg" xmlns:xlink="http://www.w3.org/1999/xlink" viewBox="0 0 160.65 29.15">
  <defs>
    <style>
      .a {
        fill: url(#a);
      }

      .b {
        fill: url(#b);
      }

      .c {
        fill: url(#c);
      }

      .d {
        fill: url(#d);
      }

      .e {
        fill: url(#e);
      }

      .f {
        fill: url(#f);
      }

      .g {
        fill: #0e5933;
      }
    </style>
    <linearGradient id="a" x1="158.07" y1="25.29" x2="148.31" y2="23.01" gradientUnits="userSpaceOnUse">
      <stop offset="0.12" stop-color="#4d9755"/>
      <stop offset="0.47" stop-color="#7db159"/>
      <stop offset="0.82" stop-color="#a8c85d"/>
      <stop offset="1" stop-color="#b9d15f"/>
    </linearGradient>
    <linearGradient id="b" x1="154.4" y1="4.21" x2="154.4" y2="26.22" gradientUnits="userSpaceOnUse">
      <stop offset="0" stop-color="#5fa755"/>
      <stop offset="0.06" stop-color="#6bac56"/>
      <stop offset="0.25" stop-color="#8dbc5a"/>
      <stop offset="0.44" stop-color="#a5c85d"/>
      <stop offset="0.61" stop-color="#b4cf5e"/>
      <stop offset="0.75" stop-color="#b9d15f"/>
    </linearGradient>
    <linearGradient id="c" data-name="New Gradient Swatch" x1="136.71" y1="4.21" x2="136.71" y2="26.22" xlink:href="#b"/>
    <linearGradient id="d" x1="142.13" y1="14.48" x2="142.13" y2="25.21" gradientUnits="userSpaceOnUse">
      <stop offset="0.19" stop-color="#4d9755"/>
      <stop offset="0.61" stop-color="#98bf5c"/>
      <stop offset="0.78" stop-color="#b9d15f"/>
    </linearGradient>
    <linearGradient id="e" x1="137.95" y1="29.31" x2="146.05" y2="-1.25" gradientUnits="userSpaceOnUse">
      <stop offset="0.05" stop-color="#4d9755"/>
      <stop offset="0.08" stop-color="#559b56"/>
      <stop offset="0.22" stop-color="#80b25a"/>
      <stop offset="0.34" stop-color="#9fc35d"/>
      <stop offset="0.45" stop-color="#b2cd5e"/>
      <stop offset="0.52" stop-color="#b9d15f"/>
    </linearGradient>
    <linearGradient id="f" x1="143.84" y1="11.3" x2="153.2" y2="2.06" gradientUnits="userSpaceOnUse">
      <stop offset="0" stop-color="#7cb052"/>
      <stop offset="0.36" stop-color="#93bd57"/>
      <stop offset="1" stop-color="#b9d15f"/>
    </linearGradient>
  </defs>
  <title>Countdown_160x30</title>
  <g>
    <path d="M5,2.77c0,.91-.66,1.46-1.75,1.46h-1V5.5h-.6V1.31H3.2C4.29,1.31,5,1.86,5,2.77Zm-.6,0c0-.6-.4-.94-1.17-.94h-1V3.71h1C4,3.71,4.35,3.37,4.35,2.77Z" transform="translate(0 -1.31)"/>
    <path d="M8.85,4.45H6.62l-.46,1H5.54l1.9-4.19H8L9.94,5.5H9.31ZM8.64,4,7.73,1.92,6.83,4Z" transform="translate(0 -1.31)"/>
    <path d="M13.92,5.5,13,4.21l-.27,0h-1V5.5h-.6V1.31h1.63c1.1,0,1.76.55,1.76,1.46a1.32,1.32,0,0,1-.93,1.32l1,1.41Zm0-2.73c0-.6-.41-.94-1.17-.94h-1V3.72h1C13.5,3.72,13.91,3.37,13.91,2.77Z" transform="translate(0 -1.31)"/>
    <path d="M16.8,1.83H15.37V1.31h3.47v.52H17.4V5.5h-.6Z" transform="translate(0 -1.31)"/>
    <path d="M23.66,1.31V5.5h-.5L20.65,2.37V5.5h-.6V1.31h.49l2.52,3.13V1.31Z" transform="translate(0 -1.31)"/>
    <path d="M28.52,5V5.5H25.47V1.31h3v.52H26.07V3.12h2.1v.51h-2.1V5Z" transform="translate(0 -1.31)"/>
    <path d="M32.85,5.5l-.91-1.29-.26,0h-1V5.5H30V1.31h1.64c1.09,0,1.75.55,1.75,1.46a1.32,1.32,0,0,1-.92,1.32l1,1.41Zm0-2.73c0-.6-.4-.94-1.17-.94h-1V3.72h1C32.43,3.72,32.83,3.37,32.83,2.77Z" transform="translate(0 -1.31)"/>
    <path d="M38,5V5.5H35V1.31h3v.52H35.55V3.12h2.11v.51H35.55V5Z" transform="translate(0 -1.31)"/>
    <path d="M39.53,1.31H41.3A2.07,2.07,0,0,1,43.56,3.4,2.07,2.07,0,0,1,41.3,5.5H39.53ZM41.26,5A1.54,1.54,0,0,0,43,3.4a1.54,1.54,0,0,0-1.7-1.57H40.13V5Z" transform="translate(0 -1.31)"/>
    <path d="M53.13,1.31,51.73,5.5H51.1L50,2.15,48.81,5.5h-.64L46.76,1.31h.62l1.13,3.41L49.7,1.31h.55L51.4,4.74l1.16-3.43Z" transform="translate(0 -1.31)"/>
    <path d="M54.42,1.31H55V5.5h-.6Z" transform="translate(0 -1.31)"/>
    <path d="M57.66,1.83H56.22V1.31H59.7v.52H58.26V5.5h-.6Z" transform="translate(0 -1.31)"/>
    <path d="M64.51,1.31V5.5h-.59V3.63H61.5V5.5h-.59V1.31h.59v1.8h2.42V1.31Z" transform="translate(0 -1.31)"/>
  </g>
  <g>
    <path class="a" d="M151,26.07a7.89,7.89,0,0,1-2-.25h0a11.91,11.91,0,0,1-3.88,3.46,9.31,9.31,0,0,0,4.49,1.18c6.21,0,10.44-6.46,10.94-11.95A9.23,9.23,0,0,1,151,26.07Z" transform="translate(0 -1.31)"/>
    <path class="b" d="M152.57,8.9a5.86,5.86,0,0,0-4.42,1.73c3.08.32,6.87,2.49,6.87,7a6.91,6.91,0,0,1-5.21,7c-.23.4-.49.79-.76,1.17a7.89,7.89,0,0,0,2,.25,9.23,9.23,0,0,0,9.57-7.56c0-.37.05-.73.05-1.09C160.65,11.26,156,8.9,152.57,8.9Z" transform="translate(0 -1.31)"/>
    <path class="c" d="M139.31,26.07a7.63,7.63,0,0,0,4.42-1.37,5.22,5.22,0,0,1-1.42.22,7,7,0,0,1-7-7.29c0-4.51,3.79-6.68,6.87-7a5.88,5.88,0,0,0-4.42-1.73c-3.38,0-8.08,2.36-8.08,8.52,0,.36,0,.72.05,1.09A9.19,9.19,0,0,0,139.31,26.07Z" transform="translate(0 -1.31)"/>
    <path class="d" d="M142.31,24.92a5.22,5.22,0,0,0,1.42-.22h0a7.29,7.29,0,0,0,1.47-1.35h0a7.64,7.64,0,0,1-1.62-4.54,3.94,3.94,0,0,1,1.6-3.46h0a4,4,0,0,0-2.28-.79,3.92,3.92,0,0,0-3.7,3.21h0c0,.1,0,.21,0,.31a10.74,10.74,0,0,0-.09,1.45,10.25,10.25,0,0,0,1.6,5.15A6.64,6.64,0,0,0,142.31,24.92Z" transform="translate(0 -1.31)"/>
    <path class="e" d="M145.21,12.48c-3.75,0-5.53,2.76-6,5.29a3.92,3.92,0,0,1,3.7-3.21,4,4,0,0,1,2.28.79h0A4.26,4.26,0,0,1,146.86,19a7,7,0,0,1-1.66,4.39h0a7.56,7.56,0,0,1-5.89,2.72,9.19,9.19,0,0,1-9.57-7.56c.5,5.49,4.73,12,10.94,12,6.06,0,10.69-6.13,10.69-11.25C151.37,15.65,149.36,12.48,145.21,12.48Z" transform="translate(0 -1.31)"/>
    <path class="f" d="M145.32,10.39a5,5,0,0,1-1.38-2.94,4.44,4.44,0,0,1,2.39-4.17c4.57-2.45,8.54,1.11,8.08,3.42a7.66,7.66,0,0,0-6.54.3A5,5,0,0,0,145.32,10.39Z" transform="translate(0 -1.31)"/>
  </g>
  <g>
    <path class="g" d="M4.19,15.66A5,5,0,0,1,6.8,15a5,5,0,0,1,4.12,2.1.21.21,0,0,0,.1.06.14.14,0,0,0,.11,0l1-.77a.14.14,0,0,0,0-.2,6.77,6.77,0,0,0-2.28-2,6.42,6.42,0,0,0-3-.72,6.8,6.8,0,0,0-3.44.91A6.65,6.65,0,0,0,.9,16.81a7,7,0,0,0,0,6.89,6.54,6.54,0,0,0,2.46,2.49,6.67,6.67,0,0,0,3.42.92,6.43,6.43,0,0,0,3-.73,6.61,6.61,0,0,0,2.3-2,.14.14,0,0,0,0-.2l-1-.77a.14.14,0,0,0-.11,0,.14.14,0,0,0-.1.05,5,5,0,0,1-4.14,2.11A5,5,0,0,1,2.35,23a5.5,5.5,0,0,1-.68-2.7,5.44,5.44,0,0,1,.68-2.67A5.07,5.07,0,0,1,4.19,15.66Z" transform="translate(0 -1.31)"/>
    <path class="g" d="M23.08,14.32a6.82,6.82,0,0,0-9.32,2.46,7.14,7.14,0,0,0,0,6.94,6.81,6.81,0,0,0,9.31,2.47,6.81,6.81,0,0,0,2.49-2.48,7.05,7.05,0,0,0,0-6.93A6.73,6.73,0,0,0,23.08,14.32ZM19.64,25.57A4.94,4.94,0,0,1,15.2,23a5.49,5.49,0,0,1-.66-2.68,5.56,5.56,0,0,1,.66-2.7A4.93,4.93,0,0,1,17,15.66a5.23,5.23,0,0,1,5.23,0,5,5,0,0,1,1.85,1.92,5.49,5.49,0,0,1,.67,2.7A5.43,5.43,0,0,1,24.12,23a5,5,0,0,1-4.48,2.62Z" transform="translate(0 -1.31)"/>
    <path class="g" d="M38.17,13.69H36.84a.14.14,0,0,0-.14.14v8a3.63,3.63,0,0,1-1,2.69,3.75,3.75,0,0,1-5.1,0,3.6,3.6,0,0,1-1-2.69v-8a.15.15,0,0,0-.15-.14H28.08a.14.14,0,0,0-.14.14v8a5.62,5.62,0,0,0,.68,2.79,4.71,4.71,0,0,0,1.88,1.85,5.46,5.46,0,0,0,2.64.65,5.4,5.4,0,0,0,2.63-.65,4.73,4.73,0,0,0,1.86-1.85,5.52,5.52,0,0,0,.69-2.79v-8A.15.15,0,0,0,38.17,13.69Z" transform="translate(0 -1.31)"/>
    <path class="g" d="M49.52,14.85A4.59,4.59,0,0,0,46,13.42,5.41,5.41,0,0,0,43.5,14,4.58,4.58,0,0,0,42,15.14V13.83a.14.14,0,0,0-.14-.14H40.57a.14.14,0,0,0-.14.14V26.7a.14.14,0,0,0,.14.14H41.9a.15.15,0,0,0,.15-.14v-8a3.66,3.66,0,0,1,1-2.64A3.62,3.62,0,0,1,45.74,15a3.25,3.25,0,0,1,2.51,1,3.83,3.83,0,0,1,.94,2.67V26.7a.14.14,0,0,0,.14.14h1.33a.15.15,0,0,0,.15-.14V18.57a5.35,5.35,0,0,0-1.29-3.72Z" transform="translate(0 -1.31)"/>
    <path class="g" d="M60,25.38c-1.75.37-3,.25-3.71-.37a2.41,2.41,0,0,1-.69-2V15.2h4a.14.14,0,0,0,.14-.14V13.83a.14.14,0,0,0-.14-.14h-4V10.18a.15.15,0,0,0-.15-.14H54.07a.14.14,0,0,0-.14.14v3.51H51.84a.15.15,0,0,0-.15.14v1.23a.15.15,0,0,0,.15.14h2.09v7.9a3.85,3.85,0,0,0,1.11,3,4.41,4.41,0,0,0,3,1,8,8,0,0,0,2-.27.16.16,0,0,0,.11-.14V25.52a.14.14,0,0,0-.06-.11A.13.13,0,0,0,60,25.38Z" transform="translate(0 -1.31)"/>
    <path class="g" d="M73.2,6.58H71.87a.14.14,0,0,0-.14.14v9.13a5.7,5.7,0,0,0-1.93-1.67,6.63,6.63,0,0,0-3.12-.76,6.38,6.38,0,0,0-3.35.91A6.44,6.44,0,0,0,61,16.81a7.35,7.35,0,0,0-.84,3.47A7.08,7.08,0,0,0,61,23.72a6.56,6.56,0,0,0,2.35,2.47,6.3,6.3,0,0,0,3.33.92,6.65,6.65,0,0,0,3.17-.79,5.46,5.46,0,0,0,1.93-1.72v2.1a.14.14,0,0,0,.14.14H73.2a.15.15,0,0,0,.15-.14v-20A.15.15,0,0,0,73.2,6.58Zm-6.39,19a4.85,4.85,0,0,1-2.56-.7A4.94,4.94,0,0,1,62.46,23a6,6,0,0,1,0-5.4,4.75,4.75,0,0,1,1.79-1.9A4.84,4.84,0,0,1,66.81,15a5.33,5.33,0,0,1,2.43.57A4.35,4.35,0,0,1,71,17.29a5.88,5.88,0,0,1,.69,3,5.84,5.84,0,0,1-.69,3A4.35,4.35,0,0,1,69.24,25,5.46,5.46,0,0,1,66.81,25.57Z" transform="translate(0 -1.31)"/>
    <path class="g" d="M85.06,14.32a7,7,0,0,0-6.86,0,6.67,6.67,0,0,0-2.46,2.46,7.14,7.14,0,0,0,0,6.94,6.81,6.81,0,0,0,9.31,2.47,6.81,6.81,0,0,0,2.49-2.48,7.05,7.05,0,0,0,0-6.93A6.73,6.73,0,0,0,85.06,14.32ZM81.62,25.57A4.94,4.94,0,0,1,77.18,23a5.49,5.49,0,0,1-.66-2.68,5.56,5.56,0,0,1,.66-2.7A4.86,4.86,0,0,1,79,15.66a5.23,5.23,0,0,1,5.23,0,5,5,0,0,1,1.85,1.92,5.49,5.49,0,0,1,.67,2.7A5.43,5.43,0,0,1,86.1,23a5,5,0,0,1-4.48,2.62Z" transform="translate(0 -1.31)"/>
    <path class="g" d="M109.21,13.69h-1.44a.15.15,0,0,0-.14.09l-3.89,10.29L99.22,13.51a.14.14,0,0,0-.13-.09h-.56a.14.14,0,0,0-.13.09L93.9,24.12,90,13.78a.13.13,0,0,0-.13-.09H88.41a.14.14,0,0,0-.12.06.17.17,0,0,0,0,.14L93.47,27a.14.14,0,0,0,.13.09h.53a.17.17,0,0,0,.14-.09L98.8,16.49,103.35,27a.14.14,0,0,0,.13.09H104a.17.17,0,0,0,.14-.09l5.16-13.13a.17.17,0,0,0,0-.14A.14.14,0,0,0,109.21,13.69Z" transform="translate(0 -1.31)"/>
    <path class="g" d="M119.76,14.85h0a4.6,4.6,0,0,0-3.57-1.43,5.41,5.41,0,0,0-2.45.54,4.48,4.48,0,0,0-1.51,1.18V13.83a.15.15,0,0,0-.15-.14h-1.27a.15.15,0,0,0-.15.14V26.7a.15.15,0,0,0,.15.14h1.33a.14.14,0,0,0,.14-.14v-8A3.57,3.57,0,0,1,116,15a3.28,3.28,0,0,1,2.52,1,3.83,3.83,0,0,1,.93,2.67V26.7a.15.15,0,0,0,.15.14h1.33a.14.14,0,0,0,.14-.14V18.57A5.39,5.39,0,0,0,119.76,14.85Z" transform="translate(0 -1.31)"/>
  </g>
</svg>
