<svg xmlns="http://www.w3.org/2000/svg" xmlns:xlink="http://www.w3.org/1999/xlink" viewBox="0 0 118.18 21.44">
  <defs>
    <style>
      .a {
        fill: url(#a);
      }

      .b {
        fill: url(#b);
      }

      .c {
        fill: url(#c);
      }

      .d {
        fill: url(#d);
      }

      .e {
        fill: url(#e);
      }

      .f {
        fill: url(#f);
      }

      .g {
        fill: #0e5933;
      }
    </style>
    <linearGradient id="a" x1="117.19" y1="18.45" x2="110.01" y2="16.77" gradientUnits="userSpaceOnUse">
      <stop offset="0.12" stop-color="#4d9755"/>
      <stop offset="0.47" stop-color="#7db159"/>
      <stop offset="0.82" stop-color="#a8c85d"/>
      <stop offset="1" stop-color="#b9d15f"/>
    </linearGradient>
    <linearGradient id="b" x1="114.49" y1="2.94" x2="114.49" y2="19.14" gradientUnits="userSpaceOnUse">
      <stop offset="0" stop-color="#5fa755"/>
      <stop offset="0.06" stop-color="#6bac56"/>
      <stop offset="0.25" stop-color="#8dbc5a"/>
      <stop offset="0.44" stop-color="#a5c85d"/>
      <stop offset="0.61" stop-color="#b4cf5e"/>
      <stop offset="0.75" stop-color="#b9d15f"/>
    </linearGradient>
    <linearGradient id="c" data-name="New Gradient Swatch" x1="101.48" y1="2.94" x2="101.48" y2="19.14" xlink:href="#b"/>
    <linearGradient id="d" x1="105.47" y1="10.5" x2="105.47" y2="18.39" gradientUnits="userSpaceOnUse">
      <stop offset="0.19" stop-color="#4d9755"/>
      <stop offset="0.61" stop-color="#98bf5c"/>
      <stop offset="0.78" stop-color="#b9d15f"/>
    </linearGradient>
    <linearGradient id="e" x1="102.39" y1="21.41" x2="108.35" y2="-1.07" gradientUnits="userSpaceOnUse">
      <stop offset="0.05" stop-color="#4d9755"/>
      <stop offset="0.08" stop-color="#559b56"/>
      <stop offset="0.22" stop-color="#80b25a"/>
      <stop offset="0.34" stop-color="#9fc35d"/>
      <stop offset="0.45" stop-color="#b2cd5e"/>
      <stop offset="0.52" stop-color="#b9d15f"/>
    </linearGradient>
    <linearGradient id="f" x1="106.72" y1="8.16" x2="113.61" y2="1.36" gradientUnits="userSpaceOnUse">
      <stop offset="0" stop-color="#7cb052"/>
      <stop offset="0.36" stop-color="#93bd57"/>
      <stop offset="1" stop-color="#b9d15f"/>
    </linearGradient>
  </defs>
  <title>Countdown_120x22</title>
  <g>
    <path d="M4.55,1.88C4.55,2.55,4.06,3,3.26,3H2.5v.93H2.06V.81h1.2C4.06.81,4.55,1.21,4.55,1.88Zm-.44,0c0-.44-.3-.69-.86-.69H2.5V2.57h.75C3.81,2.57,4.11,2.32,4.11,1.88Z" transform="translate(-0.91 -0.81)"/>
    <path d="M7.42,3.12H5.78l-.34.77H5L6.38.81h.44l1.4,3.08H7.76Zm-.16-.35L6.6,1.26,5.93,2.77Z" transform="translate(-0.91 -0.81)"/>
    <path d="M11.15,3.89,10.49,3h-1v.94H9.09V.81h1.2c.81,0,1.29.4,1.29,1.07a1,1,0,0,1-.68,1l.73,1Zm0-2c0-.44-.3-.69-.86-.69H9.53V2.58h.75C10.84,2.58,11.14,2.32,11.14,1.88Z" transform="translate(-0.91 -0.81)"/>
    <path d="M13.27,1.19H12.21V.81h2.56v.38H13.71v2.7h-.44Z" transform="translate(-0.91 -0.81)"/>
    <path d="M18.31.81V3.89H18L16.1,1.59v2.3h-.44V.81H16l1.85,2.3V.81Z" transform="translate(-0.91 -0.81)"/>
    <path d="M21.89,3.51v.38H19.65V.81h2.18v.38H20.09v1h1.55v.37H20.09v1Z" transform="translate(-0.91 -0.81)"/>
    <path d="M25.07,3.89,24.41,3h-1v.94H23V.81h1.2c.81,0,1.29.4,1.29,1.07a1,1,0,0,1-.68,1l.74,1Zm0-2c0-.44-.29-.69-.86-.69h-.75V2.58h.75C24.77,2.58,25.06,2.32,25.06,1.88Z" transform="translate(-0.91 -0.81)"/>
    <path d="M28.87,3.51v.38H26.62V.81H28.8v.38H27.07v1h1.54v.37H27.07v1Z" transform="translate(-0.91 -0.81)"/>
    <path d="M30,.81h1.3A1.53,1.53,0,0,1,33,2.35a1.53,1.53,0,0,1-1.67,1.54H30Zm1.27,2.7a1.14,1.14,0,0,0,1.26-1.16,1.14,1.14,0,0,0-1.26-1.16h-.83V3.51Z" transform="translate(-0.91 -0.81)"/>
    <path d="M40,.81,39,3.89H38.5l-.84-2.46-.84,2.46h-.48l-1-3.08h.46l.83,2.51L37.47.81h.4l.85,2.52L39.58.81Z" transform="translate(-0.91 -0.81)"/>
    <path d="M40.94.81h.44V3.89h-.44Z" transform="translate(-0.91 -0.81)"/>
    <path d="M43.33,1.19H42.27V.81h2.56v.38H43.77v2.7h-.44Z" transform="translate(-0.91 -0.81)"/>
    <path d="M48.37.81V3.89h-.44V2.52H46.16V3.89h-.45V.81h.45V2.13h1.77V.81Z" transform="translate(-0.91 -0.81)"/>
  </g>
  <g>
    <path class="a" d="M112,19a5.65,5.65,0,0,1-1.45-.18h0a9,9,0,0,1-2.86,2.55,6.91,6.91,0,0,0,3.31.86c4.56,0,7.67-4.75,8-8.79A6.77,6.77,0,0,1,112,19Z" transform="translate(-0.91 -0.81)"/>
    <path class="b" d="M113.15,6.39a4.33,4.33,0,0,0-3.26,1.28c2.27.23,5.06,1.83,5.06,5.14A5.07,5.07,0,0,1,111.11,18a9.64,9.64,0,0,1-.55.86A5.65,5.65,0,0,0,112,19a6.77,6.77,0,0,0,7-5.56,7.26,7.26,0,0,0,0-.8A5.91,5.91,0,0,0,113.15,6.39Z" transform="translate(-0.91 -0.81)"/>
    <path class="c" d="M103.39,19a5.63,5.63,0,0,0,3.26-1,3.85,3.85,0,0,1-1.05.17,5.18,5.18,0,0,1-5.14-5.37c0-3.31,2.78-4.91,5.05-5.14a4.32,4.32,0,0,0-3.25-1.28,5.92,5.92,0,0,0-6,6.27c0,.26,0,.53,0,.8A6.77,6.77,0,0,0,103.39,19Z" transform="translate(-0.91 -0.81)"/>
    <path class="d" d="M105.6,18.18a3.85,3.85,0,0,0,1.05-.17h0a5.88,5.88,0,0,0,1.07-1h0a5.74,5.74,0,0,1-1.18-3.35,2.87,2.87,0,0,1,1.17-2.54h0a3,3,0,0,0-1.68-.58,2.88,2.88,0,0,0-2.72,2.36h0c0,.08,0,.16,0,.23a8.84,8.84,0,0,0-.06,1.07A7.52,7.52,0,0,0,104.39,18,4.68,4.68,0,0,0,105.6,18.18Z" transform="translate(-0.91 -0.81)"/>
    <path class="e" d="M107.73,9a4.42,4.42,0,0,0-4.42,3.9A2.88,2.88,0,0,1,106,10.56a3,3,0,0,1,1.68.58h0a3.13,3.13,0,0,1,1.23,2.65A5.14,5.14,0,0,1,107.72,17h0a5.56,5.56,0,0,1-4.33,2,6.77,6.77,0,0,1-7-5.56c.37,4,3.48,8.79,8.05,8.79s7.87-4.5,7.87-8.27C112.27,11.36,110.78,9,107.73,9Z" transform="translate(-0.91 -0.81)"/>
    <path class="f" d="M107.81,7.49a3.62,3.62,0,0,1-1-2.17,3.27,3.27,0,0,1,1.76-3.06c3.36-1.8,6.28.82,5.94,2.51a5.62,5.62,0,0,0-4.81.23A3.68,3.68,0,0,0,107.81,7.49Z" transform="translate(-0.91 -0.81)"/>
  </g>
  <g>
    <path class="g" d="M4,11.37a3.62,3.62,0,0,1,1.92-.52,3.65,3.65,0,0,1,3,1.55l.08,0,.08,0,.7-.57a.11.11,0,0,0,0-.15,5,5,0,0,0-1.68-1.45,4.76,4.76,0,0,0-2.23-.53,5,5,0,0,0-4.34,2.49,5.2,5.2,0,0,0,0,5.07,5,5,0,0,0,4.32,2.51,4.69,4.69,0,0,0,2.24-.54A4.92,4.92,0,0,0,9.82,17.8a.1.1,0,0,0,0-.14l-.7-.57a.09.09,0,0,0-.08,0,.07.07,0,0,0-.07,0,3.75,3.75,0,0,1-3.06,1.54A3.66,3.66,0,0,1,4,18.14a3.73,3.73,0,0,1-1.35-1.41,4.05,4.05,0,0,1-.5-2,4,4,0,0,1,.5-2A3.66,3.66,0,0,1,4,11.37Z" transform="translate(-0.91 -0.81)"/>
    <path class="g" d="M17.89,10.38a5.14,5.14,0,0,0-5,0A4.86,4.86,0,0,0,11,12.19a5.26,5.26,0,0,0,0,5.1,5,5,0,0,0,6.85,1.82,4.87,4.87,0,0,0,1.83-1.83,5.17,5.17,0,0,0,0-5.09A5,5,0,0,0,17.89,10.38Zm-2.53,8.27a3.71,3.71,0,0,1-1.93-.51,3.61,3.61,0,0,1-1.34-1.4,4.25,4.25,0,0,1,0-4,3.59,3.59,0,0,1,1.35-1.41,3.78,3.78,0,0,1,1.94-.52,3.7,3.7,0,0,1,1.91.52,3.62,3.62,0,0,1,1.36,1.41,4.15,4.15,0,0,1,0,4,3.67,3.67,0,0,1-3.29,1.92Z" transform="translate(-0.91 -0.81)"/>
    <path class="g" d="M29,9.91H28a.1.1,0,0,0-.1.11v5.92a2.68,2.68,0,0,1-.75,2,2.61,2.61,0,0,1-1.87.73,2.64,2.64,0,0,1-1.89-.73,2.68,2.68,0,0,1-.75-2V10a.1.1,0,0,0-.1-.11h-1a.11.11,0,0,0-.11.11V15.9a4.15,4.15,0,0,0,.5,2,3.49,3.49,0,0,0,1.39,1.36,4,4,0,0,0,1.94.48,3.89,3.89,0,0,0,1.93-.48A3.47,3.47,0,0,0,28.6,18a4.15,4.15,0,0,0,.5-2V10A.11.11,0,0,0,29,9.91Z" transform="translate(-0.91 -0.81)"/>
    <path class="g" d="M37.34,10.77a3.38,3.38,0,0,0-2.63-1,4.06,4.06,0,0,0-1.8.39A3.63,3.63,0,0,0,31.8,11V10a.11.11,0,0,0-.1-.11h-.94a.11.11,0,0,0-.11.11v9.46a.11.11,0,0,0,.11.11h1a.11.11,0,0,0,.1-.11V13.57a2.71,2.71,0,0,1,.76-2,2.67,2.67,0,0,1,2-.77,2.4,2.4,0,0,1,1.85.75,2.84,2.84,0,0,1,.68,2v5.91a.11.11,0,0,0,.11.11h1a.11.11,0,0,0,.11-.11v-6a4,4,0,0,0-.95-2.74Z" transform="translate(-0.91 -0.81)"/>
    <path class="g" d="M45,18.52a3.25,3.25,0,0,1-2.74-.27,1.83,1.83,0,0,1-.51-1.45V11h3a.11.11,0,0,0,.11-.11V10a.11.11,0,0,0-.11-.11h-3V7.34a.1.1,0,0,0-.1-.11h-1a.11.11,0,0,0-.11.11V9.91H39a.1.1,0,0,0-.1.11v.9A.1.1,0,0,0,39,11h1.54v5.81a2.82,2.82,0,0,0,.82,2.23,3.19,3.19,0,0,0,2.19.72,5.93,5.93,0,0,0,1.49-.2.12.12,0,0,0,.08-.11v-.86a.09.09,0,0,0,0-.08A.08.08,0,0,0,45,18.52Z" transform="translate(-0.91 -0.81)"/>
    <path class="g" d="M54.76,4.68h-1a.11.11,0,0,0-.11.11V11.5a3.94,3.94,0,0,0-1.42-1.22A4.82,4.82,0,0,0,50,9.72a4.61,4.61,0,0,0-2.46.67,4.73,4.73,0,0,0-1.73,1.82,5.34,5.34,0,0,0-.62,2.55,5.16,5.16,0,0,0,.63,2.53,4.69,4.69,0,0,0,1.74,1.82,4.58,4.58,0,0,0,2.44.68,4.77,4.77,0,0,0,2.33-.59,3.86,3.86,0,0,0,1.42-1.26v1.54a.11.11,0,0,0,.11.11h.94a.11.11,0,0,0,.11-.11V4.79A.11.11,0,0,0,54.76,4.68Zm-4.7,14a3.57,3.57,0,0,1-1.89-.51,3.71,3.71,0,0,1-1.31-1.41,4.37,4.37,0,0,1,0-4,3.55,3.55,0,0,1,3.2-1.9,3.89,3.89,0,0,1,1.78.42,3.17,3.17,0,0,1,1.33,1.29,4.42,4.42,0,0,1,.5,2.2,4.37,4.37,0,0,1-.5,2.18,3.11,3.11,0,0,1-1.33,1.29A3.89,3.89,0,0,1,50.06,18.65Z" transform="translate(-0.91 -0.81)"/>
    <path class="g" d="M63.48,10.38a5,5,0,0,0-6.85,1.81,5.26,5.26,0,0,0,0,5.1A5,5,0,0,0,61,19.79a4.94,4.94,0,0,0,2.52-.68,4.87,4.87,0,0,0,1.83-1.83,5.17,5.17,0,0,0,0-5.09A4.86,4.86,0,0,0,63.48,10.38ZM61,18.65a3.66,3.66,0,0,1-3.27-1.91,4.32,4.32,0,0,1,0-4A3.62,3.62,0,0,1,59,11.37a3.75,3.75,0,0,1,5.21,1.41,4.23,4.23,0,0,1,0,4A3.67,3.67,0,0,1,61,18.65Z" transform="translate(-0.91 -0.81)"/>
    <path class="g" d="M81.25,9.91H80.19a.12.12,0,0,0-.1.07l-2.86,7.57L73.9,9.78a.1.1,0,0,0-.1-.06h-.41a.11.11,0,0,0-.1.06L70,17.59,67.1,10a.1.1,0,0,0-.1-.07H66a.11.11,0,0,0-.09.05.09.09,0,0,0,0,.1l3.82,9.66a.1.1,0,0,0,.1.07h.39a.12.12,0,0,0,.1-.07L73.59,12l3.35,7.75a.1.1,0,0,0,.1.07h.41a.12.12,0,0,0,.1-.07l3.8-9.66a.11.11,0,0,0-.1-.15Z" transform="translate(-0.91 -0.81)"/>
    <path class="g" d="M89,10.77h0a3.39,3.39,0,0,0-2.63-1,4,4,0,0,0-1.8.39,3.52,3.52,0,0,0-1.11.87V10a.11.11,0,0,0-.11-.11h-.94a.1.1,0,0,0-.1.11v9.46a.1.1,0,0,0,.1.11h1a.11.11,0,0,0,.11-.11V13.57a2.71,2.71,0,0,1,.76-2,2.65,2.65,0,0,1,2-.77,2.37,2.37,0,0,1,1.85.75,2.8,2.8,0,0,1,.69,2v5.91a.11.11,0,0,0,.11.11h1a.1.1,0,0,0,.1-.11v-6A4,4,0,0,0,89,10.77Z" transform="translate(-0.91 -0.81)"/>
  </g>
</svg>
