<svg id="Layer_1" data-name="Layer 1" xmlns="http://www.w3.org/2000/svg" viewBox="0 0 624 518"><defs><style>.cls-1{fill:#d06465;stroke:#1e1e1c;stroke-miterlimit:10;}.cls-2{fill:#fbfbfb;}.cls-3{isolation:isolate;}</style></defs><title>FTL default image-01</title><rect class="cls-1" width="624" height="518"/><path class="cls-2" d="M111.05,336.47Zm25.3.39Zm0,0a.52.52,0,0,0-.33,0c0,.1.22.06.28.11-.12,0,0-.06.05-.06h0C136.22,336.81,136.28,336.87,136.33,336.87Zm-37.4-2Zm57.5,1.06c-3.26-3.39-7.42-2-11.75-2.32-4.79-.34-10.06,1-14.75.06,0,.25-9.16.22-10.07.15-1-.44-2.19,0-3.24.05-1.6,0-3.17-.12-4.77,0-1.8.09-3.58.1-5.38,0-1.36-.05-3.27-.52-4.57,0l.23.16a10.9,10.9,0,0,0-1.54,0,1.53,1.53,0,0,1-1-.18c.34.25-.42.22-.54.05a2.63,2.63,0,0,1-.35.25c-.18.06-.37-.07-.55.07.22,0,.51.32.63.48-.19,0,.12.15.16.17s1.67.27,1.72.51a2.62,2.62,0,0,0,.88.18c.12.09,0,0,0,0,.27-.12.55.22.81.17-.12-.5.62-.2.91-.16l-.27-.36a4.93,4.93,0,0,0,.86.34c.08,0,.69,0,.24,0a3.29,3.29,0,0,1,.45.21c0-.22,1.12.09.9.28.29-.32,1,0,1.32,0,0,0,1.57.38,1.3.24.07-.32,2.72-.21,2.44.23a.53.53,0,0,1,.3-.2c.14.17.58.21.27-.33a3.34,3.34,0,0,1,1,.06,15.31,15.31,0,0,0,1.59.14c.15.1.5.09.6.14-.2-.39.37-.08.31.2.12-.22.69,0,.92-.14q-.38.19-.19-.14l.45,0c.11-.07,1-.18.94.2.1-.19,1.13-.17,1.17.13,0-.16,1-.23.94,0a58.65,58.65,0,0,0,9.81.21q.39,0,.11-.17a8.86,8.86,0,0,1,1.39.32l-.16-.21c.06,0,.57,0,.28.09,1.37-.36,2.78.23,4.16-.1a9.07,9.07,0,0,0,2.15.13,1,1,0,0,0,.26-.17q-.23.18.23.13c2,.29,4.1.09,6.15.25q-.3-.2.15-.09c1.19,0,2.39-.08,3.47,0,1.75-.11,3.48,0,5.23,0a8.17,8.17,0,0,0,2.79-.15s2.12-1.47,1.26-1q-.25.37.31.08C156.13,335.65,155.73,336.35,156.43,336Zm-53.18-.38ZM98.6,334.1c-.16,0,.29.13,0,0C98.55,334.1,98.63,334.12,98.6,334.1Z"/><g class="cls-3"><path class="cls-2" d="M197.11,318.86h-8.91a1,1,0,0,1-1-1v-1.48a1,1,0,0,1,1-1h21.7a1,1,0,0,1,1,1v1.48a1,1,0,0,1-1,1H201v31.43a1,1,0,0,1-1,1h-1.95a1,1,0,0,1-1-1Z"/><path class="cls-2" d="M236.78,314.92a18.42,18.42,0,1,1-18.37,18.47A18.39,18.39,0,0,1,236.78,314.92Zm0,33.27A14.84,14.84,0,1,0,222,333.4,14.88,14.88,0,0,0,236.78,348.19Z"/><path class="cls-2" d="M284.65,316.41a1,1,0,0,1,1-1h2a1,1,0,0,1,1,1v31.43h14.74a1,1,0,0,1,1,1v1.49a1,1,0,0,1-1,1H285.62a1,1,0,0,1-1-1Z"/><path class="cls-2" d="M330.15,314.92a18.42,18.42,0,1,1-18.37,18.47A18.39,18.39,0,0,1,330.15,314.92Zm0,33.27a14.84,14.84,0,1,0-14.79-14.79A14.88,14.88,0,0,0,330.15,348.19Z"/><path class="cls-2" d="M356.47,316.76a.91.91,0,0,1,.87-1.33h2a1,1,0,0,1,.87.56L373,344.66h.2L385.95,316a1,1,0,0,1,.87-.56h2a.91.91,0,0,1,.87,1.33l-15.56,34.44a1,1,0,0,1-.87.56h-.51a1,1,0,0,1-.87-.56Z"/><path class="cls-2" d="M400.44,316.41a1,1,0,0,1,1-1h20.17a1,1,0,0,1,1,1v1.48a1,1,0,0,1-1,1h-17.2v12.49h14.69a1,1,0,0,1,1,1v1.48a1,1,0,0,1-1,1H404.38v13.05h17.2a1,1,0,0,1,1,1v1.49a1,1,0,0,1-1,1H401.41a1,1,0,0,1-1-1Z"/></g><path class="cls-2" d="M500.37,336.47Zm-25.3.39Zm0,0h0s.17,0,.05.06c.06,0,.26,0,.28-.11a.52.52,0,0,0-.33,0S475.2,336.81,475.09,336.87Zm37.4-2ZM455,336q.56.29.31-.08c-.86-.47,1.29,1,1.26,1a8.17,8.17,0,0,0,2.79.15c1.75.06,3.48-.08,5.23,0,1.08-.11,2.28,0,3.47,0,.3-.07.35,0,.15.09,2-.17,4.11,0,6.15-.25.31,0,.39,0,.23-.13a1,1,0,0,0,.26.17,9.07,9.07,0,0,0,2.15-.13c1.37.33,2.79-.26,4.16.1-.28-.11.22-.08.28-.09l-.16.21a8.83,8.83,0,0,1,1.39-.32q-.27.2.11.17a58.65,58.65,0,0,0,9.81-.21c0-.27.9-.21.94,0,0-.31,1.07-.33,1.17-.13,0-.38.83-.27.94-.2l.45,0q.19.33-.19.14c.23.15.8-.07.92.14-.06-.28.52-.59.31-.2.11-.05.45,0,.6-.14a15.29,15.29,0,0,0,1.59-.14,3.35,3.35,0,0,1,1-.06c-.31.55.14.5.27.33a.53.53,0,0,1,.3.2c-.28-.44,2.36-.56,2.44-.23-.26.15,1.34-.26,1.3-.24.34-.07,1-.36,1.32,0-.22-.18.86-.5.9-.28a3.29,3.29,0,0,1,.45-.21c-.45,0,.16,0,.24,0a4.92,4.92,0,0,0,.86-.34l-.27.36c.29,0,1-.34.91.16.26,0,.54-.29.81-.17,0,0-.12.13,0,0a2.62,2.62,0,0,0,.88-.18c.06-.23,1.71-.55,1.72-.51s.35-.22.17-.17c.12-.16.41-.48.63-.48-.18-.14-.36,0-.55-.07a2.63,2.63,0,0,1-.35-.25c-.12.17-.89.2-.54-.05a1.53,1.53,0,0,1-1,.18,10.9,10.9,0,0,0-1.54,0l.23-.16c-1.3-.52-3.21,0-4.57,0-1.8.07-3.58.05-5.38,0-1.6-.08-3.18.06-4.77,0-1.05,0-2.21-.5-3.24-.05-.91.07-10.07.1-10.07-.15-4.69.92-10-.4-14.75-.06-4.33.31-8.49-1.07-11.75,2.32C455.69,336.35,455.29,335.65,455,336Zm53.18-.38c-.08.14,0,0,0,0Zm4.66-1.48c-.29.13.16,0,0,0S512.87,334.1,512.82,334.1Z"/><path class="cls-2" d="M61.69,179.35a2.57,2.57,0,0,1,2.57-2.57h56.09a2.57,2.57,0,0,1,2.57,2.57v14.77a2.57,2.57,0,0,1-2.57,2.57H82.83V216.2h30.89a2.66,2.66,0,0,1,2.57,2.57v14.77a2.66,2.66,0,0,1-2.57,2.57H82.83V269a2.66,2.66,0,0,1-2.57,2.57h-16A2.57,2.57,0,0,1,61.69,269Z"/><path class="cls-2" d="M220.34,175.42a48.77,48.77,0,1,1-48.64,48.91A48.68,48.68,0,0,1,220.34,175.42Zm0,75.87a27.1,27.1,0,1,0-27-27A27.15,27.15,0,0,0,220.34,251.28Z"/><path class="cls-2" d="M367.87,175.42a48.77,48.77,0,1,1-48.64,48.91A48.68,48.68,0,0,1,367.87,175.42Zm0,75.87a27.1,27.1,0,1,0-27-27A27.15,27.15,0,0,0,367.87,251.28Z"/><path class="cls-2" d="M473.68,179.35a2.55,2.55,0,0,1,2.44-2.57h33.06a47.42,47.42,0,1,1,0,94.83H476.12a2.55,2.55,0,0,1-2.44-2.57Zm34.14,72.21c15.31,0,26.42-12.06,26.42-27.5s-11.11-27.37-26.42-27.37h-13v54.87Z"/></svg>