<?xml version="1.0" encoding="utf-8"?>
<!-- Generator: Adobe Illustrator 16.0.0, SVG Export Plug-In . SVG Version: 6.00 Build 0)  -->
<!DOCTYPE svg PUBLIC "-//W3C//DTD SVG 1.1//EN" "http://www.w3.org/Graphics/SVG/1.1/DTD/svg11.dtd">
<svg version="1.1" id="Layer_1" xmlns="http://www.w3.org/2000/svg" xmlns:xlink="http://www.w3.org/1999/xlink" x="0px" y="0px"
	 width="74.168px" height="24.563px" viewBox="0 3 74.168 24.563" enable-background="new 0 3 74.168 24.563" xml:space="preserve">
<g>
	<g>
		<defs>
			<rect id="SVGID_1_" x="-0.026" y="3" width="74.168" height="30"/>
		</defs>
		<clipPath id="SVGID_2_">
			<use xlink:href="#SVGID_1_"  overflow="visible"/>
		</clipPath>
		<path clip-path="url(#SVGID_2_)" d="M73.923,20.947c0,5.584-2.384,6.182-5.114,6.182v-0.816v-9.82v-1.474
			c2.572,0,2.824,1.787,2.824,4.423h0.219v-9.162h-0.219c0,2.636-0.252,4.518-2.824,4.518v-0.942V3.409
			c2.73,0,4.926,0.439,4.926,6.149h0.219V3h-9.788v0.219h1.756v24.097h-1.756v0.221h9.976v-6.59H73.923z M47.441,12.475V3.219H49.2
			V3h-6.401v0.219h1.758v24.097h-1.758v0.221h9.979v-6.59h-0.221c0,5.584-2.384,6.369-5.115,6.369V12.475L47.441,12.475z
			 M26.077,12.475V3.219h1.757V3h-6.4v0.219h1.757v24.097h-1.757v0.221h9.977v-6.59H31.19c0,5.584-2.384,6.369-5.114,6.369
			L26.077,12.475L26.077,12.475z M9.888,21.01c0,5.584-2.447,6.18-5.177,6.18v-0.814v-9.82v-1.413c2.572,0,2.886,1.726,2.886,4.361
			h0.345v-9.161H7.597c0,2.635-0.314,4.455-2.886,4.455v-0.879V3.376c2.73,0,4.958,0.439,4.958,6.149h0.344V3.031H-0.026v0.345h1.85
			v23.813h-1.85v0.348h10.259V21.01H9.888L9.888,21.01z"/>
	</g>
</g>
</svg>
