<?xml version="1.0" standalone="no"?>
<!DOCTYPE svg PUBLIC "-//W3C//DTD SVG 20010904//EN"
 "http://www.w3.org/TR/2001/REC-SVG-20010904/DTD/svg10.dtd">
<svg version="1.0" xmlns="http://www.w3.org/2000/svg"
 width="260.000000pt" height="260.000000pt" viewBox="0 0 260.000000 260.000000"
 preserveAspectRatio="xMidYMid meet">
<metadata>
Created by potrace 1.11, written by Peter Selinger 2001-2013
</metadata>
<g transform="translate(0.000000,260.000000) scale(0.100000,-0.100000)"
fill="#000000" stroke="none">
<path d="M1100 2585 c-477 -76 -880 -414 -1030 -863 -42 -128 -61 -231 -67
-372 -24 -571 343 -1095 892 -1275 760 -249 1559 249 1680 1045 85 556 -219
1117 -736 1359 -222 104 -499 144 -739 106z m-44 -590 c77 -41 89 -42 104 -15
25 47 30 15 30 -190 0 -172 -2 -210 -14 -210 -9 0 -16 19 -21 57 -9 71 -49
212 -75 262 -30 60 -83 101 -130 101 -82 0 -140 -87 -161 -245 -14 -111 -6
-864 11 -975 14 -92 49 -172 86 -196 43 -29 101 -24 130 9 42 49 56 118 61
310 l5 177 -51 0 c-28 0 -51 5 -51 10 0 6 62 10 165 10 103 0 165 -4 165 -10
0 -5 -16 -10 -35 -10 l-35 0 0 -235 c0 -216 -7 -273 -25 -216 -11 35 -43 36
-83 2 -75 -63 -112 -84 -161 -89 -69 -6 -113 12 -181 74 -168 157 -255 520
-205 860 47 315 204 549 372 553 18 1 60 -14 99 -34z m924 -166 c0 -198 -11
-254 -25 -127 -10 91 -32 183 -55 228 -24 47 -64 70 -120 70 l-40 0 0 -720 0
-720 45 0 c25 0 45 -4 45 -10 0 -6 -67 -10 -180 -10 -106 0 -180 4 -180 9 0 6
16 11 36 13 l35 3 0 208 c0 114 0 437 -1 717 l0 510 -35 0 c-98 0 -147 -86
-170 -297 -13 -123 -25 -61 -25 132 l0 195 335 0 335 0 0 -201z"/>
</g>
</svg>
