<?xml version="1.0" encoding="utf-8"?>
<!-- Generator: Adobe Illustrator 20.1.0, SVG Export Plug-In . SVG Version: 6.00 Build 0)  -->
<svg version="1.1" id="facebook" xmlns="http://www.w3.org/2000/svg" xmlns:xlink="http://www.w3.org/1999/xlink" x="0px" y="0px"
	 viewBox="0 0 34.016 34.016" enable-background="new 0 0 34.016 34.016" xml:space="preserve">
<path fill="#222222" d="M18.388,25.107h-3.017v-8.155H13.36v-2.04h2.011l-0.003-2.044c0-2.188,0.757-3.558,3.342-3.558l2.191-0.004
	v2.549h-1.363c-1.003,0-1.139,0.084-1.151,0.509c-0.029,0.859,0,2.549,0,2.549h2.514l-0.503,2.04h-2.011V25.107z"/>
<path fill-rule="evenodd" clip-rule="evenodd" fill="none" stroke="#DDDDDD" stroke-miterlimit="10" d="M17.131,1.01
	c9.012,0,16.319,7.252,16.319,16.197c0,8.946-7.306,16.197-16.319,16.197S0.813,26.152,0.813,17.207
	C0.813,8.262,8.119,1.01,17.131,1.01z"/>
</svg>
