<?xml version="1.0" encoding="utf-8"?>
<!-- Generator: Adobe Illustrator 20.1.0, SVG Export Plug-In . SVG Version: 6.00 Build 0)  -->
<svg version="1.1" id="pinterest" xmlns="http://www.w3.org/2000/svg" xmlns:xlink="http://www.w3.org/1999/xlink" x="0px" y="0px"
	 viewBox="0 0 34.016 34.016" enable-background="new 0 0 34.016 34.016" xml:space="preserve">
<path fill="#222222" d="M23.13,14.618c0-2.579-2.236-4.98-5.636-4.98c-4.23,0-6.362,2.962-6.362,5.432
	c0,1.494,0.579,2.825,1.823,3.321c0.203,0.082,0.386,0.002,0.445-0.217c0.041-0.154,0.139-0.538,0.182-0.698
	c0.059-0.219,0.036-0.295-0.128-0.486c-0.359-0.412-0.588-0.947-0.588-1.704c0-2.197,1.684-4.165,4.383-4.165
	c2.391,0,3.705,1.427,3.705,3.333c0,2.506-1.136,4.622-2.823,4.622c-0.932,0-1.629-0.752-1.405-1.676
	c0.268-1.1,0.786-2.29,0.786-3.085c0-0.711-0.391-1.305-1.2-1.305c-0.953,0-1.717,0.962-1.717,2.251
	c0,0.821,0.284,1.375,0.284,1.375s-0.974,4.032-1.145,4.739c-0.34,1.406-0.051,3.13-0.026,3.304c0.014,0.102,0.15,0.127,0.212,0.049
	c0.087-0.113,1.222-1.478,1.607-2.847c0.109-0.385,0.626-2.389,0.626-2.389c0.309,0.576,1.214,1.084,2.175,1.084
	C21.19,20.578,23.13,18.029,23.13,14.618"/>
<path fill-rule="evenodd" clip-rule="evenodd" fill="none" stroke="#DDDDDD" stroke-miterlimit="10" d="M17.131,1.01
	c9.012,0,16.319,7.252,16.319,16.197c0,8.946-7.306,16.197-16.319,16.197S0.813,26.152,0.813,17.207
	C0.813,8.262,8.119,1.01,17.131,1.01z"/>
</svg>
