<?xml version="1.0" encoding="utf-8"?>
<!-- Generator: Adobe Illustrator 20.1.0, SVG Export Plug-In . SVG Version: 6.00 Build 0)  -->
<svg version="1.1" id="twitter" xmlns="http://www.w3.org/2000/svg" xmlns:xlink="http://www.w3.org/1999/xlink" x="0px" y="0px"
	 viewBox="0 0 34.016 34.016" enable-background="new 0 0 34.016 34.016" xml:space="preserve">
<path fill="#222222" d="M25.234,12.352c-0.596,0.255-1.237,0.428-1.909,0.506c0.686-0.398,1.213-1.027,1.461-1.776
	c-0.643,0.368-1.354,0.635-2.111,0.778c-0.606-0.624-1.47-1.014-2.427-1.014c-1.836,0-3.325,1.437-3.325,3.211
	c0,0.252,0.03,0.497,0.086,0.732c-2.763-0.134-5.212-1.412-6.852-3.354c-0.286,0.473-0.45,1.025-0.45,1.614
	c0,1.114,0.587,2.097,1.479,2.672c-0.545-0.017-1.058-0.161-1.506-0.402c0,0.014,0,0.028,0,0.041c0,1.556,1.146,2.854,2.667,3.149
	c-0.279,0.073-0.572,0.112-0.876,0.112c-0.214,0-0.423-0.02-0.625-0.058c0.423,1.276,1.651,2.205,3.106,2.23
	c-1.138,0.861-2.571,1.375-4.129,1.375c-0.268,0-0.533-0.015-0.793-0.045c1.471,0.911,3.219,1.444,5.097,1.444
	c6.115,0,9.459-4.894,9.459-9.137c0-0.14-0.004-0.276-0.01-0.415c0.65-0.452,1.214-1.018,1.659-1.661V12.352z"/>
</svg>
