<?xml version="1.0" encoding="utf-8"?>
<!-- Generator: Adobe Illustrator 20.1.0, SVG Export Plug-In . SVG Version: 6.00 Build 0)  -->
<svg version="1.1" xmlns="http://www.w3.org/2000/svg" xmlns:xlink="http://www.w3.org/1999/xlink" x="0px" y="0px"
	 viewBox="0 0 34.016 34.016" enable-background="new 0 0 34.016 34.016" xml:space="preserve">
	<path fill="#222222" d="M23.553,11.207H10.709c-0.592,0-1.072,0.478-1.072,1.068v9.864c0,0.589,0.48,1.067,1.072,1.067h12.844
		c0.592,0,1.072-0.478,1.072-1.067v-9.864C24.625,11.685,24.146,11.207,23.553,11.207z M15.326,20.215v-6.017l5.158,3.009
		L15.326,20.215z"/>
	<path fill-rule="evenodd" clip-rule="evenodd" fill="none" stroke="#DDDDDD" stroke-miterlimit="10" d="M17.131,1.01
		c9.012,0,16.319,7.252,16.319,16.197c0,8.946-7.306,16.197-16.319,16.197S0.813,26.152,0.813,17.207
		C0.813,8.262,8.119,1.01,17.131,1.01z"/>
</svg>
