<svg xmlns="http://www.w3.org/2000/svg" viewBox="0 -2 90 22" width="150px">
  <defs>
    <style>
      .a {
        fill: #002855;
      }
    </style>
  </defs>
  <title>Now To Love</title>
  <path class="a" d="M21.27,15.66h-1.2v-.28h2.71v.28H21.59v3h-.32Z"/>
  <path class="a" d="M23.8,17a1.59,1.59,0,0,1,.13-.66,1.41,1.41,0,0,1,.35-.51,1.46,1.46,0,0,1,.55-.34,1.75,1.75,0,0,1,.7-.13,1.82,1.82,0,0,1,.7.13,1.5,1.5,0,0,1,.54.34,1.41,1.41,0,0,1,.35.51,1.72,1.72,0,0,1,0,1.31,1.54,1.54,0,0,1-.35.52,1.66,1.66,0,0,1-.54.34,2,2,0,0,1-.7.12,1.94,1.94,0,0,1-.7-.12,1.6,1.6,0,0,1-.55-.34,1.54,1.54,0,0,1-.35-.52A1.57,1.57,0,0,1,23.8,17Zm.31,0a1.51,1.51,0,0,0,.1.53,1.33,1.33,0,0,0,.28.44,1.39,1.39,0,0,0,.45.29,1.55,1.55,0,0,0,.59.1,1.54,1.54,0,0,0,.58-.1,1.39,1.39,0,0,0,.45-.29,1.43,1.43,0,0,0,0-1.95,1.39,1.39,0,0,0-.45-.29,1.54,1.54,0,0,0-.58-.1,1.55,1.55,0,0,0-.59.1,1.39,1.39,0,0,0-.45.29,1.33,1.33,0,0,0-.28.44A1.53,1.53,0,0,0,24.11,17Z"/>
  <path class="a" d="M30.72,15.37H31v3h1.64v.28h-2Z"/>
  <path class="a" d="M33.91,17a1.76,1.76,0,0,1,.12-.66,1.57,1.57,0,0,1,.36-.51,1.5,1.5,0,0,1,.54-.34,1.78,1.78,0,0,1,.7-.13,1.75,1.75,0,0,1,.7.13,1.64,1.64,0,0,1,.55.34,1.54,1.54,0,0,1,.35.51,1.72,1.72,0,0,1,0,1.31,1.7,1.7,0,0,1-.35.52,1.82,1.82,0,0,1-.55.34,1.94,1.94,0,0,1-.7.12,2,2,0,0,1-.7-.12,1.66,1.66,0,0,1-.54-.34,1.73,1.73,0,0,1-.36-.52A1.75,1.75,0,0,1,33.91,17Zm.31,0a1.32,1.32,0,0,0,.1.53,1.18,1.18,0,0,0,.28.44,1.35,1.35,0,0,0,.44.29,1.79,1.79,0,0,0,1.18,0,1.35,1.35,0,0,0,.44-.29,1.21,1.21,0,0,0,.29-.44A1.51,1.51,0,0,0,37,17a1.53,1.53,0,0,0-.09-.54,1.21,1.21,0,0,0-.29-.44,1.35,1.35,0,0,0-.44-.29,1.79,1.79,0,0,0-1.18,0,1.35,1.35,0,0,0-.44.29,1.18,1.18,0,0,0-.28.44A1.33,1.33,0,0,0,34.22,17Z"/>
  <path class="a" d="M38.58,15.37h.36l1.12,2.87,1.14-2.87h.35l-1.33,3.27h-.33Z"/>
  <path class="a" d="M42.93,15.37h2.14v.28H43.25v1.16H45v.28H43.25v1.27h1.9v.28H42.93Z"/>
  <path class="a" d="M50.08,0s-.3,1-1.81,5.06l-3.18,8.8h-1l-4-8.92L37,13.86H36C33.46,8.21,30.59,1.91,30.59,1.91,29.9.53,29.09.41,28.6.38V0h5.84l1.1,2.56,2.87,6.15,1.5-4.21c-.43-1-1.19-2.59-1.19-2.59C38,.53,37.6.41,37.08.38V0h5.4l1.19,2.56,2.84,6.15s1.63-3.47,1.55-5.92a3.31,3.31,0,0,0-.3-1.35A1.9,1.9,0,0,0,45.84.38l0-.38Z"/>
  <path class="a" d="M23,0c-4.68,0-7,3.12-7,6.93s2.36,6.93,7,6.93,7-3.15,7-6.93S27.66,0,23,0ZM23,13.44c-1.34,0-2.43-2.91-2.43-6.51,0-2.61.44-4.84,1.26-5.88A1.66,1.66,0,0,1,23,.42a1.37,1.37,0,0,1,1.15.5c.82,1,1.29,3.42,1.29,6C25.45,10.53,24.36,13.44,23,13.44Z"/>
  <path class="a" d="M15.64,17.77c-1.28-1.46-1.2-4.95-1.2-4.95V3.69C14.44,2,13,0,10.09,0a4.59,4.59,0,0,0-4,2.69V0A12.56,12.56,0,0,1,0,1.24v.23c1.13.44,1.43.86,1.43,1.89v7.18c0,1.53,0,2.76-1.07,3.09v.23H7.24v-.23c-1-.3-1.12-1.47-1.12-3.09V2.79a2.33,2.33,0,0,1,1.68-.9A1.86,1.86,0,0,1,9.73,4v8a10.38,10.38,0,0,0,.9,4.3,6.31,6.31,0,0,0,5.55,3.44,4.44,4.44,0,0,0,3.12-1A3.26,3.26,0,0,1,15.64,17.77Z"/>
</svg>
