<?xml version="1.0" standalone="no"?>
<!DOCTYPE svg PUBLIC "-//W3C//DTD SVG 1.1//EN" "http://www.w3.org/Graphics/SVG/1.1/DTD/svg11.dtd" >
<svg>
<metadata>
Created by FontForge 20090622 at Wed Apr 17 13:06:17 2013
 By root
Tagus Copyright (c) 2012 by Mario Feliciano. All rights reserved.
</metadata>
<defs>
<font id="TagusNormal-Light" horiz-adv-x="1" >
  <font-face 
    font-family="Tagus Normal Light"
    font-weight="350"
    font-stretch="normal"
    units-per-em="1000"
    panose-1="2 0 0 0 0 0 0 0 0 0"
    ascent="840"
    descent="-160"
    x-height="547"
    cap-height="715"
    bbox="-342 -237 1195 915"
    underline-thickness="49"
    underline-position="-40"
    unicode-range="U+0020-U+FB02"
  />
<missing-glyph horiz-adv-x="775" 
d="M116 664h543v-664h-543v664zM554 93v478h-333v-478h333z" />
    <glyph glyph-name="fi" unicode="fi" horiz-adv-x="548" 
d="M407 547h54v-547h-54v547zM407 715h54v-93h-54v93zM118 499h-85v48h85v36q0 30 5 56.5t19 46.5t39 31.5t66 11.5q23 0 44.5 -3t41.5 -11l-15 -42q-29 11 -66 11q-26 0 -41.5 -6t-24 -18t-11.5 -29.5t-3 -39.5v-44h123v-48h-123v-499h-54v499z" />
    <glyph glyph-name="fl" unicode="fl" horiz-adv-x="616" 
d="M528 -7q-39 0 -64.5 12t-40 34t-20 53.5t-5.5 70.5v552h54v-544q0 -32 3.5 -56.5t13.5 -40.5t27 -24t43 -8q18 0 31.5 2t27.5 7l8 -47q-21 -7 -40.5 -9t-37.5 -2zM118 499h-85v48h85v36q0 30 5 56.5t19 46.5t39 31.5t66 11.5q23 0 44.5 -3t41.5 -11l-15 -42
q-29 11 -66 11q-26 0 -41.5 -6t-24 -18t-11.5 -29.5t-3 -39.5v-44h123v-48h-123v-499h-54v499z" />
    <glyph glyph-name=".notdef" horiz-adv-x="775" 
d="M116 664h543v-664h-543v664zM554 93v478h-333v-478h333z" />
    <glyph glyph-name=".null" horiz-adv-x="0" 
 />
    <glyph glyph-name="nonmarkingreturn" horiz-adv-x="234" 
 />
    <glyph glyph-name="space" unicode=" " horiz-adv-x="234" 
 />
    <glyph glyph-name="exclam" unicode="!" horiz-adv-x="212" 
d="M77 113h58v-113h-58v113zM77 715h58l-8 -539h-42z" />
    <glyph glyph-name="quotedbl" unicode="&#x22;" horiz-adv-x="331" 
d="M72 715h57v-106l-26 -100h-31v206zM202 715h57v-106l-25 -100h-32v206z" />
    <glyph glyph-name="numbersign" unicode="#" horiz-adv-x="500" 
d="M113 200h-87l7 37h87l49 256h-92l7 35h91l35 188h31l-36 -188h162l35 188h31l-33 -188h86l-6 -35h-87l-48 -256h89l-6 -37h-89l-37 -199h-33l37 199h-160l-36 -199h-34zM311 237l51 256h-161l-48 -256h158z" />
    <glyph glyph-name="dollar" unicode="$" horiz-adv-x="597" 
d="M273 -7q-49 3 -91 15t-73.5 37.5t-51.5 66t-24 99.5h59q7 -85 58.5 -128.5t151.5 -43.5q53 0 89 12.5t58 33t31.5 46.5t9.5 54q0 26 -7 46.5t-24.5 37.5t-47.5 31t-76 28l-113 33q-32 10 -62 23.5t-53 34t-37 48t-14 65.5q0 43 15.5 77.5t44 58.5t68.5 38t89 16v84h53
v-85q39 -4 75.5 -17t65 -37t47 -60t21.5 -85h-56q-11 77 -60.5 114.5t-130.5 37.5q-42 0 -74 -10t-54.5 -27.5t-34 -41t-11.5 -50.5q0 -52 34.5 -81t103.5 -50l99 -30q44 -14 80.5 -30t62.5 -38t40.5 -51t14.5 -69q0 -43 -13.5 -79t-41 -63t-69.5 -42.5t-99 -18.5v-86h-53
v86z" />
    <glyph glyph-name="percent" unicode="%" horiz-adv-x="757" 
d="M188 316q-36 0 -63 15t-45 41.5t-27 63.5t-9 81q0 97 37.5 151.5t104.5 54.5q76 0 110.5 -55.5t34.5 -149.5q0 -44 -9.5 -81t-27.5 -64t-45 -42t-61 -15zM188 352q51 0 76 43.5t25 125.5q0 81 -24 123.5t-78 42.5t-77.5 -46t-23.5 -121q0 -85 27 -126.5t75 -41.5zM571 -8
q-36 0 -63 14.5t-45 41t-27 63t-9 81.5q0 96 37.5 151t104.5 55q76 0 110 -55.5t34 -149.5q0 -44 -9.5 -80.5t-27.5 -63.5t-44.5 -42t-60.5 -15zM571 28q51 0 75.5 42.5t24.5 124.5q0 81 -23.5 124t-77.5 43q-27 0 -46 -12.5t-31.5 -34.5t-18 -53t-5.5 -68q0 -85 27 -125.5
t75 -40.5zM193 3l339 723l35 -13l-340 -725z" />
    <glyph glyph-name="ampersand" unicode="&#x26;" horiz-adv-x="688" 
d="M257 -8q-96 0 -152 49.5t-56 141.5q0 70 39 124.5t106 86.5q-23 42 -38.5 85t-15.5 83q0 28 9 56.5t28.5 51.5t51 38t77.5 15q67 0 108.5 -37.5t41.5 -103.5q0 -38 -14 -69t-39 -56.5t-59.5 -45.5t-74.5 -36l34 -56q20 -32 44 -65.5t49.5 -64t51.5 -49.5q35 42 64.5 96
t52.5 111l49 -14q-27 -69 -60.5 -126t-68.5 -102q29 -23 63 -42t81 -19h16q10 0 15 2l3 -47q-11 -2 -23.5 -3t-23.5 0q-49 0 -89 19t-81 50q-40 -35 -88 -54t-101 -19zM265 39q40 0 77.5 16.5t67.5 42.5q-29 23 -56.5 56t-53 69l-47.5 70l-36 59q-53 -21 -82 -65.5
t-29 -95.5q0 -37 12.5 -65.5t34 -47.5t50.5 -29t62 -10zM246 414q78 31 118.5 72t40.5 92q0 39 -24.5 69.5t-75.5 30.5q-53 0 -80.5 -34.5t-27.5 -84.5q0 -28 13.5 -66t35.5 -79z" />
    <glyph glyph-name="quotesingle" unicode="'" horiz-adv-x="201" 
d="M72 715h57v-106l-26 -100h-31v206z" />
    <glyph glyph-name="parenleft" unicode="(" horiz-adv-x="244" 
d="M183 -157q-32 45 -54.5 101t-37.5 114.5t-22 116.5t-7 108q0 112 29 223.5t92 208.5h43q-23 -46 -42.5 -93t-33.5 -98.5t-22 -110.5t-8 -129q0 -121 27 -232t80 -209h-44z" />
    <glyph glyph-name="parenright" unicode=")" horiz-adv-x="244" 
d="M17 -157q54 98 80.5 209t26.5 232q0 70 -8 129t-22 110.5t-33.5 98.5t-42.5 93h44q63 -97 91.5 -208.5t28.5 -223.5q0 -50 -7 -108t-21.5 -116.5t-37.5 -114.5t-54 -101h-45z" />
    <glyph glyph-name="asterisk" unicode="*" horiz-adv-x="396" 
d="M70 410l82 118l-124 77l24 38l122 -74v146h48v-146l122 74l24 -38l-125 -77l84 -118l-39 -27l-91 127l-88 -127z" />
    <glyph glyph-name="plus" unicode="+" horiz-adv-x="542" 
d="M249 307h-204v42h204v206h45v-206h203v-42h-203v-206h-45v206z" />
    <glyph glyph-name="comma" unicode="," horiz-adv-x="202" 
d="M93 0h-21v113h58v-108l-26 -101h-31z" />
    <glyph glyph-name="hyphen" unicode="-" horiz-adv-x="339" 
d="M39 334h261v-47h-261v47z" />
    <glyph glyph-name="period" unicode="." horiz-adv-x="202" 
d="M72 113h58v-113h-58v113z" />
    <glyph glyph-name="slash" unicode="/" horiz-adv-x="281" 
d="M220 715h51l-240 -872h-52z" />
    <glyph glyph-name="zero" unicode="0" horiz-adv-x="580" 
d="M290 -8q-68 0 -115 30.5t-76.5 81t-42.5 115.5t-13 133q0 86 16 154.5t47 116.5t77 74t105 26q65 0 112 -25.5t77.5 -73.5t45 -116.5t14.5 -153.5q0 -67 -12.5 -132t-41.5 -116t-76 -82.5t-117 -31.5zM291 40q93 0 140 84t47 233q0 152 -46 235t-144 83q-49 0 -84 -23
t-57.5 -64.5t-33.5 -100t-11 -128.5q0 -158 51.5 -238.5t137.5 -80.5z" />
    <glyph glyph-name="one" unicode="1" horiz-adv-x="370" 
d="M176 619h-3q-8 -17 -22 -32t-32 -27.5t-39 -21t-43 -11.5v54q57 11 95 46t57 80h43v-707h-56v619z" />
    <glyph glyph-name="two" unicode="2" horiz-adv-x="531" 
d="M52 46l190 177q46 43 79.5 80.5t55 72t32 68.5t10.5 72q0 31 -9 60t-28.5 51t-49 35t-71.5 13q-80 0 -117.5 -41t-37.5 -104q0 -19 1 -31.5t3 -26.5h-53q-3 11 -4 27t-1 30q0 42 13.5 78t40.5 61.5t67.5 40t94.5 14.5q60 0 100 -17t64 -45.5t34.5 -64.5t10.5 -75
q0 -49 -13.5 -91.5t-39 -82.5t-62.5 -79.5t-85 -81.5l-146 -137h368v-49h-447v46z" />
    <glyph glyph-name="three" unicode="3" horiz-adv-x="552" 
d="M277 -8q-114 0 -167.5 50t-60.5 145h58q8 -75 50.5 -111t120.5 -36q47 0 80 12t54 33.5t30.5 51.5t9.5 66q0 37 -12.5 64t-34 45t-51.5 27t-66 9h-61v47h55q32 0 60 9.5t48.5 28.5t32.5 46t12 62q0 39 -15 64.5t-39 41t-53.5 22t-57.5 6.5q-70 0 -116 -37.5t-47 -119.5
h-56q3 100 56.5 152.5t169.5 52.5q57 0 97.5 -14.5t67 -38.5t38.5 -56.5t12 -68.5q0 -32 -9 -60t-26 -50.5t-42 -37.5t-58 -21v-2q36 -5 64.5 -20t49 -38t31.5 -52t11 -61q0 -55 -17 -94.5t-47.5 -65.5t-74 -38.5t-97.5 -12.5z" />
    <glyph glyph-name="four" unicode="4" horiz-adv-x="565" 
d="M368 176h-327v49l321 491h61v-492h107v-48h-107v-176h-55v176zM368 224v412h-2l-267 -412h269z" />
    <glyph glyph-name="five" unicode="5" horiz-adv-x="540" 
d="M264 -8q-103 0 -162 47t-65 147h58q9 -77 50 -112.5t122 -35.5q44 0 77 14t54.5 39.5t32 60.5t10.5 77q0 91 -44.5 134.5t-119.5 43.5q-36 0 -62 -8t-44 -20.5t-30 -28.5l-22 -29l-51 5l20 389h382l-4 -50h-332l-16 -286h2q17 23 38 37.5t44 23t47.5 11.5t47.5 3
q92 0 147.5 -55.5t55.5 -158.5q0 -124 -61.5 -186t-174.5 -62z" />
    <glyph glyph-name="six" unicode="6" horiz-adv-x="562" 
d="M291 -8q-63 0 -109.5 28.5t-77 78.5t-46 119.5t-15.5 151.5q0 77 14 141.5t44 111.5t76.5 73.5t112.5 26.5q88 0 141.5 -48t61.5 -131h-54q-11 63 -52 97.5t-96 34.5q-50 0 -85.5 -20t-58.5 -58t-34 -92t-11 -122v-13q0 -7 1 -11q45 56 97.5 77t112.5 21q47 0 85 -16
t65 -44t41.5 -67.5t14.5 -85.5q0 -60 -16.5 -107t-46.5 -79.5t-72 -49.5t-93 -17zM294 38q34 0 64.5 12.5t53 38t35.5 62.5t13 87q0 36 -10 67.5t-31 54.5t-52.5 36t-73.5 13q-37 0 -67 -11t-53.5 -27.5t-41 -34.5t-27.5 -31q5 -53 17 -101t34 -85t56 -59t83 -22z" />
    <glyph glyph-name="seven" unicode="7" horiz-adv-x="517" 
d="M159 0q2 91 21.5 183t53 178.5t81.5 164t107 139.5h-386v50h446v-46q-52 -57 -99 -130t-82.5 -158.5t-57 -181.5t-23.5 -199h-61z" />
    <glyph glyph-name="eight" unicode="8" horiz-adv-x="555" 
d="M269 -8q-47 0 -89 10t-73.5 31.5t-50 54.5t-18.5 79q0 26 9.5 55.5t30 57t53.5 51.5t80 39q-77 35 -117.5 78.5t-40.5 97.5q0 36 13 68t40 56.5t69.5 38.5t102.5 14q55 0 97 -13.5t69.5 -37t41.5 -54.5t14 -66q0 -54 -39.5 -102.5t-129.5 -77.5q93 -33 139.5 -83
t46.5 -110q0 -43 -17 -77.5t-49.5 -59t-78.5 -37.5t-103 -13zM271 41q50 0 85 11t57.5 29.5t33 43t10.5 50.5q0 30 -14.5 54.5t-40 45t-61 37.5t-77.5 32q-34 -8 -65 -25t-54.5 -40t-37.5 -50t-14 -54q0 -66 48 -100t130 -34zM280 400q75 20 119.5 60.5t44.5 88.5
q0 26 -10.5 49t-31.5 40t-52.5 27t-73.5 10q-48 0 -80 -11.5t-50.5 -29.5t-26 -40t-7.5 -44q0 -42 45 -83t123 -67z" />
    <glyph glyph-name="nine" unicode="9" horiz-adv-x="555" 
d="M262 -8q-44 0 -81.5 12.5t-65 36t-45 56.5t-21.5 75h56q5 -36 21 -61t38.5 -41.5t49 -24t53.5 -7.5q50 0 85 23.5t57.5 64t32.5 95.5t10 119v16q-42 -54 -95.5 -75.5t-114.5 -21.5q-47 0 -83.5 16.5t-62.5 45t-39.5 68t-13.5 85.5q0 122 60.5 185.5t160.5 63.5
q63 0 109.5 -28.5t77 -79t46 -120t15.5 -151.5q0 -77 -14 -141.5t-44 -111t-77.5 -73t-114.5 -26.5zM261 309q36 0 66 10.5t54 25.5t41 31.5t28 29.5q-5 54 -16.5 103t-34 86t-56.5 59t-83 22q-34 0 -63.5 -12t-51 -36t-33.5 -60.5t-12 -86.5q0 -37 9 -68.5t28 -54.5
t49.5 -36t74.5 -13z" />
    <glyph glyph-name="colon" unicode=":" horiz-adv-x="202" 
d="M72 113h58v-113h-58v113zM72 547h58v-113h-58v113z" />
    <glyph glyph-name="semicolon" unicode=";" horiz-adv-x="202" 
d="M93 0h-21v113h58v-108l-26 -101h-31zM72 547h58v-113h-58v113z" />
    <glyph glyph-name="less" unicode="&#x3c;" horiz-adv-x="542" 
d="M62 312v34l398 186l18 -37l-361 -166l356 -174l-17 -37z" />
    <glyph glyph-name="equal" unicode="=" horiz-adv-x="542" 
d="M45 259h452v-42h-452v42zM45 437h452v-42h-452v42z" />
    <glyph glyph-name="greater" unicode="&#x3e;" horiz-adv-x="542" 
d="M66 155l357 174l-361 166l17 37l399 -186v-34l-394 -194z" />
    <glyph glyph-name="question" unicode="?" horiz-adv-x="494" 
d="M208 216q0 40 14 72.5t34.5 60t44.5 51.5t44.5 48t34.5 49.5t14 54.5q0 31 -12 54t-32 39t-46 24t-54 8q-27 0 -53 -6t-46.5 -22.5t-33.5 -44.5t-13 -71h-50q1 54 17 90t44 58.5t64.5 32t78.5 9.5q41 0 76 -10.5t61 -31.5t40.5 -53t14.5 -74q0 -36 -14 -65.5t-35.5 -56
t-46.5 -51t-46.5 -50.5t-35.5 -54.5t-14 -62.5v-34h-50v36zM205 113h58v-113h-58v113z" />
    <glyph glyph-name="at" unicode="@" horiz-adv-x="874" 
d="M432 -160q-89 0 -159.5 28t-120 80t-76.5 126.5t-27 167.5q-1 105 26.5 193t81 151.5t130.5 99.5t175 36q76 0 143 -24.5t116 -71.5t77.5 -116t28.5 -157q0 -66 -12 -126.5t-37.5 -107.5t-66.5 -75t-99 -28q-29 0 -48.5 8.5t-32 23.5t-18 35.5t-6.5 44.5h-3
q-23 -50 -62 -81t-88 -31q-30 0 -52 12.5t-36.5 35t-21.5 53.5t-7 67q0 64 14 128t41.5 115t68.5 82.5t94 31.5q30 0 59.5 -14.5t50.5 -40.5l13 43h41l-61 -331q-2 -10 -3.5 -27t-1.5 -37q0 -14 3.5 -27t11 -23.5t20 -17t31.5 -6.5q44 0 74.5 26t49.5 68t27.5 95t8.5 107
q0 80 -27 140t-72 100.5t-103 60.5t-119 20q-92 0 -160 -34t-112.5 -92.5t-66.5 -137.5t-22 -169q0 -80 21.5 -145.5t63.5 -113t105 -73.5t146 -26q40 0 73.5 3.5t63 9.5t57 15t55.5 20l12 -43q-30 -13 -59.5 -22.5t-61 -16t-66 -9.5t-75.5 -3zM370 67q28 0 51 13t41 35
t30.5 49.5t19.5 56.5l40 225q-5 8 -14.5 17.5t-22 17.5t-28 13.5t-33.5 5.5q-40 0 -71 -28.5t-52 -73.5t-31.5 -100t-10.5 -107q0 -19 3 -41t11.5 -40.5t24.5 -30.5t42 -12z" />
    <glyph glyph-name="A" unicode="A" horiz-adv-x="607" 
d="M272 718h64l257 -718h-60l-69 192h-326l-67 -192h-57zM447 242l-144 411h-2l-145 -411h291z" />
    <glyph glyph-name="B" unicode="B" horiz-adv-x="634" 
d="M87 715h293q94 0 147 -43t53 -137q0 -61 -31.5 -108t-91.5 -57v-3q60 -12 99 -56t39 -113q0 -54 -15 -91.5t-42 -61.5t-64.5 -34.5t-81.5 -10.5h-305v715zM381 48q82 0 117.5 41t35.5 111q0 60 -41.5 101t-122.5 41h-225v-294h236zM377 391q41 0 69 10.5t44.5 29
t23.5 43.5t7 53q0 26 -6 51t-22.5 44.5t-47.5 31t-80 11.5h-220v-274h232z" />
    <glyph glyph-name="C" unicode="C" horiz-adv-x="649" 
d="M348 -8q-66 0 -121 19.5t-95.5 63t-63 113t-22.5 169.5q0 186 79.5 276t217.5 90q115 0 182.5 -57.5t78.5 -165.5h-59q-2 35 -16.5 66t-40 54.5t-62.5 37.5t-85 14q-64 0 -108.5 -24t-72.5 -65.5t-40.5 -98t-12.5 -120.5q0 -85 17 -146t48.5 -100t77.5 -57.5t103 -18.5
q50 0 86 16t59.5 41.5t35 57.5t13.5 64h58q-7 -109 -73 -169t-184 -60z" />
    <glyph glyph-name="D" unicode="D" horiz-adv-x="670" 
d="M87 715h239q69 0 124 -21.5t93.5 -65t59.5 -109t21 -152.5q0 -94 -21.5 -163t-60.5 -114.5t-92.5 -67.5t-116.5 -22h-246v715zM325 51q110 0 174 77.5t64 238.5q0 143 -62 220t-174 77h-182v-613h180z" />
    <glyph glyph-name="E" unicode="E" horiz-adv-x="580" 
d="M87 715h446v-51h-388v-266h286v-51h-286v-296h388v-51h-446v715z" />
    <glyph glyph-name="F" unicode="F" horiz-adv-x="564" 
d="M87 715h446v-51h-388v-266h286v-51h-286v-347h-58v715z" />
    <glyph glyph-name="G" unicode="G" horiz-adv-x="678" 
d="M339 -8q-63 0 -117 19t-93.5 62.5t-62 113.5t-22.5 171q0 95 21.5 164t60.5 113.5t93.5 66t121.5 21.5q115 0 180 -60.5t76 -159.5h-59q-3 33 -16.5 64t-38.5 54t-61 37t-82 14q-64 0 -109 -23.5t-73 -65t-40.5 -97.5t-12.5 -122q0 -168 64 -245.5t181 -77.5q48 0 83 12
t58.5 30t36.5 39.5t18 39.5v157h-219v51h276v-370h-39l-6 101q-29 -53 -84.5 -81t-134.5 -28z" />
    <glyph glyph-name="H" unicode="H" horiz-adv-x="679" 
d="M87 715h58v-317h390v317h58v-715h-58v347h-390v-347h-58v715z" />
    <glyph glyph-name="I" unicode="I" horiz-adv-x="232" 
d="M87 715h58v-715h-58v715z" />
    <glyph glyph-name="J" unicode="J" horiz-adv-x="379" 
d="M40 54q13 -5 28 -7t37 -2q138 0 138 170v500h58v-505q0 -110 -47 -164t-147 -54q-27 0 -45.5 2t-37.5 9z" />
    <glyph glyph-name="K" unicode="K" horiz-adv-x="602" 
d="M87 715h58v-368l365 368h73l-295 -298l301 -417h-70l-276 376l-98 -97v-279h-58v715z" />
    <glyph glyph-name="L" unicode="L" horiz-adv-x="568" 
d="M87 715h58v-664h391v-51h-449v715z" />
    <glyph glyph-name="M" unicode="M" horiz-adv-x="813" 
d="M87 715h82l236 -616h1l235 616h85v-715h-56v638h-3l-241 -638h-46l-239 638h-2v-638h-52v715z" />
    <glyph glyph-name="N" unicode="N" horiz-adv-x="684" 
d="M142 620h-3v-620h-52v715h60l396 -605h2v605h52v-716h-51z" />
    <glyph glyph-name="O" unicode="O" horiz-adv-x="685" 
d="M345 -8q-80 0 -136.5 27t-92.5 75t-53 114.5t-17 146.5q0 93 21 162t60 115t93.5 68.5t121.5 22.5t122 -23t94 -69t60 -113.5t21 -156.5q0 -80 -17.5 -147.5t-53.5 -116.5t-91.5 -77t-131.5 -28zM348 43q45 0 86.5 16t73.5 54t51 99.5t19 153.5q0 82 -19 140t-52 95
t-76.5 54t-91.5 17q-106 0 -169 -78.5t-63 -229.5q0 -91 19.5 -152.5t52.5 -99t76.5 -53.5t92.5 -16z" />
    <glyph glyph-name="P" unicode="P" horiz-adv-x="607" 
d="M87 715h288q42 0 78 -13t62.5 -38t41 -61.5t14.5 -83.5q0 -56 -17.5 -95.5t-46 -64t-66.5 -36t-78 -11.5h-218v-312h-58v715zM356 363q77 0 116 39.5t39 113.5q0 67 -37.5 107.5t-109.5 40.5h-219v-301h211z" />
    <glyph glyph-name="Q" unicode="Q" horiz-adv-x="685" 
d="M344 -8q-82 0 -138.5 28.5t-92 77.5t-51.5 115t-16 142q0 93 21 162t60 115t93.5 68.5t121.5 22.5t122 -23t94 -69t60 -113.5t21 -156.5q0 -94 -24.5 -172.5t-77.5 -126.5q20 -22 51 -39t67 -17l-1 -49q-6 -2 -12 -2h-14q-20 0 -40 6.5t-37.5 17t-32.5 23.5t-25 25
q-64 -35 -149 -35zM348 43q45 0 86.5 16t73.5 54t51 99.5t19 153.5q0 82 -19 140t-52 95t-76.5 54t-91.5 17q-106 0 -169 -78.5t-63 -229.5q0 -91 19.5 -152.5t52.5 -99t76.5 -53.5t92.5 -16z" />
    <glyph glyph-name="R" unicode="R" horiz-adv-x="632" 
d="M87 715h290q42 0 77.5 -12t61.5 -36.5t40.5 -61t14.5 -84.5q0 -53 -15.5 -90.5t-41.5 -61.5t-59.5 -36.5t-70.5 -14.5l202 -315v-3h-65l-200 316h-176v-316h-58v715zM360 366q77 0 114.5 40t37.5 113q0 67 -38 106t-110 39h-219v-298h215z" />
    <glyph glyph-name="S" unicode="S" horiz-adv-x="592" 
d="M304 -8q-53 0 -100 10.5t-82.5 35.5t-58 67.5t-26.5 105.5h59q10 -170 209 -170q53 0 89.5 12t58.5 32t31.5 46t9.5 54q0 26 -7 46.5t-24.5 37.5t-47.5 31t-76 28l-113 33q-32 10 -62 23.5t-53 34t-37 48t-14 65.5q0 46 17 81.5t48 60t74.5 37t96.5 12.5q44 0 86 -10.5
t76 -34.5t55.5 -62.5t25.5 -93.5h-56q-11 77 -61 114.5t-131 37.5q-41 0 -73.5 -10t-54.5 -27.5t-33.5 -41t-11.5 -50.5q0 -52 33 -81.5t103 -49.5l101 -30q44 -14 80.5 -30t63 -38t41 -51t14.5 -69q0 -45 -15 -82.5t-45.5 -64.5t-78 -42t-111.5 -15z" />
    <glyph glyph-name="T" unicode="T" horiz-adv-x="570" 
d="M256 665h-233v50h524v-50h-233v-665h-58v665z" />
    <glyph glyph-name="U" unicode="U" horiz-adv-x="664" 
d="M336 -8q-127 0 -191.5 57.5t-64.5 177.5v488h58v-486q0 -97 52 -141.5t151 -44.5q92 0 140 50.5t48 133.5v488h55v-486q0 -116 -65.5 -176.5t-182.5 -60.5z" />
    <glyph glyph-name="V" unicode="V" horiz-adv-x="586" 
d="M8 715h60l226 -636h3l225 636h56l-257 -717h-55z" />
    <glyph glyph-name="W" unicode="W" horiz-adv-x="900" 
d="M18 715h57l169 -634h4l173 634h61l172 -634h4l170 634h55l-198 -717h-61l-174 637h-1l-175 -637h-60z" />
    <glyph glyph-name="X" unicode="X" horiz-adv-x="565" 
d="M250 369l-216 346h63l190 -301l194 301h61l-222 -343l238 -372h-63l-212 325l-214 -325h-59z" />
    <glyph glyph-name="Y" unicode="Y" horiz-adv-x="550" 
d="M247 288l-244 427h65l210 -368h1l209 368h58l-241 -427v-288h-58v288z" />
    <glyph glyph-name="Z" unicode="Z" horiz-adv-x="556" 
d="M44 44l396 620h-388v51h461v-45l-396 -619h396v-51h-469v44z" />
    <glyph glyph-name="bracketleft" unicode="[" horiz-adv-x="264" 
d="M78 715h161v-44h-103v-781h103v-47h-161v872z" />
    <glyph glyph-name="backslash" unicode="\" horiz-adv-x="281" 
d="M19 715h51l241 -872h-52z" />
    <glyph glyph-name="bracketright" unicode="]" horiz-adv-x="264" 
d="M25 -110h103v781h-103v44h161v-872h-161v47z" />
    <glyph glyph-name="asciicircum" unicode="^" horiz-adv-x="542" 
d="M67 191l187 391h39l182 -394l-38 -16l-163 355l-169 -353z" />
    <glyph glyph-name="underscore" unicode="_" horiz-adv-x="487" 
d="M0 -63h487v-49h-487v49z" />
    <glyph glyph-name="grave" unicode="`" horiz-adv-x="527" 
d="M183 736l64 6l93 -146h-48z" />
    <glyph glyph-name="a" unicode="a" horiz-adv-x="540" 
d="M221 -8q-33 0 -64.5 9.5t-55.5 29.5t-38.5 51t-14.5 73q0 46 14.5 79.5t41 54.5t63 31t81.5 10q37 0 76.5 -5.5t64.5 -14.5v78q0 24 -6 45.5t-21.5 38t-42 26.5t-68.5 10q-34 0 -58.5 -5t-40.5 -18t-24.5 -34.5t-9.5 -55.5h-55q5 83 49 122t145 39q94 0 140 -42.5
t46 -135.5v-244q0 -38 11.5 -64.5t40.5 -26.5q8 0 16 1t14 3l5 -45q-14 -4 -25 -5.5t-27 -1.5q-20 0 -35 8t-24.5 21t-14.5 30.5t-6 35.5h-2q-12 -28 -31.5 -46.5t-42.5 -30t-49.5 -16.5t-51.5 -5zM236 40q39 0 68 13t48 33t28 44.5t9 47.5v87q-23 8 -62.5 14t-76.5 6
q-69 0 -108 -28.5t-39 -95.5q0 -37 12.5 -60.5t32 -37t43 -18.5t45.5 -5z" />
    <glyph glyph-name="b" unicode="b" horiz-adv-x="570" 
d="M313 -8q-26 0 -53 6.5t-51 20t-43 34t-28 48.5h-1l-5 -101h-45v715h54v-269h2q10 29 28.5 50t41.5 34t49.5 19t52.5 6q43 0 81 -15.5t66.5 -48.5t45.5 -85.5t17 -126.5q0 -146 -54.5 -216.5t-157.5 -70.5zM305 39q45 0 76 17t50.5 48t28 75t8.5 97q0 63 -14 107.5t-37 72
t-53.5 40t-63.5 12.5q-31 0 -60 -11.5t-51 -36t-35 -63.5t-13 -93v-77q0 -47 13.5 -82.5t36 -59t52.5 -35t62 -11.5z" />
    <glyph glyph-name="c" unicode="c" horiz-adv-x="518" 
d="M270 -8q-106 0 -165 69.5t-59 207.5q0 135 55 211t165 76q93 0 146.5 -47t62.5 -133h-56q-5 35 -18.5 60t-34 41t-45.5 23.5t-53 7.5q-86 0 -126 -64.5t-40 -173.5q0 -114 44 -172t126 -58q26 0 50.5 7t44.5 23t33.5 41t17.5 61h55q-9 -88 -61.5 -134t-141.5 -46z" />
    <glyph glyph-name="d" unicode="d" horiz-adv-x="571" 
d="M254 -8q-106 0 -157 70.5t-51 207.5q0 76 16.5 130t45 88.5t66.5 50.5t81 16q25 0 51 -5t49 -17t42 -31.5t31 -48.5h2v262h54v-715h-53l-1 105h-1q-10 -30 -28 -51t-41.5 -35t-50.5 -20.5t-55 -6.5zM267 39q30 0 59 11.5t52.5 35t37.5 60t14 87.5v72q0 52 -13.5 90.5
t-36 63.5t-52.5 37t-63 12q-72 0 -117 -58t-45 -178q0 -115 41 -174t123 -59z" />
    <glyph glyph-name="e" unicode="e" horiz-adv-x="527" 
d="M268 -8q-109 0 -165.5 71t-56.5 213q0 135 57 207t163 72q95 0 149 -49q18 -17 31.5 -41t21.5 -51t12 -56.5t4 -57.5v-33h-381q1 -107 40 -167t129 -60q69 0 105 33t47 94h54q-13 -90 -67.5 -132.5t-142.5 -42.5zM427 315q0 50 -12.5 86.5t-34.5 60t-51.5 34.5t-65.5 11
q-31 0 -58 -10.5t-48 -33t-35 -59.5t-17 -89h322z" />
    <glyph glyph-name="f" unicode="f" horiz-adv-x="323" 
d="M118 499h-85v48h85v36q0 30 5 56.5t19 46.5t39 31.5t66 11.5q23 0 44.5 -3t41.5 -11l-15 -42q-29 11 -66 11q-26 0 -41.5 -6t-24 -18t-11.5 -29.5t-3 -39.5v-44h123v-48h-123v-499h-54v499z" />
    <glyph glyph-name="g" unicode="g" horiz-adv-x="568" 
d="M265 -165q-94 0 -150 32.5t-60 109.5h60q3 -30 17 -48.5t35 -28.5t46.5 -13.5t52.5 -3.5q85 0 123 28.5t38 102.5v114h-2q-9 -30 -26 -50t-39.5 -33t-48.5 -18.5t-54 -5.5q-41 0 -79.5 13t-67.5 43.5t-46.5 81t-17.5 124.5q0 130 52 201t158 71q28 0 55.5 -6.5t51 -19.5
t41.5 -32.5t27 -45.5h2l4 96h44v-530q0 -53 -14 -88t-41.5 -56t-68 -29.5t-92.5 -8.5zM268 69q31 0 60 10.5t51 33.5t35 60.5t13 91.5v56q0 48 -13.5 83t-36 58t-52.5 34t-62 11q-81 0 -120.5 -58.5t-39.5 -166.5q0 -63 14 -104t37.5 -65t53 -34t60.5 -10z" />
    <glyph glyph-name="h" unicode="h" horiz-adv-x="562" 
d="M87 715h54v-269h2q12 32 32 53t44 33.5t50.5 17.5t52.5 5q35 0 64 -8.5t50 -26.5t32.5 -45.5t11.5 -64.5v-410h-54v396q0 23 -7.5 43.5t-22.5 35.5t-38.5 24t-56.5 9q-29 0 -57.5 -11t-51 -32t-37 -50.5t-14.5 -66.5v-348h-54v715z" />
    <glyph glyph-name="i" unicode="i" horiz-adv-x="228" 
d="M87 547h54v-547h-54v547zM87 715h54v-93h-54v93z" />
    <glyph glyph-name="j" unicode="j" horiz-adv-x="246" 
d="M34 -163q-14 0 -25.5 0.5t-20.5 2.5l1 45q8 -2 16.5 -3t19.5 -1q26 0 41.5 8.5t24 25t11.5 39.5t3 52v541h54v-543q0 -81 -27 -124t-98 -43zM105 715h54v-93h-54v93z" />
    <glyph glyph-name="k" unicode="k" horiz-adv-x="503" 
d="M87 715h54v-456l261 288h64l-181 -203l200 -344h-62l-179 306l-103 -112v-194h-54v715z" />
    <glyph glyph-name="l" unicode="l" horiz-adv-x="297" 
d="M208 -7q-39 0 -64.5 12t-40 34t-20 53.5t-5.5 70.5v552h54v-544q0 -32 3.5 -56.5t13.5 -40.5t27 -24t43 -8q18 0 31.5 2t27.5 7l8 -47q-21 -7 -40.5 -9t-37.5 -2z" />
    <glyph glyph-name="m" unicode="m" horiz-adv-x="889" 
d="M87 547h52v-101h2q12 31 31.5 52t43.5 34t50.5 18t52.5 5q63 0 104 -24.5t48 -86.5q13 31 33 52.5t44 34.5t50.5 18.5t52.5 5.5q71 0 113.5 -35t42.5 -110v-410h-54v396q0 23 -7 43.5t-21.5 35.5t-37.5 24t-56 9q-29 0 -57 -11t-50 -32t-36 -50.5t-14 -66.5v-348h-54v396
q0 23 -7 43.5t-21.5 35.5t-38 24t-56.5 9q-28 0 -56 -11t-50 -32t-36 -50.5t-14 -66.5v-348h-54v547z" />
    <glyph glyph-name="n" unicode="n" horiz-adv-x="562" 
d="M87 547h53v-101h1q13 31 33 52t44 34t51 18t53 5q35 0 64 -8.5t50 -26.5t32.5 -45.5t11.5 -64.5v-410h-54v397q0 23 -7.5 43.5t-22.5 35.5t-38.5 23.5t-56.5 8.5q-28 0 -56.5 -11t-51.5 -31.5t-37.5 -50t-14.5 -66.5v-349h-54v547z" />
    <glyph glyph-name="o" unicode="o" horiz-adv-x="534" 
d="M271 -8q-109 0 -167 70t-58 207q0 140 56.5 213t161.5 73q51 0 92.5 -17t71 -51.5t45.5 -87.5t16 -125q0 -74 -16 -127t-45 -87.5t-69 -51t-88 -16.5zM272 40q37 0 66.5 12.5t50.5 41t32 73.5t11 110q0 111 -40.5 170.5t-126.5 59.5q-45 0 -76 -17.5t-50 -48.5t-27.5 -74
t-8.5 -95q0 -64 12 -108.5t34 -72t53.5 -39.5t69.5 -12z" />
    <glyph glyph-name="p" unicode="p" horiz-adv-x="570" 
d="M87 547h54v-103h1q10 29 28 50t41.5 34.5t50 20t54.5 6.5q102 0 155.5 -69.5t53.5 -206.5q0 -78 -17 -132.5t-46 -89t-67 -50t-81 -15.5q-26 0 -51.5 5t-48.5 17t-41.5 31.5t-29.5 48.5h-2v-251h-54v704zM303 40q75 0 120 58.5t45 176.5q0 115 -41 174t-124 59
q-30 0 -59 -11t-52 -34.5t-37 -60t-14 -87.5v-74q0 -53 13 -91t35 -62.5t51.5 -36t62.5 -11.5z" />
    <glyph glyph-name="q" unicode="q" horiz-adv-x="571" 
d="M430 101h-2q-10 -30 -28 -50.5t-41.5 -33.5t-50 -19t-52.5 -6q-43 0 -81 15.5t-66.5 48.5t-45.5 85.5t-17 126.5q0 141 54 214t158 73q25 0 52 -5.5t51 -18t43 -32.5t29 -48h2l4 96h45v-704h-54v258zM271 39q32 0 61 11.5t50.5 36.5t34.5 63t13 92v76q0 48 -13.5 84
t-36.5 59.5t-52.5 35t-62.5 11.5q-83 0 -122.5 -64.5t-39.5 -172.5q0 -63 14 -107t37.5 -72t53.5 -40.5t63 -12.5z" />
    <glyph glyph-name="r" unicode="r" horiz-adv-x="370" 
d="M87 547h52l-1 -114h2q16 37 40.5 60.5t52.5 36.5t56 18t51 5v-51l-46 -4q-31 -3 -59 -18t-49 -36.5t-33 -48t-12 -51.5v-344h-54v547z" />
    <glyph glyph-name="s" unicode="s" horiz-adv-x="500" 
d="M260 -8q-43 0 -81 7t-67 25t-48 49t-23 79h54q7 -32 19.5 -53.5t32.5 -34.5t49 -18.5t68 -5.5q75 0 109.5 28t34.5 73q0 19 -4 35t-16 29.5t-33.5 23.5t-56.5 17l-101 20q-29 6 -55 16.5t-45.5 27.5t-30.5 40t-11 54q0 72 49 111.5t146 39.5q41 0 76.5 -9t62.5 -28
t44 -48.5t22 -71.5h-53q-13 59 -52 84t-101 25q-64 0 -102 -24t-38 -71q0 -73 109 -94l105 -21q68 -14 104.5 -48t36.5 -96q0 -71 -50 -116t-154 -45z" />
    <glyph glyph-name="t" unicode="t" horiz-adv-x="385" 
d="M269 -7q-39 0 -66 12t-43.5 34t-23.5 53.5t-7 70.5v336h-96v48h96v140l47 28h7v-168h157v-48h-157v-326q0 -66 22 -99.5t75 -33.5q20 0 37 3t31 8l7 -45q-21 -8 -44.5 -10.5t-41.5 -2.5z" />
    <glyph glyph-name="u" unicode="u" horiz-adv-x="562" 
d="M475 0h-52v101h-1q-13 -32 -33 -52.5t-44.5 -33.5t-51.5 -18t-53 -5q-71 0 -114.5 35t-43.5 109v411h54v-396q0 -23 7 -43.5t22.5 -36t39 -24.5t56.5 -9q28 0 57 11.5t51.5 32.5t37 50.5t14.5 66.5v348h54v-547z" />
    <glyph glyph-name="v" unicode="v" horiz-adv-x="482" 
d="M10 547h58l175 -468h1l171 468h58l-204 -549h-54z" />
    <glyph glyph-name="w" unicode="w" horiz-adv-x="735" 
d="M15 547h57l135 -461h1l134 461h56l137 -461h1l134 461h50l-159 -549h-55l-137 463h-2l-135 -463h-56z" />
    <glyph glyph-name="x" unicode="x" horiz-adv-x="435" 
d="M185 285l-160 262h63l134 -220l132 220h59l-161 -263l174 -284h-62l-147 241l-149 -241h-59z" />
    <glyph glyph-name="y" unicode="y" horiz-adv-x="480" 
d="M83 -165h-22q-10 0 -24 2v49q28 -3 55 -3q47 0 71.5 23t39.5 63l13 33l-206 545h57l175 -469h2l171 469h56l-199 -541q-16 -45 -32.5 -77t-37.5 -53t-49.5 -31t-69.5 -10z" />
    <glyph glyph-name="z" unicode="z" horiz-adv-x="480" 
d="M43 35l321 464h-315v48h387v-37l-318 -462h324v-48h-399v35z" />
    <glyph glyph-name="braceleft" unicode="{" horiz-adv-x="264" 
d="M127 -157q-21 0 -35 11.5t-14 39.5v341q0 23 -9.5 34.5t-30.5 15.5v34q40 7 40 44v301q0 26 13.5 38.5t36.5 12.5h111v-44h-86q-17 0 -17 -22v-287q0 -23 -11 -37t-28 -20v-3q20 -8 29.5 -21.5t9.5 -39.5v-330q0 -12 4 -16.5t13 -4.5h86v-47h-112z" />
    <glyph glyph-name="bar" unicode="|" horiz-adv-x="292" 
d="M120 715h52v-829h-52v829z" />
    <glyph glyph-name="braceright" unicode="}" horiz-adv-x="264" 
d="M25 -157v47h86q9 0 13 4.5t4 16.5v330q0 26 9.5 39.5t29.5 21.5v3q-17 6 -28 20t-11 37v287q0 22 -17 22h-86v44h111q23 0 36.5 -12.5t13.5 -38.5v-301q0 -37 40 -44v-34q-21 -4 -30.5 -15.5t-9.5 -34.5v-341q0 -28 -14 -39.5t-35 -11.5h-112z" />
    <glyph glyph-name="asciitilde" unicode="~" horiz-adv-x="543" 
d="M46 266q2 39 13 66t28 44t38 24.5t43 7.5q30 0 57.5 -14t53.5 -30.5t51 -30.5t49 -14q35 0 53.5 20.5t21.5 73.5l43 -4q-3 -38 -12.5 -64.5t-25 -42.5t-35.5 -23t-42 -7q-31 0 -59 14t-54 31.5t-51 31.5t-49 14q-32 0 -53.5 -22.5t-25.5 -79.5z" />
    <glyph glyph-name="uni00A0" unicode="&#xa0;" horiz-adv-x="234" 
 />
    <glyph glyph-name="exclamdown" unicode="&#xa1;" horiz-adv-x="212" 
d="M85 371h42l8 -528h-58zM77 547h58v-113h-58v113z" />
    <glyph glyph-name="cent" unicode="&#xa2;" horiz-adv-x="521" 
d="M249 -7q-95 8 -147 77t-52 199q0 129 49.5 203.5t149.5 82.5v90h53v-91q78 -8 123.5 -54t53.5 -124h-56q-10 70 -52.5 102t-98.5 32q-43 0 -74.5 -17t-52 -48.5t-30.5 -76t-10 -98.5q0 -114 44.5 -173t126.5 -59q26 0 50.5 7.5t44.5 23.5t33.5 41.5t17.5 61.5h55
q-8 -81 -53.5 -126.5t-121.5 -52.5v-86h-53v86z" />
    <glyph glyph-name="sterling" unicode="&#xa3;" horiz-adv-x="492" 
d="M59 47h98v341h-96v47h96v105q0 37 6.5 70t23 58t45 40t73.5 15q55 0 101 -16l-16 -47q-17 6 -39 10.5t-45 4.5q-53 0 -73 -29t-20 -89v-122h151v-47h-151v-341h239l-7 -47h-386v47z" />
    <glyph glyph-name="yen" unicode="&#xa5;" horiz-adv-x="561" 
d="M54 443h110l-155 272h63l212 -368h1l210 368h57l-154 -272h111v-49h-138l-49 -86h187v-49h-198v-259h-58v259h-199v49h187l-49 86h-138v49z" />
    <glyph glyph-name="brokenbar" unicode="&#xa6;" horiz-adv-x="365" 
d="M160 259h45v-416h-45v416zM160 715h45v-397h-45v397z" />
    <glyph glyph-name="section" unicode="&#xa7;" horiz-adv-x="499" 
d="M249 -140q-36 0 -69.5 9t-59 28.5t-42 49.5t-17.5 72h53q3 -57 41 -85t96 -28t94 26t36 75q0 22 -9 39t-24.5 31.5t-35.5 26t-42 21.5l-84 38q-24 11 -46 24.5t-39.5 30.5t-27.5 39t-10 49q0 39 24.5 75.5t75.5 62.5q-47 26 -68.5 58t-21.5 70q0 30 10.5 57t33 47.5
t56.5 32.5t81 12q84 0 129 -41t47 -117h-54q-2 58 -35 86t-89 28q-26 0 -49 -6.5t-40 -19.5t-27 -31t-10 -42q0 -38 28 -63t68 -48l99 -53q23 -11 44.5 -24t38.5 -28.5t27 -35.5t10 -45q0 -42 -24.5 -77t-77.5 -58q97 -49 97 -131q0 -71 -49 -113t-138 -42zM290 170
q41 14 69.5 42t28.5 63q0 18 -7.5 31.5t-19.5 24t-27 18.5l-30 16l-99 54q-17 -7 -32.5 -18t-28.5 -25t-20.5 -30t-7.5 -34q0 -34 25 -57.5t56 -37.5z" />
    <glyph glyph-name="dieresis" unicode="&#xa8;" horiz-adv-x="527" 
d="M140 715h49v-92h-49v92zM324 715h49v-92h-49v92z" />
    <glyph glyph-name="copyright" unicode="&#xa9;" horiz-adv-x="832" 
d="M427 9q-53 0 -98.5 16.5t-79.5 53t-53 94.5t-19 141q0 151 66 227t181 76q92 0 147.5 -48.5t66.5 -136.5h-52q-3 26 -14.5 51t-32 44.5t-50 31.5t-67.5 12q-53 0 -90 -19.5t-60 -54t-33.5 -80.5t-10.5 -99q0 -132 53.5 -197.5t144.5 -65.5q44 0 74.5 13t49.5 34t28 47.5
t11 53.5h50q-7 -91 -60.5 -142.5t-151.5 -51.5zM414 -109q-92 0 -161 32t-115 88t-69 133t-23 166q0 87 25 163t72.5 132t115.5 88.5t155 32.5q90 0 159.5 -33t116.5 -90t71.5 -132.5t24.5 -160.5q0 -86 -24 -162t-70.5 -133t-116.5 -90.5t-161 -33.5zM417 -73q74 0 135 27
t104.5 77t67.5 120.5t24 158.5q0 91 -26 162t-71 120t-106 74.5t-131 25.5q-72 0 -133 -27.5t-104.5 -77.5t-68 -120.5t-24.5 -156.5q0 -92 24.5 -163t68.5 -120t105 -74.5t135 -25.5z" />
    <glyph glyph-name="ordfeminine" unicode="&#xaa;" horiz-adv-x="326" 
d="M131 448q-34 0 -59.5 19t-25.5 62q0 47 29 66t73 19q19 0 37.5 -2.5t29.5 -7.5v35q0 21 -14.5 36.5t-49.5 15.5q-30 0 -45 -10t-17 -39h-36q2 45 27.5 62.5t75.5 17.5q48 0 72.5 -22t24.5 -71v-105q0 -25 7 -33.5t20 -8.5q4 0 8 1t6 2l4 -31q-8 -2 -15.5 -3.5t-16.5 -1.5
q-21 0 -32 13.5t-13 33.5h-1q-12 -27 -37.5 -37.5t-51.5 -10.5zM144 480q34 0 52.5 18t18.5 38v42q-10 4 -27.5 6t-34.5 2q-32 0 -50 -12.5t-18 -39.5q0 -31 17 -42.5t42 -11.5zM66 402h205v-36h-205v36z" />
    <glyph glyph-name="guillemotleft" unicode="&#xab;" horiz-adv-x="376" 
d="M35 294v20l104 148h53l-108 -157l107 -158l-53 -1zM184 294v20l104 148h54l-109 -157l107 -158l-53 -1z" />
    <glyph glyph-name="logicalnot" unicode="&#xac;" horiz-adv-x="600" 
d="M487 335h-436v46h485v-205h-49v159z" />
    <glyph glyph-name="uni00AD" unicode="&#xad;" horiz-adv-x="339" 
d="M39 334h261v-47h-261v47z" />
    <glyph glyph-name="registered" unicode="&#xae;" horiz-adv-x="450" 
d="M153 652h85q35 0 55.5 -18.5t20.5 -51.5q0 -28 -14 -46t-43 -23l65 -103v-2h-33l-63 101h-43v-101h-30v244zM223 332q-44 0 -78 15.5t-57.5 42t-36 62t-12.5 75.5q0 42 13.5 77.5t37.5 62t58 41.5t76 15q43 0 77.5 -14.5t59 -41t37.5 -62.5t13 -78q0 -40 -13 -75.5
t-37 -62t-59 -42t-79 -15.5zM223 358q33 0 62.5 11.5t51 33.5t34.5 53.5t13 70.5q0 40 -13 72t-35 54t-51.5 34t-61.5 12t-60.5 -11.5t-49.5 -34t-33.5 -54.5t-12.5 -72q0 -41 13 -72t34.5 -53t49.5 -33t59 -11zM232 534q51 0 51 47q0 21 -13.5 33t-38.5 12h-48v-92h49z" />
    <glyph glyph-name="macron" unicode="&#xaf;" horiz-adv-x="527" 
d="M120 671h284v-48h-284v48z" />
    <glyph glyph-name="degree" unicode="&#xb0;" horiz-adv-x="265" 
d="M131 530q-43 0 -69.5 28t-26.5 68t27 68.5t69 28.5q45 0 72 -28.5t27 -68.5q0 -41 -27.5 -68.5t-71.5 -27.5zM131 559q32 0 49.5 19.5t17.5 47.5t-17.5 48.5t-49.5 20.5q-29 0 -46.5 -20.5t-17.5 -48.5t17.5 -47.5t46.5 -19.5z" />
    <glyph glyph-name="plusminus" unicode="&#xb1;" horiz-adv-x="542" 
d="M251 307h-204v43h204v199h44v-199h202v-43h-202v-200h-44v200zM45 45h452v-45h-452v45z" />
    <glyph glyph-name="twosuperior" unicode="&#xb2;" horiz-adv-x="373" 
d="M45 336l101 92q61 54 93.5 96t32.5 84q0 37 -22.5 62t-70.5 25q-47 0 -70 -23t-23 -58q0 -15 3 -30h-43q-2 8 -2 16v15q1 54 36 85t101 31q38 0 64 -10t42 -26.5t23 -38t7 -45.5q0 -57 -33.5 -103t-94.5 -96l-85 -74h225v-38h-284v36z" />
    <glyph glyph-name="threesuperior" unicode="&#xb3;" horiz-adv-x="373" 
d="M186 292q-73 0 -109 31.5t-39 90.5h44q4 -45 27.5 -66t77.5 -21q52 0 76.5 27t24.5 65q0 42 -28 61t-69 19h-39v33h39q39 0 64 23t25 61q0 43 -29 61t-68 18q-50 0 -74 -22.5t-25 -70.5h-43q4 127 144 127q37 0 63.5 -8.5t43.5 -23.5t24.5 -34.5t7.5 -41.5q0 -38 -21 -66
t-63 -36v-2q45 -5 70.5 -31.5t25.5 -64.5q0 -32 -11 -56t-31 -40t-47.5 -24.5t-60.5 -8.5z" />
    <glyph glyph-name="acute" unicode="&#xb4;" horiz-adv-x="527" 
d="M276 742l64 -6l-109 -140h-48z" />
    <glyph glyph-name="mu" unicode="&#xb5;" horiz-adv-x="552" 
d="M84 547h55v-391q0 -24 6.5 -45.5t21 -37t38 -25t57.5 -9.5q25 0 48.5 8t43 21.5t33.5 31t19 35.5v412h55v-417q0 -49 16 -68t31 -19q8 0 13 0.5t10 2.5v-45q-17 -4 -34 -4q-31 0 -51.5 23.5t-25.5 69.5h-2q-23 -45 -65 -72t-97 -27q-21 0 -41.5 4t-38 14.5t-31.5 27.5
t-21 44l-6 -2l22 -230l-56 -14v712z" />
    <glyph glyph-name="paragraph" unicode="&#xb6;" horiz-adv-x="580" 
d="M280 237q-116 5 -176 66.5t-60 170.5q0 55 14 100t40 76t62.5 48t80.5 17h303v-36l-65 -4v-789h-42v789h-116v-789h-41v351z" />
    <glyph glyph-name="periodcentered" unicode="&#xb7;" horiz-adv-x="202" 
d="M72 425h58v-113h-58v113z" />
    <glyph glyph-name="cedilla" unicode="&#xb8;" horiz-adv-x="527" 
d="M255 -185q-26 0 -49 4.5t-41 11.5l7 27q19 -6 41 -9.5t39 -3.5q27 0 44.5 9t17.5 30q0 15 -14.5 26.5t-53.5 13.5l-26 1l20 79l26 -1l-13 -56h14q38 -2 63 -16.5t25 -45.5q0 -30 -25 -50t-75 -20z" />
    <glyph glyph-name="onesuperior" unicode="&#xb9;" horiz-adv-x="373" 
d="M73 338h97v326h-2q-11 -23 -37.5 -39t-53.5 -18v41q35 7 61.5 28.5t39.5 46.5h35v-385h95v-38h-235v38z" />
    <glyph glyph-name="ordmasculine" unicode="&#xba;" horiz-adv-x="331" 
d="M167 446q-56 0 -88.5 33.5t-32.5 103.5q0 69 31 104t87 35q52 0 86.5 -32t34.5 -105q0 -38 -10 -64.5t-26.5 -43t-38 -24t-43.5 -7.5zM167 478q33 0 56 24.5t23 83.5q0 50 -21 77t-60 27q-43 0 -62 -29t-19 -77q0 -56 24 -81t59 -25zM66 402h205v-37h-205v37z" />
    <glyph glyph-name="guillemotright" unicode="&#xbb;" horiz-adv-x="376" 
d="M142 305l-107 157h53l103 -148v-20l-103 -148h-53zM292 305l-108 157h53l104 -148v-20l-103 -148h-54z" />
    <glyph glyph-name="onequarter" unicode="&#xbc;" horiz-adv-x="830" 
d="M73 338h97v326h-2q-11 -23 -37.5 -39t-53.5 -18v41q35 7 61.5 28.5t39.5 46.5h35v-385h95v-38h-235v38zM656 109h-197l1 35l188 283h49v-280h69v-38h-69v-109h-41v109zM656 147v226h-2l-11 -17l-28 -42l-36 -54l-37 -54l-28 -43l-11 -16h153zM225 3l340 722l34 -13
l-340 -724z" />
    <glyph glyph-name="onehalf" unicode="&#xbd;" horiz-adv-x="830" 
d="M69 338h97v326h-2q-11 -23 -37.5 -39t-53.5 -18v41q35 7 61.5 28.5t39.5 46.5h35v-385h95v-38h-235v38zM489 36l101 92q61 54 93.5 96t32.5 84q0 37 -22.5 62t-70.5 25q-47 0 -70 -23t-23 -58q0 -15 3 -30h-43q-2 8 -2 16v15q1 54 36 85t101 31q38 0 64 -10t42 -26.5
t23 -38t7 -45.5q0 -57 -33.5 -103t-94.5 -96l-85 -74h225v-38h-284v36zM220 3l340 722l34 -13l-340 -724z" />
    <glyph glyph-name="threequarters" unicode="&#xbe;" horiz-adv-x="830" 
d="M661 109h-197l1 35l188 283h49v-280h69v-38h-69v-109h-41v109zM661 147v226h-2l-11 -17l-28 -42l-36 -54l-36 -54l-29 -43l-11 -16h153zM194 292q-73 0 -109 31.5t-39 90.5h44q4 -45 27.5 -66t77.5 -21q52 0 76.5 27t24.5 65q0 42 -28 61t-69 19h-39v33h39q39 0 64 23
t25 61q0 43 -29 61t-68 18q-50 0 -74 -22.5t-25 -70.5h-43q4 127 144 127q37 0 63.5 -8.5t43.5 -23.5t24.5 -34.5t7.5 -41.5q0 -38 -21 -66t-63 -36v-2q45 -5 70.5 -31.5t25.5 -64.5q0 -32 -11 -56t-31 -40t-47.5 -24.5t-60.5 -8.5zM235 3l340 722l34 -13l-340 -724z" />
    <glyph glyph-name="questiondown" unicode="&#xbf;" horiz-adv-x="494" 
d="M290 337q0 -40 -14 -72t-34.5 -59t-45 -51t-45 -47.5t-34.5 -48.5t-14 -54q0 -31 12 -54.5t32.5 -39t46.5 -23.5t55 -8q26 0 52 6t46.5 22t33 44t12.5 72h51q0 -54 -16.5 -90.5t-44.5 -58t-64.5 -31t-78.5 -9.5q-41 0 -76 10.5t-61 31.5t-40.5 52.5t-14.5 73.5
q0 36 14 65.5t35.5 55.5t46 50t46 49t35.5 53.5t14 62.5v30h51v-32zM293 434h-57v113h57v-113z" />
    <glyph glyph-name="Agrave" unicode="&#xc0;" horiz-adv-x="607" 
d="M272 718h64l257 -718h-60l-69 192h-326l-67 -192h-57zM447 242l-144 411h-2l-145 -411h291zM167 896l64 7l94 -144h-48z" />
    <glyph glyph-name="Aacute" unicode="&#xc1;" horiz-adv-x="607" 
d="M272 718h64l257 -718h-60l-69 192h-326l-67 -192h-57zM447 242l-144 411h-2l-145 -411h291zM370 903l64 -7l-110 -137h-48z" />
    <glyph glyph-name="Acircumflex" unicode="&#xc2;" horiz-adv-x="607" 
d="M272 718h64l257 -718h-60l-69 192h-326l-67 -192h-57zM447 242l-144 411h-2l-145 -411h291zM279 909h52l106 -150h-52l-80 113l-83 -113h-53z" />
    <glyph glyph-name="Atilde" unicode="&#xc3;" horiz-adv-x="607" 
d="M272 718h64l257 -718h-60l-69 192h-326l-67 -192h-57zM447 242l-144 411h-2l-145 -411h291zM146 774q4 37 24.5 62.5t56.5 25.5q19 0 38.5 -6.5t38.5 -13.5l37 -14q18 -7 34 -7q22 0 31.5 13t15.5 35l38 -6q-6 -39 -26.5 -63t-55.5 -24q-20 0 -40.5 6.5t-40 14.5
t-37 14.5t-31.5 6.5q-11 0 -18.5 -4.5t-13 -12t-8.5 -16.5t-5 -17z" />
    <glyph glyph-name="Adieresis" unicode="&#xc4;" horiz-adv-x="607" 
d="M272 718h64l257 -718h-60l-69 192h-326l-67 -192h-57zM447 242l-144 411h-2l-145 -411h291zM186 883h49v-95h-49v95zM370 883h49v-95h-49v95z" />
    <glyph glyph-name="Aring" unicode="&#xc5;" horiz-adv-x="607" 
d="M272 718h64l257 -718h-60l-69 192h-326l-67 -192h-57zM447 242l-144 411h-2l-145 -411h291zM302 749q-23 0 -40 7t-27.5 18.5t-15.5 26t-5 29.5q0 34 23 59.5t63 25.5q46 0 68.5 -23t22.5 -58t-24.5 -60t-64.5 -25zM302 776q23 0 39.5 14t16.5 42q0 27 -15.5 42.5
t-42.5 15.5q-25 0 -39 -16.5t-14 -42.5q0 -29 16.5 -42t38.5 -13z" />
    <glyph glyph-name="AE" unicode="&#xc6;" horiz-adv-x="916" 
d="M391 715h477v-51h-388v-266h287v-51h-287v-296h389v-51h-447v200h-243l-109 -200h-60zM422 250v411h-1l-217 -411h218z" />
    <glyph glyph-name="Ccedilla" unicode="&#xc7;" horiz-adv-x="649" 
d="M361 -185q-26 0 -49 4.5t-41 11.5l7 27q19 -6 41 -9.5t39 -3.5q27 0 44.5 9t17.5 30q0 15 -14.5 26.5t-53.5 13.5l-26 1l17 67q-65 1 -119.5 21t-94 63.5t-61.5 112.5t-22 168q0 186 79.5 276t217.5 90q115 0 182.5 -57.5t78.5 -165.5h-59q-2 35 -16.5 66t-40 54.5
t-62.5 37.5t-85 14q-64 0 -108.5 -24t-72.5 -65.5t-40.5 -98t-12.5 -120.5q0 -85 17 -146t48.5 -100t77.5 -57.5t103 -18.5q50 0 86 16t59.5 41.5t35 57.5t13.5 64h58q-7 -104 -67.5 -163.5t-168.5 -64.5l-10 -46h14q38 -2 63 -16.5t25 -45.5q0 -30 -25 -50t-75 -20z" />
    <glyph glyph-name="Egrave" unicode="&#xc8;" horiz-adv-x="580" 
d="M87 715h446v-51h-388v-266h286v-51h-286v-296h388v-51h-446v715zM174 896l64 7l94 -144h-48z" />
    <glyph glyph-name="Eacute" unicode="&#xc9;" horiz-adv-x="580" 
d="M87 715h446v-51h-388v-266h286v-51h-286v-296h388v-51h-446v715zM376 903l64 -7l-110 -137h-48z" />
    <glyph glyph-name="Ecircumflex" unicode="&#xca;" horiz-adv-x="580" 
d="M87 715h446v-51h-388v-266h286v-51h-286v-296h388v-51h-446v715zM285 909h52l106 -150h-52l-80 113l-83 -113h-53z" />
    <glyph glyph-name="Edieresis" unicode="&#xcb;" horiz-adv-x="580" 
d="M87 715h446v-51h-388v-266h286v-51h-286v-296h388v-51h-446v715zM192 883h49v-95h-49v95zM376 883h49v-95h-49v95z" />
    <glyph glyph-name="Igrave" unicode="&#xcc;" horiz-adv-x="232" 
d="M87 715h58v-715h-58v715zM-21 896l64 7l94 -144h-48z" />
    <glyph glyph-name="Iacute" unicode="&#xcd;" horiz-adv-x="232" 
d="M87 715h58v-715h-58v715zM182 903l64 -7l-110 -137h-48z" />
    <glyph glyph-name="Icircumflex" unicode="&#xce;" horiz-adv-x="232" 
d="M87 715h58v-715h-58v715zM91 909h52l106 -150h-52l-80 113l-83 -113h-53z" />
    <glyph glyph-name="Idieresis" unicode="&#xcf;" horiz-adv-x="232" 
d="M87 715h58v-715h-58v715zM-2 883h49v-95h-49v95zM182 883h49v-95h-49v95z" />
    <glyph glyph-name="Eth" unicode="&#xd0;" horiz-adv-x="682" 
d="M24 385h75v330h239q69 0 124 -21.5t93.5 -65t59.5 -109t21 -152.5q0 -94 -21.5 -163t-60.5 -114.5t-92.5 -67.5t-116.5 -22h-246v337h-75v48zM337 51q110 0 174 77.5t64 238.5q0 143 -62 220t-174 77h-182v-279h215v-48h-215v-286h180z" />
    <glyph glyph-name="Ntilde" unicode="&#xd1;" horiz-adv-x="684" 
d="M184 774q4 37 24.5 62.5t56.5 25.5q19 0 38.5 -6.5t38.5 -13.5l37 -14q18 -7 34 -7q22 0 31.5 13t15.5 35l38 -6q-6 -39 -26.5 -63t-55.5 -24q-20 0 -40.5 6.5t-40 14.5t-37 14.5t-31.5 6.5q-11 0 -18.5 -4.5t-13 -12t-8.5 -16.5t-5 -17zM142 620h-3v-620h-52v715h60
l396 -605h2v605h52v-716h-51z" />
    <glyph glyph-name="Ograve" unicode="&#xd2;" horiz-adv-x="685" 
d="M206 896l64 7l94 -144h-48zM345 -8q-80 0 -136.5 27t-92.5 75t-53 114.5t-17 146.5q0 93 21 162t60 115t93.5 68.5t121.5 22.5t122 -23t94 -69t60 -113.5t21 -156.5q0 -80 -17.5 -147.5t-53.5 -116.5t-91.5 -77t-131.5 -28zM348 43q45 0 86.5 16t73.5 54t51 99.5
t19 153.5q0 82 -19 140t-52 95t-76.5 54t-91.5 17q-106 0 -169 -78.5t-63 -229.5q0 -91 19.5 -152.5t52.5 -99t76.5 -53.5t92.5 -16z" />
    <glyph glyph-name="Oacute" unicode="&#xd3;" horiz-adv-x="685" 
d="M409 903l64 -7l-110 -137h-48zM345 -8q-80 0 -136.5 27t-92.5 75t-53 114.5t-17 146.5q0 93 21 162t60 115t93.5 68.5t121.5 22.5t122 -23t94 -69t60 -113.5t21 -156.5q0 -80 -17.5 -147.5t-53.5 -116.5t-91.5 -77t-131.5 -28zM348 43q45 0 86.5 16t73.5 54t51 99.5
t19 153.5q0 82 -19 140t-52 95t-76.5 54t-91.5 17q-106 0 -169 -78.5t-63 -229.5q0 -91 19.5 -152.5t52.5 -99t76.5 -53.5t92.5 -16z" />
    <glyph glyph-name="Ocircumflex" unicode="&#xd4;" horiz-adv-x="685" 
d="M345 -8q-80 0 -136.5 27t-92.5 75t-53 114.5t-17 146.5q0 93 21 162t60 115t93.5 68.5t121.5 22.5t122 -23t94 -69t60 -113.5t21 -156.5q0 -80 -17.5 -147.5t-53.5 -116.5t-91.5 -77t-131.5 -28zM348 43q45 0 86.5 16t73.5 54t51 99.5t19 153.5q0 82 -19 140t-52 95
t-76.5 54t-91.5 17q-106 0 -169 -78.5t-63 -229.5q0 -91 19.5 -152.5t52.5 -99t76.5 -53.5t92.5 -16zM317 909h52l106 -150h-52l-80 113l-83 -113h-53z" />
    <glyph glyph-name="Otilde" unicode="&#xd5;" horiz-adv-x="685" 
d="M185 774q4 37 24.5 62.5t56.5 25.5q19 0 38.5 -6.5t38.5 -13.5l37 -14q18 -7 34 -7q22 0 31.5 13t15.5 35l38 -6q-6 -39 -26.5 -63t-55.5 -24q-20 0 -40.5 6.5t-40 14.5t-37 14.5t-31.5 6.5q-11 0 -18.5 -4.5t-13 -12t-8.5 -16.5t-5 -17zM345 -8q-80 0 -136.5 27
t-92.5 75t-53 114.5t-17 146.5q0 93 21 162t60 115t93.5 68.5t121.5 22.5t122 -23t94 -69t60 -113.5t21 -156.5q0 -80 -17.5 -147.5t-53.5 -116.5t-91.5 -77t-131.5 -28zM348 43q45 0 86.5 16t73.5 54t51 99.5t19 153.5q0 82 -19 140t-52 95t-76.5 54t-91.5 17
q-106 0 -169 -78.5t-63 -229.5q0 -91 19.5 -152.5t52.5 -99t76.5 -53.5t92.5 -16z" />
    <glyph glyph-name="Odieresis" unicode="&#xd6;" horiz-adv-x="685" 
d="M225 883h49v-95h-49v95zM409 883h49v-95h-49v95zM345 -8q-80 0 -136.5 27t-92.5 75t-53 114.5t-17 146.5q0 93 21 162t60 115t93.5 68.5t121.5 22.5t122 -23t94 -69t60 -113.5t21 -156.5q0 -80 -17.5 -147.5t-53.5 -116.5t-91.5 -77t-131.5 -28zM348 43q45 0 86.5 16
t73.5 54t51 99.5t19 153.5q0 82 -19 140t-52 95t-76.5 54t-91.5 17q-106 0 -169 -78.5t-63 -229.5q0 -91 19.5 -152.5t52.5 -99t76.5 -53.5t92.5 -16z" />
    <glyph glyph-name="multiply" unicode="&#xd7;" horiz-adv-x="542" 
d="M73 158l168 170l-169 168l31 31l168 -169l168 168l30 -31l-167 -167l167 -168l-31 -31l-167 167l-169 -168z" />
    <glyph glyph-name="Oslash" unicode="&#xd8;" horiz-adv-x="683" 
d="M115 -44l46 91q-60 47 -87.5 126t-27.5 182q0 93 21 162t60 115t93.5 68.5t121.5 22.5q84 0 147 -36l38 74l45 -20l-42 -82q52 -45 80.5 -119.5t28.5 -178.5q0 -80 -17.5 -147.5t-53.5 -116.5t-91.5 -77t-131.5 -28q-81 0 -141 29l-43 -85zM107 364q0 -99 22 -162.5
t60 -100.5l275 536q-28 18 -59.5 26.5t-65.5 8.5q-106 0 -169 -78.5t-63 -229.5zM348 43q45 0 86.5 16t73.5 54t51 99.5t19 153.5q0 85 -20.5 143.5t-55.5 95.5l-272 -534q26 -15 56 -21.5t62 -6.5z" />
    <glyph glyph-name="Ugrave" unicode="&#xd9;" horiz-adv-x="664" 
d="M336 -8q-127 0 -191.5 57.5t-64.5 177.5v488h58v-486q0 -97 52 -141.5t151 -44.5q92 0 140 50.5t48 133.5v488h55v-486q0 -116 -65.5 -176.5t-182.5 -60.5zM196 896l64 7l94 -144h-48z" />
    <glyph glyph-name="Uacute" unicode="&#xda;" horiz-adv-x="664" 
d="M336 -8q-127 0 -191.5 57.5t-64.5 177.5v488h58v-486q0 -97 52 -141.5t151 -44.5q92 0 140 50.5t48 133.5v488h55v-486q0 -116 -65.5 -176.5t-182.5 -60.5zM399 903l64 -7l-110 -137h-48z" />
    <glyph glyph-name="Ucircumflex" unicode="&#xdb;" horiz-adv-x="664" 
d="M336 -8q-127 0 -191.5 57.5t-64.5 177.5v488h58v-486q0 -97 52 -141.5t151 -44.5q92 0 140 50.5t48 133.5v488h55v-486q0 -116 -65.5 -176.5t-182.5 -60.5zM307 909h52l106 -150h-52l-80 113l-83 -113h-53z" />
    <glyph glyph-name="Udieresis" unicode="&#xdc;" horiz-adv-x="664" 
d="M336 -8q-127 0 -191.5 57.5t-64.5 177.5v488h58v-486q0 -97 52 -141.5t151 -44.5q92 0 140 50.5t48 133.5v488h55v-486q0 -116 -65.5 -176.5t-182.5 -60.5zM215 883h49v-95h-49v95zM399 883h49v-95h-49v95z" />
    <glyph glyph-name="Yacute" unicode="&#xdd;" horiz-adv-x="550" 
d="M247 288l-244 427h65l210 -368h1l209 368h58l-241 -427v-288h-58v288zM342 903l64 -7l-110 -137h-48z" />
    <glyph glyph-name="Thorn" unicode="&#xde;" horiz-adv-x="607" 
d="M87 715h58v-146h230q42 0 78 -13t62.5 -38t41 -61.5t14.5 -84.5q0 -56 -17.5 -95.5t-46 -64.5t-66.5 -36.5t-78 -11.5h-218v-164h-58v715zM356 215q77 0 116 40.5t39 114.5q0 67 -37.5 107.5t-109.5 40.5h-219v-303h211z" />
    <glyph glyph-name="germandbls" unicode="&#xdf;" horiz-adv-x="610" 
d="M118 501h-85v46h85v17q0 84 52 126t145 42q58 0 96 -13.5t59.5 -34.5t30 -47.5t8.5 -52.5q0 -42 -21 -75t-51 -63q-8 -8 -21 -19l-26 -24q-13 -12 -22 -23.5t-9 -20.5q0 -8 7.5 -15.5t19 -15t24 -14t22.5 -12.5q60 -32 98.5 -71.5t38.5 -94.5q0 -65 -42.5 -104.5
t-120.5 -39.5q-40 0 -79 6.5t-65 25.5l22 43q25 -18 56 -24.5t57 -6.5q51 0 84 26.5t33 69.5q0 29 -20 59t-78 61q-33 17 -54.5 29.5t-34.5 24t-18 22.5t-5 25q0 32 52 79l36 35q17 17 30.5 34t21.5 36t8 41q0 51 -35.5 79t-107.5 28q-40 0 -66.5 -10.5t-42 -28t-22 -39.5
t-6.5 -46v-561h-54v501z" />
    <glyph glyph-name="agrave" unicode="&#xe0;" horiz-adv-x="540" 
d="M221 -8q-33 0 -64.5 9.5t-55.5 29.5t-38.5 51t-14.5 73q0 46 14.5 79.5t41 54.5t63 31t81.5 10q37 0 76.5 -5.5t64.5 -14.5v78q0 24 -6 45.5t-21.5 38t-42 26.5t-68.5 10q-34 0 -58.5 -5t-40.5 -18t-24.5 -34.5t-9.5 -55.5h-55q5 83 49 122t145 39q94 0 140 -42.5
t46 -135.5v-244q0 -38 11.5 -64.5t40.5 -26.5q8 0 16 1t14 3l5 -45q-14 -4 -25 -5.5t-27 -1.5q-20 0 -35 8t-24.5 21t-14.5 30.5t-6 35.5h-2q-12 -28 -31.5 -46.5t-42.5 -30t-49.5 -16.5t-51.5 -5zM236 40q39 0 68 13t48 33t28 44.5t9 47.5v87q-23 8 -62.5 14t-76.5 6
q-69 0 -108 -28.5t-39 -95.5q0 -37 12.5 -60.5t32 -37t43 -18.5t45.5 -5zM118 736l64 6l93 -146h-48z" />
    <glyph glyph-name="aacute" unicode="&#xe1;" horiz-adv-x="540" 
d="M221 -8q-33 0 -64.5 9.5t-55.5 29.5t-38.5 51t-14.5 73q0 46 14.5 79.5t41 54.5t63 31t81.5 10q37 0 76.5 -5.5t64.5 -14.5v78q0 24 -6 45.5t-21.5 38t-42 26.5t-68.5 10q-34 0 -58.5 -5t-40.5 -18t-24.5 -34.5t-9.5 -55.5h-55q5 83 49 122t145 39q94 0 140 -42.5
t46 -135.5v-244q0 -38 11.5 -64.5t40.5 -26.5q8 0 16 1t14 3l5 -45q-14 -4 -25 -5.5t-27 -1.5q-20 0 -35 8t-24.5 21t-14.5 30.5t-6 35.5h-2q-12 -28 -31.5 -46.5t-42.5 -30t-49.5 -16.5t-51.5 -5zM236 40q39 0 68 13t48 33t28 44.5t9 47.5v87q-23 8 -62.5 14t-76.5 6
q-69 0 -108 -28.5t-39 -95.5q0 -37 12.5 -60.5t32 -37t43 -18.5t45.5 -5zM318 742l64 -6l-109 -140h-48z" />
    <glyph glyph-name="acircumflex" unicode="&#xe2;" horiz-adv-x="540" 
d="M221 -8q-33 0 -64.5 9.5t-55.5 29.5t-38.5 51t-14.5 73q0 46 14.5 79.5t41 54.5t63 31t81.5 10q37 0 76.5 -5.5t64.5 -14.5v78q0 24 -6 45.5t-21.5 38t-42 26.5t-68.5 10q-34 0 -58.5 -5t-40.5 -18t-24.5 -34.5t-9.5 -55.5h-55q5 83 49 122t145 39q94 0 140 -42.5
t46 -135.5v-244q0 -38 11.5 -64.5t40.5 -26.5q8 0 16 1t14 3l5 -45q-14 -4 -25 -5.5t-27 -1.5q-20 0 -35 8t-24.5 21t-14.5 30.5t-6 35.5h-2q-12 -28 -31.5 -46.5t-42.5 -30t-49.5 -16.5t-51.5 -5zM236 40q39 0 68 13t48 33t28 44.5t9 47.5v87q-23 8 -62.5 14t-76.5 6
q-69 0 -108 -28.5t-39 -95.5q0 -37 12.5 -60.5t32 -37t43 -18.5t45.5 -5zM226 747h52l106 -151h-52l-80 113l-83 -113h-52z" />
    <glyph glyph-name="atilde" unicode="&#xe3;" horiz-adv-x="540" 
d="M221 -8q-33 0 -64.5 9.5t-55.5 29.5t-38.5 51t-14.5 73q0 46 14.5 79.5t41 54.5t63 31t81.5 10q37 0 76.5 -5.5t64.5 -14.5v78q0 24 -6 45.5t-21.5 38t-42 26.5t-68.5 10q-34 0 -58.5 -5t-40.5 -18t-24.5 -34.5t-9.5 -55.5h-55q5 83 49 122t145 39q94 0 140 -42.5
t46 -135.5v-244q0 -38 11.5 -64.5t40.5 -26.5q8 0 16 1t14 3l5 -45q-14 -4 -25 -5.5t-27 -1.5q-20 0 -35 8t-24.5 21t-14.5 30.5t-6 35.5h-2q-12 -28 -31.5 -46.5t-42.5 -30t-49.5 -16.5t-51.5 -5zM236 40q39 0 68 13t48 33t28 44.5t9 47.5v87q-23 8 -62.5 14t-76.5 6
q-69 0 -108 -28.5t-39 -95.5q0 -37 12.5 -60.5t32 -37t43 -18.5t45.5 -5zM94 609q4 38 24.5 63t56.5 25q19 0 38.5 -6.5t38.5 -14t37 -13.5t34 -6q22 0 31.5 13t15.5 35l38 -5q-6 -41 -26.5 -65t-55.5 -24q-20 0 -40.5 6.5t-40 14.5t-37 14.5t-31.5 6.5q-23 0 -31.5 -16.5
t-13.5 -32.5z" />
    <glyph glyph-name="adieresis" unicode="&#xe4;" horiz-adv-x="540" 
d="M221 -8q-33 0 -64.5 9.5t-55.5 29.5t-38.5 51t-14.5 73q0 46 14.5 79.5t41 54.5t63 31t81.5 10q37 0 76.5 -5.5t64.5 -14.5v78q0 24 -6 45.5t-21.5 38t-42 26.5t-68.5 10q-34 0 -58.5 -5t-40.5 -18t-24.5 -34.5t-9.5 -55.5h-55q5 83 49 122t145 39q94 0 140 -42.5
t46 -135.5v-244q0 -38 11.5 -64.5t40.5 -26.5q8 0 16 1t14 3l5 -45q-14 -4 -25 -5.5t-27 -1.5q-20 0 -35 8t-24.5 21t-14.5 30.5t-6 35.5h-2q-12 -28 -31.5 -46.5t-42.5 -30t-49.5 -16.5t-51.5 -5zM236 40q39 0 68 13t48 33t28 44.5t9 47.5v87q-23 8 -62.5 14t-76.5 6
q-69 0 -108 -28.5t-39 -95.5q0 -37 12.5 -60.5t32 -37t43 -18.5t45.5 -5zM134 715h49v-92h-49v92zM318 715h49v-92h-49v92z" />
    <glyph glyph-name="aring" unicode="&#xe5;" horiz-adv-x="540" 
d="M221 -8q-33 0 -64.5 9.5t-55.5 29.5t-38.5 51t-14.5 73q0 46 14.5 79.5t41 54.5t63 31t81.5 10q37 0 76.5 -5.5t64.5 -14.5v78q0 24 -6 45.5t-21.5 38t-42 26.5t-68.5 10q-34 0 -58.5 -5t-40.5 -18t-24.5 -34.5t-9.5 -55.5h-55q5 83 49 122t145 39q94 0 140 -42.5
t46 -135.5v-244q0 -38 11.5 -64.5t40.5 -26.5q8 0 16 1t14 3l5 -45q-14 -4 -25 -5.5t-27 -1.5q-20 0 -35 8t-24.5 21t-14.5 30.5t-6 35.5h-2q-12 -28 -31.5 -46.5t-42.5 -30t-49.5 -16.5t-51.5 -5zM236 40q39 0 68 13t48 33t28 44.5t9 47.5v87q-23 8 -62.5 14t-76.5 6
q-69 0 -108 -28.5t-39 -95.5q0 -37 12.5 -60.5t32 -37t43 -18.5t45.5 -5zM250 586q-23 0 -40 7t-27.5 19t-15.5 26.5t-5 29.5q0 34 23 59.5t63 25.5q46 0 68.5 -23.5t22.5 -57.5q0 -36 -24.5 -61t-64.5 -25zM250 613q23 0 39.5 14.5t16.5 42.5q0 26 -15.5 41.5t-42.5 15.5
q-25 0 -39 -16.5t-14 -42.5q0 -29 16.5 -42t38.5 -13z" />
    <glyph glyph-name="ae" unicode="&#xe6;" horiz-adv-x="869" 
d="M216 -8q-33 0 -63.5 9.5t-54 29.5t-37 51t-13.5 73q0 46 14.5 79.5t41 54.5t63 31t81.5 10q37 0 76.5 -5.5t64.5 -14.5v78q0 24 -6 45.5t-21.5 38t-42 26.5t-68.5 10q-34 0 -58.5 -5t-40.5 -18t-24.5 -35t-9.5 -55h-55q3 41 14.5 71.5t35 50.5t59 29.5t85.5 9.5
q73 0 116 -30.5t55 -89.5q24 60 70 89.5t111 29.5q94 0 149 -49q36 -35 52 -92t16 -114v-33h-380q1 -54 9.5 -96t28 -71.5t51.5 -44.5t80 -15q69 0 104.5 35t46.5 92h54q-13 -91 -68 -133t-142 -42q-72 0 -121.5 30.5t-74.5 87.5q-16 -36 -39.5 -59t-50.5 -36t-55 -18
t-53 -5zM235 40q60 0 103.5 33t60.5 87q-5 23 -7.5 46.5t-2.5 58.5q-22 8 -62 14t-77 6q-69 0 -108 -28.5t-39 -95.5q0 -37 12.5 -60.5t32 -37t42.5 -18.5t45 -5zM769 315q-2 101 -46.5 147t-116.5 46q-31 0 -58.5 -10.5t-48.5 -34t-34.5 -60t-17.5 -88.5h322z" />
    <glyph glyph-name="ccedilla" unicode="&#xe7;" horiz-adv-x="518" 
d="M285 -185q-26 0 -49 4.5t-41 11.5l7 27q19 -6 41 -9.5t39 -3.5q27 0 44.5 9t17.5 30q0 15 -14.5 26.5t-53.5 13.5l-26 1l17 67q-105 2 -163 71t-58 206q0 135 55 211t165 76q93 0 146.5 -47t62.5 -133h-56q-5 35 -18.5 60t-34 41t-45.5 23.5t-53 7.5q-86 0 -126 -64.5
t-40 -173.5q0 -114 44 -172t126 -58q26 0 50.5 7t44.5 23t33.5 41t17.5 61h55q-8 -82 -54.5 -127.5t-125.5 -51.5l-10 -46h14q38 -2 63 -16.5t25 -45.5q0 -30 -25 -50t-75 -20z" />
    <glyph glyph-name="egrave" unicode="&#xe8;" horiz-adv-x="527" 
d="M131 736l64 6l93 -146h-48zM268 -8q-109 0 -165.5 71t-56.5 213q0 135 57 207t163 72q95 0 149 -49q18 -17 31.5 -41t21.5 -51t12 -56.5t4 -57.5v-33h-381q1 -107 40 -167t129 -60q69 0 105 33t47 94h54q-13 -90 -67.5 -132.5t-142.5 -42.5zM427 315q0 50 -12.5 86.5
t-34.5 60t-51.5 34.5t-65.5 11q-31 0 -58 -10.5t-48 -33t-35 -59.5t-17 -89h322z" />
    <glyph glyph-name="eacute" unicode="&#xe9;" horiz-adv-x="527" 
d="M332 742l64 -6l-109 -140h-48zM268 -8q-109 0 -165.5 71t-56.5 213q0 135 57 207t163 72q95 0 149 -49q18 -17 31.5 -41t21.5 -51t12 -56.5t4 -57.5v-33h-381q1 -107 40 -167t129 -60q69 0 105 33t47 94h54q-13 -90 -67.5 -132.5t-142.5 -42.5zM427 315q0 50 -12.5 86.5
t-34.5 60t-51.5 34.5t-65.5 11q-31 0 -58 -10.5t-48 -33t-35 -59.5t-17 -89h322z" />
    <glyph glyph-name="ecircumflex" unicode="&#xea;" horiz-adv-x="527" 
d="M268 -8q-109 0 -165.5 71t-56.5 213q0 135 57 207t163 72q95 0 149 -49q18 -17 31.5 -41t21.5 -51t12 -56.5t4 -57.5v-33h-381q1 -107 40 -167t129 -60q69 0 105 33t47 94h54q-13 -90 -67.5 -132.5t-142.5 -42.5zM427 315q0 50 -12.5 86.5t-34.5 60t-51.5 34.5t-65.5 11
q-31 0 -58 -10.5t-48 -33t-35 -59.5t-17 -89h322zM239 747h52l106 -151h-52l-80 113l-83 -113h-52z" />
    <glyph glyph-name="edieresis" unicode="&#xeb;" horiz-adv-x="527" 
d="M268 -8q-109 0 -165.5 71t-56.5 213q0 135 57 207t163 72q95 0 149 -49q18 -17 31.5 -41t21.5 -51t12 -56.5t4 -57.5v-33h-381q1 -107 40 -167t129 -60q69 0 105 33t47 94h54q-13 -90 -67.5 -132.5t-142.5 -42.5zM427 315q0 50 -12.5 86.5t-34.5 60t-51.5 34.5t-65.5 11
q-31 0 -58 -10.5t-48 -33t-35 -59.5t-17 -89h322zM148 715h49v-92h-49v92zM332 715h49v-92h-49v92z" />
    <glyph glyph-name="igrave" unicode="&#xec;" horiz-adv-x="228" 
d="M-20 736l64 6l93 -146h-48zM87 547h54v-547h-54v547z" />
    <glyph glyph-name="iacute" unicode="&#xed;" horiz-adv-x="228" 
d="M181 742l64 -6l-109 -140h-48zM87 547h54v-547h-54v547z" />
    <glyph glyph-name="icircumflex" unicode="&#xee;" horiz-adv-x="228" 
d="M87 547h54v-547h-54v547zM89 747h52l106 -151h-52l-80 113l-83 -113h-52z" />
    <glyph glyph-name="idieresis" unicode="&#xef;" horiz-adv-x="228" 
d="M87 547h54v-547h-54v547zM-4 715h49v-92h-49v92zM180 715h49v-92h-49v92z" />
    <glyph glyph-name="eth" unicode="&#xf0;" horiz-adv-x="534" 
d="M89 602l118 35l-72 78h69l57 -62l138 41l14 -39l-120 -36l123 -132q39 -39 56 -95t17 -123q0 -136 -56 -206.5t-161 -70.5q-114 0 -170 71.5t-56 199.5q0 60 14.5 112.5t46 89.5t81.5 55t121 9l-70 74l-136 -41zM272 40q81 0 120.5 55t39.5 177q0 102 -37.5 158.5
t-125.5 56.5q-47 0 -78.5 -16.5t-51 -46t-28 -70.5t-8.5 -90q0 -115 42.5 -169.5t126.5 -54.5z" />
    <glyph glyph-name="ntilde" unicode="&#xf1;" horiz-adv-x="562" 
d="M125 609q4 38 24.5 63t56.5 25q19 0 38.5 -6.5t38.5 -14t37 -13.5t34 -6q22 0 31.5 13t15.5 35l38 -5q-6 -41 -26.5 -65t-55.5 -24q-20 0 -40.5 6.5t-40 14.5t-37 14.5t-31.5 6.5q-23 0 -31.5 -16.5t-13.5 -32.5zM87 547h53v-101h1q13 31 33 52t44 34t51 18t53 5
q35 0 64 -8.5t50 -26.5t32.5 -45.5t11.5 -64.5v-410h-54v397q0 23 -7.5 43.5t-22.5 35.5t-38.5 23.5t-56.5 8.5q-28 0 -56.5 -11t-51.5 -31.5t-37.5 -50t-14.5 -66.5v-349h-54v547z" />
    <glyph glyph-name="ograve" unicode="&#xf2;" horiz-adv-x="534" 
d="M134 736l64 6l93 -146h-48zM271 -8q-109 0 -167 70t-58 207q0 140 56.5 213t161.5 73q51 0 92.5 -17t71 -51.5t45.5 -87.5t16 -125q0 -74 -16 -127t-45 -87.5t-69 -51t-88 -16.5zM272 40q37 0 66.5 12.5t50.5 41t32 73.5t11 110q0 111 -40.5 170.5t-126.5 59.5
q-45 0 -76 -17.5t-50 -48.5t-27.5 -74t-8.5 -95q0 -64 12 -108.5t34 -72t53.5 -39.5t69.5 -12z" />
    <glyph glyph-name="oacute" unicode="&#xf3;" horiz-adv-x="534" 
d="M334 742l64 -6l-109 -140h-48zM271 -8q-109 0 -167 70t-58 207q0 140 56.5 213t161.5 73q51 0 92.5 -17t71 -51.5t45.5 -87.5t16 -125q0 -74 -16 -127t-45 -87.5t-69 -51t-88 -16.5zM272 40q37 0 66.5 12.5t50.5 41t32 73.5t11 110q0 111 -40.5 170.5t-126.5 59.5
q-45 0 -76 -17.5t-50 -48.5t-27.5 -74t-8.5 -95q0 -64 12 -108.5t34 -72t53.5 -39.5t69.5 -12z" />
    <glyph glyph-name="ocircumflex" unicode="&#xf4;" horiz-adv-x="534" 
d="M242 747h52l106 -151h-52l-80 113l-83 -113h-52zM271 -8q-109 0 -167 70t-58 207q0 140 56.5 213t161.5 73q51 0 92.5 -17t71 -51.5t45.5 -87.5t16 -125q0 -74 -16 -127t-45 -87.5t-69 -51t-88 -16.5zM272 40q37 0 66.5 12.5t50.5 41t32 73.5t11 110q0 111 -40.5 170.5
t-126.5 59.5q-45 0 -76 -17.5t-50 -48.5t-27.5 -74t-8.5 -95q0 -64 12 -108.5t34 -72t53.5 -39.5t69.5 -12z" />
    <glyph glyph-name="otilde" unicode="&#xf5;" horiz-adv-x="534" 
d="M109 609q4 38 24.5 63t56.5 25q19 0 38.5 -6.5t38.5 -14t37 -13.5t34 -6q22 0 31.5 13t15.5 35l38 -5q-6 -41 -26.5 -65t-55.5 -24q-20 0 -40.5 6.5t-40 14.5t-37 14.5t-31.5 6.5q-23 0 -31.5 -16.5t-13.5 -32.5zM271 -8q-109 0 -167 70t-58 207q0 140 56.5 213t161.5 73
q51 0 92.5 -17t71 -51.5t45.5 -87.5t16 -125q0 -74 -16 -127t-45 -87.5t-69 -51t-88 -16.5zM272 40q37 0 66.5 12.5t50.5 41t32 73.5t11 110q0 111 -40.5 170.5t-126.5 59.5q-45 0 -76 -17.5t-50 -48.5t-27.5 -74t-8.5 -95q0 -64 12 -108.5t34 -72t53.5 -39.5t69.5 -12z" />
    <glyph glyph-name="odieresis" unicode="&#xf6;" horiz-adv-x="534" 
d="M271 -8q-109 0 -167 70t-58 207q0 140 56.5 213t161.5 73q51 0 92.5 -17t71 -51.5t45.5 -87.5t16 -125q0 -74 -16 -127t-45 -87.5t-69 -51t-88 -16.5zM272 40q37 0 66.5 12.5t50.5 41t32 73.5t11 110q0 111 -40.5 170.5t-126.5 59.5q-45 0 -76 -17.5t-50 -48.5t-27.5 -74
t-8.5 -95q0 -64 12 -108.5t34 -72t53.5 -39.5t69.5 -12zM150 715h49v-92h-49v92zM334 715h49v-92h-49v92z" />
    <glyph glyph-name="divide" unicode="&#xf7;" horiz-adv-x="598" 
d="M256 214h56v-97h-56v97zM56 349h453v-42h-453v42zM256 531h56v-97h-56v97z" />
    <glyph glyph-name="oslash" unicode="&#xf8;" horiz-adv-x="534" 
d="M78 -40l44 83q-76 70 -76 226q0 140 56.5 213t161.5 73q66 0 116 -29l37 69l43 -18l-43 -80q35 -34 53.5 -89.5t18.5 -133.5q0 -74 -16 -127t-45 -87.5t-69 -51t-88 -16.5q-63 0 -109 24l-40 -75zM103 272q0 -64 12 -108t34 -71l207 389q-38 25 -91 25q-45 0 -76 -17.5
t-50 -48.5t-27.5 -74t-8.5 -95zM272 40q37 0 66.5 12.5t50.5 41t32 73.5t11 110q0 113 -41 170l-206 -387q36 -20 87 -20z" />
    <glyph glyph-name="ugrave" unicode="&#xf9;" horiz-adv-x="562" 
d="M145 736l64 6l93 -146h-48zM475 0h-52v101h-1q-13 -32 -33 -52.5t-44.5 -33.5t-51.5 -18t-53 -5q-71 0 -114.5 35t-43.5 109v411h54v-396q0 -23 7 -43.5t22.5 -36t39 -24.5t56.5 -9q28 0 57 11.5t51.5 32.5t37 50.5t14.5 66.5v348h54v-547z" />
    <glyph glyph-name="uacute" unicode="&#xfa;" horiz-adv-x="562" 
d="M345 742l64 -6l-109 -140h-48zM475 0h-52v101h-1q-13 -32 -33 -52.5t-44.5 -33.5t-51.5 -18t-53 -5q-71 0 -114.5 35t-43.5 109v411h54v-396q0 -23 7 -43.5t22.5 -36t39 -24.5t56.5 -9q28 0 57 11.5t51.5 32.5t37 50.5t14.5 66.5v348h54v-547z" />
    <glyph glyph-name="ucircumflex" unicode="&#xfb;" horiz-adv-x="562" 
d="M475 0h-52v101h-1q-13 -32 -33 -52.5t-44.5 -33.5t-51.5 -18t-53 -5q-71 0 -114.5 35t-43.5 109v411h54v-396q0 -23 7 -43.5t22.5 -36t39 -24.5t56.5 -9q28 0 57 11.5t51.5 32.5t37 50.5t14.5 66.5v348h54v-547zM253 747h52l106 -151h-52l-80 113l-83 -113h-52z" />
    <glyph glyph-name="udieresis" unicode="&#xfc;" horiz-adv-x="562" 
d="M475 0h-52v101h-1q-13 -32 -33 -52.5t-44.5 -33.5t-51.5 -18t-53 -5q-71 0 -114.5 35t-43.5 109v411h54v-396q0 -23 7 -43.5t22.5 -36t39 -24.5t56.5 -9q28 0 57 11.5t51.5 32.5t37 50.5t14.5 66.5v348h54v-547zM161 715h49v-92h-49v92zM345 715h49v-92h-49v92z" />
    <glyph glyph-name="yacute" unicode="&#xfd;" horiz-adv-x="480" 
d="M83 -165h-22q-10 0 -24 2v49q28 -3 55 -3q47 0 71.5 23t39.5 63l13 33l-206 545h57l175 -469h2l171 469h56l-199 -541q-16 -45 -32.5 -77t-37.5 -53t-49.5 -31t-69.5 -10zM308 742l64 -6l-109 -140h-48z" />
    <glyph glyph-name="thorn" unicode="&#xfe;" horiz-adv-x="570" 
d="M87 715h54v-270h2q10 28 28 49t41 34.5t49.5 20t54.5 6.5q102 0 155.5 -69.5t53.5 -206.5q0 -78 -17 -132.5t-46 -89t-67 -50t-81 -15.5q-26 0 -51.5 5t-48.5 17t-41.5 31.5t-29.5 48.5h-2v-251h-54v872zM303 40q77 0 120.5 58.5t43.5 176.5q0 115 -40.5 174t-123.5 59
q-30 0 -59 -11t-52 -34.5t-37 -60t-14 -87.5v-74q0 -54 13 -92t35 -62t51.5 -35.5t62.5 -11.5z" />
    <glyph glyph-name="ydieresis" unicode="&#xff;" horiz-adv-x="480" 
d="M83 -165h-22q-10 0 -24 2v49q28 -3 55 -3q47 0 71.5 23t39.5 63l13 33l-206 545h57l175 -469h2l171 469h56l-199 -541q-16 -45 -32.5 -77t-37.5 -53t-49.5 -31t-69.5 -10zM123 715h49v-92h-49v92zM307 715h49v-92h-49v92z" />
    <glyph glyph-name="dotlessi" unicode="&#x131;" horiz-adv-x="228" 
d="M87 547h54v-547h-54v547z" />
    <glyph glyph-name="Lslash" unicode="&#x141;" horiz-adv-x="586" 
d="M25 279l80 72v364h58v-312l169 152v-62l-169 -152v-290h391v-51h-449v289l-80 -72v62z" />
    <glyph glyph-name="lslash" unicode="&#x142;" horiz-adv-x="297" 
d="M22 284l56 78v353h54v-278l85 118v-73l-85 -119v-192q0 -32 3.5 -56.5t13.5 -40.5t27 -24t43 -8q18 0 31.5 2t27.5 7l8 -47q-21 -7 -40.5 -9t-37.5 -2q-39 0 -64.5 12t-40 34t-20 53.5t-5.5 70.5v124l-56 -78v75z" />
    <glyph glyph-name="OE" unicode="&#x152;" horiz-adv-x="1016" 
d="M344 0q-69 0 -124 21.5t-93.5 65t-59.5 109t-21 152.5q0 94 21.5 163t60.5 114.5t92.5 67.5t116.5 22h631v-51h-387v-266h287v-51h-287v-296h388v-51h-625zM523 51v613h-178q-110 0 -174 -78t-64 -238q0 -143 62 -220t174 -77h180z" />
    <glyph glyph-name="oe" unicode="&#x153;" horiz-adv-x="914" 
d="M271 -8q-109 0 -167 70t-58 207q0 140 56.5 213t161.5 73q68 0 118.5 -29.5t77.5 -92.5q26 60 74.5 91t117.5 31q95 0 149 -49q18 -17 31.5 -41t21.5 -51t12 -56.5t4 -57.5v-33h-381v-8q2 -104 41 -161.5t128 -57.5q69 0 105 33t47 94h54q-13 -90 -67.5 -132.5
t-142.5 -42.5q-143 0 -194 120q-27 -63 -76.5 -91.5t-112.5 -28.5zM272 40q37 0 66.5 12.5t50.5 41t32 73.5t11 110q0 111 -40.5 170.5t-126.5 59.5q-45 0 -76 -17.5t-50 -48.5t-27.5 -74t-8.5 -95q0 -64 12 -108.5t34 -72t53.5 -39.5t69.5 -12zM813 315q0 50 -12.5 86.5
t-34.5 60t-51.5 34.5t-65.5 11q-31 0 -58 -10.5t-48 -33t-35 -59.5t-17 -89h322z" />
    <glyph glyph-name="Scaron" unicode="&#x160;" horiz-adv-x="592" 
d="M160 909h52l80 -112l82 112h54l-110 -150h-52zM304 -8q-53 0 -100 10.5t-82.5 35.5t-58 67.5t-26.5 105.5h59q10 -170 209 -170q53 0 89.5 12t58.5 32t31.5 46t9.5 54q0 26 -7 46.5t-24.5 37.5t-47.5 31t-76 28l-113 33q-32 10 -62 23.5t-53 34t-37 48t-14 65.5
q0 46 17 81.5t48 60t74.5 37t96.5 12.5q44 0 86 -10.5t76 -34.5t55.5 -62.5t25.5 -93.5h-56q-11 77 -61 114.5t-131 37.5q-41 0 -73.5 -10t-54.5 -27.5t-33.5 -41t-11.5 -50.5q0 -52 33 -81.5t103 -49.5l101 -30q44 -14 80.5 -30t63 -38t41 -51t14.5 -69q0 -45 -15 -82.5
t-45.5 -64.5t-78 -42t-111.5 -15z" />
    <glyph glyph-name="scaron" unicode="&#x161;" horiz-adv-x="500" 
d="M258 -8q-43 0 -81 7t-67 25t-48 49t-23 79h54q7 -32 19.5 -53.5t32.5 -34.5t49 -18.5t68 -5.5q75 0 109.5 28t34.5 73q0 19 -4 35t-16 29.5t-33.5 23.5t-56.5 17l-101 20q-29 6 -55 16.5t-45.5 27.5t-30.5 40t-11 54q0 72 49 111.5t146 39.5q41 0 76.5 -9t62.5 -28
t44 -48.5t22 -71.5h-53q-13 59 -52 84t-101 25q-64 0 -102 -24t-38 -71q0 -73 109 -94l105 -21q68 -14 104.5 -48t36.5 -96q0 -71 -50 -116t-154 -45zM118 747h51l81 -112l81 112h54l-110 -151h-51z" />
    <glyph glyph-name="Ydieresis" unicode="&#x178;" horiz-adv-x="550" 
d="M247 288l-244 427h65l210 -368h1l209 368h58l-241 -427v-288h-58v288zM157 883h49v-95h-49v95zM341 883h49v-95h-49v95z" />
    <glyph glyph-name="Zcaron" unicode="&#x17d;" horiz-adv-x="556" 
d="M44 44l396 620h-388v51h461v-45l-396 -619h396v-51h-469v44zM155 909h52l80 -112l82 112h54l-110 -150h-52z" />
    <glyph glyph-name="zcaron" unicode="&#x17e;" horiz-adv-x="480" 
d="M43 35l321 464h-315v48h387v-37l-318 -462h324v-48h-399v35zM108 747h51l81 -112l81 112h54l-110 -151h-51z" />
    <glyph glyph-name="florin" unicode="&#x192;" horiz-adv-x="361" 
d="M64 -163q-14 0 -25.5 0.5t-20.5 2.5l1 45q8 -2 16.5 -3t19.5 -1q26 0 41.5 8.5t24 25t11 39.5t2.5 52v495h-84v46h84v36q0 30 5.5 56.5t19.5 46.5t39.5 31.5t65.5 11.5q47 0 85 -16l-15 -44q-16 7 -33 10.5t-37 3.5q-25 0 -40 -6t-22.5 -18t-9.5 -29t-2 -39v-44h122v-46
h-122v-497q0 -81 -27.5 -124t-98.5 -43z" />
    <glyph glyph-name="circumflex" unicode="&#x2c6;" horiz-adv-x="527" 
d="M238 747h52l106 -151h-52l-80 113l-83 -113h-52z" />
    <glyph glyph-name="caron" unicode="&#x2c7;" horiz-adv-x="527" 
d="M129 747h51l81 -112l81 112h54l-110 -151h-51z" />
    <glyph glyph-name="breve" unicode="&#x2d8;" horiz-adv-x="527" 
d="M264 596q-26 0 -49 7t-40.5 22t-28.5 38.5t-12 55.5h45q4 -38 24.5 -61.5t61.5 -23.5q36 0 57 22.5t24 62.5h44q-1 -33 -12.5 -56.5t-29 -38t-39.5 -21.5t-45 -7z" />
    <glyph glyph-name="dotaccent" unicode="&#x2d9;" horiz-adv-x="527" 
d="M238 715h49v-92h-49v92z" />
    <glyph glyph-name="ring" unicode="&#x2da;" horiz-adv-x="527" 
d="M262 586q-23 0 -40 7t-27.5 19t-15.5 26.5t-5 29.5q0 34 23 59.5t63 25.5q46 0 68.5 -23.5t22.5 -57.5q0 -36 -24.5 -61t-64.5 -25zM262 613q23 0 39.5 14.5t16.5 42.5q0 26 -15.5 41.5t-42.5 15.5q-25 0 -39 -16.5t-14 -42.5q0 -29 16.5 -42t38.5 -13z" />
    <glyph glyph-name="ogonek" unicode="&#x2db;" horiz-adv-x="527" 
d="M266 -189q-37 0 -64.5 18t-27.5 58q0 23 10 43t26.5 36.5t36.5 29t41 19.5l25 -15q-42 -16 -67 -44t-25 -58q0 -22 12.5 -36t42.5 -14q14 0 31 5t30 13l14 -31q-16 -10 -37.5 -17t-47.5 -7z" />
    <glyph glyph-name="tilde" unicode="&#x2dc;" horiz-adv-x="527" 
d="M105 609q4 38 24.5 63t56.5 25q19 0 38.5 -6.5t38.5 -14t37 -13.5t34 -6q22 0 31.5 13t15.5 35l38 -5q-6 -41 -26.5 -65t-55.5 -24q-20 0 -40.5 6.5t-40 14.5t-37 14.5t-31.5 6.5q-23 0 -31.5 -16.5t-13.5 -32.5z" />
    <glyph glyph-name="hungarumlaut" unicode="&#x2dd;" horiz-adv-x="527" 
d="M215 740l59 -6l-92 -138h-48zM337 740l58 -6l-92 -138h-48z" />
    <glyph glyph-name="gravecomb" unicode="&#x300;" 
d="M-216 736l64 6l93 -146h-48z" />
    <glyph glyph-name="acutecomb" unicode="&#x301;" 
d="M-125 742l64 -6l-109 -140h-48z" />
    <glyph glyph-name="uni0302" unicode="&#x302;" 
d="M-170 747h52l106 -151h-52l-80 113l-83 -113h-52z" />
    <glyph glyph-name="tildecomb" unicode="&#x303;" 
d="M-342 609q4 38 24.5 63t56.5 25q19 0 38.5 -6.5t38.5 -14t37 -13.5t34 -6q22 0 31.5 13t15.5 35l38 -5q-6 -41 -26.5 -65t-55.5 -24q-20 0 -40.5 6.5t-40 14.5t-37 14.5t-31.5 6.5q-23 0 -31.5 -16.5t-13.5 -32.5z" />
    <glyph glyph-name="uni0304" unicode="&#x304;" 
d="M-319 671h284v-48h-284v48z" />
    <glyph glyph-name="uni0306" unicode="&#x306;" 
d="M-160 596q-26 0 -49 7t-40.5 22t-28.5 38.5t-12 55.5h45q4 -38 24.5 -61.5t61.5 -23.5q36 0 57 22.5t24 62.5h44q-1 -33 -12.5 -56.5t-29 -38t-39.5 -21.5t-45 -7z" />
    <glyph glyph-name="uni0307" unicode="&#x307;" 
d="M-88 715h49v-92h-49v92z" />
    <glyph glyph-name="uni0308" unicode="&#x308;" 
d="M-278 715h49v-92h-49v92zM-94 715h49v-92h-49v92z" />
    <glyph glyph-name="uni030A" unicode="&#x30a;" 
d="M-140 586q-23 0 -40 7t-27.5 19t-15.5 26.5t-5 29.5q0 34 23 59.5t63 25.5q46 0 68.5 -23.5t22.5 -57.5q0 -36 -24.5 -61t-64.5 -25zM-140 613q23 0 39.5 14.5t16.5 42.5q0 26 -15.5 41.5t-42.5 15.5q-25 0 -39 -16.5t-14 -42.5q0 -29 16.5 -42t38.5 -13z" />
    <glyph glyph-name="uni030B" unicode="&#x30b;" 
d="M-196 740l59 -6l-92 -138h-48zM-74 740l58 -6l-92 -138h-48z" />
    <glyph glyph-name="uni030C" unicode="&#x30c;" 
d="M-279 747h51l81 -112l81 112h54l-110 -151h-51z" />
    <glyph glyph-name="uni0312" unicode="&#x312;" horiz-adv-x="39" 
d="M-64 634l25 81h29l-19 -77h19v-91h-54v87z" />
    <glyph glyph-name="uni0313" unicode="&#x313;" horiz-adv-x="39" 
d="M-44 624h-19v91h54v-87l-25 -81h-29z" />
    <glyph glyph-name="uni0326" unicode="&#x326;" horiz-adv-x="39" 
d="M-44 -132h-19v91h54v-87l-25 -81h-29z" />
    <glyph glyph-name="uni0327" unicode="&#x327;" 
d="M-145 -185q-26 0 -49 4.5t-41 11.5l7 27q19 -6 41 -9.5t39 -3.5q27 0 44.5 9t17.5 30q0 15 -14.5 26.5t-53.5 13.5l-26 1l20 79l26 -1l-13 -56h14q38 -2 63 -16.5t25 -45.5q0 -30 -25 -50t-75 -20z" />
    <glyph glyph-name="uni0328" unicode="&#x328;" 
d="M-122 -189q-37 0 -64.5 18t-27.5 58q0 23 10 43t26.5 36.5t36.5 29t41 19.5l25 -15q-42 -16 -67 -44t-25 -58q0 -22 12.5 -36t42.5 -14q14 0 31 5t30 13l14 -31q-16 -10 -37.5 -17t-47.5 -7z" />
    <glyph glyph-name="uni0394" unicode="&#x394;" horiz-adv-x="621" 
d="M23 20l250 698h66l249 -698v-20h-565v20zM516 49l-211 605h-3l-211 -605h425z" />
    <glyph glyph-name="uni03A9" unicode="&#x3a9;" horiz-adv-x="682" 
d="M51 49l174 -2v2q-35 21 -67 51.5t-56 72.5t-38.5 94.5t-14.5 117.5q0 87 21.5 150.5t60 105.5t91.5 62t116 20q71 0 126 -23.5t92.5 -67t57 -105.5t19.5 -140q0 -121 -49 -207t-128 -131v-2l174 2v-49h-219l1 61q20 18 48 41t53 59t42.5 88t17.5 128q0 72 -17.5 127
t-48 92t-73.5 56t-94 19t-93.5 -18.5t-73 -55.5t-47.5 -91.5t-17 -127.5q0 -72 15.5 -122.5t39 -87t52 -61.5t55.5 -46v-61h-220v49z" />
    <glyph glyph-name="uni03BC" unicode="&#x3bc;" horiz-adv-x="552" 
d="M84 547h55v-391q0 -24 6.5 -45.5t21 -37t38 -25t57.5 -9.5q25 0 48.5 8t43 21.5t33.5 31t19 35.5v412h55v-417q0 -49 16 -68t31 -19q8 0 13 0.5t10 2.5v-45q-17 -4 -34 -4q-31 0 -51.5 23.5t-25.5 69.5h-2q-23 -45 -65 -72t-97 -27q-21 0 -41.5 4t-38 14.5t-31.5 27.5
t-21 44l-6 -2l22 -230l-56 -14v712z" />
    <glyph glyph-name="pi" unicode="&#x3c0;" horiz-adv-x="550" 
d="M471 -4q-41 0 -63 25t-22 79v397h-223q-2 -57 -3.5 -121.5t-4 -129.5t-6 -128t-7.5 -118h-57q5 55 9 118.5t7 129t5.5 129.5t3.5 120h-84l7 50h480v-50h-73v-392q0 -26 10 -45t36 -19q21 0 34 4l-1 -44q-14 -3 -25.5 -4t-22.5 -1z" />
    <glyph glyph-name="endash" unicode="&#x2013;" horiz-adv-x="536" 
d="M0 334h536v-38h-536v38z" />
    <glyph glyph-name="emdash" unicode="&#x2014;" horiz-adv-x="1036" 
d="M0 334h1036v-38h-1036v38z" />
    <glyph glyph-name="quoteleft" unicode="&#x2018;" horiz-adv-x="201" 
d="M71 615l26 100h31l-20 -94h20v-112h-57v106z" />
    <glyph glyph-name="quoteright" unicode="&#x2019;" horiz-adv-x="201" 
d="M93 602h-21v113h58v-106l-26 -100h-31z" />
    <glyph glyph-name="quotesinglbase" unicode="&#x201a;" horiz-adv-x="201" 
d="M93 0h-21v113h58v-108l-26 -99h-31z" />
    <glyph glyph-name="quotedblleft" unicode="&#x201c;" horiz-adv-x="331" 
d="M71 615l26 100h31l-20 -94h20v-112h-57v106zM202 615l26 100h30l-19 -94h19v-112h-56v106z" />
    <glyph glyph-name="quotedblright" unicode="&#x201d;" horiz-adv-x="331" 
d="M93 602h-21v113h58v-106l-26 -100h-31zM223 602h-20v113h57v-106l-26 -100h-31z" />
    <glyph glyph-name="quotedblbase" unicode="&#x201e;" horiz-adv-x="331" 
d="M93 0h-21v113h58v-108l-26 -99h-31zM223 0h-20v113h57v-108l-26 -99h-31z" />
    <glyph glyph-name="dagger" unicode="&#x2020;" horiz-adv-x="537" 
d="M243 485h-194v47h194v184h51v-184h193v-47h-193v-599h-51v599z" />
    <glyph glyph-name="daggerdbl" unicode="&#x2021;" horiz-adv-x="537" 
d="M243 73h-194v47h194v365h-194v47h194v184h51v-184h193v-47h-193v-365h193v-47h-193v-187h-51v187z" />
    <glyph glyph-name="bullet" unicode="&#x2022;" horiz-adv-x="425" 
d="M213 200q-29 0 -55.5 8.5t-46 26t-31 43t-11.5 59.5t11.5 59.5t31 43t46 26.5t55.5 9q30 0 56 -9t45.5 -27t30.5 -43.5t11 -58.5q0 -32 -11 -57.5t-30.5 -43t-45.5 -27t-56 -9.5z" />
    <glyph glyph-name="ellipsis" unicode="&#x2026;" horiz-adv-x="605" 
d="M72 113h58v-113h-58v113zM274 113h58v-113h-58v113zM475 113h58v-113h-58v113z" />
    <glyph glyph-name="perthousand" unicode="&#x2030;" horiz-adv-x="1091" 
d="M188 316q-36 0 -63 15t-45 41.5t-27 63.5t-9 81q0 97 37.5 151.5t104.5 54.5q76 0 110.5 -55.5t34.5 -149.5q0 -44 -9.5 -81t-27.5 -64t-45 -42t-61 -15zM188 352q51 0 76 43.5t25 125.5q0 81 -24 123.5t-78 42.5t-77.5 -46t-23.5 -121q0 -85 27 -126.5t75 -41.5zM571 -8
q-36 0 -63 14.5t-45 41t-27 63t-9 81.5q0 96 37.5 151t104.5 55q76 0 110 -55.5t34 -149.5q0 -44 -9.5 -80.5t-27.5 -63.5t-44.5 -42t-60.5 -15zM571 28q51 0 75.5 42.5t24.5 124.5q0 81 -23.5 124t-77.5 43q-27 0 -46 -12.5t-31.5 -34.5t-18 -53t-5.5 -68q0 -85 27 -125.5
t75 -40.5zM905 -8q-36 0 -63 14.5t-44.5 41t-26.5 63t-9 81.5q0 96 37 151t105 55q76 0 109.5 -55.5t33.5 -149.5q0 -44 -9.5 -80.5t-27.5 -63.5t-44.5 -42t-60.5 -15zM906 28q51 0 75.5 42.5t24.5 124.5q0 81 -24 124t-77 43q-27 0 -46.5 -12.5t-31.5 -34.5t-17.5 -53
t-5.5 -68q0 -85 27 -125.5t75 -40.5zM193 3l339 723l35 -13l-340 -725z" />
    <glyph glyph-name="guilsinglleft" unicode="&#x2039;" horiz-adv-x="227" 
d="M35 294v20l104 148h53l-108 -157l107 -158l-53 -1z" />
    <glyph glyph-name="guilsinglright" unicode="&#x203a;" horiz-adv-x="227" 
d="M142 305l-108 157h54l103 -148v-20l-102 -148l-53 1z" />
    <glyph glyph-name="fraction" unicode="&#x2044;" horiz-adv-x="134" 
d="M-118 3l340 722l34 -13l-340 -724z" />
    <glyph glyph-name="Euro" unicode="&#x20ac;" horiz-adv-x="732" 
d="M37 443h89q18 142 94 211t198 69q115 0 182.5 -57.5t78.5 -165.5h-59q-2 35 -16.5 66t-40 54.5t-62.5 37.5t-85 14q-54 0 -94 -17t-68 -47.5t-44 -72.5t-23 -92h332l-14 -49h-323v-59q0 -14 2 -27h293l-14 -49h-273q19 -114 80.5 -165.5t157.5 -51.5q50 0 86 16
t59.5 41.5t35 57.5t13.5 64h58q-7 -109 -73 -169t-184 -60q-57 0 -106.5 14.5t-87.5 46.5t-64.5 83t-36.5 123h-91v49h85q-1 11 -1 23v45q0 9 1 18h-85v49z" />
    <glyph glyph-name="trademark" unicode="&#x2122;" horiz-adv-x="610" 
d="M281 715h51l82 -216h1l81 216h52v-276h-35v224h-2l-85 -224h-28l-83 224h-2v-224h-32v276zM126 686h-86v29h211v-29h-88v-247h-37v247z" />
    <glyph glyph-name="Omega" unicode="&#x2126;" horiz-adv-x="682" 
d="M51 49l174 -2v2q-35 21 -67 51.5t-56 72.5t-38.5 94.5t-14.5 117.5q0 87 21.5 150.5t60 105.5t91.5 62t116 20q71 0 126 -23.5t92.5 -67t57 -105.5t19.5 -140q0 -121 -49 -207t-128 -131v-2l174 2v-49h-219l1 61q20 18 48 41t53 59t42.5 88t17.5 128q0 72 -17.5 127
t-48 92t-73.5 56t-94 19t-93.5 -18.5t-73 -55.5t-47.5 -91.5t-17 -127.5q0 -72 15.5 -122.5t39 -87t52 -61.5t55.5 -46v-61h-220v49z" />
    <glyph glyph-name="onethird" unicode="&#x2153;" horiz-adv-x="830" 
d="M73 338h97v326h-2q-11 -23 -37.5 -39t-53.5 -18v41q35 7 61.5 28.5t39.5 46.5h35v-385h95v-38h-235v38zM631 -8q-73 0 -109 31.5t-39 90.5h44q4 -45 27.5 -66t77.5 -21q52 0 76.5 27t24.5 65q0 42 -28 61t-69 19h-39v33h39q39 0 64 23t25 61q0 43 -29 61t-68 18
q-50 0 -74 -22.5t-25 -70.5h-43q4 127 144 127q37 0 63.5 -8.5t43.5 -23.5t24.5 -34.5t7.5 -41.5q0 -38 -21 -66t-63 -36v-2q45 -5 70.5 -31.5t25.5 -64.5q0 -32 -11 -56t-31 -40t-47.5 -24.5t-60.5 -8.5zM225 3l340 722l34 -13l-340 -724z" />
    <glyph glyph-name="twothirds" unicode="&#x2154;" horiz-adv-x="830" 
d="M45 336l101 92q61 54 93.5 96t32.5 84q0 37 -22.5 62t-70.5 25q-47 0 -70 -23t-23 -58q0 -15 3 -30h-43q-2 8 -2 16v15q1 54 36 85t101 31q38 0 64 -10t42 -26.5t23 -38t7 -45.5q0 -57 -33.5 -103t-94.5 -96l-85 -74h225v-38h-284v36zM631 -8q-73 0 -109 31.5t-39 90.5
h44q4 -45 27.5 -66t77.5 -21q52 0 76.5 27t24.5 65q0 42 -28 61t-69 19h-39v33h39q39 0 64 23t25 61q0 43 -29 61t-68 18q-50 0 -74 -22.5t-25 -70.5h-43q4 127 144 127q37 0 63.5 -8.5t43.5 -23.5t24.5 -34.5t7.5 -41.5q0 -38 -21 -66t-63 -36v-2q45 -5 70.5 -31.5
t25.5 -64.5q0 -32 -11 -56t-31 -40t-47.5 -24.5t-60.5 -8.5zM225 3l340 722l34 -13l-340 -724z" />
    <glyph glyph-name="uni2155" unicode="&#x2155;" horiz-adv-x="830" 
d="M71 338h97v326h-2q-11 -23 -37.5 -39t-53.5 -18v41q35 7 61.5 28.5t39.5 46.5h35v-385h95v-38h-235v38zM633 -8q-69 0 -107.5 28.5t-42.5 92.5h45q5 -52 31.5 -69t74.5 -17q52 0 77.5 29t25.5 81q0 45 -22 72t-77 27q-20 0 -35 -5t-26.5 -13t-19.5 -17l-13 -16l-41 3
l15 234h240l-2 -37h-204l-12 -168q23 32 54 43t58 11q58 0 93.5 -32t35.5 -95q0 -77 -39 -114.5t-109 -37.5zM224 3l340 722l34 -13l-340 -724z" />
    <glyph glyph-name="uni2156" unicode="&#x2156;" horiz-adv-x="830" 
d="M45 336l101 92q61 54 93.5 96t32.5 84q0 37 -22.5 62t-70.5 25q-47 0 -70 -23t-23 -58q0 -15 3 -30h-43q-2 8 -2 16v15q1 54 36 85t101 31q38 0 64 -10t42 -26.5t23 -38t7 -45.5q0 -57 -33.5 -103t-94.5 -96l-85 -74h225v-38h-284v36zM633 -8q-69 0 -107.5 28.5
t-42.5 92.5h45q5 -52 31.5 -69t74.5 -17q52 0 77.5 29t25.5 81q0 45 -22 72t-77 27q-20 0 -35 -5t-26.5 -13t-19.5 -17l-13 -16l-41 3l15 234h240l-2 -37h-204l-12 -168q23 32 54 43t58 11q58 0 93.5 -32t35.5 -95q0 -77 -39 -114.5t-109 -37.5zM224 3l340 722l34 -13
l-340 -724z" />
    <glyph glyph-name="uni2157" unicode="&#x2157;" horiz-adv-x="830" 
d="M186 292q-73 0 -109 31.5t-39 90.5h44q4 -45 27.5 -66t77.5 -21q52 0 76.5 27t24.5 65q0 42 -28 61t-69 19h-39v33h39q39 0 64 23t25 61q0 43 -29 61t-68 18q-50 0 -74 -22.5t-25 -70.5h-43q4 127 144 127q37 0 63.5 -8.5t43.5 -23.5t24.5 -34.5t7.5 -41.5q0 -38 -21 -66
t-63 -36v-2q45 -5 70.5 -31.5t25.5 -64.5q0 -32 -11 -56t-31 -40t-47.5 -24.5t-60.5 -8.5zM633 -8q-69 0 -107.5 28.5t-42.5 92.5h45q5 -52 31.5 -69t74.5 -17q52 0 77.5 29t25.5 81q0 45 -22 72t-77 27q-20 0 -35 -5t-26.5 -13t-19.5 -17l-13 -16l-41 3l15 234h240l-2 -37
h-204l-12 -168q23 32 54 43t58 11q58 0 93.5 -32t35.5 -95q0 -77 -39 -114.5t-109 -37.5zM224 3l340 722l34 -13l-340 -724z" />
    <glyph glyph-name="uni2158" unicode="&#x2158;" horiz-adv-x="830" 
d="M228 409h-197l1 35l188 283h49v-280h69v-38h-69v-109h-41v109zM228 447v226h-2l-11 -17l-27 -42l-37 -54l-37 -54l-28 -43l-11 -16h153zM633 -8q-69 0 -107.5 28.5t-42.5 92.5h45q5 -52 31.5 -69t74.5 -17q52 0 77.5 29t25.5 81q0 45 -22 72t-77 27q-20 0 -35 -5
t-26.5 -13t-19.5 -17l-13 -16l-41 3l15 234h240l-2 -37h-204l-12 -168q23 32 54 43t58 11q58 0 93.5 -32t35.5 -95q0 -77 -39 -114.5t-109 -37.5zM224 3l340 722l34 -13l-340 -724z" />
    <glyph glyph-name="uni2159" unicode="&#x2159;" horiz-adv-x="830" 
d="M71 338h97v326h-2q-11 -23 -37.5 -39t-53.5 -18v41q35 7 61.5 28.5t39.5 46.5h35v-385h95v-38h-235v38zM639 -8q-40 0 -70 16t-50 45.5t-30 70t-10 88.5q0 46 9.5 85.5t29 68.5t49.5 45.5t71 16.5q56 0 92 -28.5t41 -84.5h-41q-5 40 -31 59t-61 19q-31 0 -52.5 -15.5
t-35 -40.5t-20 -58t-6.5 -67q23 28 58.5 41.5t71.5 13.5q58 0 93.5 -32.5t35.5 -89.5q0 -72 -40 -112.5t-104 -40.5zM640 27q48 0 74.5 30t26.5 82q0 45 -25 70.5t-76 25.5q-22 0 -40.5 -6t-33 -14t-25 -17.5t-16.5 -15.5q1 -31 8 -59t20.5 -49.5t35 -34t51.5 -12.5zM224 3
l340 722l34 -13l-340 -724z" />
    <glyph glyph-name="uni215A" unicode="&#x215a;" horiz-adv-x="830" 
d="M638 -8q-40 0 -70 16t-50 45.5t-30 70t-10 88.5q0 46 9.5 85.5t29 68.5t49.5 45.5t71 16.5q56 0 92 -28.5t41 -84.5h-41q-5 40 -31 59t-61 19q-31 0 -52.5 -15.5t-35 -40.5t-20 -58t-6.5 -67q23 28 58.5 41.5t71.5 13.5q58 0 93.5 -32.5t35.5 -89.5q0 -72 -40 -112.5
t-104 -40.5zM639 27q48 0 74.5 30t26.5 82q0 45 -25 70.5t-76 25.5q-22 0 -40.5 -6t-33 -14t-25 -17.5t-16.5 -15.5q1 -31 8 -59t20.5 -49.5t35 -34t51.5 -12.5zM187 292q-69 0 -107.5 28.5t-42.5 92.5h45q5 -52 31.5 -69t74.5 -17q52 0 77.5 29t25.5 81q0 45 -22 72t-77 27
q-20 0 -35 -5t-26.5 -13t-19.5 -17l-13 -16l-41 3l15 234h240l-2 -37h-204l-12 -168q23 32 54 43t58 11q58 0 93.5 -32t35.5 -95q0 -77 -39 -114.5t-109 -37.5zM222 3l340 722l34 -13l-340 -724z" />
    <glyph glyph-name="oneeighth" unicode="&#x215b;" horiz-adv-x="830" 
d="M71 338h97v326h-2q-11 -23 -37.5 -39t-53.5 -18v41q35 7 61.5 28.5t39.5 46.5h35v-385h95v-38h-235v38zM625 -8q-29 0 -54.5 6t-45.5 18.5t-31.5 32.5t-11.5 49q0 16 6 33.5t19 34t33 30t49 22.5q-47 17 -74 44t-27 59q0 44 35 75.5t109 31.5q70 0 104.5 -30t34.5 -72
q0 -32 -23 -60t-80 -45q54 -19 83.5 -51t29.5 -67q0 -52 -42 -81.5t-114 -29.5zM629 25q52 0 80.5 21t28.5 55t-35 59.5t-83 40.5q-42 -13 -69.5 -40t-27.5 -60q0 -34 27 -55t79 -21zM635 240q43 14 70 35t27 48q0 29 -29 51t-73 22q-51 0 -75.5 -21.5t-24.5 -49.5
q0 -26 28.5 -47t76.5 -38zM224 3l340 722l34 -13l-340 -724z" />
    <glyph glyph-name="threeeighths" unicode="&#x215c;" horiz-adv-x="830" 
d="M623 -8q-29 0 -54.5 6t-45.5 18.5t-31.5 32.5t-11.5 49q0 16 6 33.5t19 34t33 30t49 22.5q-47 17 -74 44t-27 59q0 44 35 75.5t109 31.5q70 0 104.5 -30t34.5 -72q0 -32 -23 -60t-80 -45q54 -19 83.5 -51t29.5 -67q0 -52 -42 -81.5t-114 -29.5zM627 25q52 0 80.5 21
t28.5 55t-35 59.5t-83 40.5q-42 -13 -69.5 -40t-27.5 -60q0 -34 27 -55t79 -21zM633 240q43 14 70 35t27 48q0 29 -29 51t-73 22q-51 0 -75.5 -21.5t-24.5 -49.5q0 -26 28.5 -47t76.5 -38zM223 3l340 722l34 -13l-340 -724zM187 292q-73 0 -109 31.5t-39 90.5h44
q4 -45 27.5 -66t77.5 -21q52 0 76.5 27t24.5 65q0 42 -28 61t-69 19h-39v33h39q39 0 64 23t25 61q0 43 -29 61t-68 18q-50 0 -74 -22.5t-25 -70.5h-43q4 127 144 127q37 0 63.5 -8.5t43.5 -23.5t24.5 -34.5t7.5 -41.5q0 -38 -21 -66t-63 -36v-2q45 -5 70.5 -31.5t25.5 -64.5
q0 -32 -11 -56t-31 -40t-47.5 -24.5t-60.5 -8.5z" />
    <glyph glyph-name="fiveeighths" unicode="&#x215d;" horiz-adv-x="830" 
d="M623 -8q-29 0 -54.5 6t-45.5 18.5t-31.5 32.5t-11.5 49q0 16 6 33.5t19 34t33 30t49 22.5q-47 17 -74 44t-27 59q0 44 35 75.5t109 31.5q70 0 104.5 -30t34.5 -72q0 -32 -23 -60t-80 -45q54 -19 83.5 -51t29.5 -67q0 -52 -42 -81.5t-114 -29.5zM627 25q52 0 80.5 21
t28.5 55t-35 59.5t-83 40.5q-42 -13 -69.5 -40t-27.5 -60q0 -34 27 -55t79 -21zM633 240q43 14 70 35t27 48q0 29 -29 51t-73 22q-51 0 -75.5 -21.5t-24.5 -49.5q0 -26 28.5 -47t76.5 -38zM189 292q-69 0 -107.5 28.5t-42.5 92.5h45q5 -52 31.5 -69t74.5 -17q52 0 77.5 29
t25.5 81q0 45 -22 72t-77 27q-20 0 -35 -5t-26.5 -13t-18.5 -17l-14 -16l-41 3l15 234h240l-2 -37h-204l-12 -168q23 32 54 43t58 11q58 0 93.5 -32t35.5 -95q0 -77 -39 -114.5t-109 -37.5zM223 3l340 722l34 -13l-340 -724z" />
    <glyph glyph-name="seveneighths" unicode="&#x215e;" horiz-adv-x="830" 
d="M616 -8q-29 0 -54.5 6t-45.5 18.5t-31.5 32.5t-11.5 49q0 16 6 33.5t19 34t33 30t49 22.5q-47 17 -74 44t-27 59q0 44 35 75.5t109 31.5q70 0 104.5 -30t34.5 -72q0 -32 -23 -60t-80 -45q54 -19 83.5 -51t29.5 -67q0 -52 -42 -81.5t-114 -29.5zM620 25q52 0 80.5 21
t28.5 55t-35 59.5t-83 40.5q-42 -13 -69.5 -40t-27.5 -60q0 -34 27 -55t79 -21zM626 240q43 14 70 35t27 48q0 29 -29 51t-73 22q-51 0 -75.5 -21.5t-24.5 -49.5q0 -26 28.5 -47t76.5 -38zM152 300q2 52 13.5 105.5t31 104t47 94.5t60.5 79h-233v39h281v-31
q-30 -33 -57 -75.5t-48 -92t-33.5 -106t-14.5 -117.5h-47zM213 3l340 722l34 -13l-340 -724z" />
    <glyph glyph-name="uni2190" unicode="&#x2190;" horiz-adv-x="597" 
d="M60 349l180 189l33 -29l-136 -138h399v-43h-399l135 -138l-32 -29z" />
    <glyph glyph-name="uni2191" unicode="&#x2191;" horiz-adv-x="597" 
d="M278 506l-139 -135l-28 33l186 180l189 -180l-29 -33l-138 135v-399h-41v399z" />
    <glyph glyph-name="uni2192" unicode="&#x2192;" horiz-adv-x="597" 
d="M324 191l136 137h-399v42h399l-135 139l32 29l180 -188l-180 -189z" />
    <glyph glyph-name="uni2193" unicode="&#x2193;" horiz-adv-x="597" 
d="M111 287l29 34l138 -137v400h41v-399l140 136l28 -34l-188 -180z" />
    <glyph glyph-name="uni2196" unicode="&#x2196;" horiz-adv-x="597" 
d="M167 450l-2 -195l-43 4l5 260l260 5l3 -43l-194 -2l283 -282l-29 -30z" />
    <glyph glyph-name="uni2197" unicode="&#x2197;" horiz-adv-x="597" 
d="M122 197l282 282l-192 2l2 43l262 -5l3 -260l-43 -4l-3 195l-281 -283z" />
    <glyph glyph-name="uni2198" unicode="&#x2198;" horiz-adv-x="597" 
d="M212 211l192 1l-282 282l30 30l281 -283q0 8 0.5 36.5t1 61.5t1 61t0.5 36l43 -3q0 -4 -0.5 -23.5t-1 -47.5t-1 -59.5t-1 -59.5t-1 -47.5t-0.5 -23.5l-260 -5z" />
    <glyph glyph-name="uni2199" unicode="&#x2199;" horiz-adv-x="597" 
d="M126 172l-4 261l43 3q0 -2 0.5 -16.5t0.5 -35.5t0.5 -45t0.5 -45v-53l283 283l29 -30l-283 -282l194 -1l-3 -44z" />
    <glyph glyph-name="partialdiff" unicode="&#x2202;" horiz-adv-x="533" 
d="M271 -8q-114 0 -170 71.5t-56 199.5q0 60 14.5 113t46 90.5t81.5 55t121 8.5l-174 185h69l213 -228q38 -39 55 -95t17 -123q0 -136 -56 -206.5t-161 -70.5zM271 40q81 0 120.5 55t39.5 177q0 51 -9 92t-28.5 69.5t-50.5 44t-75 15.5q-47 0 -78.5 -17.5t-51 -48t-28 -72.5
t-8.5 -91q0 -115 42.5 -169.5t126.5 -54.5z" />
    <glyph glyph-name="Delta" unicode="&#x2206;" horiz-adv-x="621" 
d="M23 20l250 698h66l249 -698v-20h-565v20zM516 49l-211 605h-3l-211 -605h425z" />
    <glyph glyph-name="product" unicode="&#x220f;" horiz-adv-x="695" 
d="M132 666h-91v49h614v-49h-86v-772h-57v772h-324v-772h-56v772z" />
    <glyph glyph-name="summation" unicode="&#x2211;" horiz-adv-x="576" 
d="M37 -60l302 383l-303 348v44h497v-49h-420l288 -330v-28l-290 -364h424v-49h-498v45z" />
    <glyph glyph-name="minus" unicode="&#x2212;" horiz-adv-x="542" 
d="M45 350h452v-45h-452v45z" />
    <glyph glyph-name="radical" unicode="&#x221a;" horiz-adv-x="540" 
d="M25 433h59l132 -508h2l252 790h48l-285 -873h-47z" />
    <glyph glyph-name="infinity" unicode="&#x221e;" horiz-adv-x="807" 
d="M204 182q-39 0 -69 12.5t-51 34t-32 50t-11 60.5q0 34 12.5 63t34.5 50.5t52.5 33.5t65.5 12q30 0 57 -9t51.5 -24.5t47.5 -37t45 -46.5q19 19 41.5 38.5t47 35.5t51.5 26t55 10q75 0 119.5 -40t44.5 -105q0 -36 -12.5 -66.5t-35.5 -52.5t-54.5 -34.5t-69.5 -12.5
q-29 0 -55.5 10t-50.5 26.5t-45 38.5t-40 46q-21 -23 -44.5 -44.5t-49 -38t-52 -26.5t-53.5 -10zM201 231q24 0 47 9t44.5 24.5t42 35.5t40.5 42q-15 20 -33.5 39.5t-40 35t-45.5 25t-51 9.5q-24 0 -45 -8t-36 -22.5t-23.5 -33.5t-8.5 -40q0 -49 27 -82.5t82 -33.5zM595 228
q54 0 87.5 32t33.5 80q0 45 -29 75t-86 30q-20 0 -40.5 -9t-41.5 -24t-42 -34.5t-41 -40.5q16 -21 33.5 -41t37 -35t41 -24t47.5 -9z" />
    <glyph glyph-name="integral" unicode="&#x222b;" horiz-adv-x="342" 
d="M90 -165q-19 0 -32 1.5t-26 4.5l6 41l21 -3q13 -1 24 -1q42 0 60 33.5t18 113.5q0 9 -1 23l-2 31q-1 16 -3 30l-2 23l-42 297q-1 6 -2 17l-2 23l-2 25q-1 13 -1 23q0 100 38.5 153t106.5 53q17 0 27 -2l24 -3l-7 -44q-14 4 -24.5 4.5t-18.5 0.5q-48 0 -72.5 -43
t-24.5 -121q0 -8 1 -21l3 -25l3 -25q2 -12 3 -19l41 -297q1 -6 2 -19t2 -28l2 -29q1 -15 1 -25q0 -95 -28.5 -143.5t-92.5 -48.5z" />
    <glyph glyph-name="approxequal" unicode="&#x2248;" horiz-adv-x="546" 
d="M46 376q2 39 13 66t28 44t38 24.5t43 7.5q30 0 57.5 -14t53.5 -30.5t51 -30.5t49 -14q35 0 53.5 20.5t21.5 73.5l43 -4q-3 -38 -12.5 -64.5t-25 -42.5t-35.5 -23t-42 -7q-31 0 -59 14t-54 31.5t-51 31.5t-49 14q-32 0 -53.5 -22.5t-25.5 -79.5zM46 206q2 39 13 66t28 44
t38 24.5t43 7.5q30 0 57.5 -14t53.5 -30.5t51 -30.5t49 -14q35 0 53.5 20.5t21.5 73.5l43 -4q-3 -38 -12.5 -64.5t-25 -42.5t-35.5 -23t-42 -7q-31 0 -59 14t-54 31.5t-51 31.5t-49 14q-32 0 -53.5 -22.5t-25.5 -79.5z" />
    <glyph glyph-name="notequal" unicode="&#x2260;" horiz-adv-x="542" 
d="M45 437h255l45 106h42l-45 -106h155v-42h-173l-58 -136h231v-42h-249l-53 -126h-42l53 126h-161v42h179l58 136h-237v42z" />
    <glyph glyph-name="lessequal" unicode="&#x2264;" horiz-adv-x="542" 
d="M65 311v32l400 184l17 -38l-358 -161l355 -172l-19 -37zM45 45h452v-45h-452v45z" />
    <glyph glyph-name="greaterequal" unicode="&#x2265;" horiz-adv-x="542" 
d="M70 156l354 172l-358 161l17 38l399 -184v-32l-394 -192zM45 45h452v-45h-452v45z" />
    <glyph glyph-name="uni22A0" unicode="&#x22a0;" horiz-adv-x="780" 
d="M170 171l190 192l-190 189l34 34l189 -188l189 188l34 -34l-188 -189l188 -189l-34 -34l-189 188l-191 -189zM48 715h684v-715h-684v715zM85 37h611v641h-611v-641z" />
    <glyph glyph-name="uni25A0" unicode="&#x25a0;" horiz-adv-x="644" 
d="M54 708h537v-708h-537v708z" />
    <glyph glyph-name="uni25A1" unicode="&#x25a1;" horiz-adv-x="639" 
d="M48 715h543v-715h-543v715zM85 37h470v641h-470v-641z" />
    <glyph glyph-name="uni25AA" unicode="&#x25aa;" horiz-adv-x="522" 
d="M43 558h434v-558h-434v558z" />
    <glyph glyph-name="uni25AB" unicode="&#x25ab;" horiz-adv-x="523" 
d="M49 558h425v-558h-425v558zM86 36h352v486h-352v-486z" />
    <glyph glyph-name="lozenge" unicode="&#x25ca;" horiz-adv-x="502" 
d="M48 339v16l180 362h44l182 -362v-16l-182 -341h-43zM406 347l-157 310l-151 -309l154 -294z" />
    <glyph glyph-name="zero.dnom" horiz-adv-x="373" 
d="M186 -9q-39 0 -68 15.5t-48.5 44t-29 68t-9.5 86.5q0 104 41 163.5t113 59.5q81 0 119 -59.5t38 -161.5q0 -47 -10 -86.5t-30 -68t-49 -45t-67 -16.5zM187 30q54 0 82.5 45.5t28.5 134.5q0 86 -27.5 133.5t-84.5 47.5q-29 0 -50 -13.5t-34.5 -38t-20 -58t-6.5 -73.5
q0 -91 29.5 -134.5t82.5 -43.5z" />
    <glyph glyph-name="one.dnom" horiz-adv-x="373" 
d="M73 38h97v326h-2q-11 -23 -37.5 -39t-53.5 -18v41q35 7 61.5 28.5t39.5 46.5h35v-385h95v-38h-235v38z" />
    <glyph glyph-name="two.dnom" horiz-adv-x="373" 
d="M45 36l101 92q61 54 93.5 96t32.5 84q0 37 -22.5 62t-70.5 25q-47 0 -70 -23t-23 -58q0 -15 3 -30h-43q-2 8 -2 16v15q1 54 36 85t101 31q38 0 64 -10t42 -26.5t23 -38t7 -45.5q0 -57 -33.5 -103t-94.5 -96l-85 -74h225v-38h-284v36z" />
    <glyph glyph-name="three.dnom" horiz-adv-x="373" 
d="M186 -8q-73 0 -109 31.5t-39 90.5h44q4 -45 27.5 -66t77.5 -21q52 0 76.5 27t24.5 65q0 42 -28 61t-69 19h-39v33h39q39 0 64 23t25 61q0 43 -29 61t-68 18q-50 0 -74 -22.5t-25 -70.5h-43q4 127 144 127q37 0 63.5 -8.5t43.5 -23.5t24.5 -34.5t7.5 -41.5q0 -38 -21 -66
t-63 -36v-2q45 -5 70.5 -31.5t25.5 -64.5q0 -32 -11 -56t-31 -40t-47.5 -24.5t-60.5 -8.5z" />
    <glyph glyph-name="four.dnom" horiz-adv-x="373" 
d="M230 109h-197l1 35l188 283h49v-280h69v-38h-69v-109h-41v109zM230 147v226h-2l-11 -17l-27 -42l-37 -54l-37 -54l-28 -43l-11 -16h153z" />
    <glyph glyph-name="five.dnom" horiz-adv-x="373" 
d="M187 -8q-69 0 -107.5 28.5t-42.5 92.5h45q5 -52 31.5 -69t74.5 -17q52 0 77.5 29t25.5 81q0 45 -22 72t-77 27q-20 0 -35 -5t-26.5 -13t-19.5 -17l-13 -16l-41 3l15 234h240l-2 -37h-204l-12 -168q23 32 54 43t58 11q58 0 93.5 -32t35.5 -95q0 -77 -39 -114.5t-109 -37.5
z" />
    <glyph glyph-name="six.dnom" horiz-adv-x="373" 
d="M194 -8q-40 0 -70 16t-50 45.5t-30 70t-10 88.5q0 46 9.5 85.5t29 68.5t49.5 45.5t71 16.5q56 0 92 -28.5t41 -84.5h-41q-5 40 -31 59t-61 19q-31 0 -52.5 -15.5t-35 -40.5t-20 -58t-6.5 -67q23 28 58.5 41.5t71.5 13.5q58 0 93.5 -32.5t35.5 -89.5q0 -72 -40 -112.5
t-104 -40.5zM195 27q48 0 74.5 30t26.5 82q0 45 -25 70.5t-76 25.5q-22 0 -40.5 -6t-33 -14t-25 -17.5t-16.5 -15.5q1 -31 8 -59t20.5 -49.5t35 -34t51.5 -12.5z" />
    <glyph glyph-name="seven.dnom" horiz-adv-x="373" 
d="M127 0q2 52 13.5 105.5t31 104t47 94.5t60.5 79h-233v39h281v-31q-30 -33 -57 -75.5t-48 -92t-33.5 -106t-14.5 -117.5h-47z" />
    <glyph glyph-name="eight.dnom" horiz-adv-x="373" 
d="M180 -8q-29 0 -54.5 6t-45.5 18.5t-31.5 32.5t-11.5 49q0 16 6 33.5t19 34t33 30t49 22.5q-47 17 -74 44t-27 59q0 44 35 75.5t109 31.5q70 0 104.5 -30t34.5 -72q0 -32 -23 -60t-80 -45q54 -19 83.5 -51t29.5 -67q0 -52 -42 -81.5t-114 -29.5zM184 25q52 0 80.5 21
t28.5 55t-35 59.5t-83 40.5q-42 -13 -69.5 -40t-27.5 -60q0 -34 27 -55t79 -21zM190 240q43 14 70 35t27 48q0 29 -29 51t-73 22q-51 0 -75.5 -21.5t-24.5 -49.5q0 -26 28.5 -47t76.5 -38z" />
    <glyph glyph-name="nine.dnom" horiz-adv-x="373" 
d="M177 -8q-55 0 -94 28.5t-43 83.5h41q3 -21 12 -35.5t22.5 -24t29.5 -14t33 -4.5q31 0 53 15.5t35.5 41t19.5 58t6 66.5q-23 -27 -58 -40t-72 -13q-58 0 -92 34t-34 91q0 71 38 110t103 39q40 0 69.5 -16t49.5 -45.5t30 -70t10 -88.5q0 -46 -9 -85.5t-28.5 -68.5
t-49.5 -45.5t-72 -16.5zM176 186q22 0 40.5 5.5t33 13.5t25 17t16.5 16q-1 30 -8 58t-20.5 49.5t-35 34.5t-51.5 13q-48 0 -73 -29.5t-25 -82.5q0 -43 24.5 -69t73.5 -26z" />
    <glyph glyph-name="orn001" horiz-adv-x="1251" 
d="M825 631q115 -48 174.5 -131.5t59.5 -212.5q0 -107 -28.5 -184.5t-83.5 -127t-136.5 -73t-186.5 -23.5q-87 0 -166 23t-139.5 69.5t-96 116t-35.5 162.5q0 91 22.5 164t69 124.5t118 79t168.5 27.5q18 0 49.5 -1.5t61.5 -9.5t52 -24t22 -44q0 -8 -2.5 -16.5t-10 -15
t-21 -11t-36.5 -4.5l-213 -2q-69 0 -117 -37t-59 -116l30 -6q6 28 15.5 52t27 41t46 26.5t71.5 9.5h75l-8 -115q-54 0 -90.5 -4.5t-60.5 -20t-36.5 -44.5t-18.5 -78l31 -2q5 44 16.5 68t32 35.5t51 13.5t72.5 2l-10 -142q-2 -25 -8.5 -46.5t-19 -38t-30 -26t-40.5 -9.5
q-20 0 -44 7t-43 23l-19 -30q13 -12 30 -18.5t32.5 -10t28 -4t17.5 -0.5q26 0 49 9t41 28.5t29 50t14 72.5l9 135h184v-1q-22 -11 -32 -34t-16 -72l-3 -24h-94l-5 -30h96l-15 -174l-76 -2l-2 -29h191l1 29h-80l17 176h168l5 30h-170l3 28q2 19 5 37t11 32.5t23 23.5t40 10
l36 1q37 1 57.5 12t20.5 43q0 15 -11.5 34.5t-43.5 32.5l-15 -29q15 -6 25 -18t10 -19q0 -14 -13 -20.5t-48 -6.5h-266l8 115h79q34 0 56.5 7t35 18t17.5 25.5t5 29.5q0 37 -24 58.5t-58.5 32.5t-73 14t-67.5 3q-199 0 -305 -105.5t-106 -322.5q0 -97 36.5 -172t99.5 -126
t148.5 -77.5t183.5 -26.5q115 0 204.5 25.5t150 79.5t92 138t31.5 201q0 142 -69 234.5t-191 139.5zM56 269q0 104 32 195.5t100.5 159t176 106.5t258.5 39q147 0 255 -39.5t178.5 -108t104.5 -160t34 -195.5q0 -112 -34.5 -204.5t-105 -159t-178.5 -103t-254 -36.5
q-142 0 -248 36t-177 102.5t-106.5 160t-35.5 207.5z" />
    <glyph glyph-name="gravecomb.case" 
d="M-217 896l64 7l94 -144h-48z" />
    <glyph glyph-name="uni0302.case" 
d="M-170 909h52l106 -150h-52l-80 113l-83 -113h-53z" />
    <glyph glyph-name="acutecomb.case" 
d="M-124 903l64 -7l-110 -137h-48z" />
    <glyph glyph-name="tildecomb.case" 
d="M-342 774q4 37 24.5 62.5t56.5 25.5q19 0 38.5 -6.5t38.5 -13.5l37 -14q18 -7 34 -7q22 0 31.5 13t15.5 35l38 -6q-6 -39 -26.5 -63t-55.5 -24q-20 0 -40.5 6.5t-40 14.5t-37 14.5t-31.5 6.5q-11 0 -18.5 -4.5t-13 -12t-8.5 -16.5t-5 -17z" />
    <glyph glyph-name="uni0308.case" 
d="M-283 883h49v-95h-49v95zM-99 883h49v-95h-49v95z" />
    <glyph glyph-name="uni0307.case" 
d="M-88 884h49v-96h-49v96z" />
    <glyph glyph-name="uni0304.case" 
d="M-319 837h284v-48h-284v48z" />
    <glyph glyph-name="uni0306.case" 
d="M-160 760q-26 0 -49 7t-40.5 22t-28.5 38.5t-12 56.5h45q4 -38 24.5 -62t61.5 -24q36 0 57 23t24 63h44q-1 -33 -12.5 -56.5t-29 -38.5t-39.5 -22t-45 -7z" />
    <glyph glyph-name="uni030A.case" 
d="M-140 749q-23 0 -40 7t-27.5 18.5t-15.5 26t-5 29.5q0 34 23 59.5t63 25.5q46 0 68.5 -23t22.5 -58t-24.5 -60t-64.5 -25zM-140 776q23 0 39.5 14t16.5 42q0 27 -15.5 42.5t-42.5 15.5q-25 0 -39 -16.5t-14 -42.5q0 -29 16.5 -42t38.5 -13z" />
    <glyph glyph-name="uni030B.case" 
d="M-196 904l59 -6l-92 -139h-48zM-74 904l58 -6l-92 -139h-48z" />
    <glyph glyph-name="uni030C.case" 
d="M-280 909h52l80 -112l82 112h54l-110 -150h-52z" />
    <glyph glyph-name="zero.numr" horiz-adv-x="373" 
d="M186 291q-39 0 -68 15.5t-48.5 44t-29 68t-9.5 86.5q0 104 41 163.5t113 59.5q81 0 119 -59.5t38 -161.5q0 -47 -10 -86.5t-30 -68t-49 -45t-67 -16.5zM187 330q54 0 82.5 45.5t28.5 134.5q0 86 -27.5 133.5t-84.5 47.5q-29 0 -50 -13.5t-34.5 -38t-20 -58t-6.5 -73.5
q0 -91 29.5 -134.5t82.5 -43.5z" />
    <glyph glyph-name="one.numr" horiz-adv-x="373" 
d="M73 338h97v326h-2q-11 -23 -37.5 -39t-53.5 -18v41q35 7 61.5 28.5t39.5 46.5h35v-385h95v-38h-235v38z" />
    <glyph glyph-name="two.numr" horiz-adv-x="373" 
d="M45 336l101 92q61 54 93.5 96t32.5 84q0 37 -22.5 62t-70.5 25q-47 0 -70 -23t-23 -58q0 -15 3 -30h-43q-2 8 -2 16v15q1 54 36 85t101 31q38 0 64 -10t42 -26.5t23 -38t7 -45.5q0 -57 -33.5 -103t-94.5 -96l-85 -74h225v-38h-284v36z" />
    <glyph glyph-name="three.numr" horiz-adv-x="373" 
d="M186 292q-73 0 -109 31.5t-39 90.5h44q4 -45 27.5 -66t77.5 -21q52 0 76.5 27t24.5 65q0 42 -28 61t-69 19h-39v33h39q39 0 64 23t25 61q0 43 -29 61t-68 18q-50 0 -74 -22.5t-25 -70.5h-43q4 127 144 127q37 0 63.5 -8.5t43.5 -23.5t24.5 -34.5t7.5 -41.5q0 -38 -21 -66
t-63 -36v-2q45 -5 70.5 -31.5t25.5 -64.5q0 -32 -11 -56t-31 -40t-47.5 -24.5t-60.5 -8.5z" />
    <glyph glyph-name="four.numr" horiz-adv-x="373" 
d="M230 409h-197l1 35l188 283h49v-280h69v-38h-69v-109h-41v109zM230 447v226h-2l-11 -17l-27 -42l-37 -54l-37 -54l-28 -43l-11 -16h153z" />
    <glyph glyph-name="five.numr" horiz-adv-x="373" 
d="M187 292q-69 0 -107.5 28.5t-42.5 92.5h45q5 -52 31.5 -69t74.5 -17q52 0 77.5 29t25.5 81q0 45 -22 72t-77 27q-20 0 -35 -5t-26.5 -13t-19.5 -17l-13 -16l-41 3l15 234h240l-2 -37h-204l-12 -168q23 32 54 43t58 11q58 0 93.5 -32t35.5 -95q0 -77 -39 -114.5
t-109 -37.5z" />
    <glyph glyph-name="six.numr" horiz-adv-x="373" 
d="M194 292q-40 0 -70 16t-50 45.5t-30 70t-10 88.5q0 46 9.5 85.5t29 68.5t49.5 45.5t71 16.5q56 0 92 -28.5t41 -84.5h-41q-5 40 -31 59t-61 19q-31 0 -52.5 -15.5t-35 -40.5t-20 -58t-6.5 -67q23 28 58.5 41.5t71.5 13.5q58 0 93.5 -32.5t35.5 -89.5q0 -72 -40 -112.5
t-104 -40.5zM195 327q48 0 74.5 30t26.5 82q0 45 -25 70.5t-76 25.5q-22 0 -40.5 -6t-33 -14t-25 -17.5t-16.5 -15.5q1 -31 8 -59t20.5 -49.5t35 -34t51.5 -12.5z" />
    <glyph glyph-name="seven.numr" horiz-adv-x="373" 
d="M127 300q2 52 13.5 105.5t31 104t47 94.5t60.5 79h-233v39h281v-31q-30 -33 -57 -75.5t-48 -92t-33.5 -106t-14.5 -117.5h-47z" />
    <glyph glyph-name="eight.numr" horiz-adv-x="373" 
d="M180 292q-29 0 -54.5 6t-45.5 18.5t-31.5 32.5t-11.5 49q0 16 6 33.5t19 34t33 30t49 22.5q-47 17 -74 44t-27 59q0 44 35 75.5t109 31.5q70 0 104.5 -30t34.5 -72q0 -32 -23 -60t-80 -45q54 -19 83.5 -51t29.5 -67q0 -52 -42 -81.5t-114 -29.5zM184 325q52 0 80.5 21
t28.5 55t-35 59.5t-83 40.5q-42 -13 -69.5 -40t-27.5 -60q0 -34 27 -55t79 -21zM190 540q43 14 70 35t27 48q0 29 -29 51t-73 22q-51 0 -75.5 -21.5t-24.5 -49.5q0 -26 28.5 -47t76.5 -38z" />
    <glyph glyph-name="nine.numr" horiz-adv-x="373" 
d="M177 292q-55 0 -94 28.5t-43 83.5h41q3 -21 12 -35.5t22.5 -24t29.5 -14t33 -4.5q31 0 53 15.5t35.5 41t19.5 58t6 66.5q-23 -27 -58 -40t-72 -13q-58 0 -92 34t-34 91q0 71 38 110t103 39q40 0 69.5 -16t49.5 -45.5t30 -70t10 -88.5q0 -46 -9 -85.5t-28.5 -68.5
t-49.5 -45.5t-72 -16.5zM176 486q22 0 40.5 5.5t33 13.5t25 17t16.5 16q-1 30 -8 58t-20.5 49.5t-35 34.5t-51.5 13q-48 0 -73 -29.5t-25 -82.5q0 -43 24.5 -69t73.5 -26z" />
    </font>
</defs>
</svg>
