<?xml version="1.0" encoding="utf-8"?>
<!-- Generator: Adobe Illustrator 20.1.0, SVG Export Plug-In . SVG Version: 6.00 Build 0)  -->
<svg version="1.1" id="Layer_1" xmlns="http://www.w3.org/2000/svg" xmlns:xlink="http://www.w3.org/1999/xlink" x="0px" y="0px"
	 viewBox="0 0 31.5 31.5" style="enable-background:new 0 0 31.5 31.5;" xml:space="preserve">
<g>
	<path class="st0" d="M13.8,11v2.4h-2.8v3.3h2.8v8.4h3.4v-8.4H20l0.4-3.3h-3.2v-2.1c0-1,0.3-1.6,1.6-1.6h1.7V6.7
		c-0.3,0-1.3-0.1-2.5-0.1C15.5,6.6,13.8,8.1,13.8,11z"/>
	<path class="st0" d="M15.7,0C7,0,0,7,0,15.7c0,8.7,7,15.7,15.7,15.7c8.7,0,15.7-7,15.7-15.7C31.5,7,24.4,0,15.7,0z M15.7,29.9
		c-7.8,0-14.2-6.3-14.2-14.2c0-7.8,6.3-14.2,14.2-14.2c7.8,0,14.2,6.3,14.2,14.2C29.9,23.5,23.5,29.9,15.7,29.9z"/>
</g>
</svg>
