<svg id="Layer_1" data-name="Layer 1" xmlns="http://www.w3.org/2000/svg" viewBox="0 0 31.45 31.45"><defs><style>.cls-1{fill:#231f20;}</style></defs><title>SocialIcons-05</title><path class="cls-1" d="M15.73,0A15.73,15.73,0,1,0,31.45,15.73,15.73,15.73,0,0,0,15.73,0Zm0,1.57A14.13,14.13,0,0,1,27.1,24.12q0-6.45,0-12.89c0-2-1-3-3-3L7.57,8.2a2.64,2.64,0,0,0-3,2.93q0,6.63,0,13.26A14.14,14.14,0,0,1,15.73,1.57Zm.41,12.11c-.26-1-.71-1.38-1.61-.8-.66.43-.74,1.26-1,1.6l-.1-.06c0-1.65,0-3.15,0-4.91h3.35l2.47,0c1.86,0,3.68,0,5.5,0a1.11,1.11,0,0,1,1.07,1.18c0,1.42,0,2.86,0,4.3H16.94a1,1,0,0,0,.31-.53C17.31,14,16.23,14.08,16.13,13.69Zm-5.1.78,0,0c-.36-.28-.23-1-1.09-1.67s-.78.41-1.22.93c-.2.23-.46.13-1.06.49a.46.46,0,0,0-.16.72H5.82v-.24c0-1.28,0-2.55,0-3.83A1.23,1.23,0,0,1,7.09,9.52H11C11,11.29,11,12.8,11,14.46Zm-3.36,3h.82L6.65,19.28l1.58.18.34,1.74,2.4-3c0,2.71,0,7.08,0,10.86A14.15,14.15,0,0,1,5.8,25.81q0-2.8,0-5.6V17.43Zm8.06,12.44a14.18,14.18,0,0,1-2.31-.2c0-3.83,0-8.44,0-11.4l2.46,2.93.22-1.75,1.71-.18L16,17.48h1l8.85,0v3.23q0,2.42,0,4.84A14.1,14.1,0,0,1,15.73,29.88Z"/><path class="cls-1" d="M22.33,22.37c-.73-.26-1-.43-1-.64s.16-.37.67-.37a3.1,3.1,0,0,1,1.31.3l.28-1.16a3.61,3.61,0,0,0-1.31-.28v-.73h-1v.8a1.68,1.68,0,0,0-1.54,1.62c0,.88.67,1.32,1.61,1.62.65.2.9.36.9.64s-.3.4-.75.4A3.52,3.52,0,0,1,20,24.18l-.29,1.21a4,4,0,0,0,1.54.36v.81h1v-.89A1.72,1.72,0,0,0,23.83,24C23.83,23.22,23.43,22.72,22.33,22.37Z"/></svg>