<?xml version="1.0" encoding="UTF-8" standalone="no"?>
<svg
   xmlns="http://www.w3.org/2000/svg"
   xmlns:xlink="http://www.w3.org/1999/xlink"
   xml:space="preserve"
   enable-background="new 0 0 34.016 34.016"
   viewBox="0 0 34.016 34.016"
   y="0px"
   x="0px"
   id="instagram"
   version="1.1">
   <path fill="#222222" stroke-width="0.14062646" id="path4565"
        d="m 17.124162,10.430697 c -1.833207,0 -2.063272,0.008 -2.783279,0.0408 -0.718601,0.0329 -1.209107,0.14667 -1.638299,0.3136 -0.443957,0.17241 -0.820555,0.40303 -1.195746,0.77837 -0.375473,0.37519 -0.6061,0.75178 -0.779071,1.1956 -0.167345,0.42933 -0.281253,0.91998 -0.313597,1.6383 -0.0322,0.72001 -0.04064,0.95021 -0.04064,2.78342 0,1.83321 0.0082,2.06257 0.04078,2.78258 0.03305,0.7186 0.146814,1.2091 0.313597,1.63829 0.172549,0.44396 0.403176,0.82056 0.778508,1.19575 0.375051,0.37547 0.751649,0.60666 1.195325,0.77907 0.429473,0.16693 0.920119,0.28069 1.63858,0.3136 0.720007,0.0328 0.949931,0.0408 2.782997,0.0408 1.833348,0 2.062709,-0.008 2.782717,-0.0408 0.7186,-0.0329 1.209669,-0.14667 1.639142,-0.3136 0.443817,-0.17241 0.819853,-0.4036 1.194903,-0.77907 0.375472,-0.37519 0.606099,-0.75179 0.779071,-1.19561 0.165938,-0.42933 0.279845,-0.91997 0.313596,-1.63829 0.03234,-0.72001 0.04078,-0.94951 0.04078,-2.78272 0,-1.83321 -0.0084,-2.06327 -0.04078,-2.78328 -0.03375,-0.7186 -0.147658,-1.20911 -0.313596,-1.6383 -0.172972,-0.44396 -0.403599,-0.82055 -0.779071,-1.19574 -0.375473,-0.37548 -0.750946,-0.6061 -1.195325,-0.77837 -0.430318,-0.16693 -0.921104,-0.28069 -1.639705,-0.3136 -0.720007,-0.0328 -0.949228,-0.0408 -2.782997,-0.0408 z m -0.605538,1.21642 c 0.179721,-2.8e-4 0.380254,0 0.605538,0 1.802268,0 2.01588,0.006 2.727591,0.0388 0.658131,0.0301 1.015323,0.14006 1.253263,0.23246 0.315003,0.12234 0.539583,0.26859 0.775695,0.50485 0.236253,0.23625 0.382505,0.46125 0.50513,0.77625 0.09239,0.23766 0.202503,0.59485 0.232457,1.25299 0.03234,0.71157 0.03937,0.92532 0.03937,2.72674 0,1.80143 -0.007,2.01518 -0.03937,2.72675 -0.03009,0.65813 -0.140065,1.01532 -0.232457,1.25298 -0.122345,0.315 -0.268877,0.5393 -0.50513,0.77542 -0.236252,0.23625 -0.460551,0.3825 -0.775695,0.50484 -0.237659,0.0928 -0.595132,0.20251 -1.253263,0.2326 -0.711571,0.0323 -0.925323,0.0394 -2.727591,0.0394 -1.80241,0 -2.016021,-0.007 -2.727591,-0.0394 -0.658132,-0.0304 -1.015323,-0.14034 -1.253404,-0.23274 -0.315003,-0.12234 -0.540005,-0.26859 -0.776258,-0.50485 -0.236252,-0.23625 -0.382504,-0.46069 -0.50513,-0.77583 -0.09239,-0.23766 -0.202502,-0.59485 -0.232456,-1.25298 -0.03234,-0.71157 -0.03881,-0.92533 -0.03881,-2.72788 0,-1.80255 0.0065,-2.01517 0.03881,-2.72674 0.03009,-0.65813 0.140064,-1.01533 0.232456,-1.25327 0.122345,-0.315 0.268878,-0.54 0.50513,-0.77625 0.236253,-0.23626 0.461255,-0.38251 0.776258,-0.50513 0.23794,-0.0928 0.595272,-0.20251 1.253404,-0.23274 0.622694,-0.0281 0.864009,-0.0366 2.122053,-0.038 z m 4.208669,1.12079 c -0.447192,0 -0.810009,0.3624 -0.810009,0.80973 0,0.44719 0.362817,0.81001 0.810009,0.81001 0.447193,0 0.810009,-0.36282 0.810009,-0.81001 0,-0.44719 -0.362816,-0.81001 -0.810009,-0.81001 z m -3.603131,0.94642 c -1.914348,0 -3.466443,1.55209 -3.466443,3.46644 0,1.91435 1.552095,3.46574 3.466443,3.46574 1.914348,0 3.465879,-1.55139 3.465879,-3.46574 0,-1.91435 -1.551672,-3.46644 -3.46602,-3.46644 z m 0,1.21642 c 1.242575,0 2.250023,1.0073 2.250023,2.25002 0,1.24257 -1.007448,2.25002 -2.250023,2.25002 -1.242716,0 -2.250024,-1.00745 -2.250024,-2.25002 0,-1.24272 1.007308,-2.25002 2.250024,-2.25002 z" 
   />
 </svg>