<?xml version="1.0" encoding="utf-8"?>
<!-- Generator: Adobe Illustrator 20.1.0, SVG Export Plug-In . SVG Version: 6.00 Build 0)  -->
<svg version="1.1" id="Layer_1" xmlns="http://www.w3.org/2000/svg" xmlns:xlink="http://www.w3.org/1999/xlink" x="0px" y="0px"
	 viewBox="0 0 337.397 138.788" enable-background="new 0 0 337.397 138.788" xml:space="preserve">
<path fill="#222222" d="M333.925,132.97h-5.063l2.551-6.349L333.925,132.97z M337,138.173l-5.565-13.802l-5.645,13.802h0.984
	l1.768-4.401h5.706l1.787,4.401H337z M292.781,124.774h-0.863v13.4h0.863V124.774z M258.909,138.173v-0.804h-3.395v-12.596h-0.863
	v13.4H258.909z M218.567,132.97h-5.063l2.551-6.349L218.567,132.97z M221.64,138.173l-5.565-13.802l-5.645,13.802h0.984l1.768-4.401
	h5.706l1.789,4.401H221.64z M176.858,128.309c0,1.747-1.104,2.732-3.054,2.732h-1.285v-5.465h1.104c0.884,0,1.527,0.141,2.049,0.402
	C176.397,126.36,176.858,127.264,176.858,128.309 M178.285,138.173l-4.38-6.328c0.884-0.04,1.106-0.081,1.627-0.241
	c1.347-0.383,2.21-1.667,2.21-3.276c0-1.244-0.482-2.25-1.345-2.872c-0.704-0.483-1.466-0.683-2.834-0.683h-1.908v13.4h0.865v-6.328
	h0.401l4.3,6.328H178.285z M138.626,125.576v-0.803h-7.795v0.803h3.456v12.597h0.863v-12.597H138.626z M98.566,134.457
	c0-1.085-0.482-1.95-1.426-2.572c-0.622-0.402-0.863-0.543-2.671-1.407c-1.849-0.882-2.371-1.446-2.371-2.531
	c0-1.447,1.085-2.531,2.511-2.531c1.146,0,1.868,0.442,2.631,1.626l0.643-0.542c-0.683-1.205-1.868-1.908-3.255-1.908
	c-1.988,0-3.435,1.407-3.435,3.335c0,0.483,0.081,0.905,0.241,1.246c0.362,0.764,0.925,1.226,2.411,1.948l1.146,0.563
	c0.582,0.281,1.024,0.522,1.347,0.704c0.863,0.501,1.326,1.225,1.326,2.069c0,1.707-1.487,3.134-3.276,3.134
	c-0.984,0-1.928-0.442-2.491-1.145c-0.281-0.362-0.381-0.542-0.723-1.286l-0.764,0.362c0.322,0.744,0.463,1.024,0.844,1.466
	c0.764,0.905,1.889,1.406,3.115,1.406C96.678,138.394,98.566,136.626,98.566,134.457 M56.597,133.391v-8.618h-0.863v8.377
	c0,1.688-0.101,2.27-0.482,2.893c-0.563,0.884-1.91,1.548-3.194,1.548c-1.286,0-2.633-0.643-3.215-1.548
	c-0.381-0.601-0.482-1.205-0.482-2.893v-8.377h-0.865v8.618c0,1.808,0.121,2.35,0.704,3.194c0.764,1.106,2.291,1.808,3.858,1.808
	c1.546,0,2.993-0.683,3.857-1.808C56.477,135.823,56.597,135.22,56.597,133.391 M11.415,132.97H6.352l2.551-6.349L11.415,132.97z
	 M14.488,138.173l-5.565-13.802l-5.645,13.802h0.984l1.768-4.401h5.706l1.789,4.401H14.488z"/>
<path fill="#222222" d="M46.494,82.832v30.043H1v-1.001h8.012V2.001H1V1.001h44.636V30.9h-1.001c0-26.037-10.015-28.04-22.461-28.04
	v47.639v4.293c11.731,0,12.875-8.584,12.875-20.601h1.002v41.774h-1.002c0-12.016-1.144-20.171-12.875-20.171v6.724v44.777v3.721
	c12.446,0,23.32-2.718,23.32-28.183H46.494z"/>
<path fill="#222222" d="M120.025,111.873c12.446,0,23.32-3.576,23.32-29.042h1.001v30.044H98.851v-1.002h8.012V2.002h-8.012V1
	h29.185v1.002h-8.012v42.202V111.873z"/>
<path fill="#222222" d="M216.16,111.873c12.446,0,23.318-3.576,23.318-29.042h1.002v30.044h-45.494v-1.002h8.012V2.002h-8.012V1
	h29.185v1.002h-8.012v42.202V111.873z"/>
<path fill="#222222" d="M336.615,82.832v30.043h-45.494v-1.001h8.012V2.001h-8.012V1.001h44.636V30.9h-1.001
	c0-26.037-10.015-28.04-22.461-28.04v47.639v4.293c11.731,0,12.875-8.584,12.875-20.601h1.002v41.774h-1.002
	c0-12.016-1.144-20.171-12.875-20.171v6.724v44.777v3.721c12.446,0,23.318-2.718,23.318-28.183H336.615z"/>
</svg>
