<?xml version="1.0" encoding="utf-8"?>
<!-- Generator: Adobe Illustrator 20.1.0, SVG Export Plug-In . SVG Version: 6.00 Build 0)  -->
<svg version="1.1" id="Layer_1" xmlns="http://www.w3.org/2000/svg" xmlns:xlink="http://www.w3.org/1999/xlink" x="0px" y="0px"
	 viewBox="0 0 210.333 88.333" enable-background="new 0 0 210.333 88.333" xml:space="preserve">
<path fill="none" stroke="#000000" stroke-miterlimit="10" d="M74.464,42.134h1.518v-5.298h4.265V35.54h-4.265v-3.553h5.991V30.69
	h-7.508V42.134z"/>
<path fill="#CCCCCB" d="M29.641,52.234v18.367H1.613V69.99h4.936V2.817H1.613V2.205h27.499v18.28h-0.616
	c0-15.918-6.17-17.143-13.838-17.143v29.125v2.624c7.227,0,7.932-5.248,7.932-12.595h0.617v25.539H22.59
	c0-7.346-0.705-12.333-7.932-12.333v4.111V67.19v2.275c7.668,0,14.367-1.662,14.367-17.23H29.641z"/>
<path fill="#CCCCCB" d="M74.942,69.989c7.668,0,14.367-2.186,14.367-17.756h0.617v18.368H61.897v-0.613h4.936V2.817h-4.936V2.204
	h17.98v0.613h-4.936v25.801V69.989z"/>
<path fill="#CCCCCB" d="M134.168,69.989c7.668,0,14.366-2.186,14.366-17.756h0.617v18.368h-28.028v-0.613h4.936V2.817h-4.936V2.204
	h17.981v0.613h-4.936v25.801V69.989z"/>
<path fill="#CCCCCB" d="M208.378,52.234v18.367H180.35V69.99h4.936V2.817h-4.936V2.205h27.499v18.28h-0.616
	c0-15.918-6.17-17.143-13.838-17.143v29.125v2.624c7.227,0,7.932-5.248,7.932-12.595h0.617v25.539h-0.617
	c0-7.346-0.705-12.333-7.932-12.333v4.111V67.19v2.275c7.668,0,14.366-1.662,14.366-17.23H208.378z"/>
<path fill="#222222" d="M52.615,27.202h106v19h-106V27.202z"/>
<path fill="none" stroke="#000000" stroke-miterlimit="10" d="M87.576,42.279c3.323,0,4.872-2.385,4.872-5.906
	c0-3.729-1.805-5.826-4.904-5.826c-3.019,0-4.872,1.985-4.872,5.89C82.671,40.006,84.077,42.279,87.576,42.279z M87.608,40.982
	c-1.821,0-3.355-1.089-3.355-4.674c0-2.977,1.214-4.45,3.243-4.45c1.837,0,3.371,1.152,3.371,4.45
	C90.867,39.926,89.333,40.982,87.608,40.982z"/>
<path fill="none" stroke="#000000" stroke-miterlimit="10" d="M94.377,42.134h7.556v-1.296h-6.039V30.69h-1.518V42.134z"/>
<path fill="none" stroke="#000000" stroke-miterlimit="10" d="M103.686,42.134h7.556v-1.296h-6.039V30.69h-1.518V42.134z"/>
<path fill="none" stroke="#000000" stroke-miterlimit="10" d="M116.878,42.279c3.323,0,4.872-2.385,4.872-5.906
	c0-3.729-1.805-5.826-4.904-5.826c-3.019,0-4.872,1.985-4.872,5.89C111.974,40.006,113.38,42.279,116.878,42.279z M116.91,40.982
	c-1.821,0-3.355-1.089-3.355-4.674c0-2.977,1.214-4.45,3.243-4.45c1.837,0,3.371,1.152,3.371,4.45
	C120.169,39.926,118.636,40.982,116.91,40.982z"/>
<path fill="none" stroke="#000000" stroke-miterlimit="10" d="M125.437,42.167h1.566l2.46-9.46h0.032l2.428,9.46h1.566l3.003-11.477
	h-1.422l-2.285,9.22h-0.064l-2.364-9.22h-1.63l-2.412,9.236h-0.064l-2.268-9.236h-1.502L125.437,42.167z"/>
<path fill="#FFFFFF" d="M74.464,42.134h1.518v-5.298h4.265V35.54h-4.265v-3.553h5.991V30.69h-7.508V42.134z"/>
<path fill="#FFFFFF" d="M87.576,42.279c3.323,0,4.872-2.385,4.872-5.906c0-3.729-1.805-5.826-4.904-5.826
	c-3.019,0-4.872,1.985-4.872,5.89C82.671,40.006,84.077,42.279,87.576,42.279z M87.608,40.982c-1.821,0-3.355-1.089-3.355-4.674
	c0-2.977,1.214-4.45,3.243-4.45c1.837,0,3.371,1.152,3.371,4.45C90.867,39.926,89.333,40.982,87.608,40.982z"/>
<path fill="#FFFFFF" d="M94.377,42.134h7.556v-1.296h-6.039V30.69h-1.518V42.134z"/>
<path fill="#FFFFFF" d="M103.686,42.134h7.556v-1.296h-6.039V30.69h-1.518V42.134z"/>
<path fill="#FFFFFF" d="M116.878,42.279c3.323,0,4.872-2.385,4.872-5.906c0-3.729-1.805-5.826-4.904-5.826
	c-3.019,0-4.872,1.985-4.872,5.89C111.974,40.006,113.38,42.279,116.878,42.279z M116.91,40.982c-1.821,0-3.355-1.089-3.355-4.674
	c0-2.977,1.214-4.45,3.243-4.45c1.837,0,3.371,1.152,3.371,4.45C120.169,39.926,118.636,40.982,116.91,40.982z"/>
<path fill="#FFFFFF" d="M125.437,42.167h1.566l2.46-9.46h0.032l2.428,9.46h1.566l3.003-11.477h-1.422l-2.285,9.22h-0.064
	l-2.364-9.22h-1.63l-2.412,9.236h-0.064l-2.268-9.236h-1.502L125.437,42.167z"/>
</svg>
